<svg id="svg" version="1.1" xmlns="http://www.w3.org/2000/svg" xmlns:xlink="http://www.w3.org/1999/xlink" width="400" height="400" viewBox="0, 0, 400,400"><g id="svgg"><path id="path0" d="M128.129 0.623 C 127.289 1.052,126.510 1.984,125.829 3.376 L 124.800 5.480 124.800 20.353 C 124.800 36.312,124.872 36.947,126.913 39.120 C 130.157 42.574,137.732 42.011,140.400 38.118 L 141.400 36.660 141.518 21.339 C 141.646 4.666,141.548 3.685,139.542 1.537 L 138.294 0.202 133.847 0.088 C 130.365 -0.001,129.124 0.115,128.129 0.623 M38.609 38.609 L 36.400 40.817 36.400 44.533 C 36.400 47.696,36.519 48.377,37.200 49.108 C 37.640 49.580,38.000 50.077,38.000 50.212 C 38.000 51.104,57.676 70.000,58.605 70.000 C 58.932 70.000,59.200 70.180,59.200 70.400 C 59.200 71.901,66.780 70.477,68.629 68.629 C 70.477 66.780,71.901 59.200,70.400 59.200 C 70.180 59.200,70.000 58.932,70.000 58.605 C 70.000 57.623,51.259 38.050,50.283 38.012 C 50.109 38.006,49.580 37.640,49.108 37.200 C 48.377 36.519,47.696 36.400,44.533 36.400 L 40.817 36.400 38.609 38.609 M218.000 36.800 C 218.000 37.020,217.804 37.200,217.564 37.200 C 216.890 37.200,196.400 57.917,196.400 58.598 C 196.400 58.929,196.220 59.200,196.000 59.200 C 195.769 59.200,195.600 60.467,195.600 62.200 C 195.600 63.933,195.769 65.200,196.000 65.200 C 196.220 65.200,196.400 65.472,196.400 65.805 C 196.400 68.408,200.076 70.800,204.075 70.800 C 206.492 70.800,208.790 70.167,208.797 69.500 C 208.799 69.335,209.065 69.200,209.390 69.200 C 210.077 69.200,228.400 50.924,228.400 50.238 C 228.400 49.984,228.760 49.517,229.200 49.200 C 229.757 48.798,230.000 48.165,230.000 47.112 C 230.000 46.280,230.180 45.600,230.400 45.600 C 230.620 45.600,230.800 45.150,230.800 44.600 C 230.800 44.050,230.620 43.600,230.400 43.600 C 230.180 43.600,230.000 42.920,230.000 42.088 C 230.000 41.035,229.757 40.402,229.200 40.000 C 228.760 39.683,228.400 39.103,228.400 38.712 C 228.400 38.296,228.104 38.000,227.688 38.000 C 227.297 38.000,226.717 37.640,226.400 37.200 C 225.761 36.314,218.000 35.944,218.000 36.800 M126.400 59.183 C 125.850 59.369,124.286 59.538,122.924 59.560 C 121.562 59.582,120.336 59.780,120.200 60.000 C 120.064 60.220,119.164 60.400,118.200 60.400 C 117.236 60.400,116.336 60.580,116.200 60.800 C 116.064 61.020,115.344 61.200,114.600 61.200 C 113.856 61.200,113.136 61.380,113.000 61.600 C 112.864 61.820,112.324 62.000,111.800 62.000 C 111.276 62.000,110.736 62.180,110.600 62.400 C 110.464 62.620,109.913 62.800,109.376 62.800 C 108.839 62.800,108.400 62.980,108.400 63.200 C 108.400 63.420,107.860 63.600,107.200 63.600 C 106.540 63.600,106.000 63.780,106.000 64.000 C 106.000 64.220,105.728 64.400,105.395 64.400 C 105.062 64.400,104.432 64.580,103.995 64.800 C 103.558 65.020,102.842 65.380,102.405 65.600 C 101.968 65.820,101.338 66.000,101.005 66.000 C 100.672 66.000,100.400 66.180,100.400 66.400 C 100.400 66.620,100.040 66.800,99.600 66.800 C 99.160 66.800,98.800 66.980,98.800 67.200 C 98.800 67.420,98.522 67.600,98.183 67.600 C 97.844 67.600,97.180 67.960,96.708 68.400 C 96.236 68.840,95.613 69.200,95.325 69.200 C 95.036 69.200,94.800 69.380,94.800 69.600 C 94.800 69.820,94.564 70.000,94.275 70.000 C 93.987 70.000,93.364 70.360,92.892 70.800 C 92.420 71.240,91.886 71.600,91.705 71.600 C 91.524 71.600,91.117 71.960,90.800 72.400 C 90.483 72.840,89.969 73.200,89.659 73.200 C 89.348 73.200,88.803 73.532,88.447 73.937 C 88.091 74.343,87.380 74.897,86.866 75.170 C 84.498 76.424,76.424 84.498,75.170 86.866 C 74.897 87.380,74.343 88.091,73.937 88.447 C 73.532 88.803,73.200 89.348,73.200 89.659 C 73.200 89.969,72.840 90.483,72.400 90.800 C 71.960 91.117,71.600 91.524,71.600 91.705 C 71.600 91.886,71.240 92.420,70.800 92.892 C 70.360 93.364,70.000 93.987,70.000 94.275 C 70.000 94.564,69.820 94.800,69.600 94.800 C 69.380 94.800,69.200 95.036,69.200 95.325 C 69.200 95.613,68.840 96.236,68.400 96.708 C 67.960 97.180,67.600 97.844,67.600 98.183 C 67.600 98.522,67.420 98.800,67.200 98.800 C 66.980 98.800,66.800 99.160,66.800 99.600 C 66.800 100.040,66.620 100.400,66.400 100.400 C 66.180 100.400,66.000 100.672,66.000 101.005 C 66.000 101.593,65.833 102.018,64.862 103.895 C 64.608 104.387,64.400 105.062,64.400 105.395 C 64.400 105.728,64.220 106.000,64.000 106.000 C 63.780 106.000,63.600 106.540,63.600 107.200 C 63.600 107.860,63.420 108.400,63.200 108.400 C 62.980 108.400,62.800 108.839,62.800 109.376 C 62.800 109.913,62.620 110.464,62.400 110.600 C 62.180 110.736,62.000 111.276,62.000 111.800 C 62.000 112.324,61.820 112.864,61.600 113.000 C 61.380 113.136,61.200 113.856,61.200 114.600 C 61.200 115.344,61.020 116.064,60.800 116.200 C 60.580 116.336,60.400 117.236,60.400 118.200 C 60.400 119.164,60.243 120.050,60.052 120.168 C 58.785 120.951,58.785 145.449,60.052 146.232 C 60.243 146.350,60.400 147.236,60.400 148.200 C 60.400 149.164,60.580 150.064,60.800 150.200 C 61.020 150.336,61.200 151.056,61.200 151.800 C 61.200 152.544,61.380 153.264,61.600 153.400 C 61.820 153.536,62.000 153.999,62.000 154.429 C 62.000 154.859,62.168 155.523,62.373 155.905 C 62.579 156.287,62.978 157.455,63.261 158.500 C 63.543 159.545,63.915 160.400,64.087 160.400 C 64.259 160.400,64.400 160.839,64.400 161.376 C 64.400 161.913,64.580 162.464,64.800 162.600 C 65.020 162.736,65.200 163.197,65.200 163.624 C 65.200 164.051,65.380 164.400,65.600 164.400 C 65.820 164.400,66.000 164.760,66.000 165.200 C 66.000 165.640,66.180 166.000,66.400 166.000 C 66.620 166.000,66.800 166.360,66.800 166.800 C 66.800 167.240,66.980 167.600,67.200 167.600 C 67.420 167.600,67.600 167.960,67.600 168.400 C 67.600 168.840,67.780 169.200,68.000 169.200 C 68.220 169.200,68.400 169.470,68.400 169.800 C 68.400 170.130,68.580 170.400,68.800 170.400 C 69.652 170.400,69.121 171.329,67.200 173.200 C 66.100 174.271,65.200 175.274,65.200 175.427 C 65.200 175.581,64.876 175.997,64.481 176.353 C 64.086 176.709,63.325 177.630,62.792 178.400 C 62.258 179.170,61.502 180.149,61.111 180.575 C 60.720 181.002,60.400 181.587,60.400 181.875 C 60.400 182.164,60.253 182.400,60.074 182.400 C 59.699 182.400,58.400 184.981,58.400 185.725 C 58.400 185.999,58.040 186.483,57.600 186.800 C 57.160 187.117,56.800 187.697,56.800 188.088 C 56.800 188.480,56.620 188.800,56.400 188.800 C 56.180 188.800,56.000 189.160,56.000 189.600 C 56.000 190.040,55.820 190.400,55.600 190.400 C 55.380 190.400,55.200 190.850,55.200 191.400 C 55.200 191.950,55.020 192.400,54.800 192.400 C 54.580 192.400,54.400 192.760,54.400 193.200 C 54.400 193.640,54.220 194.000,54.000 194.000 C 53.780 194.000,53.600 194.349,53.600 194.776 C 53.600 195.203,53.420 195.664,53.200 195.800 C 52.980 195.936,52.800 196.487,52.800 197.024 C 52.800 197.561,52.620 198.000,52.400 198.000 C 52.180 198.000,52.000 198.540,52.000 199.200 C 52.000 199.860,51.820 200.400,51.600 200.400 C 51.380 200.400,51.200 201.120,51.200 202.000 C 51.200 202.880,51.020 203.600,50.800 203.600 C 50.580 203.600,50.400 204.320,50.400 205.200 C 50.400 206.080,50.220 206.800,50.000 206.800 C 49.780 206.800,49.600 207.700,49.600 208.800 C 49.600 209.900,49.420 210.800,49.200 210.800 C 48.959 210.800,48.800 212.459,48.800 214.976 C 48.800 217.329,48.625 219.261,48.400 219.400 C 47.879 219.722,47.879 225.078,48.400 225.400 C 48.625 225.539,48.800 227.471,48.800 229.824 C 48.800 232.341,48.959 234.000,49.200 234.000 C 49.420 234.000,49.600 234.900,49.600 236.000 C 49.600 237.100,49.780 238.000,50.000 238.000 C 50.220 238.000,50.400 238.810,50.400 239.800 C 50.400 240.790,50.580 241.600,50.800 241.600 C 51.020 241.600,51.200 242.140,51.200 242.800 C 51.200 243.460,51.380 244.000,51.600 244.000 C 51.820 244.000,52.000 244.540,52.000 245.200 C 52.000 245.860,52.180 246.400,52.400 246.400 C 52.620 246.400,52.800 246.940,52.800 247.600 C 52.800 248.260,52.980 248.800,53.200 248.800 C 53.420 248.800,53.600 249.149,53.600 249.576 C 53.600 250.003,53.780 250.464,54.000 250.600 C 54.220 250.736,54.400 251.287,54.400 251.824 C 54.400 252.361,54.580 252.800,54.800 252.800 C 55.020 252.800,55.200 253.160,55.200 253.600 C 55.200 254.040,55.380 254.400,55.600 254.400 C 55.820 254.400,56.000 254.760,56.000 255.200 C 56.000 255.640,56.136 256.000,56.302 256.000 C 56.469 256.000,56.859 256.585,57.170 257.300 C 57.481 258.015,57.849 258.690,57.988 258.800 C 58.127 258.910,58.752 259.990,59.376 261.200 C 60.000 262.410,60.846 263.691,61.255 264.047 C 61.665 264.403,62.000 264.916,62.000 265.186 C 62.000 265.457,62.540 266.183,63.200 266.800 C 63.860 267.417,64.400 268.126,64.400 268.378 C 64.400 268.786,65.912 270.320,73.092 277.196 C 74.243 278.298,75.296 279.200,75.432 279.200 C 75.568 279.200,76.183 279.740,76.800 280.400 C 77.417 281.060,78.120 281.600,78.364 281.600 C 78.608 281.600,79.372 282.140,80.063 282.800 C 80.754 283.460,81.562 284.000,81.859 284.000 C 82.157 284.000,82.400 284.180,82.400 284.400 C 82.400 284.620,82.678 284.800,83.017 284.800 C 83.356 284.800,84.020 285.160,84.492 285.600 C 84.964 286.040,85.587 286.400,85.875 286.400 C 86.164 286.400,86.400 286.580,86.400 286.800 C 86.400 287.020,86.760 287.200,87.200 287.200 C 87.640 287.200,88.000 287.380,88.000 287.600 C 88.000 287.820,88.360 288.000,88.800 288.000 C 89.240 288.000,89.600 288.180,89.600 288.400 C 89.600 288.620,89.836 288.800,90.125 288.800 C 90.414 288.800,91.359 289.140,92.225 289.555 C 94.507 290.650,97.477 291.600,98.614 291.600 C 99.156 291.600,99.600 291.780,99.600 292.000 C 99.600 292.220,100.140 292.400,100.800 292.400 C 101.460 292.400,102.000 292.580,102.000 292.800 C 102.000 293.020,102.709 293.200,103.576 293.200 C 104.443 293.200,105.264 293.380,105.400 293.600 C 105.536 293.820,106.526 294.000,107.600 294.000 C 108.674 294.000,109.664 294.180,109.800 294.400 C 109.939 294.625,111.871 294.800,114.224 294.800 C 119.603 294.800,119.610 294.745,113.408 301.092 C 106.795 307.859,106.826 307.829,102.100 312.388 C 99.845 314.564,98.000 316.627,98.000 316.972 C 98.000 317.318,97.820 317.600,97.600 317.600 C 97.380 317.600,97.200 317.960,97.200 318.400 C 97.200 318.840,97.020 319.200,96.800 319.200 C 96.574 319.200,96.400 320.333,96.400 321.800 C 96.400 323.267,96.574 324.400,96.800 324.400 C 97.020 324.400,97.200 324.760,97.200 325.200 C 97.200 325.640,97.380 326.000,97.600 326.000 C 97.820 326.000,98.000 326.294,98.000 326.653 C 98.000 327.384,99.925 329.199,100.700 329.200 C 100.975 329.200,101.200 329.380,101.200 329.600 C 101.200 329.839,102.733 330.000,105.000 330.000 C 107.267 330.000,108.800 329.839,108.800 329.600 C 108.800 329.380,109.074 329.200,109.408 329.200 C 110.076 329.200,111.780 327.628,119.703 319.702 C 129.839 309.562,130.834 308.569,136.102 303.333 C 139.016 300.436,141.850 297.516,142.400 296.845 L 143.400 295.624 171.871 295.612 L 200.342 295.600 190.171 305.763 C 184.577 311.353,180.000 316.040,180.000 316.180 C 180.000 316.319,179.640 316.820,179.200 317.292 C 178.244 318.318,178.034 324.175,178.900 325.680 C 179.709 327.086,181.923 329.200,182.587 329.200 C 182.924 329.200,183.200 329.380,183.200 329.600 C 183.200 329.837,184.667 330.000,186.800 330.000 C 188.933 330.000,190.400 329.837,190.400 329.600 C 190.400 329.380,190.595 329.200,190.834 329.200 C 191.437 329.200,193.664 327.054,210.447 310.300 L 225.173 295.600 253.387 295.600 C 268.904 295.600,281.600 295.684,281.600 295.788 C 281.600 295.891,280.115 297.525,278.300 299.418 C 275.157 302.698,273.212 304.638,264.583 313.100 C 260.458 317.146,259.600 318.639,259.600 321.774 C 259.600 324.919,262.011 329.200,263.782 329.200 C 264.122 329.200,264.400 329.380,264.400 329.600 C 264.400 329.840,266.000 330.000,268.400 330.000 C 270.800 330.000,272.400 329.840,272.400 329.600 C 272.400 329.380,272.585 329.200,272.811 329.200 C 273.311 329.200,277.276 325.433,285.440 317.200 C 288.822 313.790,292.087 310.498,292.695 309.885 C 293.303 309.272,296.822 305.807,300.515 302.185 L 307.229 295.600 319.015 295.600 C 326.605 295.600,330.800 295.458,330.800 295.200 C 330.800 294.959,332.459 294.800,334.976 294.800 C 337.329 294.800,339.261 294.625,339.400 294.400 C 339.536 294.180,340.447 294.000,341.424 294.000 C 342.401 294.000,343.200 293.820,343.200 293.600 C 343.200 293.380,343.999 293.200,344.976 293.200 C 345.953 293.200,346.864 293.020,347.000 292.800 C 347.136 292.580,347.777 292.400,348.424 292.400 C 349.071 292.400,349.600 292.244,349.600 292.054 C 349.600 291.864,350.402 291.599,351.383 291.464 C 352.949 291.250,355.540 290.307,357.695 289.167 C 358.077 288.965,358.662 288.800,358.995 288.800 C 359.328 288.800,359.600 288.620,359.600 288.400 C 359.600 288.180,359.960 288.000,360.400 288.000 C 360.840 288.000,361.200 287.820,361.200 287.600 C 361.200 287.380,361.478 287.200,361.817 287.200 C 362.156 287.200,362.820 286.840,363.292 286.400 C 363.764 285.960,364.387 285.600,364.675 285.600 C 364.964 285.600,365.200 285.420,365.200 285.200 C 365.200 284.980,365.560 284.800,366.000 284.800 C 366.440 284.800,366.800 284.650,366.800 284.468 C 366.800 284.285,367.295 283.881,367.900 283.570 C 368.505 283.260,369.291 282.689,369.647 282.303 C 370.003 281.916,370.516 281.600,370.786 281.600 C 371.057 281.600,371.783 281.060,372.400 280.400 C 373.017 279.740,373.632 279.200,373.768 279.200 C 374.282 279.200,384.800 268.874,384.800 268.369 C 384.800 268.162,385.340 267.428,386.000 266.737 C 386.660 266.046,387.200 265.278,387.200 265.029 C 387.200 264.780,387.560 264.317,388.000 264.000 C 388.440 263.683,388.800 263.186,388.800 262.895 C 388.800 262.604,389.160 261.980,389.600 261.508 C 390.040 261.036,390.400 260.413,390.400 260.125 C 390.400 259.836,390.560 259.600,390.757 259.600 C 390.953 259.600,391.237 259.107,391.388 258.504 C 391.540 257.901,391.784 257.316,391.932 257.204 C 392.391 256.855,394.000 253.554,394.000 252.962 C 394.000 252.653,394.180 252.400,394.400 252.400 C 394.620 252.400,394.800 251.950,394.800 251.400 C 394.800 250.850,394.980 250.400,395.200 250.400 C 395.420 250.400,395.600 250.040,395.600 249.600 C 395.600 249.160,395.780 248.800,396.000 248.800 C 396.220 248.800,396.400 248.260,396.400 247.600 C 396.400 246.940,396.580 246.400,396.800 246.400 C 397.020 246.400,397.200 245.860,397.200 245.200 C 397.200 244.540,397.380 244.000,397.600 244.000 C 397.820 244.000,398.000 243.381,398.000 242.624 C 398.000 241.867,398.180 241.136,398.400 241.000 C 398.620 240.864,398.800 240.148,398.800 239.410 C 398.800 238.671,399.025 237.992,399.300 237.900 C 399.688 237.771,399.800 234.311,399.800 222.400 C 399.800 210.489,399.688 207.030,399.300 206.900 C 399.013 206.805,398.800 206.064,398.800 205.167 C 398.800 204.305,398.620 203.600,398.400 203.600 C 398.180 203.600,398.000 203.071,398.000 202.424 C 398.000 201.777,397.820 201.136,397.600 201.000 C 397.380 200.864,397.200 200.234,397.200 199.600 C 397.200 198.966,397.020 198.336,396.800 198.200 C 396.580 198.064,396.400 197.603,396.400 197.176 C 396.400 196.749,396.220 196.400,396.000 196.400 C 395.780 196.400,395.600 195.860,395.600 195.200 C 395.600 194.540,395.420 194.000,395.200 194.000 C 394.980 194.000,394.800 193.640,394.800 193.200 C 394.800 192.760,394.620 192.400,394.400 192.400 C 394.180 192.400,394.000 192.130,394.000 191.800 C 394.000 191.470,393.820 191.200,393.600 191.200 C 393.380 191.200,393.200 190.928,393.200 190.595 C 393.200 190.002,392.434 188.396,391.962 188.000 C 391.830 187.890,391.593 187.271,391.435 186.624 C 391.276 185.978,390.799 184.960,390.373 184.363 C 389.948 183.765,389.600 183.079,389.600 182.838 C 389.600 182.597,389.432 182.400,389.227 182.400 C 389.022 182.400,388.738 182.034,388.596 181.587 C 388.454 181.140,387.902 180.338,387.369 179.805 C 386.836 179.272,386.400 178.692,386.400 178.516 C 386.400 178.340,385.680 177.431,384.800 176.497 C 383.920 175.563,383.200 174.706,383.200 174.594 C 383.200 174.327,375.673 166.800,375.406 166.800 C 375.294 166.800,374.437 166.080,373.503 165.200 C 372.569 164.320,371.644 163.600,371.449 163.600 C 371.254 163.600,370.801 163.285,370.443 162.900 C 370.084 162.515,369.388 161.975,368.896 161.700 C 368.403 161.425,367.595 160.975,367.100 160.700 C 366.605 160.425,366.110 160.090,366.000 159.956 C 365.624 159.497,363.241 158.400,362.620 158.400 C 362.279 158.400,362.000 158.220,362.000 158.000 C 362.000 157.780,361.640 157.600,361.200 157.600 C 360.760 157.600,360.400 157.420,360.400 157.200 C 360.400 156.980,360.040 156.800,359.600 156.800 C 359.160 156.800,358.799 156.665,358.797 156.500 C 358.793 156.141,356.856 155.200,356.120 155.200 C 355.834 155.200,355.600 155.020,355.600 154.800 C 355.600 154.580,355.150 154.400,354.600 154.400 C 354.050 154.400,353.600 154.220,353.600 154.000 C 353.600 153.780,353.060 153.600,352.400 153.600 C 351.740 153.600,351.200 153.420,351.200 153.200 C 351.200 152.980,350.660 152.800,350.000 152.800 C 349.340 152.800,348.800 152.620,348.800 152.400 C 348.800 152.180,348.080 152.000,347.200 152.000 C 346.320 152.000,345.600 151.820,345.600 151.600 C 345.600 151.380,344.880 151.200,344.000 151.200 C 343.120 151.200,342.400 151.020,342.400 150.800 C 342.400 150.578,341.333 150.400,340.000 150.400 C 338.667 150.400,337.600 150.222,337.600 150.000 C 337.600 149.454,318.137 149.454,317.800 150.000 C 317.664 150.220,316.584 150.400,315.400 150.400 C 314.216 150.400,313.136 150.580,313.000 150.800 C 312.864 151.020,312.144 151.200,311.400 151.200 C 310.656 151.200,309.936 151.380,309.800 151.600 C 309.237 152.511,308.863 151.860,308.595 149.500 C 308.439 148.125,308.174 146.820,308.006 146.600 C 307.838 146.380,307.594 145.660,307.465 145.000 C 307.335 144.340,307.112 143.215,306.969 142.500 C 306.826 141.785,306.550 141.200,306.355 141.200 C 306.160 141.200,306.000 140.660,306.000 140.000 C 306.000 139.340,305.820 138.800,305.600 138.800 C 305.380 138.800,305.200 138.510,305.200 138.156 C 305.200 137.350,301.848 134.000,301.042 134.000 C 300.715 134.000,300.336 133.820,300.200 133.600 C 299.692 132.779,294.800 133.112,294.800 133.967 C 294.800 134.413,294.212 135.098,293.396 135.602 C 290.332 137.496,289.215 141.570,290.655 145.600 C 292.211 149.955,293.360 155.167,293.961 160.600 C 294.974 169.763,298.838 172.693,306.132 169.832 C 313.834 166.809,320.033 165.600,327.822 165.600 C 366.304 165.600,393.995 203.888,381.801 240.238 C 376.637 255.631,363.937 269.325,349.700 274.851 C 349.205 275.043,348.350 275.380,347.800 275.600 C 345.350 276.580,344.905 276.734,343.300 277.154 C 340.218 277.962,338.630 278.321,336.176 278.763 C 332.749 279.381,116.451 279.381,113.024 278.763 C 109.782 278.179,104.846 276.963,103.400 276.393 C 102.960 276.220,101.520 275.664,100.200 275.158 C 96.325 273.673,91.722 271.138,87.929 268.400 C 85.068 266.335,78.283 259.767,76.566 257.400 C 75.927 256.520,75.307 255.710,75.188 255.600 C 73.383 253.937,68.326 243.678,67.004 239.000 C 63.528 226.697,63.727 216.328,67.674 204.001 C 69.202 199.230,71.896 193.887,74.732 190.000 C 75.455 189.010,76.441 187.660,76.923 187.000 C 80.807 181.686,89.146 174.983,96.347 171.389 C 101.576 168.778,106.209 167.350,113.767 166.017 C 121.239 164.700,131.687 165.858,140.994 169.036 C 149.247 171.854,153.094 169.878,154.012 162.350 C 154.646 157.151,155.567 152.216,156.392 149.600 C 156.565 149.050,156.939 147.790,157.223 146.800 C 157.507 145.810,157.888 144.829,158.070 144.620 C 158.251 144.411,158.400 144.011,158.400 143.730 C 158.400 143.450,158.946 142.001,159.613 140.510 C 164.456 129.691,170.869 121.343,180.485 113.336 C 187.676 107.349,199.939 101.590,209.600 99.663 C 210.810 99.421,212.779 99.012,213.977 98.754 C 216.751 98.154,231.042 98.159,234.225 98.761 C 239.096 99.681,241.072 100.122,243.784 100.893 C 248.913 102.350,252.901 101.286,254.596 98.008 C 254.923 97.375,255.553 96.742,255.996 96.601 C 256.881 96.320,257.224 91.909,256.400 91.400 C 256.180 91.264,256.000 90.889,256.000 90.566 C 256.000 89.553,252.527 86.400,251.411 86.400 C 250.855 86.400,250.400 86.220,250.400 86.000 C 250.400 85.780,249.860 85.600,249.200 85.600 C 248.540 85.600,248.000 85.420,248.000 85.200 C 248.000 84.980,247.280 84.800,246.400 84.800 C 245.520 84.800,244.800 84.620,244.800 84.400 C 244.800 84.180,244.080 84.000,243.200 84.000 C 242.320 84.000,241.600 83.820,241.600 83.600 C 241.600 83.380,240.621 83.200,239.424 83.200 C 238.227 83.200,237.136 83.020,237.000 82.800 C 236.861 82.575,234.929 82.400,232.576 82.400 C 230.059 82.400,228.400 82.241,228.400 82.000 C 228.400 81.760,226.808 81.600,224.424 81.600 C 222.204 81.600,220.338 81.777,220.200 82.000 C 220.061 82.225,218.137 82.400,215.800 82.400 C 213.463 82.400,211.539 82.575,211.400 82.800 C 211.264 83.020,210.173 83.200,208.976 83.200 C 207.779 83.200,206.800 83.380,206.800 83.600 C 206.800 83.820,206.080 84.000,205.200 84.000 C 204.320 84.000,203.600 84.180,203.600 84.400 C 203.600 84.620,202.880 84.800,202.000 84.800 C 201.120 84.800,200.400 84.980,200.400 85.200 C 200.400 85.420,199.860 85.600,199.200 85.600 C 198.540 85.600,198.000 85.780,198.000 86.000 C 198.000 86.220,197.460 86.400,196.800 86.400 C 196.140 86.400,195.600 86.580,195.600 86.800 C 195.600 87.020,195.060 87.200,194.400 87.200 C 193.740 87.200,193.200 87.380,193.200 87.600 C 193.200 88.563,191.666 87.925,191.184 86.761 C 190.564 85.265,181.719 76.289,179.976 75.388 C 179.295 75.035,178.185 74.219,177.509 73.574 C 176.834 72.928,176.078 72.400,175.829 72.400 C 175.580 72.400,175.117 72.040,174.800 71.600 C 174.483 71.160,173.993 70.800,173.712 70.800 C 173.430 70.800,173.200 70.620,173.200 70.400 C 173.200 70.180,172.922 70.000,172.583 70.000 C 172.244 70.000,171.580 69.640,171.108 69.200 C 170.636 68.760,170.013 68.400,169.725 68.400 C 169.436 68.400,169.200 68.220,169.200 68.000 C 169.200 67.780,168.840 67.600,168.400 67.600 C 167.960 67.600,167.600 67.420,167.600 67.200 C 167.600 66.980,167.240 66.800,166.800 66.800 C 166.360 66.800,166.000 66.620,166.000 66.400 C 166.000 66.180,165.640 66.000,165.200 66.000 C 164.760 66.000,164.400 65.820,164.400 65.600 C 164.400 65.380,164.051 65.200,163.624 65.200 C 163.197 65.200,162.736 65.020,162.600 64.800 C 162.464 64.580,161.913 64.400,161.376 64.400 C 160.839 64.400,160.400 64.264,160.400 64.097 C 160.400 63.766,157.576 62.800,156.606 62.800 C 156.273 62.800,156.000 62.620,156.000 62.400 C 156.000 62.180,155.471 62.000,154.824 62.000 C 154.177 62.000,153.536 61.820,153.400 61.600 C 153.264 61.380,152.544 61.200,151.800 61.200 C 151.056 61.200,150.336 61.020,150.200 60.800 C 150.064 60.580,149.189 60.400,148.256 60.400 C 147.323 60.400,146.389 60.235,146.180 60.032 C 145.413 59.291,128.265 58.555,126.400 59.183 M139.600 75.616 C 141.470 75.813,143.900 76.170,145.000 76.409 C 146.100 76.649,147.587 76.944,148.304 77.066 C 149.021 77.188,149.706 77.449,149.827 77.644 C 149.948 77.840,150.399 78.000,150.829 78.000 C 151.259 78.000,151.923 78.166,152.305 78.368 C 152.687 78.570,154.080 79.147,155.400 79.649 C 158.375 80.780,162.066 82.703,165.458 84.889 C 169.491 87.487,177.600 95.056,177.600 96.221 C 177.600 96.518,175.852 98.057,173.717 99.641 C 158.130 111.204,147.016 127.177,142.016 145.200 C 141.741 146.190,141.355 147.413,141.158 147.919 C 140.961 148.424,140.800 149.329,140.800 149.930 C 140.800 151.971,139.872 152.748,137.913 152.346 C 136.971 152.153,135.300 151.814,134.200 151.593 C 124.786 149.699,111.863 150.345,101.800 153.210 C 100.920 153.461,99.703 153.762,99.095 153.879 C 98.487 153.996,97.892 154.251,97.771 154.446 C 97.651 154.641,97.291 154.800,96.972 154.800 C 96.084 154.800,89.826 157.709,84.934 160.397 C 82.881 161.525,82.398 161.357,81.327 159.146 C 79.709 155.805,78.800 153.605,78.800 153.028 C 78.800 152.709,78.620 152.336,78.400 152.200 C 78.180 152.064,78.000 151.524,78.000 151.000 C 78.000 150.476,77.840 149.948,77.644 149.827 C 77.449 149.706,77.188 149.021,77.066 148.304 C 76.944 147.587,76.650 146.100,76.412 145.000 C 74.680 136.989,75.003 126.488,77.235 118.200 C 77.472 117.320,77.762 116.103,77.879 115.495 C 77.996 114.887,78.251 114.292,78.446 114.171 C 78.641 114.051,78.800 113.666,78.800 113.316 C 78.800 110.262,86.756 97.850,92.260 92.318 C 97.693 86.856,110.242 78.800,113.316 78.800 C 113.666 78.800,114.051 78.641,114.171 78.446 C 114.292 78.251,114.887 78.002,115.495 77.891 C 116.103 77.780,117.590 77.424,118.800 77.099 C 125.349 75.339,132.288 74.844,139.600 75.616 M277.000 104.000 C 276.864 104.220,276.215 104.400,275.558 104.400 C 274.254 104.400,272.219 106.078,272.513 106.911 C 272.608 107.180,272.307 107.940,271.843 108.600 C 268.173 113.825,274.305 121.665,280.313 119.428 C 281.241 119.083,282.753 118.520,283.673 118.177 C 285.629 117.448,286.370 116.615,286.387 115.124 C 286.394 114.532,286.580 113.936,286.800 113.800 C 287.020 113.664,287.200 113.034,287.200 112.400 C 287.200 111.766,287.020 111.136,286.800 111.000 C 286.580 110.864,286.400 110.223,286.400 109.576 C 286.400 108.929,286.220 108.400,286.000 108.400 C 285.780 108.400,285.600 108.122,285.600 107.782 C 285.600 106.982,283.818 105.200,283.018 105.200 C 282.678 105.200,282.400 105.020,282.400 104.800 C 282.400 104.580,281.860 104.400,281.200 104.400 C 280.540 104.400,280.000 104.220,280.000 104.000 C 280.000 103.780,279.381 103.600,278.624 103.600 C 277.867 103.600,277.136 103.780,277.000 104.000 M3.328 125.842 C 0.356 127.322,-0.125 128.525,0.062 134.001 C 0.322 141.598,0.548 141.678,21.339 141.518 L 36.660 141.400 38.118 140.400 C 42.011 137.732,42.574 130.157,39.120 126.913 C 36.946 124.870,36.317 124.800,20.313 124.805 L 5.400 124.810 3.328 125.842 M134.000 349.200 C 134.000 349.420,133.724 349.600,133.386 349.600 C 133.048 349.600,130.973 351.445,128.773 353.700 C 126.574 355.955,124.618 357.953,124.428 358.141 C 124.071 358.491,108.915 373.645,108.200 374.366 C 107.980 374.588,104.875 377.652,101.300 381.176 C 97.725 384.699,94.800 387.856,94.800 388.191 C 94.800 388.526,94.620 388.800,94.400 388.800 C 94.165 388.800,94.000 390.200,94.000 392.200 C 94.000 394.200,94.165 395.600,94.400 395.600 C 94.620 395.600,94.800 395.876,94.800 396.213 C 94.800 396.551,95.469 397.496,96.287 398.313 L 97.773 399.800 102.217 399.941 C 105.890 400.057,106.772 399.971,107.302 399.441 C 107.654 399.088,108.055 398.800,108.193 398.800 C 108.702 398.800,143.833 363.359,144.373 362.300 C 144.682 361.695,145.085 361.200,145.268 361.200 C 145.450 361.200,145.600 359.490,145.600 357.400 C 145.600 355.133,145.439 353.600,145.200 353.600 C 144.980 353.600,144.800 353.324,144.800 352.987 C 144.800 352.323,142.686 350.109,141.280 349.300 C 140.235 348.699,134.000 348.613,134.000 349.200 M215.200 349.200 C 215.200 349.420,214.935 349.600,214.611 349.600 C 214.286 349.600,212.801 350.874,211.311 352.431 C 209.820 353.988,207.637 356.193,206.460 357.331 C 205.283 358.469,201.551 362.190,198.168 365.600 C 189.978 373.855,189.129 374.701,182.500 381.212 C 179.365 384.291,176.800 387.078,176.800 387.405 C 176.800 387.732,176.649 388.000,176.464 388.000 C 175.191 388.000,175.111 395.305,176.371 396.400 C 176.498 396.510,176.852 397.087,177.159 397.682 C 178.629 400.538,187.986 401.100,190.259 398.470 C 190.887 397.743,192.706 395.856,194.302 394.275 C 195.898 392.694,199.814 388.790,203.004 385.600 C 206.194 382.410,209.862 378.743,211.153 377.451 C 212.445 376.159,216.089 372.533,219.251 369.393 C 225.868 362.820,226.787 361.737,226.795 360.500 C 226.798 360.005,226.980 359.600,227.200 359.600 C 227.426 359.600,227.600 358.467,227.600 357.000 C 227.600 355.533,227.426 354.400,227.200 354.400 C 226.980 354.400,226.800 354.040,226.800 353.600 C 226.800 353.160,226.620 352.800,226.400 352.800 C 226.180 352.800,226.000 352.517,226.000 352.171 C 226.000 351.453,225.066 350.400,224.429 350.400 C 224.193 350.400,223.999 350.265,223.997 350.100 C 223.995 349.935,223.509 349.575,222.917 349.300 C 221.629 348.702,215.200 348.618,215.200 349.200 M297.200 349.200 C 297.200 349.420,296.933 349.600,296.607 349.600 C 295.728 349.600,258.800 385.984,258.800 386.850 C 258.800 387.011,258.519 387.423,258.177 387.766 C 257.698 388.245,257.556 389.272,257.564 392.198 C 257.575 396.211,257.585 396.240,259.907 398.646 L 261.215 400.000 265.698 400.000 L 270.182 400.000 289.377 380.806 L 308.571 361.612 308.716 357.706 C 308.878 353.332,307.901 350.954,305.505 349.894 C 304.897 349.625,304.400 349.269,304.400 349.102 C 304.400 348.936,302.780 348.800,300.800 348.800 C 298.667 348.800,297.200 348.963,297.200 349.200 " stroke="none" fill="#040404" fill-rule="evenodd"></path><path id="path1" d="M256.175 97.069 C 255.749 97.519,254.882 98.562,254.249 99.386 C 251.904 102.439,248.740 103.024,243.183 101.430 C 234.249 98.867,224.055 98.138,214.981 99.412 C 206.985 100.534,201.266 102.196,195.244 105.147 C 193.838 105.836,192.443 106.400,192.144 106.400 C 191.845 106.400,191.600 106.580,191.600 106.800 C 191.600 107.020,191.417 107.200,191.193 107.200 C 190.969 107.200,189.586 107.929,188.120 108.819 C 177.085 115.523,167.079 126.479,161.651 137.800 C 160.913 139.340,159.969 141.292,159.554 142.138 C 159.139 142.984,158.800 144.008,158.800 144.414 C 158.800 144.820,158.620 145.264,158.400 145.400 C 158.180 145.536,158.000 146.076,158.000 146.600 C 158.000 147.124,157.841 147.651,157.646 147.771 C 157.451 147.892,157.190 148.487,157.064 149.095 C 156.939 149.703,156.639 151.100,156.400 152.200 C 155.566 156.023,155.203 158.215,154.977 160.800 C 154.281 168.740,149.415 173.040,143.719 170.750 C 137.384 168.204,133.567 167.260,127.017 166.624 C 108.990 164.872,90.745 171.841,79.713 184.693 C 78.661 185.919,77.609 187.119,77.376 187.361 C 76.587 188.179,72.800 193.961,72.800 194.349 C 72.800 194.560,72.656 194.793,72.480 194.867 C 71.606 195.231,67.580 205.331,66.766 209.200 C 64.722 218.925,64.721 225.820,66.764 235.600 C 67.513 239.186,70.607 247.162,72.063 249.262 C 72.469 249.846,72.800 250.441,72.800 250.584 C 72.800 250.905,75.709 255.235,77.373 257.390 C 82.559 264.108,97.095 274.800,101.042 274.800 C 101.355 274.800,101.968 274.980,102.405 275.200 C 102.842 275.420,103.558 275.780,103.995 276.000 C 104.432 276.220,105.231 276.400,105.771 276.400 C 106.311 276.400,106.852 276.561,106.974 276.758 C 107.095 276.955,107.871 277.210,108.697 277.325 C 109.524 277.440,111.640 277.772,113.400 278.063 C 118.128 278.844,331.072 278.844,335.800 278.063 C 337.560 277.772,339.676 277.440,340.503 277.325 C 341.329 277.210,342.105 276.955,342.226 276.758 C 342.348 276.561,342.889 276.400,343.429 276.400 C 344.375 276.400,344.741 276.272,346.695 275.262 C 347.187 275.008,347.833 274.800,348.130 274.800 C 351.025 274.800,365.816 264.790,369.200 260.541 C 369.530 260.127,370.535 258.890,371.434 257.794 C 373.460 255.321,376.400 250.977,376.400 250.455 C 376.400 250.242,376.544 250.007,376.720 249.933 C 377.025 249.806,379.600 244.699,379.600 244.221 C 379.600 244.095,379.942 243.228,380.360 242.296 C 380.778 241.363,381.236 240.150,381.378 239.600 C 381.520 239.050,381.879 237.700,382.176 236.600 C 384.387 228.401,384.390 216.481,382.182 208.200 C 380.836 203.150,377.592 195.238,376.715 194.867 C 376.542 194.793,376.400 194.558,376.400 194.345 C 376.400 193.014,368.803 183.482,365.745 180.976 C 364.733 180.147,363.519 179.093,363.047 178.634 C 361.869 177.487,357.364 174.400,356.870 174.400 C 356.648 174.400,356.407 174.256,356.333 174.081 C 356.175 173.701,350.316 170.872,347.200 169.670 C 335.239 165.057,319.131 165.230,307.400 170.097 C 299.467 173.388,294.377 170.488,293.539 162.200 C 292.988 156.747,291.846 150.910,290.800 148.200 C 288.189 141.435,289.443 136.798,294.696 133.796 C 294.907 133.676,293.779 131.606,293.500 131.603 C 293.335 131.601,293.200 131.240,293.200 130.800 C 293.200 130.360,293.020 130.000,292.800 130.000 C 292.580 130.000,292.400 129.640,292.400 129.200 C 292.400 128.760,292.220 128.400,292.000 128.400 C 291.780 128.400,291.600 128.185,291.600 127.922 C 291.600 127.395,289.579 124.280,289.100 124.067 C 288.935 123.993,288.800 123.705,288.800 123.426 C 288.800 123.147,288.305 122.394,287.700 121.752 C 287.095 121.111,286.345 120.094,286.032 119.493 C 285.330 118.141,284.570 118.121,282.341 119.395 C 274.751 123.734,266.575 114.657,271.652 107.528 L 272.475 106.371 271.138 105.189 C 270.402 104.539,269.485 103.904,269.100 103.777 C 268.715 103.650,268.400 103.378,268.400 103.173 C 268.400 102.968,268.164 102.800,267.875 102.800 C 267.587 102.800,266.964 102.440,266.492 102.000 C 266.020 101.560,265.396 101.200,265.105 101.200 C 264.814 101.200,264.317 100.840,264.000 100.400 C 263.683 99.960,263.103 99.600,262.712 99.600 C 262.320 99.600,262.000 99.420,262.000 99.200 C 262.000 98.980,261.640 98.800,261.200 98.800 C 260.760 98.800,260.400 98.620,260.400 98.400 C 260.400 98.180,260.040 98.000,259.600 98.000 C 259.160 98.000,258.800 97.820,258.800 97.600 C 258.800 97.380,258.455 97.200,258.033 97.200 C 257.612 97.200,257.195 96.986,257.108 96.725 C 257.006 96.417,256.678 96.537,256.175 97.069 " stroke="none" fill="#83b3fb" fill-rule="evenodd"></path><path id="path2" d="M125.000 76.388 C 124.560 76.584,123.533 76.756,122.719 76.772 C 121.904 76.787,120.824 76.961,120.319 77.158 C 119.813 77.355,118.590 77.736,117.600 78.005 C 115.451 78.587,113.692 79.156,112.600 79.622 C 96.251 86.590,86.590 96.251,79.622 112.600 C 79.025 114.000,78.391 116.069,77.168 120.600 C 75.914 125.247,75.661 138.699,76.730 143.800 C 77.939 149.561,79.254 153.554,81.375 157.900 C 83.007 161.246,82.699 161.079,84.889 159.806 C 100.385 150.802,120.607 147.615,137.000 151.593 C 139.731 152.255,139.765 152.219,140.788 147.600 C 141.394 144.861,141.992 142.810,142.449 141.905 C 142.642 141.523,142.800 140.936,142.800 140.600 C 142.800 140.264,142.959 139.677,143.153 139.295 C 143.348 138.913,143.685 138.150,143.903 137.600 C 148.516 125.951,155.096 116.050,164.200 107.059 C 167.746 103.558,175.231 97.470,176.669 96.918 C 177.632 96.549,177.234 95.919,174.092 92.843 C 168.759 87.621,164.917 84.833,158.891 81.815 C 154.143 79.436,149.974 78.031,143.800 76.728 C 141.254 76.190,126.063 75.916,125.000 76.388 " stroke="none" fill="#fbdb8b" fill-rule="evenodd"></path><path id="path3" d="M127.200 75.594 C 121.971 76.163,116.045 77.577,112.200 79.172 C 98.231 84.968,87.575 94.830,81.252 107.811 C 78.440 113.584,77.286 117.104,75.941 124.000 C 75.273 127.426,75.270 139.053,75.936 142.400 C 77.212 148.812,78.805 153.833,80.979 158.301 C 82.604 161.640,82.737 161.681,85.928 159.811 C 89.621 157.646,97.870 154.000,99.074 154.000 C 99.369 154.000,99.923 153.838,100.305 153.639 C 101.399 153.071,104.932 152.214,110.600 151.142 C 114.930 150.323,128.857 150.480,133.400 151.399 C 139.175 152.567,140.092 152.489,140.510 150.800 C 141.469 146.930,141.755 145.901,142.906 142.200 C 144.173 138.121,144.487 137.320,146.933 131.921 C 152.110 120.495,162.336 108.022,173.100 100.006 C 175.575 98.163,177.600 96.443,177.600 96.184 C 177.600 94.582,167.709 86.094,162.368 83.114 C 161.361 82.552,160.191 81.894,159.768 81.652 C 158.220 80.766,153.564 78.800,153.014 78.800 C 152.702 78.800,152.349 78.641,152.229 78.446 C 152.108 78.251,151.513 77.996,150.905 77.879 C 150.297 77.762,149.080 77.470,148.200 77.230 C 142.447 75.661,133.202 74.941,127.200 75.594 M143.800 76.728 C 149.974 78.031,154.143 79.436,158.891 81.815 C 164.917 84.833,168.759 87.621,174.092 92.843 C 177.234 95.919,177.632 96.549,176.669 96.918 C 175.231 97.470,167.746 103.558,164.200 107.059 C 155.096 116.050,148.516 125.951,143.903 137.600 C 143.685 138.150,143.348 138.913,143.153 139.295 C 142.959 139.677,142.800 140.264,142.800 140.600 C 142.800 140.936,142.642 141.523,142.449 141.905 C 141.992 142.810,141.394 144.861,140.788 147.600 C 139.765 152.219,139.731 152.255,137.000 151.593 C 120.607 147.615,100.385 150.802,84.889 159.806 C 82.699 161.079,83.007 161.246,81.375 157.900 C 79.254 153.554,77.939 149.561,76.730 143.800 C 75.661 138.699,75.914 125.247,77.168 120.600 C 78.391 116.069,79.025 114.000,79.622 112.600 C 86.590 96.251,96.251 86.590,112.600 79.622 C 113.692 79.156,115.451 78.587,117.600 78.005 C 118.590 77.736,119.813 77.355,120.319 77.158 C 120.824 76.961,121.904 76.787,122.719 76.772 C 123.533 76.756,124.560 76.584,125.000 76.388 C 126.063 75.916,141.254 76.190,143.800 76.728 " stroke="none" fill="#8c774e" fill-rule="evenodd"></path><path id="path4" d="M216.800 98.765 C 216.030 98.908,218.460 98.964,222.200 98.890 C 225.940 98.815,229.270 98.695,229.600 98.624 C 230.766 98.370,218.180 98.509,216.800 98.765 M253.000 100.268 C 252.120 101.057,251.760 101.516,252.200 101.288 C 252.941 100.904,255.151 98.779,254.770 98.817 C 254.676 98.826,253.880 99.479,253.000 100.268 M213.105 99.483 C 213.602 99.579,214.322 99.575,214.705 99.475 C 215.087 99.375,214.680 99.296,213.800 99.301 C 212.920 99.305,212.607 99.387,213.105 99.483 M233.500 99.482 C 233.995 99.578,234.805 99.578,235.300 99.482 C 235.795 99.387,235.390 99.309,234.400 99.309 C 233.410 99.309,233.005 99.387,233.500 99.482 M207.600 100.406 C 207.178 100.682,207.415 100.723,208.400 100.542 C 210.125 100.225,210.451 99.998,209.167 100.006 C 208.635 100.009,207.930 100.189,207.600 100.406 M238.433 100.143 C 238.525 100.221,239.230 100.401,240.000 100.542 C 240.985 100.723,241.222 100.682,240.800 100.406 C 240.258 100.050,238.037 99.803,238.433 100.143 M203.466 101.474 C 202.403 101.800,201.609 102.142,201.703 102.236 C 201.796 102.330,202.937 102.063,204.236 101.643 C 205.536 101.223,206.330 100.881,206.000 100.882 C 205.670 100.883,204.530 101.149,203.466 101.474 M241.633 100.944 C 241.725 101.023,242.340 101.208,243.000 101.356 C 243.876 101.552,244.038 101.515,243.600 101.218 C 243.060 100.853,241.232 100.598,241.633 100.944 M245.249 102.054 C 246.501 102.405,249.620 102.415,250.483 102.072 C 250.858 101.922,249.621 101.797,247.732 101.794 C 245.843 101.790,244.726 101.907,245.249 102.054 M271.450 107.780 C 269.620 110.572,269.700 114.531,271.640 117.256 C 272.571 118.564,275.743 120.553,276.495 120.300 C 276.773 120.207,276.359 119.918,275.575 119.659 C 271.185 118.206,269.258 112.804,271.556 108.394 C 272.486 106.611,272.429 106.285,271.450 107.780 M189.100 107.829 C 187.605 108.640,187.696 108.978,189.200 108.200 C 189.860 107.859,190.400 107.494,190.400 107.390 C 190.400 107.132,190.357 107.147,189.100 107.829 M182.789 112.029 C 177.915 115.657,170.616 122.830,168.556 126.017 C 168.207 126.558,168.605 126.190,169.440 125.200 C 172.167 121.968,179.346 114.972,181.789 113.166 C 184.911 110.859,185.443 110.428,185.189 110.413 C 185.073 110.406,183.993 111.133,182.789 112.029 M165.481 130.300 C 163.284 133.849,162.747 134.800,162.937 134.800 C 163.049 134.800,163.960 133.450,164.961 131.800 C 165.963 130.150,166.699 128.800,166.596 128.800 C 166.494 128.800,165.992 129.475,165.481 130.300 M291.201 136.598 C 290.686 137.148,290.352 137.685,290.460 137.794 C 290.568 137.902,291.054 137.452,291.540 136.795 C 292.617 135.339,292.466 135.252,291.201 136.598 M289.293 142.000 C 289.293 142.770,289.375 143.085,289.476 142.700 C 289.576 142.315,289.576 141.685,289.476 141.300 C 289.375 140.915,289.293 141.230,289.293 142.000 M289.606 144.233 C 289.609 144.655,289.795 145.270,290.018 145.600 C 290.315 146.038,290.352 145.876,290.156 145.000 C 289.827 143.529,289.598 143.210,289.606 144.233 M290.428 147.076 C 290.413 147.558,290.580 148.064,290.800 148.200 C 291.273 148.492,291.273 148.101,290.800 147.000 C 290.469 146.229,290.455 146.231,290.428 147.076 M291.206 149.433 C 291.209 149.855,291.395 150.470,291.618 150.800 C 291.915 151.238,291.952 151.076,291.756 150.200 C 291.427 148.729,291.198 148.410,291.206 149.433 M155.829 153.029 C 155.681 153.615,155.651 154.184,155.761 154.294 C 155.871 154.404,156.081 154.015,156.229 153.429 C 156.376 152.842,156.406 152.273,156.296 152.163 C 156.186 152.053,155.976 152.442,155.829 153.029 M292.046 152.800 C 292.027 153.350,292.187 154.070,292.400 154.400 C 292.894 155.164,292.894 154.342,292.400 152.800 L 292.080 151.800 292.046 152.800 M155.000 157.200 C 154.846 158.110,154.811 158.944,154.921 159.054 C 155.031 159.164,155.246 158.510,155.400 157.600 C 155.554 156.690,155.589 155.856,155.479 155.746 C 155.369 155.636,155.154 156.290,155.000 157.200 M292.875 157.000 C 292.865 157.660,293.011 158.560,293.200 159.000 L 293.544 159.800 293.525 159.000 C 293.514 158.560,293.368 157.660,293.200 157.000 L 292.895 155.800 292.875 157.000 M154.462 162.200 C 154.422 162.860,154.289 163.850,154.167 164.400 C 153.976 165.260,154.008 165.301,154.396 164.693 C 154.644 164.304,154.777 163.314,154.691 162.493 C 154.556 161.204,154.525 161.164,154.462 162.200 M293.606 163.633 C 293.609 164.385,293.792 165.270,294.012 165.600 C 294.291 166.019,294.333 165.658,294.150 164.400 C 293.825 162.159,293.598 161.840,293.606 163.633 M117.107 166.290 C 117.826 166.379,118.906 166.377,119.507 166.286 C 120.108 166.195,119.520 166.122,118.200 166.124 C 116.880 166.126,116.388 166.201,117.107 166.290 M122.433 166.150 C 122.525 166.232,124.490 166.396,126.800 166.513 C 129.744 166.662,130.342 166.630,128.800 166.403 C 126.499 166.064,122.146 165.891,122.433 166.150 M323.507 166.290 C 324.226 166.379,325.306 166.377,325.907 166.286 C 326.508 166.195,325.920 166.122,324.600 166.124 C 323.280 166.126,322.788 166.201,323.507 166.290 M329.907 166.290 C 330.626 166.379,331.706 166.377,332.307 166.286 C 332.908 166.195,332.320 166.122,331.000 166.124 C 329.680 166.126,329.188 166.201,329.907 166.290 M111.200 166.802 C 110.600 166.995,111.240 167.037,112.800 166.906 C 114.230 166.786,115.475 166.623,115.567 166.544 C 115.889 166.265,112.188 166.484,111.200 166.802 M317.600 166.802 C 317.000 166.995,317.640 167.037,319.200 166.906 C 320.630 166.786,321.875 166.623,321.967 166.544 C 322.289 166.265,318.588 166.484,317.600 166.802 M333.633 166.544 C 333.725 166.623,334.970 166.786,336.400 166.906 C 337.960 167.037,338.600 166.995,338.000 166.802 C 337.012 166.484,333.311 166.265,333.633 166.544 M107.400 167.600 C 106.381 168.038,107.432 168.038,108.800 167.600 C 109.604 167.343,109.643 167.277,109.000 167.268 C 108.560 167.262,107.840 167.411,107.400 167.600 M134.000 167.600 C 135.368 168.038,136.419 168.038,135.400 167.600 C 134.960 167.411,134.240 167.262,133.800 167.268 C 133.157 167.277,133.196 167.343,134.000 167.600 M313.800 167.600 C 312.781 168.038,313.832 168.038,315.200 167.600 C 316.004 167.343,316.043 167.277,315.400 167.268 C 314.960 167.262,314.240 167.411,313.800 167.600 M340.400 167.600 C 341.768 168.038,342.819 168.038,341.800 167.600 C 341.360 167.411,340.640 167.262,340.200 167.268 C 339.557 167.277,339.596 167.343,340.400 167.600 M151.400 169.068 C 150.520 169.857,150.160 170.316,150.600 170.088 C 151.341 169.704,153.551 167.579,153.170 167.617 C 153.076 167.626,152.280 168.279,151.400 169.068 M296.000 168.982 C 297.109 170.195,299.147 171.386,299.504 171.029 C 299.630 170.903,299.537 170.800,299.297 170.800 C 299.057 170.800,297.992 170.145,296.931 169.344 C 295.371 168.168,295.192 168.098,296.000 168.982 M144.140 170.894 C 144.708 171.257,147.953 171.242,148.885 170.872 C 149.262 170.722,148.245 170.600,146.626 170.600 C 145.006 170.600,143.887 170.732,144.140 170.894 M304.400 170.800 C 303.867 171.145,303.867 171.188,304.400 171.188 C 304.730 171.188,305.270 171.013,305.600 170.800 C 306.133 170.455,306.133 170.412,305.600 170.412 C 305.270 170.412,304.730 170.587,304.400 170.800 M93.100 173.429 C 91.605 174.240,91.696 174.578,93.200 173.800 C 93.860 173.459,94.400 173.094,94.400 172.990 C 94.400 172.732,94.357 172.747,93.100 173.429 M84.600 179.547 C 81.415 182.281,78.857 184.800,79.264 184.800 C 79.382 184.800,80.451 183.848,81.639 182.684 C 82.828 181.519,84.790 179.724,86.000 178.693 C 87.210 177.663,88.110 176.815,88.000 176.810 C 87.890 176.804,86.360 178.036,84.600 179.547 M364.048 179.492 C 366.329 181.435,368.956 184.060,371.360 186.800 C 373.030 188.703,373.113 188.757,371.973 187.200 C 370.387 185.032,363.312 178.000,362.718 178.000 C 362.486 178.000,363.084 178.671,364.048 179.492 M78.001 186.198 C 77.486 186.748,77.139 187.264,77.232 187.346 C 77.324 187.428,77.819 186.978,78.330 186.347 C 79.476 184.935,79.274 184.844,78.001 186.198 M74.487 190.900 C 73.027 193.056,72.712 193.600,72.920 193.600 C 73.012 193.600,73.744 192.610,74.547 191.400 C 75.351 190.190,75.925 189.200,75.823 189.200 C 75.722 189.200,75.120 189.965,74.487 190.900 M374.637 191.300 C 375.449 192.565,376.188 193.600,376.279 193.600 C 376.547 193.600,375.100 191.282,374.090 190.094 C 373.579 189.492,373.825 190.035,374.637 191.300 M67.858 204.104 C 67.496 205.052,67.213 206.091,67.229 206.413 C 67.245 206.736,67.605 206.024,68.028 204.832 C 68.945 202.248,68.801 201.633,67.858 204.104 M382.056 207.600 C 382.056 207.930,382.211 208.560,382.400 209.000 C 382.617 209.504,382.744 209.578,382.744 209.200 C 382.744 208.870,382.589 208.240,382.400 207.800 C 382.183 207.296,382.056 207.222,382.056 207.600 M66.060 210.675 C 65.764 212.009,65.609 213.438,65.715 213.850 C 65.834 214.317,65.925 214.131,65.954 213.360 C 65.979 212.678,66.195 211.561,66.433 210.878 C 66.671 210.195,66.806 209.324,66.732 208.943 C 66.659 208.561,66.356 209.341,66.060 210.675 M383.072 212.200 C 383.199 213.300,383.369 214.275,383.451 214.367 C 383.732 214.682,383.520 212.199,383.180 211.200 C 382.951 210.526,382.916 210.851,383.072 212.200 M65.054 216.656 C 64.724 219.065,64.767 226.557,65.123 228.558 C 65.275 229.415,65.400 226.670,65.400 222.458 C 65.400 213.939,65.408 214.075,65.054 216.656 M383.800 222.400 C 383.800 226.424,383.925 229.015,384.077 228.158 C 384.435 226.144,384.435 218.656,384.077 216.642 C 383.925 215.785,383.800 218.376,383.800 222.400 M65.668 231.400 C 65.650 232.060,65.901 233.500,66.225 234.600 C 66.752 236.387,66.789 236.430,66.569 235.000 C 65.998 231.295,65.702 230.114,65.668 231.400 M383.055 232.255 C 382.913 233.286,382.874 234.208,382.969 234.302 C 383.063 234.396,383.265 233.639,383.418 232.618 C 383.571 231.598,383.610 230.676,383.504 230.571 C 383.398 230.465,383.196 231.223,383.055 232.255 M382.229 236.229 C 382.081 236.815,382.051 237.384,382.161 237.494 C 382.271 237.604,382.481 237.215,382.629 236.629 C 382.776 236.042,382.806 235.473,382.696 235.363 C 382.586 235.253,382.376 235.642,382.229 236.229 M67.244 238.600 C 67.258 239.323,68.700 242.898,68.770 242.385 C 68.787 242.266,68.446 241.186,68.014 239.985 C 67.582 238.783,67.236 238.160,67.244 238.600 M69.634 245.000 C 69.634 245.220,69.978 246.030,70.400 246.800 C 70.822 247.570,71.166 248.020,71.166 247.800 C 71.166 247.580,70.822 246.770,70.400 246.000 C 69.978 245.230,69.634 244.780,69.634 245.000 M71.786 249.500 C 72.135 250.215,72.506 250.800,72.610 250.800 C 73.008 250.800,72.752 250.163,71.967 249.200 L 71.152 248.200 71.786 249.500 M73.046 251.700 C 73.861 253.089,76.475 256.743,77.411 257.800 L 78.473 259.000 77.620 257.800 C 77.150 257.140,75.937 255.385,74.924 253.900 C 73.333 251.566,72.167 250.201,73.046 251.700 M374.193 254.100 C 371.704 257.901,367.972 262.060,364.430 264.982 C 360.238 268.440,359.680 268.961,361.600 267.627 C 365.982 264.581,372.510 257.721,374.923 253.626 C 375.996 251.804,375.475 252.142,374.193 254.100 M82.252 263.118 C 85.208 265.920,89.200 269.111,89.200 268.673 C 89.200 268.576,88.179 267.725,86.931 266.783 C 85.683 265.840,83.504 263.929,82.089 262.535 C 80.674 261.141,79.400 260.008,79.258 260.018 C 79.116 260.029,80.463 261.424,82.252 263.118 M357.793 269.856 C 355.752 271.209,355.032 271.923,356.626 271.014 C 358.030 270.214,359.901 268.822,359.593 268.809 C 359.479 268.804,358.669 269.275,357.793 269.856 M94.692 272.176 C 95.685 272.908,98.400 274.116,98.400 273.824 C 98.400 273.721,97.545 273.233,96.500 272.739 C 93.835 271.479,93.686 271.433,94.692 272.176 M352.885 272.591 C 350.965 273.605,350.214 274.195,351.412 273.748 C 352.211 273.450,354.861 272.045,355.167 271.757 C 355.603 271.346,354.428 271.775,352.885 272.591 M105.800 276.800 C 106.901 277.273,107.292 277.273,107.000 276.800 C 106.864 276.580,106.358 276.413,105.876 276.428 C 105.031 276.455,105.029 276.469,105.800 276.800 M342.200 276.800 C 341.908 277.273,342.299 277.273,343.400 276.800 C 344.171 276.469,344.169 276.455,343.324 276.428 C 342.842 276.413,342.336 276.580,342.200 276.800 M109.200 277.600 C 110.568 278.038,111.619 278.038,110.600 277.600 C 110.160 277.411,109.440 277.262,109.000 277.268 C 108.357 277.277,108.396 277.343,109.200 277.600 M338.600 277.600 C 337.581 278.038,338.632 278.038,340.000 277.600 C 340.804 277.343,340.843 277.277,340.200 277.268 C 339.760 277.262,339.040 277.411,338.600 277.600 M113.800 278.423 C 115.937 278.865,117.404 278.850,116.000 278.400 C 115.450 278.224,114.370 278.083,113.600 278.086 L 112.200 278.092 113.800 278.423 M333.200 278.400 C 331.796 278.850,333.263 278.865,335.400 278.423 L 337.000 278.092 335.600 278.086 C 334.830 278.083,333.750 278.224,333.200 278.400 " stroke="none" fill="#5072a1" fill-rule="evenodd"></path><path id="path5" d="M254.670 97.864 C 253.967 99.225,253.018 100.126,251.399 100.970 C 250.740 101.314,250.442 101.596,250.738 101.598 C 251.977 101.603,256.101 97.567,255.485 96.952 C 255.361 96.827,254.994 97.238,254.670 97.864 M222.500 98.287 C 223.105 98.378,224.095 98.378,224.700 98.287 C 225.305 98.195,224.810 98.120,223.600 98.120 C 222.390 98.120,221.895 98.195,222.500 98.287 M214.000 98.800 L 213.000 99.120 214.000 99.137 C 214.550 99.146,215.720 99.005,216.600 98.823 L 218.200 98.492 216.600 98.486 C 215.720 98.483,214.550 98.624,214.000 98.800 M231.400 98.823 C 232.280 99.005,233.540 99.143,234.200 99.130 L 235.400 99.105 234.200 98.800 C 233.540 98.632,232.280 98.494,231.400 98.493 L 229.800 98.492 231.400 98.823 M209.800 99.600 L 209.000 99.944 209.800 99.932 C 210.240 99.926,211.050 99.776,211.600 99.600 L 212.600 99.280 211.600 99.268 C 211.050 99.262,210.240 99.411,209.800 99.600 M236.800 99.600 C 237.350 99.776,238.160 99.926,238.600 99.932 L 239.400 99.944 238.600 99.600 C 238.160 99.411,237.350 99.262,236.800 99.268 L 235.800 99.280 236.800 99.600 M206.200 100.400 L 205.400 100.744 206.200 100.766 C 206.640 100.778,207.270 100.613,207.600 100.400 C 208.395 99.886,207.396 99.886,206.200 100.400 M240.800 100.400 C 241.130 100.613,241.760 100.778,242.200 100.766 L 243.000 100.744 242.200 100.400 C 241.004 99.886,240.005 99.886,240.800 100.400 M203.400 101.200 C 202.896 101.417,202.822 101.544,203.200 101.544 C 203.530 101.544,204.160 101.389,204.600 101.200 C 205.104 100.983,205.178 100.856,204.800 100.856 C 204.470 100.856,203.840 101.011,203.400 101.200 M243.600 101.200 C 243.930 101.413,244.560 101.578,245.000 101.566 L 245.800 101.544 245.000 101.200 C 243.804 100.686,242.805 100.686,243.600 101.200 M246.900 101.887 C 247.505 101.978,248.495 101.978,249.100 101.887 C 249.705 101.795,249.210 101.720,248.000 101.720 C 246.790 101.720,246.295 101.795,246.900 101.887 M193.689 105.061 C 192.529 105.639,191.642 106.175,191.719 106.252 C 191.882 106.416,196.000 104.407,196.000 104.164 C 196.000 103.916,195.955 103.933,193.689 105.061 M188.510 107.900 C 187.170 108.725,185.653 109.727,185.137 110.127 C 184.536 110.593,184.702 110.550,185.600 110.007 C 186.370 109.542,187.945 108.613,189.100 107.942 C 190.924 106.884,191.543 106.400,191.073 106.400 C 191.002 106.400,189.849 107.075,188.510 107.900 M271.669 108.039 C 270.910 109.254,271.366 109.416,272.155 108.212 C 272.520 107.656,272.678 107.200,272.505 107.200 C 272.333 107.200,271.957 107.578,271.669 108.039 M270.652 110.500 C 270.342 111.655,270.380 113.607,270.728 114.485 C 270.878 114.862,271.000 113.917,271.000 112.385 C 271.000 109.280,270.992 109.234,270.652 110.500 M182.505 111.725 C 181.793 112.206,181.208 112.747,181.205 112.927 C 181.199 113.288,183.435 111.790,183.812 111.181 C 184.134 110.660,183.996 110.717,182.505 111.725 M179.600 114.057 C 177.395 115.889,174.709 118.442,174.850 118.573 C 174.933 118.649,176.350 117.472,178.000 115.956 C 180.851 113.338,181.749 112.272,179.600 114.057 M271.200 115.938 C 271.200 116.124,271.588 116.619,272.062 117.038 L 272.924 117.800 272.216 116.700 C 271.486 115.566,271.200 115.351,271.200 115.938 M273.944 118.776 C 274.464 119.229,275.079 119.600,275.311 119.600 C 275.803 119.600,275.779 119.580,274.200 118.655 L 273.000 117.953 273.944 118.776 M281.800 118.892 C 280.765 119.447,279.464 119.753,278.115 119.760 C 276.968 119.766,276.248 119.910,276.515 120.080 C 277.662 120.808,280.573 120.203,283.000 118.731 C 284.661 117.723,283.755 117.845,281.800 118.892 M172.287 121.019 C 170.192 123.326,168.664 125.200,168.880 125.200 C 169.135 125.200,174.492 119.158,174.345 119.035 C 174.265 118.968,173.339 119.861,172.287 121.019 M167.929 126.300 C 166.888 127.524,165.428 129.754,165.830 129.505 C 166.277 129.229,168.932 125.600,168.687 125.600 C 168.597 125.600,168.256 125.915,167.929 126.300 M164.253 131.591 C 163.253 133.102,162.815 134.196,163.536 133.380 C 164.092 132.752,165.679 130.000,165.486 130.000 C 165.387 130.000,164.832 130.716,164.253 131.591 M161.918 135.700 C 160.690 138.026,159.963 139.696,160.113 139.846 C 160.182 139.915,160.903 138.628,161.716 136.986 C 163.281 133.822,163.439 132.821,161.918 135.700 M293.086 135.327 C 291.539 136.651,290.004 138.682,290.006 139.400 C 290.007 139.620,290.458 139.048,291.009 138.129 C 291.560 137.211,292.638 136.071,293.405 135.597 C 294.172 135.123,294.800 134.569,294.800 134.367 C 294.800 133.862,294.790 133.867,293.086 135.327 M289.714 141.800 C 289.717 142.900,289.795 143.303,289.887 142.695 C 289.979 142.086,289.977 141.186,289.882 140.695 C 289.787 140.203,289.711 140.700,289.714 141.800 M158.996 141.872 C 158.658 142.681,158.433 143.500,158.497 143.691 C 158.561 143.882,158.916 143.220,159.287 142.219 C 160.093 140.045,159.870 139.779,158.996 141.872 M157.755 145.100 C 157.634 145.485,157.370 146.213,157.167 146.719 C 156.965 147.224,156.815 147.944,156.834 148.319 C 156.856 148.751,156.991 148.634,157.203 148.000 C 158.034 145.516,158.330 144.400,158.160 144.400 C 158.058 144.400,157.876 144.715,157.755 145.100 M156.186 150.253 C 156.048 150.884,155.769 151.922,155.567 152.560 C 155.365 153.198,155.225 154.188,155.254 154.760 L 155.309 155.800 155.491 154.800 C 155.591 154.250,155.924 152.823,156.233 151.630 C 156.541 150.436,156.713 149.380,156.616 149.283 C 156.519 149.185,156.325 149.622,156.186 150.253 M291.844 150.600 C 292.173 152.071,292.402 152.390,292.394 151.367 C 292.391 150.945,292.205 150.330,291.982 150.000 C 291.685 149.562,291.648 149.724,291.844 150.600 M292.668 154.200 C 292.971 156.177,293.202 156.514,293.194 154.967 C 293.191 154.325,293.016 153.530,292.805 153.200 C 292.545 152.791,292.501 153.110,292.668 154.200 M293.501 159.400 C 293.614 160.940,293.772 162.275,293.853 162.367 C 294.147 162.700,293.935 158.178,293.620 157.400 C 293.435 156.942,293.384 157.798,293.501 159.400 M154.235 160.635 C 154.083 162.316,154.041 163.774,154.142 163.876 C 154.243 163.977,154.455 162.688,154.612 161.012 C 154.769 159.336,154.811 157.877,154.705 157.771 C 154.599 157.666,154.388 158.954,154.235 160.635 M294.049 163.400 C 293.962 164.967,294.868 167.262,296.070 168.521 L 297.291 169.800 296.256 168.482 C 295.339 167.313,294.943 166.298,294.277 163.400 L 294.093 162.600 294.049 163.400 M153.632 164.953 C 153.576 166.270,151.996 168.357,150.271 169.391 C 149.352 169.942,148.883 170.394,149.228 170.396 C 150.893 170.406,154.422 166.093,153.872 164.720 C 153.745 164.405,153.651 164.496,153.632 164.953 M114.200 166.011 C 113.518 166.191,114.641 166.233,116.800 166.109 C 118.890 165.989,120.675 165.826,120.767 165.746 C 121.086 165.467,115.392 165.697,114.200 166.011 M121.633 165.744 C 121.725 165.824,123.600 165.981,125.800 166.095 C 128.000 166.208,129.260 166.165,128.600 165.998 C 127.398 165.694,121.320 165.473,121.633 165.744 M320.600 166.008 C 319.934 166.181,321.179 166.225,323.400 166.105 C 325.600 165.987,327.475 165.825,327.567 165.745 C 327.886 165.467,321.791 165.697,320.600 166.008 M328.033 165.744 C 328.125 165.824,329.910 165.986,332.000 166.106 C 334.137 166.228,335.362 166.182,334.800 166.001 C 333.828 165.689,327.700 165.456,328.033 165.744 M109.200 166.800 L 108.200 167.120 109.200 167.120 C 109.750 167.120,110.650 166.976,111.200 166.800 L 112.200 166.480 111.200 166.480 C 110.650 166.480,109.750 166.624,109.200 166.800 M131.600 166.800 C 132.150 166.976,132.960 167.126,133.400 167.132 L 134.200 167.144 133.400 166.800 C 132.960 166.611,132.150 166.462,131.600 166.468 L 130.600 166.480 131.600 166.800 M315.800 166.800 L 315.000 167.144 315.800 167.132 C 316.240 167.126,317.050 166.976,317.600 166.800 L 318.600 166.480 317.600 166.468 C 317.050 166.462,316.240 166.611,315.800 166.800 M338.000 166.800 C 338.550 166.976,339.360 167.126,339.800 167.132 L 340.600 167.144 339.800 166.800 C 339.360 166.611,338.550 166.462,338.000 166.468 L 337.000 166.480 338.000 166.800 M106.200 167.600 C 105.696 167.817,105.622 167.944,106.000 167.944 C 106.330 167.944,106.960 167.789,107.400 167.600 C 107.904 167.383,107.978 167.256,107.600 167.256 C 107.270 167.256,106.640 167.411,106.200 167.600 M135.400 167.600 C 135.840 167.789,136.470 167.944,136.800 167.944 C 137.178 167.944,137.104 167.817,136.600 167.600 C 136.160 167.411,135.530 167.256,135.200 167.256 C 134.822 167.256,134.896 167.383,135.400 167.600 M312.600 167.600 C 312.096 167.817,312.022 167.944,312.400 167.944 C 312.730 167.944,313.360 167.789,313.800 167.600 C 314.304 167.383,314.378 167.256,314.000 167.256 C 313.670 167.256,313.040 167.411,312.600 167.600 M341.800 167.600 C 342.240 167.789,342.870 167.944,343.200 167.944 C 343.578 167.944,343.504 167.817,343.000 167.600 C 342.560 167.411,341.930 167.256,341.600 167.256 C 341.222 167.256,341.296 167.383,341.800 167.600 M103.600 168.400 C 103.067 168.745,103.067 168.788,103.600 168.788 C 103.930 168.788,104.470 168.613,104.800 168.400 C 105.333 168.055,105.333 168.012,104.800 168.012 C 104.470 168.012,103.930 168.187,103.600 168.400 M138.000 168.400 C 138.330 168.613,138.870 168.788,139.200 168.788 C 139.733 168.788,139.733 168.745,139.200 168.400 C 138.870 168.187,138.330 168.012,138.000 168.012 C 137.467 168.012,137.467 168.055,138.000 168.400 M310.000 168.400 C 309.467 168.745,309.467 168.788,310.000 168.788 C 310.330 168.788,310.870 168.613,311.200 168.400 C 311.733 168.055,311.733 168.012,311.200 168.012 C 310.870 168.012,310.330 168.187,310.000 168.400 M344.400 168.400 C 344.730 168.613,345.270 168.788,345.600 168.788 C 346.133 168.788,346.133 168.745,345.600 168.400 C 345.270 168.187,344.730 168.012,344.400 168.012 C 343.867 168.012,343.867 168.055,344.400 168.400 M346.800 169.200 C 347.130 169.413,347.670 169.588,348.000 169.588 C 348.533 169.588,348.533 169.545,348.000 169.200 C 347.670 168.987,347.130 168.812,346.800 168.812 C 346.267 168.812,346.267 168.855,346.800 169.200 M96.600 171.231 C 93.165 172.952,86.417 177.220,86.406 177.678 C 86.403 177.831,87.804 176.989,89.521 175.806 C 92.686 173.626,98.606 170.414,99.476 170.405 C 99.738 170.402,100.064 170.220,100.200 170.000 C 100.616 169.327,99.931 169.562,96.600 171.231 M142.663 169.984 C 142.920 170.262,144.347 170.546,145.863 170.620 L 148.600 170.753 146.200 170.426 C 144.880 170.246,143.440 169.960,143.000 169.790 C 142.371 169.548,142.299 169.589,142.663 169.984 M297.600 169.779 C 297.600 170.794,303.031 171.676,304.304 170.868 C 304.580 170.692,303.754 170.625,302.468 170.718 C 300.811 170.837,299.759 170.696,298.864 170.233 C 298.169 169.874,297.600 169.669,297.600 169.779 M349.000 170.000 C 349.136 170.220,349.462 170.406,349.724 170.413 C 349.986 170.419,351.268 170.956,352.574 171.605 C 353.880 172.254,355.013 172.720,355.092 172.642 C 355.235 172.499,349.412 169.600,348.981 169.600 C 348.856 169.600,348.864 169.780,349.000 170.000 M355.800 173.068 C 356.570 173.849,362.800 177.953,362.797 177.678 C 362.795 177.525,361.688 176.680,360.337 175.800 C 356.637 173.390,355.357 172.619,355.800 173.068 M81.889 181.700 C 79.824 183.735,77.899 185.760,77.612 186.200 C 77.325 186.640,78.074 185.933,79.275 184.630 C 80.477 183.326,82.526 181.306,83.830 180.140 C 85.133 178.974,86.075 178.015,85.922 178.010 C 85.769 178.004,83.955 179.665,81.889 181.700 M366.020 180.699 C 367.681 182.250,370.189 184.977,371.593 186.760 C 374.291 190.185,375.069 190.942,373.464 188.580 C 371.906 186.287,367.413 181.448,365.121 179.594 C 363.709 178.451,364.009 178.820,366.020 180.699 M75.696 188.605 C 74.532 190.403,74.800 190.400,76.173 188.600 C 76.760 187.830,77.097 187.202,76.920 187.205 C 76.744 187.208,76.193 187.838,75.696 188.605 M73.798 191.202 C 73.398 191.644,73.166 192.099,73.282 192.215 C 73.397 192.330,73.790 191.969,74.155 191.412 C 74.952 190.196,74.793 190.102,73.798 191.202 M72.298 193.706 C 71.339 195.170,68.735 200.469,68.896 200.630 C 68.978 200.711,69.955 198.982,71.070 196.789 C 73.097 192.797,73.412 192.007,72.298 193.706 M376.360 193.400 C 377.034 194.705,377.588 195.428,377.585 195.000 C 377.583 194.780,377.214 194.150,376.764 193.600 C 376.221 192.936,376.085 192.869,376.360 193.400 M378.978 198.500 C 380.577 201.999,381.721 205.216,382.787 209.213 C 383.332 211.258,383.508 211.632,383.343 210.400 C 382.899 207.071,378.643 195.600,377.852 195.600 C 377.742 195.600,378.249 196.905,378.978 198.500 M68.200 202.000 C 68.050 202.473,68.017 202.950,68.127 203.060 C 68.237 203.170,68.450 202.873,68.600 202.400 C 68.750 201.927,68.783 201.450,68.673 201.340 C 68.563 201.230,68.350 201.527,68.200 202.000 M66.673 206.553 C 66.523 206.945,66.411 207.566,66.425 207.933 C 66.442 208.375,66.581 208.274,66.837 207.634 C 67.049 207.103,67.161 206.482,67.085 206.254 C 67.009 206.027,66.824 206.161,66.673 206.553 M65.873 209.753 C 65.723 210.145,65.611 210.766,65.625 211.133 C 65.642 211.575,65.781 211.474,66.037 210.834 C 66.249 210.303,66.361 209.682,66.285 209.454 C 66.209 209.227,66.024 209.361,65.873 209.753 M65.082 213.950 C 64.927 214.693,64.820 215.773,64.844 216.350 C 64.873 217.042,65.010 216.787,65.247 215.600 C 65.445 214.610,65.552 213.530,65.485 213.200 C 65.419 212.870,65.238 213.207,65.082 213.950 M383.670 213.600 C 383.657 214.150,383.795 215.320,383.977 216.200 L 384.308 217.800 384.307 216.400 C 384.305 214.635,383.709 212.012,383.670 213.600 M64.493 222.400 C 64.493 223.170,64.575 223.485,64.676 223.100 C 64.776 222.715,64.776 222.085,64.676 221.700 C 64.575 221.315,64.493 221.630,64.493 222.400 M383.815 229.415 C 383.661 230.654,383.624 231.757,383.734 231.867 C 383.844 231.977,384.061 231.054,384.215 229.815 C 384.370 228.577,384.407 227.473,384.297 227.363 C 384.187 227.253,383.970 228.177,383.815 229.415 M64.886 228.800 C 64.883 229.570,65.024 230.650,65.200 231.200 C 65.650 232.604,65.665 231.137,65.223 229.000 L 64.892 227.400 64.886 228.800 M383.000 234.400 C 382.846 235.310,382.804 236.138,382.907 236.240 C 383.010 236.343,383.213 235.677,383.360 234.760 C 383.507 233.843,383.548 233.015,383.453 232.920 C 383.358 232.824,383.154 233.490,383.000 234.400 M65.634 233.800 C 65.622 234.240,65.787 234.870,66.000 235.200 C 66.514 235.995,66.514 234.996,66.000 233.800 L 65.656 233.000 65.634 233.800 M66.456 237.000 C 66.456 237.440,66.611 238.160,66.800 238.600 L 67.144 239.400 67.144 238.600 C 67.144 238.160,66.989 237.440,66.800 237.000 L 66.456 236.200 66.456 237.000 M381.681 239.300 C 381.244 240.675,380.494 242.790,380.015 244.000 C 379.535 245.210,379.313 246.020,379.521 245.800 C 379.945 245.351,382.156 239.598,382.556 237.900 C 383.029 235.894,382.487 236.761,381.681 239.300 M67.453 240.400 C 67.881 242.086,68.412 243.321,68.620 243.114 C 68.728 243.005,68.453 242.125,68.008 241.158 C 67.563 240.191,67.313 239.850,67.453 240.400 M69.415 245.500 C 70.720 248.632,74.757 255.559,75.292 255.585 C 75.452 255.593,74.768 254.339,73.771 252.798 C 72.774 251.257,71.318 248.647,70.535 246.998 C 69.046 243.864,68.337 242.915,69.415 245.500 M378.278 247.805 C 377.912 248.572,377.695 249.200,377.796 249.200 C 378.070 249.200,379.284 246.751,379.101 246.568 C 379.014 246.481,378.644 247.038,378.278 247.805 M376.824 250.518 C 376.523 251.003,376.015 251.805,375.693 252.300 C 375.371 252.795,375.195 253.200,375.301 253.200 C 375.583 253.200,377.686 249.953,377.515 249.781 C 377.435 249.702,377.124 250.033,376.824 250.518 M76.327 257.008 C 78.969 261.016,91.343 271.991,92.225 271.108 C 92.318 271.016,90.850 269.892,88.964 268.610 C 85.553 266.293,80.476 261.615,77.231 257.800 C 76.296 256.700,75.889 256.343,76.327 257.008 M371.821 257.800 C 371.010 258.790,370.474 259.600,370.629 259.600 C 370.911 259.600,371.279 259.183,372.833 257.100 C 374.149 255.337,373.434 255.832,371.821 257.800 M366.888 263.177 C 365.067 264.903,362.187 267.263,360.488 268.420 C 356.744 270.971,356.007 271.639,358.350 270.357 C 360.331 269.274,366.597 264.142,368.981 261.652 C 371.485 259.036,370.495 259.757,366.888 263.177 M93.600 271.967 C 94.563 272.752,95.200 273.008,95.200 272.610 C 95.200 272.506,94.615 272.135,93.900 271.786 L 92.600 271.152 93.600 271.967 M355.100 271.829 C 354.495 272.157,354.000 272.510,354.000 272.613 C 354.000 272.999,354.632 272.757,355.600 272.000 C 356.789 271.070,356.611 271.009,355.100 271.829 M97.420 273.933 C 97.926 274.376,101.987 276.003,102.553 275.989 C 102.964 275.979,97.665 273.600,97.232 273.600 C 97.126 273.600,97.211 273.750,97.420 273.933 M103.400 276.400 C 103.536 276.620,104.042 276.787,104.524 276.772 C 105.369 276.745,105.371 276.731,104.600 276.400 C 103.499 275.927,103.108 275.927,103.400 276.400 M344.600 276.400 C 343.829 276.731,343.831 276.745,344.676 276.772 C 345.158 276.787,345.664 276.620,345.800 276.400 C 346.092 275.927,345.701 275.927,344.600 276.400 M106.000 277.194 C 106.330 277.411,107.035 277.591,107.567 277.594 C 108.851 277.602,108.525 277.375,106.800 277.058 C 105.815 276.877,105.578 276.918,106.000 277.194 M341.800 277.200 C 340.693 277.482,340.677 277.509,341.600 277.547 C 342.150 277.569,342.870 277.413,343.200 277.200 C 343.881 276.760,343.529 276.760,341.800 277.200 M109.200 277.988 C 109.530 278.208,110.415 278.391,111.167 278.394 C 112.960 278.402,112.641 278.175,110.400 277.850 C 109.142 277.667,108.781 277.709,109.200 277.988 M338.000 278.000 L 336.600 278.295 338.000 278.341 C 338.770 278.367,339.670 278.213,340.000 278.000 C 340.727 277.530,340.233 277.530,338.000 278.000 M113.676 278.860 C 114.184 279.003,164.100 279.120,224.600 279.120 C 285.100 279.120,335.016 279.003,335.524 278.860 C 336.032 278.717,286.116 278.600,224.600 278.600 C 163.084 278.600,113.168 278.717,113.676 278.860 " stroke="none" fill="#3c5474" fill-rule="evenodd"></path></g></svg>