<svg id="svg" version="1.1" xmlns="http://www.w3.org/2000/svg" xmlns:xlink="http://www.w3.org/1999/xlink" width="400" height="400" viewBox="0, 0, 400,400"><g id="svgg"><path id="path0" d="M123.441 0.266 C 122.416 0.557,120.800 2.218,120.800 2.982 C 120.800 3.322,120.620 3.600,120.400 3.600 C 120.180 3.600,120.000 3.960,120.000 4.400 C 120.000 4.840,119.820 5.200,119.600 5.200 C 119.345 5.200,119.200 8.525,119.200 14.376 C 119.200 20.063,119.352 23.647,119.600 23.800 C 119.820 23.936,120.000 24.401,120.000 24.834 C 120.000 25.759,123.302 29.200,124.189 29.200 C 124.525 29.200,124.800 29.380,124.800 29.600 C 124.800 29.831,126.067 30.000,127.800 30.000 C 129.533 30.000,130.800 29.831,130.800 29.600 C 130.800 29.380,131.160 29.200,131.600 29.200 C 132.040 29.200,132.400 29.020,132.400 28.800 C 132.400 28.580,132.683 28.400,133.029 28.400 C 133.837 28.400,134.800 27.437,134.800 26.629 C 134.800 26.283,134.935 25.999,135.100 25.997 C 135.265 25.995,135.625 25.509,135.900 24.917 C 136.530 23.560,136.624 4.400,136.000 4.400 C 135.780 4.400,135.600 4.124,135.600 3.787 C 135.600 3.449,134.933 2.506,134.117 1.690 L 132.634 0.207 128.417 0.129 C 126.098 0.086,123.859 0.148,123.441 0.266 M29.532 26.766 C 25.502 28.780,23.497 34.233,25.298 38.281 C 25.827 39.469,46.022 59.852,47.511 60.700 C 48.576 61.306,55.600 61.393,55.600 60.800 C 55.600 60.580,55.870 60.400,56.200 60.400 C 56.530 60.400,56.800 60.220,56.800 60.000 C 56.800 59.780,57.055 59.600,57.366 59.600 C 57.678 59.600,58.172 59.060,58.464 58.400 C 58.756 57.740,59.131 57.200,59.298 57.200 C 59.464 57.200,59.600 56.581,59.600 55.824 C 59.600 55.067,59.780 54.336,60.000 54.200 C 60.220 54.064,60.400 53.513,60.400 52.976 C 60.400 52.439,60.220 52.000,60.000 52.000 C 59.780 52.000,59.600 51.280,59.600 50.400 C 59.600 49.520,59.432 48.800,59.227 48.800 C 59.022 48.800,58.735 48.425,58.590 47.967 C 58.106 46.443,39.131 27.844,37.073 26.876 C 34.756 25.787,31.583 25.740,29.532 26.766 M219.200 27.200 C 219.200 27.420,218.759 27.600,218.221 27.600 C 217.503 27.600,216.086 28.775,212.921 31.995 C 205.707 39.333,202.958 42.065,199.634 45.200 C 197.884 46.850,196.441 48.515,196.427 48.900 C 196.412 49.285,196.220 49.600,196.000 49.600 C 195.386 49.600,195.506 55.727,196.144 56.958 C 196.868 58.352,199.040 60.400,199.796 60.400 C 200.128 60.400,200.400 60.580,200.400 60.800 C 200.400 61.039,201.933 61.200,204.200 61.200 C 206.467 61.200,208.000 61.039,208.000 60.800 C 208.000 60.580,208.244 60.400,208.542 60.400 C 209.698 60.400,228.400 41.926,228.400 40.783 C 228.400 40.572,228.580 40.400,228.800 40.400 C 229.020 40.400,229.200 40.040,229.200 39.600 C 229.200 39.160,229.380 38.800,229.600 38.800 C 229.833 38.800,230.000 37.467,230.000 35.600 C 230.000 33.733,229.833 32.400,229.600 32.400 C 229.380 32.400,229.200 32.125,229.200 31.789 C 229.200 30.902,225.759 27.600,224.834 27.600 C 224.401 27.600,223.936 27.420,223.800 27.200 C 223.664 26.980,222.573 26.800,221.376 26.800 C 220.179 26.800,219.200 26.980,219.200 27.200 M116.200 46.800 C 116.064 47.020,114.984 47.200,113.800 47.200 C 112.616 47.200,111.536 47.380,111.400 47.600 C 111.264 47.820,110.454 48.000,109.600 48.000 C 108.746 48.000,107.936 48.180,107.800 48.400 C 107.664 48.620,107.023 48.800,106.376 48.800 C 105.729 48.800,105.200 48.980,105.200 49.200 C 105.200 49.420,104.480 49.600,103.600 49.600 C 102.720 49.600,102.000 49.780,102.000 50.000 C 102.000 50.220,101.561 50.400,101.024 50.400 C 100.487 50.400,99.936 50.580,99.800 50.800 C 99.664 51.020,99.203 51.200,98.776 51.200 C 98.349 51.200,98.000 51.380,98.000 51.600 C 98.000 51.820,97.460 52.000,96.800 52.000 C 96.140 52.000,95.600 52.180,95.600 52.400 C 95.600 52.620,95.240 52.800,94.800 52.800 C 94.360 52.800,94.000 52.980,94.000 53.200 C 94.000 53.420,93.640 53.600,93.200 53.600 C 92.760 53.600,92.400 53.780,92.400 54.000 C 92.400 54.220,92.085 54.404,91.700 54.409 C 91.315 54.414,90.550 54.770,90.000 55.200 C 89.450 55.630,88.775 55.986,88.500 55.991 C 88.225 55.996,88.000 56.180,88.000 56.400 C 88.000 56.620,87.640 56.800,87.200 56.800 C 86.760 56.800,86.400 56.980,86.400 57.200 C 86.400 57.420,86.040 57.600,85.600 57.600 C 85.160 57.600,84.800 57.768,84.800 57.973 C 84.800 58.178,84.395 58.473,83.900 58.628 C 82.872 58.950,79.467 61.190,79.267 61.677 C 79.193 61.855,78.923 62.001,78.667 62.002 C 78.410 62.003,77.625 62.543,76.922 63.202 C 76.219 63.861,75.539 64.400,75.412 64.400 C 74.617 64.400,60.400 79.454,60.400 80.296 C 60.400 80.573,60.249 80.800,60.064 80.800 C 59.880 80.800,59.385 81.518,58.964 82.395 C 58.544 83.273,58.065 83.993,57.900 83.995 C 57.735 83.998,57.600 84.320,57.600 84.712 C 57.600 85.103,57.240 85.683,56.800 86.000 C 56.360 86.317,56.000 86.897,56.000 87.288 C 56.000 87.680,55.820 88.000,55.600 88.000 C 55.380 88.000,55.200 88.360,55.200 88.800 C 55.200 89.240,55.020 89.600,54.800 89.600 C 54.580 89.600,54.400 89.960,54.400 90.400 C 54.400 90.840,54.220 91.200,54.000 91.200 C 53.780 91.200,53.600 91.470,53.600 91.800 C 53.600 92.130,53.420 92.400,53.200 92.400 C 52.980 92.400,52.800 92.760,52.800 93.200 C 52.800 93.640,52.620 94.000,52.400 94.000 C 52.180 94.000,52.000 94.360,52.000 94.800 C 52.000 95.240,51.820 95.600,51.600 95.600 C 51.380 95.600,51.200 95.949,51.200 96.376 C 51.200 96.803,51.020 97.264,50.800 97.400 C 50.580 97.536,50.400 98.087,50.400 98.624 C 50.400 99.161,50.220 99.600,50.000 99.600 C 49.780 99.600,49.600 100.020,49.600 100.533 C 49.600 101.047,49.477 101.590,49.326 101.741 C 48.882 102.185,48.013 104.924,48.006 105.900 C 48.003 106.395,47.820 106.800,47.600 106.800 C 47.380 106.800,47.200 107.419,47.200 108.176 C 47.200 108.933,47.020 109.664,46.800 109.800 C 46.580 109.936,46.400 110.847,46.400 111.824 C 46.400 112.801,46.220 113.600,46.000 113.600 C 45.778 113.600,45.600 114.659,45.600 115.976 C 45.600 117.283,45.420 118.464,45.200 118.600 C 44.654 118.938,44.654 140.000,45.200 140.000 C 45.422 140.000,45.600 141.059,45.600 142.376 C 45.600 143.683,45.780 144.864,46.000 145.000 C 46.220 145.136,46.400 146.047,46.400 147.024 C 46.400 148.001,46.580 148.800,46.800 148.800 C 47.020 148.800,47.200 149.520,47.200 150.400 C 47.200 151.280,47.380 152.000,47.600 152.000 C 47.820 152.000,48.000 152.540,48.000 153.200 C 48.000 153.860,48.180 154.400,48.400 154.400 C 48.620 154.400,48.800 154.940,48.800 155.600 C 48.800 156.260,48.980 156.800,49.200 156.800 C 49.420 156.800,49.600 157.250,49.600 157.800 C 49.600 158.350,49.780 158.800,50.000 158.800 C 50.220 158.800,50.400 159.340,50.400 160.000 C 50.400 160.660,50.580 161.200,50.800 161.200 C 51.020 161.200,51.200 161.560,51.200 162.000 C 51.200 162.440,51.380 162.800,51.600 162.800 C 51.820 162.800,52.000 163.160,52.000 163.600 C 52.000 164.040,52.180 164.400,52.400 164.400 C 52.620 164.400,52.800 164.760,52.800 165.200 C 52.800 165.640,52.980 166.000,53.200 166.000 C 53.420 166.000,53.600 166.360,53.600 166.800 C 53.600 167.240,53.780 167.600,54.000 167.600 C 54.220 167.600,54.400 167.960,54.400 168.400 C 54.400 168.840,54.580 169.200,54.800 169.200 C 55.020 169.200,55.200 169.560,55.200 170.000 C 55.200 170.440,55.380 170.800,55.600 170.800 C 55.820 170.800,56.000 171.120,56.000 171.512 C 56.000 171.903,56.360 172.483,56.800 172.800 C 57.240 173.117,57.600 173.697,57.600 174.088 C 57.600 174.480,57.780 174.800,58.000 174.800 C 58.220 174.800,58.400 174.982,58.400 175.203 C 58.400 175.425,58.954 176.370,59.631 177.303 L 60.862 179.000 58.131 179.120 C 56.629 179.187,55.229 179.412,55.020 179.620 C 54.811 179.829,53.866 180.000,52.920 180.000 C 51.974 180.000,51.200 180.180,51.200 180.400 C 51.200 180.620,50.480 180.800,49.600 180.800 C 48.720 180.800,48.000 180.980,48.000 181.200 C 48.000 181.420,47.370 181.600,46.600 181.600 C 45.830 181.600,45.200 181.780,45.200 182.000 C 45.200 182.220,44.761 182.400,44.224 182.400 C 43.687 182.400,43.136 182.580,43.000 182.800 C 42.864 183.020,42.403 183.200,41.976 183.200 C 41.549 183.200,41.200 183.380,41.200 183.600 C 41.200 183.820,40.851 184.000,40.424 184.000 C 39.997 184.000,39.536 184.180,39.400 184.400 C 39.264 184.620,38.713 184.800,38.176 184.800 C 37.639 184.800,37.200 184.980,37.200 185.200 C 37.200 185.420,36.840 185.600,36.400 185.600 C 35.960 185.600,35.600 185.780,35.600 186.000 C 35.600 186.220,35.280 186.400,34.888 186.400 C 34.497 186.400,33.917 186.760,33.600 187.200 C 33.283 187.640,32.703 188.000,32.312 188.000 C 31.920 188.000,31.600 188.180,31.600 188.400 C 31.600 188.620,31.280 188.800,30.888 188.800 C 30.497 188.800,29.917 189.160,29.600 189.600 C 29.283 190.040,28.743 190.400,28.400 190.400 C 28.057 190.400,27.517 190.760,27.200 191.200 C 26.883 191.640,26.431 192.000,26.195 192.000 C 25.959 192.000,25.142 192.585,24.379 193.300 C 23.616 194.015,22.183 195.230,21.196 195.999 C 18.884 197.800,18.007 198.679,16.804 200.400 C 16.266 201.170,15.145 202.461,14.313 203.269 C 13.481 204.076,12.800 204.955,12.800 205.222 C 12.800 205.488,12.466 205.997,12.057 206.353 C 11.020 207.256,8.400 211.431,8.400 212.181 C 8.400 212.521,8.254 212.800,8.075 212.800 C 7.896 212.800,7.502 213.430,7.200 214.200 C 6.898 214.970,6.504 215.600,6.325 215.600 C 6.146 215.600,6.000 215.949,6.000 216.376 C 6.000 216.803,5.820 217.264,5.600 217.400 C 5.380 217.536,5.200 217.997,5.200 218.424 C 5.200 218.851,5.020 219.200,4.800 219.200 C 4.580 219.200,4.400 219.560,4.400 220.000 C 4.400 220.440,4.220 220.800,4.000 220.800 C 3.780 220.800,3.600 221.340,3.600 222.000 C 3.600 222.660,3.420 223.200,3.200 223.200 C 2.980 223.200,2.800 223.740,2.800 224.400 C 2.800 225.060,2.620 225.600,2.400 225.600 C 2.180 225.600,2.000 226.039,2.000 226.576 C 2.000 227.113,1.820 227.664,1.600 227.800 C 1.380 227.936,1.200 228.631,1.200 229.344 C 1.200 230.057,0.975 230.865,0.700 231.140 C 0.018 231.822,-0.027 259.595,0.653 260.438 C 0.902 260.747,1.217 261.675,1.353 262.500 C 1.973 266.262,2.110 266.800,2.444 266.800 C 2.640 266.800,2.800 267.340,2.800 268.000 C 2.800 268.660,2.980 269.200,3.200 269.200 C 3.420 269.200,3.600 269.650,3.600 270.200 C 3.600 270.750,3.780 271.200,4.000 271.200 C 4.220 271.200,4.400 271.549,4.400 271.976 C 4.400 272.403,4.580 272.864,4.800 273.000 C 5.020 273.136,5.200 273.597,5.200 274.024 C 5.200 274.451,5.380 274.800,5.600 274.800 C 5.820 274.800,6.000 275.070,6.000 275.400 C 6.000 275.730,6.180 276.000,6.400 276.000 C 6.620 276.000,6.800 276.360,6.800 276.800 C 6.800 277.240,6.980 277.600,7.200 277.600 C 7.420 277.600,7.600 277.960,7.600 278.400 C 7.600 278.840,7.780 279.200,8.000 279.200 C 8.220 279.200,8.400 279.547,8.400 279.971 C 8.400 280.396,8.670 281.013,9.000 281.343 C 9.330 281.673,9.600 282.058,9.600 282.199 C 9.600 282.477,11.990 286.072,12.393 286.400 C 12.528 286.510,13.073 287.230,13.604 288.000 C 14.135 288.770,15.116 289.905,15.785 290.523 C 22.600 296.822,24.522 299.200,22.800 299.200 C 22.263 299.200,22.263 309.868,22.800 310.200 C 23.020 310.336,23.200 311.157,23.200 312.024 C 23.200 312.891,23.380 313.600,23.600 313.600 C 23.820 313.600,24.000 313.960,24.000 314.400 C 24.000 314.840,24.180 315.200,24.400 315.200 C 24.620 315.200,24.800 315.497,24.800 315.860 C 24.800 316.753,26.805 320.800,27.247 320.800 C 27.441 320.800,27.600 321.051,27.600 321.358 C 27.600 322.006,32.676 326.800,33.362 326.800 C 33.616 326.800,34.083 327.160,34.400 327.600 C 34.717 328.040,35.297 328.400,35.688 328.400 C 36.080 328.400,36.400 328.580,36.400 328.800 C 36.400 329.020,36.760 329.200,37.200 329.200 C 37.640 329.200,38.000 329.380,38.000 329.600 C 38.000 329.820,38.540 330.000,39.200 330.000 C 39.860 330.000,40.400 330.180,40.400 330.400 C 40.400 330.620,40.940 330.800,41.600 330.800 C 42.260 330.800,42.800 330.980,42.800 331.200 C 42.800 331.463,53.933 331.600,75.400 331.600 C 96.867 331.600,108.000 331.463,108.000 331.200 C 108.000 330.980,108.540 330.800,109.200 330.800 C 109.860 330.800,110.400 330.620,110.400 330.400 C 110.400 330.180,110.940 330.000,111.600 330.000 C 112.260 330.000,112.800 329.820,112.800 329.600 C 112.800 329.380,113.120 329.200,113.512 329.200 C 113.903 329.200,114.483 328.840,114.800 328.400 C 115.117 327.960,115.657 327.600,116.000 327.600 C 116.343 327.600,116.883 327.240,117.200 326.800 C 117.517 326.360,118.012 326.000,118.299 326.000 C 118.894 326.000,122.400 322.618,122.400 322.044 C 122.400 321.836,122.558 321.607,122.751 321.533 C 123.369 321.299,125.200 318.316,125.200 317.544 C 125.200 317.135,125.380 316.800,125.600 316.800 C 125.820 316.800,126.000 316.440,126.000 316.000 C 126.000 315.560,126.180 315.200,126.400 315.200 C 126.620 315.200,126.800 314.660,126.800 314.000 L 126.800 312.800 137.400 312.800 C 147.733 312.800,148.000 312.820,148.000 313.600 C 148.000 314.040,148.180 314.400,148.400 314.400 C 148.620 314.400,148.800 314.760,148.800 315.200 C 148.800 315.640,148.980 316.000,149.200 316.000 C 149.420 316.000,149.600 316.360,149.600 316.800 C 149.600 317.240,149.780 317.600,150.000 317.600 C 150.220 317.600,150.400 317.960,150.400 318.400 C 150.400 318.840,150.580 319.200,150.800 319.200 C 151.020 319.200,151.200 319.454,151.200 319.765 C 151.200 320.542,158.397 327.600,159.189 327.600 C 159.415 327.600,159.600 327.780,159.600 328.000 C 159.600 328.220,159.960 328.400,160.400 328.400 C 160.840 328.400,161.200 328.580,161.200 328.800 C 161.200 329.020,161.560 329.200,162.000 329.200 C 162.440 329.200,162.800 329.380,162.800 329.600 C 162.800 329.820,163.160 330.000,163.600 330.000 C 164.040 330.000,164.400 330.180,164.400 330.400 C 164.400 330.620,165.120 330.800,166.000 330.800 C 166.880 330.800,167.600 330.980,167.600 331.200 C 167.600 331.463,178.667 331.600,200.000 331.600 C 221.333 331.600,232.400 331.463,232.400 331.200 C 232.400 330.980,233.120 330.800,234.000 330.800 C 234.880 330.800,235.600 330.620,235.600 330.400 C 235.600 330.180,235.960 330.000,236.400 330.000 C 236.840 330.000,237.200 329.820,237.200 329.600 C 237.200 329.380,237.560 329.200,238.000 329.200 C 238.440 329.200,238.800 329.020,238.800 328.800 C 238.800 328.580,239.160 328.400,239.600 328.400 C 240.040 328.400,240.400 328.220,240.400 328.000 C 240.400 327.780,240.585 327.600,240.811 327.600 C 241.038 327.600,241.803 327.058,242.511 326.395 C 243.220 325.732,244.745 324.304,245.900 323.221 C 247.055 322.138,248.000 321.060,248.000 320.826 C 248.000 320.592,248.180 320.400,248.400 320.400 C 248.620 320.400,248.800 320.130,248.800 319.800 C 248.800 319.470,248.980 319.200,249.200 319.200 C 249.420 319.200,249.600 318.840,249.600 318.400 C 249.600 317.960,249.780 317.600,250.000 317.600 C 250.220 317.600,250.400 317.240,250.400 316.800 C 250.400 316.360,250.580 316.000,250.800 316.000 C 251.020 316.000,251.200 315.766,251.200 315.480 C 251.200 315.194,251.425 314.475,251.700 313.883 L 252.200 312.806 262.700 312.803 L 273.200 312.800 273.200 314.000 C 273.200 314.660,273.380 315.200,273.600 315.200 C 273.820 315.200,274.000 315.560,274.000 316.000 C 274.000 316.440,274.180 316.800,274.400 316.800 C 274.620 316.800,274.800 317.049,274.800 317.354 C 274.800 318.984,280.336 326.000,281.622 326.000 C 281.888 326.000,282.397 326.316,282.753 326.703 C 283.109 327.089,283.895 327.660,284.500 327.970 C 285.105 328.281,285.600 328.685,285.600 328.868 C 285.600 329.050,285.960 329.200,286.400 329.200 C 286.840 329.200,287.200 329.380,287.200 329.600 C 287.200 329.820,287.740 330.000,288.400 330.000 C 289.060 330.000,289.600 330.180,289.600 330.400 C 289.600 330.620,290.140 330.800,290.800 330.800 C 291.460 330.800,292.000 330.980,292.000 331.200 C 292.000 331.463,303.133 331.600,324.600 331.600 C 346.067 331.600,357.200 331.463,357.200 331.200 C 357.200 330.980,357.740 330.800,358.400 330.800 C 359.060 330.800,359.600 330.620,359.600 330.400 C 359.600 330.180,360.140 330.000,360.800 330.000 C 361.460 330.000,362.000 329.820,362.000 329.600 C 362.000 329.380,362.360 329.200,362.800 329.200 C 363.240 329.200,363.600 329.020,363.600 328.800 C 363.600 328.580,363.920 328.400,364.312 328.400 C 364.703 328.400,365.283 328.040,365.600 327.600 C 365.917 327.160,366.384 326.800,366.638 326.800 C 367.206 326.800,372.400 322.060,372.400 321.541 C 372.400 321.335,372.760 320.780,373.200 320.308 C 373.640 319.836,374.000 319.213,374.000 318.925 C 374.000 318.636,374.178 318.400,374.395 318.400 C 374.613 318.400,374.906 317.680,375.046 316.800 C 375.187 315.920,375.459 315.200,375.651 315.200 C 375.843 315.200,376.000 314.840,376.000 314.400 C 376.000 313.960,376.180 313.600,376.400 313.600 C 376.620 313.600,376.800 312.801,376.800 311.824 C 376.800 310.847,376.980 309.936,377.200 309.800 C 377.433 309.656,377.600 307.396,377.600 304.376 C 377.600 301.192,377.446 299.200,377.200 299.200 C 375.618 299.200,378.423 295.355,381.500 293.307 C 381.995 292.978,382.400 292.459,382.400 292.154 C 382.400 291.849,382.574 291.600,382.787 291.600 C 383.465 291.600,387.200 287.534,387.200 286.795 C 387.200 286.578,387.350 286.400,387.532 286.400 C 387.715 286.400,388.120 285.905,388.432 285.300 C 388.745 284.695,389.315 283.851,389.700 283.425 C 390.085 282.998,390.400 282.490,390.400 282.296 C 390.400 282.102,390.670 281.673,391.000 281.343 C 391.330 281.013,391.600 280.396,391.600 279.971 C 391.600 279.547,391.780 279.200,392.000 279.200 C 392.220 279.200,392.400 278.840,392.400 278.400 C 392.400 277.960,392.580 277.600,392.800 277.600 C 393.020 277.600,393.200 277.240,393.200 276.800 C 393.200 276.360,393.380 276.000,393.600 276.000 C 393.820 276.000,394.000 275.730,394.000 275.400 C 394.000 275.070,394.180 274.800,394.400 274.800 C 394.620 274.800,394.800 274.440,394.800 274.000 C 394.800 273.560,394.980 273.200,395.200 273.200 C 395.420 273.200,395.600 272.761,395.600 272.224 C 395.600 271.687,395.780 271.136,396.000 271.000 C 396.220 270.864,396.400 270.403,396.400 269.976 C 396.400 269.549,396.580 269.200,396.800 269.200 C 397.020 269.200,397.200 268.660,397.200 268.000 C 397.200 267.340,397.380 266.800,397.600 266.800 C 397.820 266.800,398.000 266.181,398.000 265.424 C 398.000 264.667,398.180 263.936,398.400 263.800 C 398.620 263.664,398.800 262.969,398.800 262.256 C 398.800 261.543,399.025 260.735,399.300 260.460 C 399.681 260.079,399.800 256.594,399.800 245.800 C 399.800 235.005,399.681 231.521,399.300 231.140 C 399.025 230.865,398.800 230.046,398.800 229.320 C 398.800 228.594,398.620 228.000,398.400 228.000 C 398.180 228.000,398.000 227.460,398.000 226.800 C 398.000 226.140,397.820 225.600,397.600 225.600 C 397.380 225.600,397.200 225.060,397.200 224.400 C 397.200 223.740,397.020 223.200,396.800 223.200 C 396.580 223.200,396.400 222.660,396.400 222.000 C 396.400 221.340,396.220 220.800,396.000 220.800 C 395.780 220.800,395.600 220.440,395.600 220.000 C 395.600 219.560,395.420 219.200,395.200 219.200 C 394.980 219.200,394.800 218.840,394.800 218.400 C 394.800 217.960,394.620 217.600,394.400 217.600 C 394.180 217.600,394.000 217.150,394.000 216.600 C 394.000 216.050,393.820 215.600,393.600 215.600 C 393.380 215.600,393.200 215.330,393.200 215.000 C 393.200 214.670,393.020 214.400,392.800 214.400 C 392.580 214.400,392.400 214.040,392.400 213.600 C 392.400 213.160,392.220 212.800,392.000 212.800 C 391.780 212.800,391.600 212.521,391.600 212.181 C 391.600 211.538,389.150 207.493,388.163 206.506 C 387.853 206.196,387.600 205.792,387.600 205.607 C 387.600 205.423,386.610 204.242,385.400 202.982 C 384.190 201.723,383.200 200.518,383.200 200.304 C 383.200 199.877,379.198 196.000,378.757 196.000 C 378.607 196.000,377.626 195.190,376.578 194.200 C 375.530 193.210,374.549 192.400,374.399 192.400 C 374.248 192.400,373.601 191.950,372.962 191.400 C 372.323 190.851,371.615 190.401,371.388 190.400 C 371.162 190.400,370.717 190.040,370.400 189.600 C 370.083 189.160,369.503 188.800,369.112 188.800 C 368.720 188.800,368.400 188.620,368.400 188.400 C 368.400 188.180,368.122 188.000,367.783 188.000 C 367.444 188.000,366.780 187.640,366.308 187.200 C 365.836 186.760,365.213 186.400,364.925 186.400 C 364.636 186.400,364.400 186.220,364.400 186.000 C 364.400 185.780,364.128 185.600,363.795 185.600 C 363.462 185.600,362.832 185.420,362.395 185.200 C 361.958 184.980,361.242 184.620,360.805 184.400 C 360.368 184.180,359.738 184.000,359.405 184.000 C 359.072 184.000,358.800 183.820,358.800 183.600 C 358.800 183.380,358.331 183.200,357.758 183.200 C 356.759 183.200,356.726 183.130,356.972 181.500 C 357.113 180.565,357.422 178.450,357.660 176.800 C 358.253 172.679,358.246 154.584,357.650 150.600 C 357.386 148.840,357.071 146.500,356.948 145.400 C 356.826 144.300,356.563 143.229,356.363 143.020 C 356.163 142.811,356.000 141.956,356.000 141.120 C 356.000 140.284,355.820 139.600,355.600 139.600 C 355.380 139.600,355.200 138.981,355.200 138.224 C 355.200 137.467,355.020 136.736,354.800 136.600 C 354.580 136.464,354.400 135.823,354.400 135.176 C 354.400 134.529,354.220 134.000,354.000 134.000 C 353.780 134.000,353.600 133.460,353.600 132.800 C 353.600 132.140,353.420 131.600,353.200 131.600 C 352.980 131.600,352.800 131.060,352.800 130.400 C 352.800 129.740,352.620 129.200,352.400 129.200 C 352.180 129.200,352.000 128.845,352.000 128.412 C 352.000 127.979,351.640 126.983,351.200 126.200 C 350.760 125.417,350.400 124.421,350.400 123.988 C 350.400 123.555,350.220 123.200,350.000 123.200 C 349.780 123.200,349.600 122.840,349.600 122.400 C 349.600 121.960,349.420 121.600,349.200 121.600 C 348.980 121.600,348.800 121.240,348.800 120.800 C 348.800 120.360,348.620 120.000,348.400 120.000 C 348.180 120.000,348.000 119.640,348.000 119.200 C 348.000 118.760,347.820 118.400,347.600 118.400 C 347.380 118.400,347.200 118.040,347.200 117.600 C 347.200 117.160,347.020 116.800,346.800 116.800 C 346.580 116.800,346.400 116.440,346.400 116.000 C 346.400 115.560,346.220 115.200,346.000 115.200 C 345.780 115.200,345.600 114.840,345.600 114.400 C 345.600 113.960,345.420 113.600,345.200 113.600 C 344.980 113.600,344.800 113.330,344.800 113.000 C 344.800 112.670,344.620 112.400,344.400 112.400 C 344.180 112.400,344.000 112.130,344.000 111.800 C 344.000 111.470,343.820 111.200,343.600 111.200 C 343.380 111.200,343.200 110.964,343.200 110.675 C 343.200 110.387,342.862 109.788,342.449 109.345 C 342.036 108.901,341.574 108.147,341.422 107.669 C 341.270 107.191,340.978 106.800,340.773 106.800 C 340.568 106.800,340.400 106.575,340.400 106.300 C 340.399 106.025,339.949 105.277,339.400 104.638 C 338.850 103.999,338.400 103.330,338.400 103.151 C 338.400 102.973,337.770 102.197,337.000 101.427 C 336.230 100.657,335.600 99.852,335.600 99.638 C 335.600 99.272,332.043 95.670,325.185 89.092 C 321.622 85.675,318.730 83.200,318.301 83.200 C 318.131 83.200,317.428 82.660,316.737 82.000 C 316.046 81.340,315.321 80.800,315.124 80.800 C 314.927 80.800,314.380 80.440,313.908 80.000 C 313.436 79.560,312.813 79.200,312.525 79.200 C 312.236 79.200,312.000 79.032,312.000 78.827 C 312.000 78.622,311.641 78.340,311.202 78.201 C 310.764 78.062,310.179 77.734,309.902 77.474 C 309.626 77.213,308.320 76.460,307.000 75.800 C 305.680 75.140,304.540 74.465,304.467 74.300 C 304.393 74.135,303.988 74.000,303.567 74.000 C 303.145 74.000,302.800 73.820,302.800 73.600 C 302.800 73.380,302.440 73.200,302.000 73.200 C 301.560 73.200,301.200 73.020,301.200 72.800 C 301.200 72.580,300.750 72.400,300.200 72.400 C 299.650 72.400,299.200 72.220,299.200 72.000 C 299.200 71.780,298.750 71.600,298.200 71.600 C 297.650 71.600,297.200 71.420,297.200 71.200 C 297.200 70.980,296.840 70.800,296.400 70.800 C 295.960 70.800,295.600 70.620,295.600 70.400 C 295.600 70.180,295.060 70.000,294.400 70.000 C 293.740 70.000,293.200 69.820,293.200 69.600 C 293.200 69.380,292.851 69.200,292.424 69.200 C 291.997 69.200,291.536 69.020,291.400 68.800 C 291.264 68.580,290.713 68.400,290.176 68.400 C 289.639 68.400,289.200 68.220,289.200 68.000 C 289.200 67.780,288.570 67.600,287.800 67.600 C 287.030 67.600,286.400 67.420,286.400 67.200 C 286.400 66.980,285.860 66.800,285.200 66.800 C 284.540 66.800,284.000 66.620,284.000 66.400 C 284.000 66.180,283.291 66.000,282.424 66.000 C 281.557 66.000,280.736 65.820,280.600 65.600 C 280.464 65.380,279.553 65.200,278.576 65.200 C 277.599 65.200,276.800 65.020,276.800 64.800 C 276.800 64.578,275.733 64.400,274.400 64.400 C 273.067 64.400,272.000 64.222,272.000 64.000 C 272.000 63.762,270.475 63.600,268.224 63.600 C 266.137 63.600,264.337 63.421,264.200 63.200 C 263.869 62.665,251.731 62.665,251.400 63.200 C 251.264 63.421,249.470 63.600,247.400 63.600 C 245.330 63.600,243.536 63.779,243.400 64.000 C 243.264 64.220,242.173 64.400,240.976 64.400 C 239.779 64.400,238.800 64.580,238.800 64.800 C 238.800 65.020,237.900 65.200,236.800 65.200 C 235.700 65.200,234.800 65.380,234.800 65.600 C 234.800 65.820,234.080 66.000,233.200 66.000 C 232.320 66.000,231.600 66.180,231.600 66.400 C 231.600 66.620,230.981 66.800,230.224 66.800 C 229.467 66.800,228.736 66.980,228.600 67.200 C 228.464 67.420,227.924 67.600,227.400 67.600 C 226.876 67.600,226.336 67.780,226.200 68.000 C 226.064 68.220,225.513 68.400,224.976 68.400 C 224.439 68.400,224.000 68.580,224.000 68.800 C 224.000 69.020,223.460 69.200,222.800 69.200 C 222.140 69.200,221.600 69.380,221.600 69.600 C 221.600 69.820,221.240 70.000,220.800 70.000 C 220.360 70.000,220.000 70.180,220.000 70.400 C 220.000 70.620,219.460 70.800,218.800 70.800 C 218.140 70.800,217.600 70.980,217.600 71.200 C 217.600 71.420,217.240 71.600,216.800 71.600 C 216.360 71.600,216.000 71.780,216.000 72.000 C 216.000 72.220,215.640 72.400,215.200 72.400 C 214.760 72.400,214.400 72.580,214.400 72.800 C 214.400 73.020,214.040 73.200,213.600 73.200 C 213.160 73.200,212.800 73.380,212.800 73.600 C 212.800 73.820,212.440 74.000,212.000 74.000 C 211.560 74.000,211.200 74.180,211.200 74.400 C 211.200 74.620,210.947 74.800,210.638 74.800 C 210.330 74.800,208.962 75.430,207.600 76.200 C 206.238 76.970,204.960 77.600,204.762 77.600 C 204.563 77.600,204.400 77.780,204.400 78.000 C 204.400 78.220,204.164 78.400,203.875 78.400 C 203.587 78.400,202.964 78.760,202.492 79.200 C 202.020 79.640,201.491 80.000,201.317 80.001 C 201.143 80.001,200.370 80.541,199.600 81.200 C 197.838 82.708,196.709 82.739,195.970 81.300 C 195.660 80.695,195.089 79.909,194.703 79.553 C 194.316 79.197,194.000 78.702,194.000 78.453 C 194.000 78.204,193.820 78.000,193.600 78.000 C 193.380 78.000,193.200 77.796,193.200 77.547 C 193.200 77.298,192.879 76.803,192.486 76.447 C 192.093 76.091,191.058 74.900,190.186 73.801 C 188.283 71.401,183.654 66.800,183.143 66.800 C 182.943 66.800,181.969 65.990,180.979 65.000 C 179.989 64.010,179.012 63.200,178.808 63.200 C 178.603 63.200,178.023 62.793,177.518 62.295 C 176.334 61.129,172.199 58.400,171.615 58.400 C 171.369 58.400,170.780 58.040,170.308 57.600 C 169.836 57.160,169.213 56.800,168.925 56.800 C 168.636 56.800,168.400 56.620,168.400 56.400 C 168.400 56.180,168.040 56.000,167.600 56.000 C 167.160 56.000,166.800 55.820,166.800 55.600 C 166.800 55.380,166.440 55.200,166.000 55.200 C 165.560 55.200,165.200 55.020,165.200 54.800 C 165.200 54.580,164.840 54.400,164.400 54.400 C 163.960 54.400,163.600 54.220,163.600 54.000 C 163.600 53.780,163.240 53.600,162.800 53.600 C 162.360 53.600,162.000 53.420,162.000 53.200 C 162.000 52.980,161.460 52.800,160.800 52.800 C 160.140 52.800,159.600 52.620,159.600 52.400 C 159.600 52.180,159.240 52.000,158.800 52.000 C 158.360 52.000,158.000 51.820,158.000 51.600 C 158.000 51.380,157.550 51.200,157.000 51.200 C 156.450 51.200,156.000 51.020,156.000 50.800 C 156.000 50.580,155.460 50.400,154.800 50.400 C 154.140 50.400,153.600 50.220,153.600 50.000 C 153.600 49.780,153.071 49.600,152.424 49.600 C 151.777 49.600,151.136 49.420,151.000 49.200 C 150.864 48.980,150.133 48.800,149.376 48.800 C 148.619 48.800,148.000 48.620,148.000 48.400 C 148.000 48.180,147.100 48.000,146.000 48.000 C 144.900 48.000,144.000 47.820,144.000 47.600 C 144.000 47.380,143.021 47.200,141.824 47.200 C 140.627 47.200,139.536 47.020,139.400 46.800 C 139.245 46.549,134.937 46.400,127.800 46.400 C 120.663 46.400,116.355 46.549,116.200 46.800 M136.835 62.988 C 138.906 63.311,141.050 63.682,141.600 63.812 C 142.150 63.943,143.410 64.240,144.400 64.473 C 159.412 68.010,173.704 77.967,182.959 91.336 C 185.592 95.139,185.601 94.856,182.738 98.105 C 178.902 102.457,172.800 110.567,172.800 111.312 C 172.800 111.425,172.113 112.662,171.273 114.059 C 167.227 120.793,162.635 132.109,161.030 139.300 C 160.696 140.796,159.067 140.473,154.305 137.966 C 153.923 137.765,153.259 137.600,152.829 137.600 C 152.399 137.600,151.949 137.441,151.829 137.246 C 151.708 137.051,151.113 136.797,150.505 136.680 C 149.897 136.564,148.140 136.195,146.600 135.860 C 126.265 131.438,105.869 139.209,92.800 156.358 C 88.888 161.491,83.600 173.942,83.600 178.020 C 83.600 179.407,82.662 178.861,79.678 175.738 C 63.587 158.900,57.427 135.975,62.874 113.200 C 66.657 97.383,76.698 83.271,91.187 73.408 C 99.101 68.021,107.876 64.718,119.200 62.865 C 122.800 62.276,132.717 62.345,136.835 62.988 M268.600 80.033 C 273.542 80.759,275.726 81.206,280.600 82.487 C 285.497 83.774,293.239 86.946,298.000 89.616 C 299.650 90.541,301.675 91.670,302.500 92.123 C 303.325 92.577,304.000 93.095,304.000 93.274 C 304.000 93.453,304.236 93.600,304.525 93.600 C 304.813 93.600,305.398 93.920,305.825 94.311 C 306.251 94.702,307.230 95.464,308.000 96.005 C 313.378 99.783,320.212 106.567,325.004 112.884 C 333.442 124.008,338.932 136.878,341.179 150.800 C 342.738 160.464,342.263 173.199,339.986 182.800 C 337.894 191.622,339.128 194.613,345.600 196.408 C 365.558 201.943,379.647 216.779,383.582 236.405 C 384.495 240.961,384.719 250.591,383.989 253.923 C 383.762 254.955,383.386 256.700,383.152 257.800 C 381.451 265.794,377.035 273.971,370.569 281.100 C 367.578 284.397,367.399 284.450,364.961 282.773 C 358.688 278.457,358.162 278.400,324.599 278.400 C 291.060 278.400,290.919 278.416,284.400 282.844 C 279.850 285.935,274.400 292.686,274.400 295.230 C 274.400 297.077,273.660 297.200,262.571 297.200 C 252.306 297.200,250.800 297.092,250.800 296.353 C 250.800 292.636,243.249 284.040,237.513 281.227 C 231.731 278.392,231.843 278.400,200.000 278.400 C 168.138 278.400,168.273 278.390,162.460 281.240 C 156.928 283.953,151.363 290.053,149.633 295.300 C 148.982 297.273,149.183 297.244,137.007 297.112 L 126.614 297.000 125.007 293.762 C 121.149 285.990,115.354 281.223,107.294 279.192 C 103.169 278.152,48.906 277.966,44.126 278.975 C 40.959 279.644,37.423 281.133,34.931 282.848 C 32.611 284.444,32.335 284.338,29.031 280.579 C 21.482 271.991,18.461 265.739,16.029 253.669 C 15.475 250.917,15.475 241.083,16.029 238.331 C 16.883 234.094,18.105 229.392,18.449 229.020 C 18.642 228.811,18.800 228.373,18.800 228.047 C 18.800 227.721,19.701 225.642,20.803 223.427 C 27.755 209.450,41.271 199.065,56.600 195.923 C 59.702 195.288,71.824 195.068,74.600 195.596 C 80.468 196.714,84.540 197.969,87.695 199.634 C 88.997 200.321,92.678 200.055,94.274 199.158 C 97.583 197.300,98.128 195.729,98.217 187.800 C 98.267 183.315,98.479 180.742,98.926 179.200 C 99.276 177.990,99.679 176.550,99.821 176.000 C 99.963 175.450,100.314 174.460,100.602 173.800 C 100.889 173.140,101.392 171.947,101.721 171.149 C 110.473 149.885,142.711 143.040,159.800 158.818 C 163.019 161.791,166.689 162.444,169.830 160.604 C 172.626 158.965,173.258 157.441,174.392 149.600 C 174.631 147.950,175.013 145.880,175.240 145.000 C 176.457 140.298,177.228 137.560,177.607 136.600 C 177.780 136.160,178.328 134.720,178.824 133.400 C 190.233 103.047,219.188 81.651,251.600 79.623 C 257.085 79.279,264.723 79.464,268.600 80.033 M254.201 96.209 C 247.170 100.001,249.807 110.400,257.800 110.400 C 265.116 110.400,268.253 101.340,262.466 96.925 C 260.624 95.519,256.191 95.135,254.201 96.209 M285.697 103.916 C 282.823 104.819,280.743 107.784,280.714 111.019 C 280.683 114.474,281.614 115.775,286.425 118.996 C 295.167 124.849,303.259 134.511,306.697 143.200 C 306.915 143.750,307.279 144.650,307.506 145.200 C 308.316 147.159,309.051 149.666,309.970 153.600 C 310.201 154.590,310.570 157.789,310.790 160.709 C 311.019 163.760,311.431 166.482,311.759 167.109 C 314.367 172.102,320.991 172.674,324.590 168.217 L 325.800 166.719 325.766 161.011 C 325.695 149.223,319.827 131.197,314.010 124.896 C 313.656 124.513,312.752 123.300,312.000 122.200 C 309.882 119.102,301.967 111.305,298.400 108.804 C 297.630 108.264,296.651 107.502,296.225 107.111 C 295.798 106.720,295.291 106.400,295.097 106.400 C 294.903 106.400,293.933 105.842,292.941 105.159 C 291.064 103.868,287.692 103.289,285.697 103.916 M5.200 121.200 C 5.200 121.420,4.928 121.600,4.595 121.600 C 1.544 121.600,0.200 123.997,0.200 129.436 L 0.200 134.309 1.778 135.754 C 2.646 136.550,3.771 137.200,4.278 137.200 C 4.785 137.200,5.200 137.380,5.200 137.600 C 5.200 137.856,8.933 138.000,15.600 138.000 C 22.267 138.000,26.000 137.856,26.000 137.600 C 26.000 137.380,26.415 137.200,26.922 137.200 C 28.004 137.200,30.800 134.782,30.800 133.846 C 30.800 133.491,30.980 133.200,31.200 133.200 C 31.439 133.200,31.600 131.667,31.600 129.400 C 31.600 127.133,31.439 125.600,31.200 125.600 C 30.980 125.600,30.800 125.322,30.800 124.982 C 30.800 123.905,27.942 121.600,26.605 121.600 C 26.272 121.600,26.000 121.420,26.000 121.200 C 26.000 120.944,22.267 120.800,15.600 120.800 C 8.933 120.800,5.200 120.944,5.200 121.200 M104.305 293.953 C 104.687 294.148,105.526 294.553,106.169 294.853 C 115.270 299.107,113.621 312.864,103.706 315.404 C 99.333 316.525,47.670 316.110,45.126 314.934 C 36.417 310.909,36.305 298.678,44.941 294.616 L 47.000 293.648 75.305 293.624 C 90.947 293.611,103.922 293.758,104.305 293.953 M229.218 294.106 C 238.987 297.511,239.490 310.576,230.020 314.958 C 228.224 315.789,227.829 315.800,200.000 315.800 L 171.800 315.800 169.504 314.673 C 160.989 310.491,161.164 298.580,169.800 294.574 L 171.800 293.646 199.800 293.629 C 221.030 293.616,228.143 293.732,229.218 294.106 M354.927 294.584 C 363.580 298.542,363.796 310.498,355.290 314.676 L 353.000 315.800 325.000 315.800 C 293.614 315.800,294.874 315.910,291.507 312.869 C 285.870 307.775,287.129 297.927,293.812 294.854 C 294.465 294.553,295.270 294.159,295.600 293.977 C 295.930 293.796,308.930 293.636,324.488 293.624 L 352.776 293.600 354.927 294.584 M99.800 346.800 C 99.664 347.020,99.023 347.200,98.376 347.200 C 97.729 347.200,97.200 347.380,97.200 347.600 C 97.200 347.820,96.750 348.000,96.200 348.000 C 95.650 348.000,95.200 348.180,95.200 348.400 C 95.200 348.620,94.840 348.800,94.400 348.800 C 93.960 348.800,93.600 348.980,93.600 349.200 C 93.600 349.420,93.330 349.600,93.000 349.600 C 92.670 349.600,92.400 349.780,92.400 350.000 C 92.400 350.220,92.170 350.400,91.888 350.400 C 91.607 350.400,91.117 350.760,90.800 351.200 C 90.483 351.640,89.988 352.000,89.701 352.000 C 89.122 352.000,85.600 355.375,85.600 355.930 C 85.600 356.123,85.089 356.816,84.465 357.469 C 83.841 358.121,83.078 359.228,82.768 359.928 C 82.458 360.628,82.069 361.200,81.902 361.200 C 81.736 361.200,81.600 361.549,81.600 361.976 C 81.600 362.403,81.420 362.864,81.200 363.000 C 80.980 363.136,80.800 363.676,80.800 364.200 C 80.800 364.724,80.620 365.264,80.400 365.400 C 80.180 365.536,80.000 366.447,80.000 367.424 C 80.000 368.401,79.820 369.200,79.600 369.200 C 79.359 369.200,79.200 370.867,79.200 373.400 C 79.200 375.933,79.359 377.600,79.600 377.600 C 79.820 377.600,80.000 378.500,80.000 379.600 C 80.000 380.700,80.180 381.600,80.400 381.600 C 80.620 381.600,80.800 382.039,80.800 382.576 C 80.800 383.113,80.980 383.664,81.200 383.800 C 81.420 383.936,81.600 384.397,81.600 384.824 C 81.600 385.251,81.780 385.600,82.000 385.600 C 82.220 385.600,82.400 385.960,82.400 386.400 C 82.400 386.840,82.580 387.200,82.800 387.200 C 83.020 387.200,83.200 387.470,83.200 387.800 C 83.200 388.130,83.380 388.400,83.600 388.400 C 83.820 388.400,84.000 388.630,84.000 388.912 C 84.000 389.193,84.360 389.683,84.800 390.000 C 85.240 390.317,85.600 390.722,85.600 390.899 C 85.600 391.433,89.139 394.800,89.701 394.800 C 89.988 394.800,90.483 395.160,90.800 395.600 C 91.117 396.040,91.607 396.400,91.888 396.400 C 92.170 396.400,92.400 396.580,92.400 396.800 C 92.400 397.020,92.670 397.200,93.000 397.200 C 93.330 397.200,93.600 397.380,93.600 397.600 C 93.600 397.820,93.960 398.000,94.400 398.000 C 94.840 398.000,95.200 398.180,95.200 398.400 C 95.200 398.620,95.635 398.800,96.167 398.800 C 96.698 398.800,97.208 399.025,97.300 399.300 C 97.544 400.033,156.856 400.033,157.100 399.300 C 157.192 399.025,157.612 398.800,158.033 398.800 C 158.455 398.800,158.800 398.620,158.800 398.400 C 158.800 398.180,159.160 398.000,159.600 398.000 C 160.040 398.000,160.400 397.820,160.400 397.600 C 160.400 397.380,160.760 397.200,161.200 397.200 C 161.640 397.200,162.000 397.020,162.000 396.800 C 162.000 396.580,162.267 396.400,162.593 396.400 C 163.565 396.400,170.800 389.437,170.800 388.502 C 170.800 388.226,170.935 387.999,171.100 387.997 C 171.459 387.993,172.400 386.056,172.400 385.320 C 172.400 385.034,172.580 384.800,172.800 384.800 C 173.020 384.800,173.200 384.528,173.200 384.195 C 173.200 383.862,173.358 383.277,173.551 382.895 C 175.771 378.500,175.144 363.150,172.701 362.067 C 172.535 361.993,172.396 361.633,172.391 361.267 C 172.386 360.900,172.030 360.150,171.600 359.600 C 171.170 359.050,170.814 358.459,170.809 358.287 C 170.804 358.114,170.215 357.365,169.500 356.622 C 168.785 355.878,167.815 354.849,167.345 354.335 C 165.561 352.385,163.164 350.400,162.593 350.400 C 162.267 350.400,161.999 350.265,161.997 350.100 C 161.993 349.741,160.056 348.800,159.320 348.800 C 159.034 348.800,158.800 348.620,158.800 348.400 C 158.800 348.180,158.440 348.000,158.000 348.000 C 157.560 348.000,157.200 347.820,157.200 347.600 C 157.200 347.380,156.570 347.200,155.800 347.200 C 155.030 347.200,154.400 347.020,154.400 346.800 C 154.400 346.537,145.075 346.400,127.224 346.400 C 109.537 346.400,99.961 346.540,99.800 346.800 M209.400 346.800 C 209.264 347.020,208.623 347.200,207.976 347.200 C 207.329 347.200,206.800 347.380,206.800 347.600 C 206.800 347.820,206.457 348.000,206.038 348.000 C 205.131 348.000,202.000 349.608,202.000 350.074 C 202.000 350.253,201.680 350.400,201.288 350.400 C 200.897 350.400,200.317 350.760,200.000 351.200 C 199.683 351.640,199.228 352.000,198.990 352.000 C 198.386 352.000,195.958 354.319,194.802 356.000 C 194.272 356.770,193.736 357.490,193.610 357.600 C 193.043 358.096,192.000 360.031,192.000 360.586 C 192.000 360.924,191.820 361.200,191.600 361.200 C 191.380 361.200,191.200 361.560,191.200 362.000 C 191.200 362.440,191.020 362.800,190.800 362.800 C 190.580 362.800,190.400 363.340,190.400 364.000 C 190.400 364.660,190.220 365.200,190.000 365.200 C 189.780 365.200,189.600 366.100,189.600 367.200 C 189.600 368.300,189.420 369.200,189.200 369.200 C 188.959 369.200,188.800 370.867,188.800 373.400 C 188.800 375.933,188.959 377.600,189.200 377.600 C 189.420 377.600,189.600 378.500,189.600 379.600 C 189.600 380.700,189.780 381.600,190.000 381.600 C 190.220 381.600,190.400 382.140,190.400 382.800 C 190.400 383.460,190.580 384.000,190.800 384.000 C 191.020 384.000,191.200 384.360,191.200 384.800 C 191.200 385.240,191.380 385.600,191.600 385.600 C 191.820 385.600,192.000 385.942,192.000 386.360 C 192.000 387.775,197.742 394.800,198.898 394.800 C 199.187 394.800,199.683 395.160,200.000 395.600 C 200.317 396.040,200.857 396.400,201.200 396.400 C 201.543 396.400,202.083 396.760,202.400 397.200 C 202.717 397.640,203.297 398.000,203.688 398.000 C 204.080 398.000,204.400 398.180,204.400 398.400 C 204.400 398.620,204.925 398.800,205.567 398.800 C 206.208 398.800,206.808 399.025,206.900 399.300 C 207.031 399.693,212.409 399.800,232.000 399.800 C 251.591 399.800,256.969 399.693,257.100 399.300 C 257.192 399.025,257.612 398.800,258.033 398.800 C 258.455 398.800,258.800 398.620,258.800 398.400 C 258.800 398.180,259.160 398.000,259.600 398.000 C 260.040 398.000,260.400 397.820,260.400 397.600 C 260.400 397.380,260.760 397.200,261.200 397.200 C 261.640 397.200,262.000 397.020,262.000 396.800 C 262.000 396.580,262.267 396.400,262.593 396.400 C 263.565 396.400,270.800 389.437,270.800 388.502 C 270.800 388.226,270.935 387.999,271.100 387.997 C 271.459 387.993,272.400 386.056,272.400 385.320 C 272.400 385.034,272.580 384.800,272.800 384.800 C 273.020 384.800,273.200 384.528,273.200 384.195 C 273.200 383.862,273.358 383.277,273.551 382.895 C 275.771 378.500,275.144 363.150,272.701 362.067 C 272.535 361.993,272.396 361.633,272.391 361.267 C 272.386 360.900,272.030 360.150,271.600 359.600 C 271.170 359.050,270.814 358.459,270.809 358.287 C 270.804 358.114,270.215 357.365,269.500 356.622 C 268.785 355.878,267.815 354.849,267.345 354.335 C 265.561 352.385,263.164 350.400,262.593 350.400 C 262.267 350.400,261.999 350.265,261.997 350.100 C 261.993 349.741,260.056 348.800,259.320 348.800 C 259.034 348.800,258.800 348.620,258.800 348.400 C 258.800 348.180,258.440 348.000,258.000 348.000 C 257.560 348.000,257.200 347.820,257.200 347.600 C 257.200 347.380,256.570 347.200,255.800 347.200 C 255.030 347.200,254.400 347.020,254.400 346.800 C 254.400 346.538,246.675 346.400,232.024 346.400 C 217.537 346.400,209.560 346.541,209.400 346.800 M309.400 346.800 C 309.264 347.020,308.623 347.200,307.976 347.200 C 307.329 347.200,306.800 347.380,306.800 347.600 C 306.800 347.820,306.457 348.000,306.038 348.000 C 305.131 348.000,302.000 349.608,302.000 350.074 C 302.000 350.253,301.680 350.400,301.288 350.400 C 300.897 350.400,300.317 350.760,300.000 351.200 C 299.683 351.640,299.228 352.000,298.990 352.000 C 298.386 352.000,295.958 354.319,294.802 356.000 C 294.272 356.770,293.736 357.490,293.610 357.600 C 293.043 358.096,292.000 360.031,292.000 360.586 C 292.000 360.924,291.820 361.200,291.600 361.200 C 291.380 361.200,291.200 361.560,291.200 362.000 C 291.200 362.440,291.020 362.800,290.800 362.800 C 290.580 362.800,290.400 363.340,290.400 364.000 C 290.400 364.660,290.220 365.200,290.000 365.200 C 289.780 365.200,289.600 366.100,289.600 367.200 C 289.600 368.300,289.420 369.200,289.200 369.200 C 288.959 369.200,288.800 370.867,288.800 373.400 C 288.800 375.933,288.959 377.600,289.200 377.600 C 289.420 377.600,289.600 378.500,289.600 379.600 C 289.600 380.700,289.780 381.600,290.000 381.600 C 290.220 381.600,290.400 382.140,290.400 382.800 C 290.400 383.460,290.580 384.000,290.800 384.000 C 291.020 384.000,291.200 384.360,291.200 384.800 C 291.200 385.240,291.380 385.600,291.600 385.600 C 291.820 385.600,292.000 385.942,292.000 386.360 C 292.000 387.775,297.742 394.800,298.898 394.800 C 299.187 394.800,299.683 395.160,300.000 395.600 C 300.317 396.040,300.857 396.400,301.200 396.400 C 301.543 396.400,302.083 396.760,302.400 397.200 C 302.717 397.640,303.297 398.000,303.688 398.000 C 304.080 398.000,304.400 398.180,304.400 398.400 C 304.400 398.620,304.925 398.800,305.567 398.800 C 306.208 398.800,306.808 399.025,306.900 399.300 C 307.031 399.693,312.649 399.800,333.200 399.800 C 353.751 399.800,359.369 399.693,359.500 399.300 C 359.592 399.025,360.192 398.800,360.833 398.800 C 361.475 398.800,362.000 398.620,362.000 398.400 C 362.000 398.180,362.360 398.000,362.800 398.000 C 363.240 398.000,363.600 397.820,363.600 397.600 C 363.600 397.380,363.920 397.200,364.312 397.200 C 364.703 397.200,365.283 396.840,365.600 396.400 C 365.917 395.960,366.386 395.600,366.642 395.600 C 367.205 395.600,372.400 390.619,372.400 390.080 C 372.400 389.870,372.658 389.484,372.974 389.222 C 373.783 388.550,375.200 385.728,375.200 384.788 C 375.200 384.354,375.380 384.000,375.600 384.000 C 375.820 384.000,376.000 383.640,376.000 383.200 C 376.000 382.760,376.180 382.400,376.400 382.400 C 376.620 382.400,376.800 381.601,376.800 380.624 C 376.800 379.647,376.980 378.736,377.200 378.600 C 377.432 378.457,377.600 376.270,377.600 373.400 C 377.600 370.530,377.432 368.343,377.200 368.200 C 376.980 368.064,376.800 367.254,376.800 366.400 C 376.800 365.546,376.620 364.736,376.400 364.600 C 376.180 364.464,376.000 364.003,376.000 363.576 C 376.000 363.149,375.820 362.800,375.600 362.800 C 375.380 362.800,375.200 362.423,375.200 361.962 C 375.200 360.979,374.098 358.876,373.100 357.953 C 372.715 357.597,372.400 357.089,372.400 356.823 C 372.400 356.267,367.296 351.200,366.737 351.200 C 366.533 351.200,365.980 350.840,365.508 350.400 C 365.036 349.960,364.413 349.600,364.125 349.600 C 363.836 349.600,363.600 349.420,363.600 349.200 C 363.600 348.980,363.240 348.800,362.800 348.800 C 362.360 348.800,362.000 348.620,362.000 348.400 C 362.000 348.180,361.460 348.000,360.800 348.000 C 360.140 348.000,359.600 347.820,359.600 347.600 C 359.600 347.380,359.060 347.200,358.400 347.200 C 357.740 347.200,357.200 347.020,357.200 346.800 C 357.200 346.538,349.008 346.400,333.424 346.400 C 318.004 346.400,309.560 346.541,309.400 346.800 M151.105 362.753 C 151.487 362.948,152.316 363.350,152.948 363.646 C 160.831 367.354,160.625 379.586,152.616 383.375 L 150.450 384.400 127.244 384.400 C 110.008 384.400,103.750 384.276,102.919 383.917 C 93.560 379.880,93.208 367.652,102.326 363.334 C 104.324 362.388,149.334 361.852,151.105 362.753 M251.105 362.753 C 251.487 362.948,252.316 363.350,252.948 363.646 C 260.831 367.354,260.625 379.586,252.616 383.375 L 250.450 384.400 232.036 384.400 L 213.623 384.400 211.511 383.450 C 202.938 379.593,202.873 367.792,211.400 363.441 L 213.400 362.421 231.905 362.410 C 242.083 362.405,250.723 362.559,251.105 362.753 M354.018 362.906 C 361.702 365.584,364.124 375.376,358.510 381.070 C 355.138 384.490,355.820 384.400,333.378 384.400 L 313.623 384.400 311.511 383.450 C 302.938 379.593,302.873 367.792,311.400 363.441 L 313.400 362.421 333.000 362.416 C 347.535 362.413,352.966 362.540,354.018 362.906 " stroke="none" fill="#040504" fill-rule="evenodd"></path><path id="path1" d="M125.400 63.184 C 124.740 63.361,122.726 63.527,120.924 63.553 C 119.122 63.579,117.536 63.780,117.400 64.000 C 117.264 64.220,116.364 64.400,115.400 64.400 C 114.436 64.400,113.536 64.580,113.400 64.800 C 113.264 65.020,112.621 65.200,111.971 65.200 C 111.321 65.200,110.477 65.362,110.095 65.561 C 109.713 65.760,108.590 66.152,107.600 66.433 C 105.904 66.915,104.521 67.463,100.504 69.247 C 99.572 69.661,98.642 70.000,98.438 70.000 C 98.234 70.000,98.007 70.135,97.933 70.300 C 97.860 70.465,96.450 71.307,94.800 72.171 C 93.150 73.034,91.710 73.862,91.600 74.011 C 91.490 74.159,90.981 74.501,90.468 74.771 C 89.590 75.234,89.172 75.548,87.066 77.335 C 86.590 77.739,85.311 78.819,84.226 79.735 C 81.687 81.876,80.228 83.342,78.000 85.992 C 77.010 87.169,76.011 88.328,75.780 88.566 C 73.848 90.560,68.042 100.746,66.298 105.200 C 66.083 105.750,65.748 106.513,65.553 106.895 C 65.359 107.277,65.200 107.941,65.200 108.371 C 65.200 108.801,65.020 109.264,64.800 109.400 C 64.580 109.536,64.400 110.177,64.400 110.824 C 64.400 111.471,64.220 112.000,64.000 112.000 C 63.780 112.000,63.600 112.720,63.600 113.600 C 63.600 114.480,63.420 115.200,63.200 115.200 C 62.980 115.200,62.800 116.089,62.800 117.176 C 62.800 118.263,62.620 119.264,62.400 119.400 C 62.151 119.554,62.000 123.263,62.000 129.200 C 62.000 135.137,62.151 138.846,62.400 139.000 C 62.620 139.136,62.800 140.126,62.800 141.200 C 62.800 142.274,62.980 143.264,63.200 143.400 C 63.420 143.536,63.600 144.256,63.600 145.000 C 63.600 145.744,63.780 146.464,64.000 146.600 C 64.220 146.736,64.400 147.377,64.400 148.024 C 64.400 148.671,64.580 149.200,64.800 149.200 C 65.020 149.200,65.200 149.639,65.200 150.176 C 65.200 150.713,65.380 151.264,65.600 151.400 C 65.820 151.536,66.000 152.087,66.000 152.624 C 66.000 153.161,66.180 153.600,66.400 153.600 C 66.620 153.600,66.800 153.872,66.800 154.205 C 66.800 154.538,66.969 155.123,67.176 155.505 C 67.383 155.887,68.079 157.280,68.723 158.600 C 70.270 161.772,71.357 163.679,73.132 166.338 C 73.940 167.546,74.780 168.809,75.000 169.144 C 75.220 169.479,75.793 170.164,76.273 170.667 C 76.753 171.170,77.653 172.258,78.273 173.085 C 81.456 177.332,83.200 178.230,83.200 175.624 C 83.200 174.757,83.380 173.936,83.600 173.800 C 83.820 173.664,84.000 173.111,84.000 172.571 C 84.000 171.625,84.128 171.259,85.138 169.305 C 85.392 168.813,85.600 168.048,85.600 167.605 C 85.600 167.162,85.780 166.800,86.000 166.800 C 86.220 166.800,86.400 166.548,86.400 166.241 C 86.400 165.933,86.966 164.628,87.659 163.341 C 88.351 162.053,89.116 160.596,89.359 160.103 C 89.601 159.610,89.935 159.205,90.100 159.203 C 90.265 159.201,90.400 158.975,90.401 158.700 C 90.401 158.425,90.941 157.570,91.600 156.800 C 92.259 156.030,92.799 155.271,92.799 155.114 C 92.802 154.119,100.245 146.745,103.600 144.412 C 104.370 143.877,105.090 143.340,105.200 143.219 C 105.553 142.832,107.777 141.558,108.500 141.329 C 108.885 141.207,109.200 140.948,109.200 140.753 C 109.200 140.559,109.560 140.400,110.000 140.400 C 110.440 140.400,110.800 140.220,110.800 140.000 C 110.800 139.780,111.160 139.600,111.600 139.600 C 112.040 139.600,112.400 139.420,112.400 139.200 C 112.400 138.980,112.760 138.800,113.200 138.800 C 113.640 138.800,114.000 138.620,114.000 138.400 C 114.000 138.180,114.272 138.000,114.605 138.000 C 114.938 138.000,115.568 137.820,116.005 137.600 C 116.442 137.380,117.158 137.020,117.595 136.800 C 118.032 136.580,118.741 136.400,119.171 136.400 C 119.601 136.400,120.064 136.220,120.200 136.000 C 120.336 135.780,121.056 135.600,121.800 135.600 C 122.544 135.600,123.264 135.420,123.400 135.200 C 123.536 134.980,124.436 134.800,125.400 134.800 C 126.364 134.800,127.264 134.620,127.400 134.400 C 127.551 134.155,130.730 134.000,135.600 134.000 C 140.470 134.000,143.649 134.155,143.800 134.400 C 143.936 134.620,144.836 134.800,145.800 134.800 C 146.764 134.800,147.664 134.980,147.800 135.200 C 147.936 135.420,148.667 135.600,149.424 135.600 C 150.181 135.600,150.800 135.780,150.800 136.000 C 150.800 136.220,151.340 136.400,152.000 136.400 C 152.660 136.400,153.200 136.580,153.200 136.800 C 153.200 137.020,153.639 137.200,154.176 137.200 C 154.713 137.200,155.264 137.380,155.400 137.600 C 155.536 137.820,155.997 138.000,156.424 138.000 C 156.851 138.000,157.200 138.180,157.200 138.400 C 157.200 138.620,157.560 138.800,158.000 138.800 C 158.440 138.800,158.800 138.980,158.800 139.200 C 158.800 139.420,159.048 139.600,159.351 139.600 C 159.920 139.600,160.338 138.705,161.217 135.600 C 162.418 131.357,163.920 127.047,165.189 124.200 C 166.548 121.152,169.382 115.399,169.622 115.200 C 169.755 115.090,170.119 114.415,170.430 113.700 C 170.741 112.985,171.131 112.400,171.298 112.400 C 171.464 112.400,171.600 112.164,171.600 111.875 C 171.600 111.587,171.915 111.002,172.300 110.575 C 172.685 110.149,173.255 109.305,173.568 108.700 C 173.880 108.095,174.285 107.600,174.468 107.600 C 174.650 107.600,174.800 107.364,174.800 107.075 C 174.800 106.787,175.120 106.202,175.511 105.775 C 175.902 105.349,176.661 104.370,177.198 103.600 C 177.734 102.830,178.405 101.962,178.687 101.671 C 178.969 101.381,179.204 101.021,179.208 100.871 C 179.213 100.722,180.289 99.430,181.600 98.000 C 182.911 96.570,183.987 95.173,183.992 94.895 C 184.000 94.403,183.223 92.803,182.781 92.400 C 182.660 92.290,182.129 91.570,181.600 90.800 C 181.071 90.030,180.089 88.709,179.419 87.864 C 178.020 86.101,170.533 78.400,170.219 78.400 C 170.011 78.400,168.772 77.436,167.814 76.530 C 165.936 74.754,157.079 69.801,152.400 67.911 C 151.850 67.688,151.087 67.348,150.705 67.153 C 150.323 66.959,149.659 66.800,149.229 66.800 C 148.799 66.800,148.336 66.620,148.200 66.400 C 148.064 66.180,147.524 66.000,147.000 66.000 C 146.476 66.000,145.948 65.839,145.826 65.642 C 145.616 65.302,144.560 65.083,140.700 64.577 C 139.765 64.455,138.640 64.195,138.200 64.000 C 137.760 63.806,135.690 63.547,133.600 63.426 C 131.510 63.306,129.080 63.129,128.200 63.034 C 127.320 62.940,126.060 63.007,125.400 63.184 M47.000 294.467 C 36.109 298.137,36.428 312.377,47.460 315.013 C 50.446 315.726,99.057 315.865,102.480 315.170 C 106.309 314.392,110.800 310.943,110.800 308.780 C 110.800 308.377,110.980 307.936,111.200 307.800 C 111.420 307.664,111.600 306.391,111.600 304.972 C 111.600 299.917,108.570 295.863,103.754 294.475 C 101.624 293.861,48.821 293.854,47.000 294.467 M171.600 294.475 C 171.050 294.706,170.150 295.090,169.600 295.327 C 160.398 299.294,162.562 313.053,172.720 315.160 C 175.685 315.776,224.369 315.768,227.280 315.151 C 234.346 313.656,237.986 307.470,235.583 301.045 C 234.328 297.691,232.081 295.638,228.372 294.455 C 226.450 293.843,173.058 293.861,171.600 294.475 M295.992 294.542 C 285.121 298.079,286.219 312.917,297.520 315.176 C 300.482 315.769,349.217 315.754,352.080 315.160 C 360.768 313.358,363.991 303.196,357.800 297.124 C 356.684 296.029,356.025 295.657,353.081 294.456 C 351.501 293.812,297.989 293.892,295.992 294.542 M104.000 363.281 C 103.450 363.516,102.438 363.952,101.752 364.249 C 95.682 366.874,94.544 376.249,99.694 381.198 C 102.612 384.002,102.594 384.000,127.375 384.000 C 152.277 384.000,151.897 384.041,154.947 381.052 C 156.543 379.489,156.869 378.971,157.950 376.281 C 159.854 371.546,156.457 365.391,150.850 363.416 C 148.682 362.653,105.760 362.529,104.000 363.281 M213.200 363.349 C 209.805 364.476,207.999 366.076,206.489 369.296 C 205.543 371.313,205.221 376.119,206.000 376.600 C 206.220 376.736,206.400 377.164,206.400 377.552 C 206.400 378.609,209.020 381.460,211.134 382.703 L 213.000 383.800 231.150 383.916 C 251.770 384.047,251.906 384.030,254.938 381.061 C 256.542 379.490,256.868 378.972,257.950 376.281 C 259.854 371.546,256.457 365.391,250.850 363.416 C 248.610 362.628,215.551 362.568,213.200 363.349 M313.200 363.349 C 309.805 364.476,307.999 366.076,306.489 369.296 C 305.543 371.313,305.221 376.119,306.000 376.600 C 306.220 376.736,306.400 377.164,306.400 377.552 C 306.400 378.609,309.020 381.460,311.134 382.703 L 313.000 383.800 332.347 383.915 C 354.518 384.046,354.610 384.036,357.717 381.059 C 363.293 375.716,361.339 366.305,354.089 363.593 C 351.542 362.640,315.975 362.427,313.200 363.349 " stroke="none" fill="#f3cf9e" fill-rule="evenodd"></path><path id="path2" d="M247.400 80.460 C 239.155 81.688,230.166 84.080,224.800 86.475 C 217.819 89.590,211.286 93.302,207.638 96.225 C 194.025 107.134,184.906 118.883,180.028 131.800 C 179.530 133.120,178.971 134.560,178.787 135.000 C 177.921 137.069,176.800 140.739,176.800 141.503 C 176.800 141.970,176.639 142.452,176.442 142.574 C 176.245 142.695,175.985 143.471,175.863 144.297 C 175.741 145.124,175.451 146.790,175.218 148.000 C 174.986 149.210,174.643 151.477,174.457 153.038 C 173.401 161.886,166.468 164.915,159.800 159.442 C 158.700 158.539,157.740 157.665,157.667 157.500 C 157.593 157.335,157.356 157.200,157.139 157.200 C 156.922 157.200,155.992 156.694,155.072 156.076 C 145.533 149.665,130.740 148.724,120.200 153.857 C 105.997 160.775,98.800 172.279,98.800 188.064 C 98.800 194.690,98.466 196.064,96.310 198.291 C 93.799 200.885,89.587 201.331,85.860 199.398 C 80.082 196.400,66.470 194.695,59.024 196.037 C 40.191 199.431,27.115 209.988,19.186 228.200 C 12.155 244.351,17.027 267.635,30.264 281.143 L 32.756 283.686 33.947 282.838 C 35.796 281.521,39.217 279.826,41.200 279.245 C 42.190 278.954,43.413 278.555,43.919 278.358 C 45.155 277.876,104.981 277.890,106.572 278.373 C 107.247 278.578,108.610 278.976,109.600 279.258 C 115.897 281.051,122.072 286.567,125.310 293.292 L 126.999 296.800 137.660 296.800 L 148.321 296.800 150.156 293.028 C 152.926 287.334,158.476 281.984,163.637 280.034 C 164.387 279.751,165.360 279.371,165.800 279.190 C 166.240 279.009,167.140 278.720,167.800 278.549 C 169.665 278.065,230.705 278.160,232.600 278.651 C 240.244 280.628,247.091 286.577,250.475 294.183 L 251.550 296.600 262.275 296.705 L 273.000 296.811 274.734 293.205 C 275.687 291.222,276.632 289.600,276.834 289.600 C 277.035 289.600,277.200 289.369,277.200 289.087 C 277.200 286.714,286.680 280.127,292.200 278.665 C 294.581 278.035,354.082 277.815,356.200 278.429 C 360.348 279.631,362.831 280.722,365.536 282.528 L 367.272 283.688 369.936 280.944 C 373.445 277.330,377.414 271.756,378.798 268.499 C 379.009 268.003,379.541 266.808,379.980 265.844 C 384.376 256.194,385.169 242.495,381.949 231.800 C 380.803 227.992,380.534 227.377,376.653 219.703 C 376.404 219.210,376.065 218.805,375.900 218.803 C 375.735 218.801,375.600 218.530,375.600 218.200 C 375.600 217.870,375.459 217.600,375.286 217.600 C 375.114 217.600,374.675 217.096,374.311 216.481 C 372.967 214.206,367.640 208.589,364.800 206.453 C 364.031 205.874,363.077 205.108,362.681 204.752 C 360.557 202.840,352.146 198.852,347.600 197.602 C 339.574 195.393,337.068 191.999,338.721 185.575 C 341.100 176.329,341.945 167.088,341.254 157.860 C 340.665 149.981,340.359 148.240,338.012 139.400 C 336.193 132.549,327.223 114.906,325.132 114.067 C 324.950 113.993,324.800 113.693,324.800 113.400 C 324.800 113.107,324.665 112.807,324.500 112.733 C 324.335 112.660,323.394 111.610,322.409 110.400 C 316.685 103.368,305.793 94.112,299.800 91.187 C 299.140 90.865,298.510 90.503,298.400 90.383 C 298.180 90.142,293.332 87.775,290.222 86.390 C 284.883 84.012,276.925 81.917,267.554 80.422 C 264.425 79.923,250.835 79.949,247.400 80.460 M262.200 96.129 C 267.947 100.117,267.037 107.885,260.503 110.615 C 253.407 113.580,246.406 104.081,251.253 98.065 C 253.811 94.889,259.073 93.959,262.200 96.129 M291.104 103.591 C 296.356 105.975,306.797 114.616,311.206 120.229 C 318.299 129.257,323.154 139.621,325.246 150.200 C 326.495 156.518,327.153 165.007,326.448 165.712 C 326.202 165.958,326.000 166.443,326.000 166.789 C 326.000 170.149,319.376 172.952,315.533 171.218 C 311.223 169.274,310.832 168.297,309.839 157.000 C 309.743 155.900,309.459 154.100,309.210 153.000 C 308.960 151.900,308.656 150.413,308.534 149.696 C 308.412 148.979,308.151 148.294,307.956 148.173 C 307.760 148.052,307.600 147.601,307.600 147.171 C 307.600 146.741,307.435 146.077,307.234 145.695 C 307.032 145.313,306.565 144.280,306.195 143.400 C 302.256 134.029,295.184 125.437,286.933 120.000 C 281.234 116.244,280.331 115.091,280.256 111.473 C 280.129 105.297,285.794 101.181,291.104 103.591 " stroke="none" fill="#5bdbf3" fill-rule="evenodd"></path><path id="path3" d="M251.600 79.623 C 231.692 80.869,212.820 89.330,198.569 103.400 C 189.532 112.322,183.037 122.190,178.824 133.400 C 178.328 134.720,177.780 136.160,177.607 136.600 C 177.228 137.560,176.457 140.298,175.240 145.000 C 175.013 145.880,174.631 147.950,174.392 149.600 C 173.258 157.441,172.626 158.965,169.830 160.604 C 166.689 162.444,163.019 161.791,159.800 158.818 C 142.711 143.040,110.473 149.885,101.721 171.149 C 101.392 171.947,100.889 173.140,100.602 173.800 C 100.314 174.460,99.963 175.450,99.821 176.000 C 99.679 176.550,99.276 177.990,98.926 179.200 C 98.479 180.742,98.267 183.315,98.217 187.800 C 98.128 195.729,97.583 197.300,94.274 199.158 C 92.678 200.055,88.997 200.321,87.695 199.634 C 73.070 191.919,50.884 194.212,36.400 204.933 C 28.804 210.556,17.791 225.154,18.925 228.097 C 19.032 228.374,19.347 227.981,19.625 227.225 C 23.965 215.425,35.809 203.676,48.000 199.077 C 54.811 196.508,59.648 195.597,66.424 195.607 C 73.277 195.618,81.765 197.273,85.860 199.398 C 89.587 201.331,93.799 200.885,96.310 198.291 C 98.466 196.064,98.800 194.690,98.800 188.064 C 98.800 172.279,105.997 160.775,120.200 153.857 C 130.740 148.724,145.533 149.665,155.072 156.076 C 155.992 156.694,156.922 157.200,157.139 157.200 C 157.356 157.200,157.593 157.335,157.667 157.500 C 157.740 157.665,158.700 158.539,159.800 159.442 C 166.468 164.915,173.401 161.886,174.457 153.038 C 174.643 151.477,174.986 149.210,175.218 148.000 C 175.451 146.790,175.741 145.124,175.863 144.297 C 175.985 143.471,176.245 142.695,176.442 142.574 C 176.639 142.452,176.800 141.970,176.800 141.503 C 176.800 140.739,177.921 137.069,178.787 135.000 C 178.971 134.560,179.530 133.120,180.028 131.800 C 184.906 118.883,194.025 107.134,207.638 96.225 C 210.381 94.027,215.218 91.093,219.800 88.847 C 229.065 84.305,236.572 82.051,247.877 80.416 C 251.613 79.876,264.154 79.880,267.554 80.422 C 276.925 81.917,284.883 84.012,290.222 86.390 C 293.332 87.775,298.180 90.142,298.400 90.383 C 298.510 90.503,299.140 90.865,299.800 91.187 C 305.793 94.112,316.685 103.368,322.409 110.400 C 323.394 111.610,324.335 112.660,324.500 112.733 C 324.665 112.807,324.800 113.107,324.800 113.400 C 324.800 113.693,324.950 113.993,325.132 114.067 C 327.223 114.906,336.193 132.549,338.012 139.400 C 340.359 148.240,340.665 149.981,341.254 157.860 C 341.945 167.088,341.100 176.329,338.721 185.575 C 337.068 191.999,339.574 195.393,347.600 197.602 C 352.146 198.852,360.557 202.840,362.681 204.752 C 363.077 205.108,364.031 205.874,364.800 206.453 C 367.640 208.589,372.967 214.206,374.311 216.481 C 374.675 217.096,375.114 217.600,375.286 217.600 C 375.459 217.600,375.600 217.870,375.600 218.200 C 375.600 218.530,375.735 218.801,375.900 218.803 C 376.065 218.805,376.404 219.210,376.653 219.703 C 380.534 227.377,380.803 227.992,381.949 231.800 C 385.169 242.495,384.376 256.194,379.980 265.844 C 379.541 266.808,379.009 268.003,378.798 268.499 C 377.414 271.756,373.445 277.330,369.936 280.944 L 367.272 283.688 365.536 282.528 C 362.831 280.722,360.348 279.631,356.200 278.429 C 354.082 277.815,294.581 278.035,292.200 278.665 C 286.680 280.127,277.200 286.714,277.200 289.087 C 277.200 289.369,277.035 289.600,276.834 289.600 C 276.632 289.600,275.687 291.222,274.734 293.205 L 273.000 296.811 262.275 296.705 L 251.550 296.600 250.475 294.183 C 247.091 286.577,240.244 280.628,232.600 278.651 C 230.705 278.160,169.665 278.065,167.800 278.549 C 167.140 278.720,166.240 279.009,165.800 279.190 C 165.360 279.371,164.387 279.751,163.637 280.034 C 158.476 281.984,152.926 287.334,150.156 293.028 L 148.321 296.800 137.660 296.800 L 126.999 296.800 125.310 293.292 C 122.072 286.567,115.897 281.051,109.600 279.258 C 108.610 278.976,107.247 278.578,106.572 278.373 C 104.981 277.890,45.155 277.876,43.919 278.358 C 43.413 278.555,42.190 278.954,41.200 279.245 C 39.217 279.826,35.796 281.521,33.947 282.838 L 32.756 283.686 30.264 281.143 C 17.834 268.458,12.969 248.926,18.014 231.957 C 18.885 229.028,18.969 228.457,18.449 229.020 C 18.105 229.392,16.883 234.094,16.029 238.331 C 15.475 241.083,15.475 250.917,16.029 253.669 C 17.929 263.097,21.146 270.932,25.273 276.179 C 27.795 279.386,31.937 283.814,32.520 283.927 C 32.881 283.997,33.966 283.511,34.931 282.848 C 37.423 281.133,40.959 279.644,44.126 278.975 C 48.906 277.966,103.169 278.152,107.294 279.192 C 115.354 281.223,121.149 285.990,125.007 293.762 L 126.614 297.000 137.007 297.112 C 149.183 297.244,148.982 297.273,149.633 295.300 C 151.363 290.053,156.928 283.953,162.460 281.240 C 168.273 278.390,168.138 278.400,200.000 278.400 C 231.843 278.400,231.731 278.392,237.513 281.227 C 243.249 284.040,250.800 292.636,250.800 296.353 C 250.800 297.092,252.306 297.200,262.571 297.200 C 273.660 297.200,274.400 297.077,274.400 295.230 C 274.400 292.686,279.850 285.935,284.400 282.844 C 290.919 278.416,291.060 278.400,324.599 278.400 C 358.162 278.400,358.688 278.457,364.961 282.773 C 367.399 284.450,367.578 284.397,370.569 281.100 C 377.035 273.971,381.451 265.794,383.152 257.800 C 383.386 256.700,383.762 254.955,383.989 253.923 C 384.719 250.591,384.495 240.961,383.582 236.405 C 379.647 216.779,365.558 201.943,345.600 196.408 C 339.128 194.613,337.894 191.622,339.986 182.800 C 343.352 168.610,342.681 152.011,338.184 138.200 C 332.702 121.364,321.189 105.270,308.000 96.005 C 307.230 95.464,306.251 94.702,305.825 94.311 C 305.398 93.920,304.813 93.600,304.525 93.600 C 304.236 93.600,304.000 93.453,304.000 93.274 C 304.000 93.095,303.325 92.577,302.500 92.123 C 301.675 91.670,299.650 90.541,298.000 89.616 C 289.428 84.809,279.841 81.684,268.600 80.033 C 264.723 79.464,257.085 79.279,251.600 79.623 M255.800 95.141 C 253.219 95.698,249.976 98.740,250.020 100.564 C 250.034 101.149,250.291 100.882,250.874 99.679 C 254.849 91.479,268.025 96.613,265.146 105.240 C 262.454 113.310,250.000 111.199,250.000 102.674 C 250.000 102.010,249.888 101.578,249.752 101.715 C 249.615 101.852,249.625 102.941,249.775 104.137 C 250.389 109.054,256.053 112.474,260.503 110.615 C 270.085 106.611,265.934 92.956,255.800 95.141 M285.696 103.334 C 282.109 104.635,280.175 107.529,280.256 111.473 C 280.331 115.091,281.234 116.244,286.933 120.000 C 295.184 125.437,302.256 134.029,306.195 143.400 C 306.565 144.280,307.032 145.313,307.234 145.695 C 307.435 146.077,307.600 146.741,307.600 147.171 C 307.600 147.601,307.760 148.052,307.956 148.173 C 308.151 148.294,308.412 148.979,308.534 149.696 C 308.656 150.413,308.960 151.900,309.210 153.000 C 309.459 154.100,309.743 155.900,309.839 157.000 C 310.832 168.297,311.223 169.274,315.533 171.218 C 319.376 172.952,326.000 170.149,326.000 166.789 C 326.000 166.443,326.202 165.958,326.448 165.712 C 327.153 165.007,326.495 156.518,325.246 150.200 C 323.154 139.621,318.299 129.257,311.206 120.229 C 308.105 116.282,300.874 109.764,295.904 106.437 C 290.596 102.884,288.606 102.279,285.696 103.334 M292.941 105.159 C 293.933 105.842,294.903 106.400,295.097 106.400 C 295.291 106.400,295.798 106.720,296.225 107.111 C 296.651 107.502,297.630 108.264,298.400 108.804 C 301.967 111.305,309.882 119.102,312.000 122.200 C 312.752 123.300,313.656 124.513,314.010 124.896 C 315.888 126.931,320.909 137.058,322.586 142.194 C 324.857 149.153,325.725 154.290,325.766 161.011 L 325.800 166.719 324.590 168.217 C 320.991 172.674,314.367 172.102,311.759 167.109 C 311.431 166.482,311.019 163.760,310.790 160.709 C 310.570 157.789,310.201 154.590,309.970 153.600 C 309.051 149.666,308.316 147.159,307.506 145.200 C 307.279 144.650,306.915 143.750,306.697 143.200 C 303.259 134.511,295.167 124.849,286.425 118.996 C 281.614 115.775,280.683 114.474,280.714 111.019 C 280.771 104.768,287.609 101.491,292.941 105.159 M46.645 293.928 C 46.533 294.108,46.973 294.177,47.621 294.082 C 48.270 293.987,48.800 293.840,48.800 293.755 C 48.800 293.450,46.843 293.607,46.645 293.928 M171.200 294.006 C 170.778 294.282,171.015 294.323,172.000 294.142 C 173.725 293.825,174.051 293.598,172.767 293.606 C 172.235 293.609,171.530 293.789,171.200 294.006 M351.233 293.743 C 351.325 293.821,352.030 294.001,352.800 294.142 C 353.785 294.323,354.022 294.282,353.600 294.006 C 353.058 293.650,350.837 293.403,351.233 293.743 M41.375 297.300 L 40.200 298.600 41.500 297.425 C 42.712 296.330,42.984 296.000,42.675 296.000 C 42.606 296.000,42.021 296.585,41.375 297.300 M38.514 304.600 C 38.517 305.700,38.595 306.103,38.687 305.495 C 38.779 304.886,38.777 303.986,38.682 303.495 C 38.587 303.003,38.511 303.500,38.514 304.600 M163.206 306.633 C 163.209 307.055,163.395 307.670,163.618 308.000 C 163.915 308.438,163.952 308.276,163.756 307.400 C 163.427 305.929,163.198 305.610,163.206 306.633 M212.800 362.818 C 212.362 363.115,212.524 363.152,213.400 362.956 C 214.871 362.627,215.190 362.398,214.167 362.406 C 213.745 362.409,213.130 362.595,212.800 362.818 M312.800 362.818 C 312.362 363.115,312.524 363.152,313.400 362.956 C 314.871 362.627,315.190 362.398,314.167 362.406 C 313.745 362.409,313.130 362.595,312.800 362.818 M98.981 365.700 L 97.400 367.400 99.100 365.819 C 100.681 364.348,100.984 364.000,100.681 364.000 C 100.616 364.000,99.851 364.765,98.981 365.700 M206.717 379.400 C 206.945 379.840,207.732 380.740,208.466 381.399 L 209.800 382.598 208.401 380.999 C 207.632 380.120,206.845 379.220,206.652 379.000 C 206.460 378.780,206.489 378.960,206.717 379.400 M306.717 379.400 C 306.945 379.840,307.732 380.740,308.466 381.399 L 309.800 382.598 308.401 380.999 C 307.632 380.120,306.845 379.220,306.652 379.000 C 306.460 378.780,306.489 378.960,306.717 379.400 " stroke="none" fill="#4e848e" fill-rule="evenodd"></path><path id="path4" d="M119.200 62.865 C 114.878 63.572,110.470 64.557,107.800 65.411 C 87.419 71.932,70.824 88.336,64.270 108.440 C 56.534 132.166,62.361 157.617,79.678 175.738 C 82.662 178.861,83.600 179.407,83.600 178.020 C 83.600 173.942,88.888 161.491,92.800 156.358 C 105.869 139.209,126.265 131.438,146.600 135.860 C 148.140 136.195,149.897 136.564,150.505 136.680 C 151.113 136.797,151.708 137.051,151.829 137.246 C 151.949 137.441,152.399 137.600,152.829 137.600 C 153.259 137.600,153.923 137.765,154.305 137.966 C 159.067 140.473,160.696 140.796,161.030 139.300 C 162.635 132.109,167.227 120.793,171.273 114.059 C 172.113 112.662,172.800 111.425,172.800 111.312 C 172.800 110.567,178.902 102.457,182.738 98.105 C 185.601 94.856,185.592 95.139,182.959 91.336 C 173.704 77.967,159.412 68.010,144.400 64.473 C 143.410 64.240,142.150 63.943,141.600 63.812 C 136.007 62.487,124.486 62.000,119.200 62.865 M133.600 63.426 C 135.690 63.547,137.760 63.806,138.200 64.000 C 138.640 64.195,139.765 64.455,140.700 64.577 C 144.560 65.083,145.616 65.302,145.826 65.642 C 145.948 65.839,146.476 66.000,147.000 66.000 C 147.524 66.000,148.064 66.180,148.200 66.400 C 148.336 66.620,148.799 66.800,149.229 66.800 C 149.659 66.800,150.323 66.959,150.705 67.153 C 151.087 67.348,151.850 67.688,152.400 67.911 C 157.079 69.801,165.936 74.754,167.814 76.530 C 168.772 77.436,170.011 78.400,170.219 78.400 C 170.533 78.400,178.020 86.101,179.419 87.864 C 180.089 88.709,181.071 90.030,181.600 90.800 C 182.129 91.570,182.660 92.290,182.781 92.400 C 183.223 92.803,184.000 94.403,183.992 94.895 C 183.987 95.173,182.911 96.570,181.600 98.000 C 180.289 99.430,179.213 100.722,179.208 100.871 C 179.204 101.021,178.969 101.381,178.687 101.671 C 178.405 101.962,177.734 102.830,177.198 103.600 C 176.661 104.370,175.902 105.349,175.511 105.775 C 175.120 106.202,174.800 106.787,174.800 107.075 C 174.800 107.364,174.650 107.600,174.468 107.600 C 174.285 107.600,173.880 108.095,173.568 108.700 C 173.255 109.305,172.685 110.149,172.300 110.575 C 171.915 111.002,171.600 111.587,171.600 111.875 C 171.600 112.164,171.464 112.400,171.298 112.400 C 171.131 112.400,170.741 112.985,170.430 113.700 C 170.119 114.415,169.755 115.090,169.622 115.200 C 169.382 115.399,166.548 121.152,165.189 124.200 C 163.920 127.047,162.418 131.357,161.217 135.600 C 160.338 138.705,159.920 139.600,159.351 139.600 C 159.048 139.600,158.800 139.420,158.800 139.200 C 158.800 138.980,158.440 138.800,158.000 138.800 C 157.560 138.800,157.200 138.620,157.200 138.400 C 157.200 138.180,156.851 138.000,156.424 138.000 C 155.997 138.000,155.536 137.820,155.400 137.600 C 155.264 137.380,154.713 137.200,154.176 137.200 C 153.639 137.200,153.200 137.020,153.200 136.800 C 153.200 136.580,152.660 136.400,152.000 136.400 C 151.340 136.400,150.800 136.220,150.800 136.000 C 150.800 135.780,150.181 135.600,149.424 135.600 C 148.667 135.600,147.936 135.420,147.800 135.200 C 147.664 134.980,146.764 134.800,145.800 134.800 C 144.836 134.800,143.936 134.620,143.800 134.400 C 143.649 134.155,140.470 134.000,135.600 134.000 C 130.730 134.000,127.551 134.155,127.400 134.400 C 127.264 134.620,126.364 134.800,125.400 134.800 C 124.436 134.800,123.536 134.980,123.400 135.200 C 123.264 135.420,122.544 135.600,121.800 135.600 C 121.056 135.600,120.336 135.780,120.200 136.000 C 120.064 136.220,119.601 136.400,119.171 136.400 C 118.741 136.400,118.032 136.580,117.595 136.800 C 117.158 137.020,116.442 137.380,116.005 137.600 C 115.568 137.820,114.938 138.000,114.605 138.000 C 114.272 138.000,114.000 138.180,114.000 138.400 C 114.000 138.620,113.640 138.800,113.200 138.800 C 112.760 138.800,112.400 138.980,112.400 139.200 C 112.400 139.420,112.040 139.600,111.600 139.600 C 111.160 139.600,110.800 139.780,110.800 140.000 C 110.800 140.220,110.440 140.400,110.000 140.400 C 109.560 140.400,109.200 140.559,109.200 140.753 C 109.200 140.948,108.885 141.207,108.500 141.329 C 107.777 141.558,105.553 142.832,105.200 143.219 C 105.090 143.340,104.370 143.877,103.600 144.412 C 100.245 146.745,92.802 154.119,92.799 155.114 C 92.799 155.271,92.259 156.030,91.600 156.800 C 90.941 157.570,90.401 158.425,90.401 158.700 C 90.400 158.975,90.265 159.201,90.100 159.203 C 89.935 159.205,89.601 159.610,89.359 160.103 C 89.116 160.596,88.351 162.053,87.659 163.341 C 86.966 164.628,86.400 165.933,86.400 166.241 C 86.400 166.548,86.220 166.800,86.000 166.800 C 85.780 166.800,85.600 167.162,85.600 167.605 C 85.600 168.048,85.392 168.813,85.138 169.305 C 84.128 171.259,84.000 171.625,84.000 172.571 C 84.000 173.111,83.820 173.664,83.600 173.800 C 83.380 173.936,83.200 174.757,83.200 175.624 C 83.200 178.230,81.456 177.332,78.273 173.085 C 77.653 172.258,76.753 171.170,76.273 170.667 C 75.793 170.164,75.220 169.479,75.000 169.144 C 74.780 168.809,73.940 167.546,73.132 166.338 C 71.357 163.679,70.270 161.772,68.723 158.600 C 68.079 157.280,67.383 155.887,67.176 155.505 C 66.969 155.123,66.800 154.538,66.800 154.205 C 66.800 153.872,66.620 153.600,66.400 153.600 C 66.180 153.600,66.000 153.161,66.000 152.624 C 66.000 152.087,65.820 151.536,65.600 151.400 C 65.380 151.264,65.200 150.713,65.200 150.176 C 65.200 149.639,65.020 149.200,64.800 149.200 C 64.580 149.200,64.400 148.671,64.400 148.024 C 64.400 147.377,64.220 146.736,64.000 146.600 C 63.780 146.464,63.600 145.744,63.600 145.000 C 63.600 144.256,63.420 143.536,63.200 143.400 C 62.980 143.264,62.800 142.274,62.800 141.200 C 62.800 140.126,62.620 139.136,62.400 139.000 C 62.151 138.846,62.000 135.137,62.000 129.200 C 62.000 123.263,62.151 119.554,62.400 119.400 C 62.620 119.264,62.800 118.263,62.800 117.176 C 62.800 116.089,62.980 115.200,63.200 115.200 C 63.420 115.200,63.600 114.480,63.600 113.600 C 63.600 112.720,63.780 112.000,64.000 112.000 C 64.220 112.000,64.400 111.471,64.400 110.824 C 64.400 110.177,64.580 109.536,64.800 109.400 C 65.020 109.264,65.200 108.801,65.200 108.371 C 65.200 107.941,65.359 107.277,65.553 106.895 C 65.748 106.513,66.083 105.750,66.298 105.200 C 68.042 100.746,73.848 90.560,75.780 88.566 C 76.011 88.328,77.010 87.169,78.000 85.992 C 80.228 83.342,81.687 81.876,84.226 79.735 C 85.311 78.819,86.590 77.739,87.066 77.335 C 89.172 75.548,89.590 75.234,90.468 74.771 C 90.981 74.501,91.490 74.159,91.600 74.011 C 91.710 73.862,93.150 73.034,94.800 72.171 C 96.450 71.307,97.860 70.465,97.933 70.300 C 98.007 70.135,98.234 70.000,98.438 70.000 C 98.642 70.000,99.572 69.661,100.504 69.247 C 104.521 67.463,105.904 66.915,107.600 66.433 C 108.590 66.152,109.713 65.760,110.095 65.561 C 110.477 65.362,111.321 65.200,111.971 65.200 C 112.621 65.200,113.264 65.020,113.400 64.800 C 113.536 64.580,114.436 64.400,115.400 64.400 C 116.364 64.400,117.264 64.220,117.400 64.000 C 117.536 63.780,119.122 63.579,120.924 63.553 C 122.726 63.527,124.740 63.361,125.400 63.184 C 126.060 63.007,127.320 62.940,128.200 63.034 C 129.080 63.129,131.510 63.306,133.600 63.426 M62.129 315.900 C 69.570 315.961,81.630 315.961,88.929 315.900 C 96.228 315.839,90.140 315.789,75.400 315.789 C 60.660 315.789,54.688 315.839,62.129 315.900 M186.700 315.900 C 194.015 315.961,205.985 315.961,213.300 315.900 C 220.615 315.839,214.630 315.789,200.000 315.789 C 185.370 315.789,179.385 315.839,186.700 315.900 M311.500 315.900 C 318.815 315.961,330.785 315.961,338.100 315.900 C 345.415 315.839,339.430 315.789,324.800 315.789 C 310.170 315.789,304.185 315.839,311.500 315.900 " stroke="none" fill="#a77d35" fill-rule="evenodd"></path><path id="path5" d="M62.129 293.900 C 69.570 293.961,81.630 293.961,88.929 293.900 C 96.228 293.839,90.140 293.789,75.400 293.789 C 60.660 293.789,54.688 293.839,62.129 293.900 M186.700 293.900 C 194.015 293.961,205.985 293.961,213.300 293.900 C 220.615 293.839,214.630 293.789,200.000 293.789 C 185.370 293.789,179.385 293.839,186.700 293.900 M311.500 293.900 C 318.815 293.961,330.785 293.961,338.100 293.900 C 345.415 293.839,339.430 293.789,324.800 293.789 C 310.170 293.789,304.185 293.839,311.500 293.900 M46.200 294.400 C 45.696 294.617,45.622 294.744,46.000 294.744 C 46.330 294.744,46.960 294.589,47.400 294.400 C 47.904 294.183,47.978 294.056,47.600 294.056 C 47.270 294.056,46.640 294.211,46.200 294.400 M103.400 294.400 C 103.840 294.589,104.470 294.744,104.800 294.744 C 105.178 294.744,105.104 294.617,104.600 294.400 C 104.160 294.211,103.530 294.056,103.200 294.056 C 102.822 294.056,102.896 294.183,103.400 294.400 M170.520 294.442 C 169.816 294.646,169.130 294.990,168.996 295.206 C 168.694 295.696,169.002 295.708,169.905 295.241 C 170.287 295.044,171.050 294.696,171.600 294.468 C 172.832 293.958,172.243 293.944,170.520 294.442 M228.000 294.400 C 228.330 294.613,228.960 294.778,229.400 294.766 L 230.200 294.744 229.400 294.400 C 228.204 293.886,227.205 293.886,228.000 294.400 M295.400 294.400 C 294.896 294.617,294.822 294.744,295.200 294.744 C 295.530 294.744,296.160 294.589,296.600 294.400 C 297.104 294.183,297.178 294.056,296.800 294.056 C 296.470 294.056,295.840 294.211,295.400 294.400 M106.400 295.465 C 106.950 295.865,107.917 296.697,108.549 297.314 C 109.181 297.931,109.764 298.370,109.845 298.289 C 110.070 298.063,107.948 296.187,106.600 295.421 C 105.412 294.746,105.410 294.747,106.400 295.465 M230.400 294.924 C 230.400 295.017,231.165 295.598,232.100 296.215 C 233.035 296.832,233.589 297.080,233.331 296.768 C 232.834 296.167,230.400 294.636,230.400 294.924 M292.350 296.106 C 291.408 296.824,290.303 298.039,289.894 298.806 C 289.220 300.070,289.218 300.107,289.871 299.200 C 290.831 297.868,292.373 296.345,293.600 295.517 C 294.150 295.146,294.479 294.833,294.331 294.821 C 294.183 294.809,293.292 295.388,292.350 296.106 M166.814 296.900 C 165.251 298.419,163.997 300.348,164.017 301.200 C 164.025 301.530,164.303 301.170,164.635 300.400 C 164.968 299.630,165.988 298.235,166.903 297.300 C 168.847 295.313,168.776 294.993,166.814 296.900 M234.123 298.315 C 235.108 299.403,236.076 301.954,236.432 304.400 L 236.753 306.600 236.648 304.350 C 236.538 302.011,234.748 297.600,233.909 297.600 C 233.671 297.600,233.767 297.922,234.123 298.315 M359.167 298.662 C 359.625 299.356,360.000 300.110,360.000 300.338 C 360.000 300.566,360.163 300.854,360.363 300.977 C 361.049 301.401,360.343 299.741,359.339 298.572 L 358.334 297.400 359.167 298.662 M360.887 304.600 C 360.883 306.703,360.957 307.085,361.183 306.134 C 361.349 305.438,361.352 304.178,361.189 303.334 C 360.941 302.054,360.891 302.263,360.887 304.600 M38.928 304.800 C 38.928 306.230,39.001 306.815,39.089 306.100 C 39.178 305.385,39.178 304.215,39.089 303.500 C 39.001 302.785,38.928 303.370,38.928 304.800 M111.720 304.800 C 111.720 306.010,111.795 306.505,111.887 305.900 C 111.978 305.295,111.978 304.305,111.887 303.700 C 111.795 303.095,111.720 303.590,111.720 304.800 M163.301 304.600 C 163.305 305.480,163.387 305.793,163.483 305.295 C 163.579 304.798,163.575 304.078,163.475 303.695 C 163.375 303.313,163.296 303.720,163.301 304.600 M288.101 304.600 C 288.105 305.480,288.187 305.793,288.283 305.295 C 288.379 304.798,288.375 304.078,288.275 303.695 C 288.175 303.313,288.096 303.720,288.101 304.600 M163.795 307.600 C 163.954 308.370,164.239 309.165,164.428 309.366 C 164.617 309.567,164.579 309.027,164.344 308.166 C 163.796 306.159,163.418 305.769,163.795 307.600 M288.400 307.740 C 288.400 308.159,289.581 310.400,289.802 310.400 C 290.027 310.400,289.165 308.338,288.724 307.820 C 288.546 307.611,288.400 307.575,288.400 307.740 M108.616 311.922 C 107.525 313.175,107.160 313.750,107.805 313.200 C 109.164 312.040,109.851 311.279,110.421 310.300 C 111.066 309.192,110.736 309.488,108.616 311.922 M40.779 311.084 C 41.248 311.790,42.210 312.750,42.916 313.217 L 44.200 314.066 43.147 313.133 C 42.569 312.620,41.607 311.660,41.011 311.000 L 39.927 309.800 40.779 311.084 M165.214 310.600 C 166.271 312.150,167.812 313.678,168.880 314.236 C 170.536 315.101,170.781 314.903,169.200 313.978 C 168.430 313.527,167.096 312.403,166.234 311.479 C 165.373 310.556,164.914 310.160,165.214 310.600 M234.021 311.312 C 233.482 311.975,232.232 313.032,231.242 313.659 C 229.352 314.858,229.279 315.199,231.120 314.233 C 232.289 313.619,235.459 310.513,235.174 310.260 C 235.078 310.175,234.559 310.648,234.021 311.312 M290.386 311.400 C 290.991 312.344,293.215 314.209,293.166 313.730 C 293.148 313.549,292.399 312.770,291.503 312.000 C 290.603 311.227,290.103 310.958,290.386 311.400 M46.800 315.200 C 47.130 315.413,47.850 315.573,48.400 315.554 L 49.400 315.520 48.400 315.200 C 46.858 314.706,46.036 314.706,46.800 315.200 M102.200 315.200 L 101.000 315.505 102.200 315.547 C 102.860 315.569,103.670 315.413,104.000 315.200 C 104.743 314.720,104.087 314.720,102.200 315.200 M171.400 315.181 C 172.168 315.529,174.310 315.756,173.967 315.453 C 173.875 315.372,173.080 315.196,172.200 315.062 C 171.085 314.893,170.842 314.929,171.400 315.181 M227.000 315.200 C 225.911 315.477,225.893 315.507,226.800 315.525 C 227.350 315.535,228.160 315.389,228.600 315.200 C 229.586 314.776,228.666 314.776,227.000 315.200 M296.000 315.179 C 296.330 315.404,297.125 315.591,297.767 315.594 C 299.304 315.602,298.984 315.370,297.000 315.038 C 295.854 314.846,295.570 314.886,296.000 315.179 M351.800 315.200 C 350.693 315.482,350.677 315.509,351.600 315.547 C 352.150 315.569,352.870 315.413,353.200 315.200 C 353.881 314.760,353.529 314.760,351.800 315.200 M116.100 362.700 C 122.205 362.762,132.195 362.762,138.300 362.700 C 144.405 362.638,139.410 362.587,127.200 362.587 C 114.990 362.587,109.995 362.638,116.100 362.700 M223.300 362.700 C 228.085 362.763,235.915 362.763,240.700 362.700 C 245.485 362.636,241.570 362.584,232.000 362.584 C 222.430 362.584,218.515 362.636,223.300 362.700 M324.128 362.700 C 329.368 362.763,337.828 362.763,342.928 362.700 C 348.027 362.636,343.740 362.585,333.400 362.585 C 323.060 362.585,318.887 362.637,324.128 362.700 M103.600 363.067 C 100.642 364.075,97.752 366.704,96.617 369.422 C 94.903 373.523,96.746 379.951,100.277 382.190 C 101.115 382.721,100.986 382.495,99.768 381.301 C 94.551 376.185,95.632 366.895,101.752 364.249 C 102.438 363.952,103.450 363.516,104.000 363.281 C 105.010 362.850,104.710 362.690,103.600 363.067 M151.344 363.597 C 152.414 364.015,153.629 364.664,154.044 365.040 C 154.460 365.416,154.800 365.532,154.800 365.298 C 154.800 364.799,150.931 362.791,150.021 362.819 C 149.680 362.829,150.275 363.179,151.344 363.597 M212.600 363.200 C 212.096 363.417,212.022 363.544,212.400 363.544 C 212.730 363.544,213.360 363.389,213.800 363.200 C 214.304 362.983,214.378 362.856,214.000 362.856 C 213.670 362.856,213.040 363.011,212.600 363.200 M251.344 363.597 C 252.414 364.015,253.629 364.664,254.044 365.040 C 254.460 365.416,254.800 365.532,254.800 365.298 C 254.800 364.799,250.931 362.791,250.021 362.819 C 249.680 362.829,250.275 363.179,251.344 363.597 M312.600 363.200 C 312.096 363.417,312.022 363.544,312.400 363.544 C 312.730 363.544,313.360 363.389,313.800 363.200 C 314.304 362.983,314.378 362.856,314.000 362.856 C 313.670 362.856,313.040 363.011,312.600 363.200 M355.000 363.945 C 355.880 364.346,356.847 364.972,357.149 365.337 C 357.451 365.701,357.870 366.000,358.080 366.000 C 358.543 366.000,356.542 364.299,355.326 363.659 C 354.846 363.407,354.216 363.204,353.926 363.209 C 353.637 363.214,354.120 363.545,355.000 363.945 M208.200 366.000 C 207.568 366.660,207.219 367.190,207.425 367.178 C 207.778 367.157,209.839 364.800,209.505 364.800 C 209.420 364.800,208.832 365.340,208.200 366.000 M308.200 366.000 C 307.568 366.660,307.219 367.190,307.425 367.178 C 307.778 367.157,309.839 364.800,309.505 364.800 C 309.420 364.800,308.832 365.340,308.200 366.000 M156.185 367.100 C 156.802 368.035,157.383 368.800,157.476 368.800 C 157.764 368.800,156.233 366.366,155.632 365.869 C 155.320 365.611,155.568 366.165,156.185 367.100 M256.185 367.100 C 256.802 368.035,257.383 368.800,257.476 368.800 C 257.764 368.800,256.233 366.366,255.632 365.869 C 255.320 365.611,255.568 366.165,256.185 367.100 M359.108 367.500 C 359.527 368.105,359.993 368.941,360.144 369.357 C 360.295 369.774,360.531 370.002,360.668 369.865 C 360.921 369.612,358.973 366.400,358.567 366.400 C 358.445 366.400,358.688 366.895,359.108 367.500 M360.887 373.400 C 360.883 375.503,360.957 375.885,361.183 374.934 C 361.349 374.238,361.352 372.978,361.189 372.134 C 360.941 370.854,360.891 371.063,360.887 373.400 M205.301 373.400 C 205.305 374.280,205.387 374.593,205.483 374.095 C 205.579 373.598,205.575 372.878,205.475 372.495 C 205.375 372.113,205.296 372.520,205.301 373.400 M305.301 373.400 C 305.305 374.280,305.387 374.593,305.483 374.095 C 305.579 373.598,305.575 372.878,305.475 372.495 C 305.375 372.113,305.296 372.520,305.301 373.400 M155.234 380.953 L 154.269 382.200 155.413 381.112 C 156.043 380.514,156.477 379.953,156.379 379.865 C 156.280 379.777,155.765 380.267,155.234 380.953 M208.400 380.934 C 209.170 381.778,210.286 382.723,210.880 383.034 C 212.541 383.904,212.775 383.702,211.200 382.759 C 210.430 382.298,209.170 381.353,208.400 380.660 L 207.000 379.400 208.400 380.934 M255.234 380.953 L 254.269 382.200 255.413 381.112 C 256.043 380.514,256.477 379.953,256.379 379.865 C 256.280 379.777,255.765 380.267,255.234 380.953 M308.400 380.934 C 309.170 381.778,310.286 382.723,310.880 383.034 C 312.541 383.904,312.775 383.702,311.200 382.759 C 310.430 382.298,309.170 381.353,308.400 380.660 L 307.000 379.400 308.400 380.934 M357.200 381.513 C 355.820 382.899,355.817 382.907,357.036 382.078 C 358.378 381.165,359.509 379.968,358.949 380.054 C 358.757 380.083,357.970 380.740,357.200 381.513 M104.315 384.072 C 105.247 384.442,149.682 384.463,150.262 384.094 C 150.516 383.932,140.127 383.800,127.176 383.800 C 114.225 383.800,103.938 383.922,104.315 384.072 M213.738 384.094 C 214.342 384.478,249.658 384.478,250.262 384.094 C 250.516 383.932,242.298 383.800,232.000 383.800 C 221.702 383.800,213.484 383.932,213.738 384.094 M313.738 384.094 C 313.992 384.256,322.840 384.388,333.400 384.388 C 343.960 384.388,352.808 384.256,353.062 384.094 C 353.316 383.932,344.468 383.800,333.400 383.800 C 322.332 383.800,313.484 383.932,313.738 384.094 " stroke="none" fill="#909091" fill-rule="evenodd"></path></g></svg>