<svg id="svg" version="1.1" xmlns="http://www.w3.org/2000/svg" xmlns:xlink="http://www.w3.org/1999/xlink" width="400" height="400" viewBox="0, 0, 400,400"><g id="svgg"><path id="path0" d="M166.400 0.272 C 164.970 0.366,163.629 0.613,163.420 0.821 C 163.211 1.030,161.917 1.200,160.544 1.200 C 159.171 1.200,157.936 1.380,157.800 1.600 C 157.664 1.820,156.843 2.000,155.976 2.000 C 155.109 2.000,154.400 2.180,154.400 2.400 C 154.400 2.620,153.680 2.800,152.800 2.800 C 151.920 2.800,151.200 2.980,151.200 3.200 C 151.200 3.420,150.480 3.600,149.600 3.600 C 148.720 3.600,148.000 3.780,148.000 4.000 C 148.000 4.220,147.280 4.400,146.400 4.400 C 145.520 4.400,144.800 4.580,144.800 4.800 C 144.800 5.020,144.361 5.200,143.824 5.200 C 143.287 5.200,142.736 5.380,142.600 5.600 C 142.464 5.820,141.913 6.000,141.376 6.000 C 140.839 6.000,140.400 6.180,140.400 6.400 C 140.400 6.620,139.860 6.800,139.200 6.800 C 138.540 6.800,138.000 6.980,138.000 7.200 C 138.000 7.420,137.460 7.600,136.800 7.600 C 136.140 7.600,135.600 7.780,135.600 8.000 C 135.600 8.220,135.060 8.400,134.400 8.400 C 133.740 8.400,133.200 8.550,133.200 8.733 C 133.200 8.917,132.964 9.067,132.676 9.067 C 132.184 9.067,128.677 10.598,126.356 11.826 C 125.782 12.130,125.197 12.264,125.056 12.123 C 124.915 11.982,124.800 12.077,124.800 12.333 C 124.800 12.590,124.440 12.800,124.000 12.800 C 123.560 12.800,123.200 12.980,123.200 13.200 C 123.200 13.420,122.840 13.600,122.400 13.600 C 121.960 13.600,121.600 13.780,121.600 14.000 C 121.600 14.220,121.322 14.400,120.983 14.400 C 120.644 14.400,119.980 14.760,119.508 15.200 C 119.036 15.640,118.413 16.000,118.125 16.000 C 117.836 16.000,117.600 16.180,117.600 16.400 C 117.600 16.620,117.240 16.800,116.800 16.800 C 116.360 16.800,116.000 16.980,116.000 17.200 C 116.000 17.420,115.640 17.600,115.200 17.600 C 114.760 17.600,114.400 17.780,114.400 18.000 C 114.400 18.220,114.130 18.400,113.800 18.400 C 113.470 18.400,113.200 18.580,113.200 18.800 C 113.200 19.020,112.930 19.200,112.600 19.200 C 112.270 19.200,112.000 19.380,112.000 19.600 C 112.000 19.820,111.764 20.000,111.475 20.000 C 111.187 20.000,110.564 20.360,110.092 20.800 C 109.620 21.240,109.086 21.600,108.905 21.600 C 108.724 21.600,108.317 21.960,108.000 22.400 C 107.683 22.840,107.175 23.200,106.872 23.200 C 106.569 23.200,105.799 23.759,105.160 24.442 C 104.522 25.126,104.000 25.569,104.000 25.428 C 104.000 24.992,102.229 26.086,101.677 26.863 C 101.390 27.269,100.913 27.600,100.618 27.600 C 100.323 27.600,99.162 28.500,98.039 29.600 C 96.915 30.700,95.888 31.600,95.756 31.600 C 95.270 31.600,93.252 33.519,93.489 33.756 C 93.623 33.890,93.423 34.000,93.043 34.000 C 92.663 34.000,92.426 34.135,92.515 34.300 C 92.729 34.696,84.541 42.807,84.236 42.502 C 84.106 42.373,84.000 42.597,84.000 43.000 C 84.000 43.403,83.890 43.623,83.756 43.489 C 83.509 43.243,81.600 45.280,81.600 45.789 C 81.600 45.940,80.865 46.769,79.967 47.631 C 79.069 48.494,78.447 49.200,78.583 49.200 C 78.849 49.200,78.331 49.897,76.918 51.438 C 76.433 51.967,76.131 52.400,76.247 52.400 C 76.362 52.400,76.173 52.685,75.825 53.032 C 75.477 53.380,75.275 53.797,75.375 53.959 C 75.475 54.122,75.207 54.507,74.779 54.815 C 74.350 55.124,74.000 55.657,74.000 56.000 C 74.000 56.343,73.640 56.883,73.200 57.200 C 72.760 57.517,72.400 58.007,72.400 58.288 C 72.400 58.570,72.220 58.800,72.000 58.800 C 71.780 58.800,71.600 59.081,71.600 59.424 C 71.600 59.767,71.420 59.936,71.200 59.800 C 70.980 59.664,70.800 59.833,70.800 60.176 C 70.800 60.519,70.654 60.800,70.475 60.800 C 70.296 60.800,69.902 61.430,69.600 62.200 C 69.298 62.970,68.904 63.600,68.725 63.600 C 68.546 63.600,68.400 63.836,68.400 64.125 C 68.400 64.413,68.040 65.036,67.600 65.508 C 67.160 65.980,66.800 66.644,66.800 66.983 C 66.800 67.322,66.620 67.600,66.400 67.600 C 66.180 67.600,66.000 67.960,66.000 68.400 C 66.000 68.840,65.820 69.200,65.600 69.200 C 65.380 69.200,65.200 69.560,65.200 70.000 C 65.200 70.440,65.053 70.800,64.874 70.800 C 64.408 70.800,62.800 73.931,62.800 74.838 C 62.800 75.257,62.620 75.600,62.400 75.600 C 62.180 75.600,62.000 75.960,62.000 76.400 C 62.000 76.840,61.864 77.200,61.698 77.200 C 61.531 77.200,61.156 77.785,60.864 78.500 C 60.572 79.215,60.184 80.160,60.003 80.600 C 59.455 81.926,59.071 82.985,59.035 83.267 C 59.016 83.413,58.865 83.668,58.700 83.833 C 58.535 83.998,58.400 84.643,58.400 85.267 C 58.400 85.890,58.220 86.400,58.000 86.400 C 57.780 86.400,57.600 86.940,57.600 87.600 C 57.600 88.260,57.420 88.800,57.200 88.800 C 56.980 88.800,56.800 89.340,56.800 90.000 C 56.800 90.660,56.620 91.200,56.400 91.200 C 56.180 91.200,56.000 91.751,56.000 92.424 C 56.000 93.137,55.833 93.544,55.600 93.400 C 55.367 93.256,55.200 93.655,55.200 94.353 C 55.200 95.013,55.020 95.664,54.800 95.800 C 54.580 95.936,54.400 96.667,54.400 97.424 C 54.400 98.181,54.220 98.800,54.000 98.800 C 53.780 98.800,53.600 99.520,53.600 100.400 C 53.600 101.280,53.420 102.000,53.200 102.000 C 52.980 102.000,52.800 102.900,52.800 104.000 C 52.800 105.100,52.620 106.000,52.400 106.000 C 52.180 106.000,52.000 106.799,52.000 107.776 C 52.000 108.753,51.820 109.664,51.600 109.800 C 51.380 109.936,51.200 111.171,51.200 112.544 C 51.200 113.917,51.030 115.211,50.822 115.420 C 50.614 115.629,50.389 116.880,50.322 118.200 C 50.206 120.486,50.148 120.606,49.100 120.727 C 48.495 120.796,48.000 121.021,48.000 121.227 C 48.000 121.432,47.645 121.600,47.212 121.600 C 46.779 121.600,45.783 121.960,45.000 122.400 C 44.217 122.840,43.301 123.200,42.964 123.200 C 42.628 123.200,42.464 123.380,42.600 123.600 C 42.736 123.820,42.477 124.000,42.024 124.000 C 41.571 124.000,41.200 124.180,41.200 124.400 C 41.200 124.620,40.840 124.800,40.400 124.800 C 39.960 124.800,39.600 125.010,39.600 125.267 C 39.600 125.523,39.492 125.626,39.360 125.494 C 39.095 125.228,36.124 126.676,35.774 127.241 C 35.653 127.439,35.203 127.600,34.776 127.600 C 34.349 127.600,34.000 127.768,34.000 127.973 C 34.000 128.178,33.634 128.462,33.187 128.604 C 32.740 128.746,31.938 129.298,31.405 129.831 C 30.872 130.364,30.250 130.800,30.022 130.800 C 29.794 130.800,29.091 131.340,28.460 132.000 C 27.829 132.660,27.200 133.200,27.061 133.200 C 26.726 133.200,16.000 143.874,16.000 144.208 C 16.000 144.351,15.456 145.038,14.792 145.734 C 14.127 146.430,13.008 147.900,12.306 149.000 C 11.604 150.100,10.921 151.090,10.788 151.200 C 10.369 151.548,8.400 155.734,8.400 156.279 C 8.400 156.565,8.220 156.800,8.000 156.800 C 7.780 156.800,7.600 157.160,7.600 157.600 C 7.600 158.040,7.420 158.400,7.200 158.400 C 6.980 158.400,6.800 158.771,6.800 159.224 C 6.800 159.677,6.620 159.936,6.400 159.800 C 6.180 159.664,6.000 159.828,6.000 160.164 C 6.000 160.501,5.640 161.417,5.200 162.200 C 4.760 162.983,4.400 163.979,4.400 164.412 C 4.400 164.845,4.220 165.200,4.000 165.200 C 3.780 165.200,3.600 165.740,3.600 166.400 C 3.600 167.060,3.420 167.600,3.200 167.600 C 2.980 167.600,2.800 168.140,2.800 168.800 C 2.800 169.460,2.620 170.000,2.400 170.000 C 2.180 170.000,2.000 170.529,2.000 171.176 C 2.000 171.823,1.820 172.464,1.600 172.600 C 1.380 172.736,1.200 173.632,1.200 174.590 C 1.200 175.629,0.998 176.401,0.700 176.500 C -0.029 176.743,-0.029 206.857,0.700 207.100 C 0.987 207.196,1.200 207.936,1.200 208.833 C 1.200 209.695,1.380 210.400,1.600 210.400 C 1.820 210.400,2.000 211.120,2.000 212.000 C 2.000 212.880,2.180 213.600,2.400 213.600 C 2.620 213.600,2.800 214.140,2.800 214.800 C 2.800 215.460,2.980 216.000,3.200 216.000 C 3.420 216.000,3.600 216.540,3.600 217.200 C 3.600 217.860,3.780 218.400,4.000 218.400 C 4.220 218.400,4.400 218.760,4.400 219.200 C 4.400 219.640,4.580 220.000,4.800 220.000 C 5.020 220.000,5.200 220.540,5.200 221.200 C 5.200 221.860,5.346 222.400,5.525 222.400 C 5.704 222.400,6.098 223.030,6.400 223.800 C 6.702 224.570,7.096 225.200,7.275 225.200 C 7.454 225.200,7.600 225.560,7.600 226.000 C 7.600 226.440,7.780 226.800,8.000 226.800 C 8.220 226.800,8.400 227.064,8.400 227.386 C 8.400 228.199,9.676 230.800,10.074 230.800 C 10.253 230.800,10.400 231.160,10.400 231.600 C 10.400 232.040,10.580 232.400,10.800 232.400 C 11.020 232.400,11.200 232.643,11.200 232.941 C 11.200 233.238,11.740 234.046,12.400 234.737 C 13.060 235.428,13.600 236.148,13.600 236.337 C 13.600 236.526,14.140 237.246,14.800 237.937 C 15.460 238.628,16.000 239.306,16.000 239.444 C 16.000 239.987,29.340 252.799,29.907 252.801 C 30.068 252.801,30.830 253.341,31.600 254.000 C 32.370 254.659,33.225 255.199,33.500 255.199 C 33.775 255.200,34.000 255.359,34.000 255.553 C 34.000 255.748,34.315 256.007,34.700 256.129 C 35.504 256.384,37.702 257.672,38.001 258.063 C 38.111 258.208,38.876 258.453,39.701 258.608 C 40.525 258.762,41.200 259.049,41.200 259.245 C 41.200 259.440,41.571 259.600,42.024 259.600 C 42.477 259.600,42.736 259.780,42.600 260.000 C 42.464 260.220,42.723 260.400,43.176 260.400 C 43.629 260.400,44.000 260.580,44.000 260.800 C 44.000 261.020,44.360 261.200,44.800 261.200 C 45.240 261.200,45.600 261.380,45.600 261.600 C 45.600 261.820,46.140 262.000,46.800 262.000 C 47.460 262.000,48.000 262.180,48.000 262.400 C 48.000 262.620,48.349 262.800,48.776 262.800 C 49.203 262.800,49.664 262.980,49.800 263.200 C 49.936 263.420,50.487 263.600,51.024 263.600 C 51.561 263.600,52.000 263.780,52.000 264.000 C 52.000 264.220,52.720 264.400,53.600 264.400 C 54.480 264.400,55.200 264.580,55.200 264.800 C 55.200 265.020,55.920 265.200,56.800 265.200 C 57.680 265.200,58.400 265.380,58.400 265.600 C 58.400 265.820,59.390 266.000,60.600 266.000 C 61.810 266.000,62.800 266.180,62.800 266.400 C 62.800 266.633,64.125 266.800,65.976 266.800 C 67.723 266.800,69.264 266.980,69.400 267.200 C 69.562 267.463,84.604 267.600,113.224 267.600 L 156.800 267.600 156.800 269.600 C 156.800 270.700,156.620 271.600,156.400 271.600 C 156.180 271.600,156.000 272.500,156.000 273.600 C 156.000 274.700,155.820 275.600,155.600 275.600 C 155.380 275.600,155.200 276.500,155.200 277.600 C 155.200 278.700,155.020 279.600,154.800 279.600 C 154.580 279.600,154.400 280.399,154.400 281.376 C 154.400 282.353,154.220 283.264,154.000 283.400 C 153.780 283.536,153.600 284.447,153.600 285.424 C 153.600 286.401,153.420 287.200,153.200 287.200 C 152.980 287.200,152.800 288.089,152.800 289.176 C 152.800 290.263,152.620 291.264,152.400 291.400 C 152.180 291.536,152.000 292.447,152.000 293.424 C 152.000 294.401,151.820 295.200,151.600 295.200 C 151.380 295.200,151.200 295.999,151.200 296.976 C 151.200 297.953,151.020 298.864,150.800 299.000 C 150.580 299.136,150.400 300.036,150.400 301.000 C 150.400 301.964,150.220 302.864,150.000 303.000 C 149.773 303.140,149.600 305.137,149.600 307.624 C 149.600 310.275,149.758 312.000,150.000 312.000 C 150.220 312.000,150.400 312.275,150.400 312.611 C 150.400 313.885,153.872 316.800,155.389 316.800 C 156.165 316.800,156.800 316.980,156.800 317.200 C 156.800 317.722,160.278 317.722,160.600 317.200 C 160.736 316.980,161.287 316.800,161.824 316.800 C 162.361 316.800,162.800 316.620,162.800 316.400 C 162.800 316.180,163.078 316.000,163.418 316.000 C 164.124 316.000,166.000 314.256,166.000 313.600 C 166.000 313.360,166.450 312.714,167.000 312.164 C 167.550 311.614,168.000 311.000,168.000 310.800 C 168.000 310.600,168.450 309.986,169.000 309.436 C 169.550 308.886,170.000 308.263,170.000 308.052 C 170.000 307.840,170.143 307.607,170.317 307.533 C 170.491 307.460,171.436 306.230,172.417 304.800 C 173.398 303.370,174.425 301.962,174.700 301.671 C 174.975 301.381,175.200 300.886,175.200 300.571 C 175.200 300.257,175.380 300.000,175.600 300.000 C 175.820 300.000,176.000 299.770,176.000 299.488 C 176.000 299.207,176.360 298.717,176.800 298.400 C 177.240 298.083,177.600 297.591,177.600 297.308 C 177.600 297.025,178.140 296.228,178.800 295.537 C 179.460 294.846,180.000 294.078,180.000 293.829 C 180.000 293.580,180.360 293.117,180.800 292.800 C 181.240 292.483,181.600 291.993,181.600 291.712 C 181.600 291.430,181.741 291.200,181.914 291.200 C 182.086 291.200,182.521 290.705,182.879 290.100 C 183.237 289.495,183.996 288.460,184.565 287.800 C 185.134 287.140,185.599 286.415,185.600 286.188 C 185.600 285.962,185.960 285.517,186.400 285.200 C 186.840 284.883,187.200 284.438,187.201 284.212 C 187.201 283.985,187.741 283.170,188.400 282.400 C 189.059 281.630,189.599 280.775,189.599 280.500 C 189.600 280.225,189.752 280.000,189.937 280.000 C 190.122 280.000,190.617 279.325,191.037 278.500 C 191.457 277.675,192.115 276.709,192.500 276.353 C 192.885 275.997,193.200 275.502,193.200 275.253 C 193.200 275.004,193.341 274.800,193.514 274.800 C 193.686 274.800,194.149 274.255,194.543 273.589 C 194.936 272.923,195.695 271.941,196.229 271.407 C 196.763 270.873,197.200 270.240,197.200 270.000 C 197.200 269.760,197.642 269.122,198.182 268.582 L 199.164 267.600 256.382 267.600 C 294.261 267.600,313.600 267.465,313.600 267.200 C 313.600 266.960,315.192 266.800,317.576 266.800 C 319.796 266.800,321.662 266.623,321.800 266.400 C 321.936 266.180,323.117 266.000,324.424 266.000 C 325.741 266.000,326.800 265.822,326.800 265.600 C 326.800 265.380,327.520 265.200,328.400 265.200 C 329.280 265.200,330.000 265.020,330.000 264.800 C 330.000 264.580,330.720 264.400,331.600 264.400 C 332.480 264.400,333.200 264.220,333.200 264.000 C 333.200 263.780,333.920 263.600,334.800 263.600 C 335.680 263.600,336.400 263.420,336.400 263.200 C 336.400 262.980,336.839 262.800,337.376 262.800 C 337.913 262.800,338.464 262.620,338.600 262.400 C 338.736 262.180,339.197 262.000,339.624 262.000 C 340.051 262.000,340.400 261.820,340.400 261.600 C 340.400 261.380,340.850 261.200,341.400 261.200 C 341.950 261.200,342.400 261.020,342.400 260.800 C 342.400 260.580,342.940 260.400,343.600 260.400 C 344.260 260.400,344.800 260.220,344.800 260.000 C 344.800 259.780,345.160 259.600,345.600 259.600 C 346.040 259.600,346.400 259.420,346.400 259.200 C 346.400 258.980,346.704 258.800,347.076 258.800 C 347.858 258.800,355.200 255.230,355.200 254.850 C 355.200 254.710,355.785 254.340,356.500 254.028 C 357.215 253.716,358.091 253.132,358.447 252.730 C 358.803 252.329,359.348 252.000,359.659 252.000 C 359.969 252.000,360.483 251.640,360.800 251.200 C 361.117 250.760,361.625 250.400,361.928 250.400 C 362.231 250.400,362.983 249.860,363.600 249.200 C 364.217 248.540,364.930 248.000,365.186 248.000 C 365.442 248.000,366.495 247.145,367.527 246.100 C 368.558 245.055,370.411 243.432,371.645 242.494 C 372.880 241.556,374.319 240.222,374.845 239.531 C 375.370 238.839,376.025 238.045,376.300 237.765 C 376.575 237.486,376.800 237.143,376.800 237.003 C 376.800 236.863,377.700 235.871,378.800 234.800 C 379.900 233.729,380.800 232.687,380.800 232.485 C 380.800 232.284,381.340 231.554,382.000 230.863 C 382.660 230.172,383.200 229.452,383.200 229.263 C 383.200 229.074,383.740 228.354,384.400 227.663 C 385.060 226.972,385.600 226.218,385.600 225.987 C 385.600 225.756,385.931 225.211,386.336 224.777 C 386.741 224.342,387.326 223.495,387.635 222.893 C 387.945 222.292,388.296 221.710,388.414 221.600 C 388.929 221.122,391.600 215.623,391.600 215.042 C 391.600 214.689,391.780 214.400,392.000 214.400 C 392.220 214.400,392.400 214.051,392.400 213.624 C 392.400 213.197,392.580 212.736,392.800 212.600 C 393.020 212.464,393.200 211.913,393.200 211.376 C 393.200 210.839,393.380 210.400,393.600 210.400 C 393.820 210.400,394.000 210.128,394.000 209.795 C 394.000 209.462,394.180 208.832,394.400 208.395 C 394.620 207.958,394.980 207.242,395.200 206.805 C 395.420 206.368,395.600 205.648,395.600 205.205 C 395.600 204.762,395.780 204.400,396.000 204.400 C 396.220 204.400,396.400 203.860,396.400 203.200 C 396.400 202.540,396.580 202.000,396.800 202.000 C 397.020 202.000,397.200 201.280,397.200 200.400 C 397.200 199.520,397.380 198.800,397.600 198.800 C 397.820 198.800,398.000 198.080,398.000 197.200 C 398.000 196.320,398.180 195.600,398.400 195.600 C 398.620 195.600,398.800 194.715,398.800 193.633 C 398.800 192.416,398.990 191.603,399.300 191.500 C 399.689 191.370,399.800 187.711,399.800 175.000 C 399.800 162.289,399.689 158.630,399.300 158.500 C 398.990 158.397,398.800 157.584,398.800 156.367 C 398.800 155.285,398.620 154.400,398.400 154.400 C 398.180 154.400,398.000 153.680,398.000 152.800 C 398.000 151.920,397.820 151.200,397.600 151.200 C 397.380 151.200,397.200 150.480,397.200 149.600 C 397.200 148.720,397.020 148.000,396.800 148.000 C 396.580 148.000,396.400 147.460,396.400 146.800 C 396.400 146.140,396.220 145.600,396.000 145.600 C 395.780 145.600,395.600 145.238,395.600 144.795 C 395.600 144.352,395.392 143.587,395.138 143.095 C 394.167 141.218,394.000 140.793,394.000 140.205 C 394.000 139.872,393.820 139.600,393.600 139.600 C 393.380 139.600,393.200 139.161,393.200 138.624 C 393.200 138.087,393.020 137.536,392.800 137.400 C 392.580 137.264,392.400 136.803,392.400 136.376 C 392.400 135.949,392.220 135.600,392.000 135.600 C 391.780 135.600,391.600 135.311,391.600 134.958 C 391.600 134.377,388.929 128.878,388.414 128.400 C 388.296 128.290,387.945 127.708,387.635 127.107 C 387.326 126.505,386.741 125.658,386.336 125.223 C 385.931 124.789,385.600 124.244,385.600 124.013 C 385.600 123.782,385.060 123.028,384.400 122.337 C 383.740 121.646,383.200 120.926,383.200 120.737 C 383.200 120.548,382.660 119.828,382.000 119.137 C 381.340 118.446,380.800 117.716,380.800 117.515 C 380.800 117.313,379.900 116.271,378.800 115.200 C 377.700 114.129,376.800 113.152,376.800 113.031 C 376.800 112.395,373.165 108.615,370.986 106.986 C 370.114 106.334,368.557 104.945,367.526 103.900 C 366.495 102.855,365.442 102.000,365.186 102.000 C 364.930 102.000,364.217 101.460,363.600 100.800 C 362.983 100.140,362.231 99.600,361.928 99.600 C 361.625 99.600,361.117 99.240,360.800 98.800 C 360.483 98.360,359.969 98.000,359.659 98.000 C 359.348 98.000,358.803 97.671,358.447 97.270 C 358.091 96.868,357.215 96.284,356.500 95.972 C 355.785 95.660,355.200 95.290,355.200 95.150 C 355.200 94.773,349.451 92.000,348.670 92.000 C 348.302 92.000,348.000 91.820,348.000 91.600 C 348.000 91.380,347.640 91.200,347.200 91.200 C 346.760 91.200,346.400 91.020,346.400 90.800 C 346.400 90.580,346.040 90.400,345.600 90.400 C 345.160 90.400,344.800 90.220,344.800 90.000 C 344.800 89.780,344.260 89.600,343.600 89.600 C 342.940 89.600,342.400 89.420,342.400 89.200 C 342.400 88.980,341.950 88.800,341.400 88.800 C 340.850 88.800,340.400 88.620,340.400 88.400 C 340.400 88.180,340.051 88.000,339.624 88.000 C 339.197 88.000,338.736 87.820,338.600 87.600 C 338.464 87.380,337.913 87.200,337.376 87.200 C 336.839 87.200,336.400 87.020,336.400 86.800 C 336.400 86.580,335.680 86.400,334.800 86.400 C 333.920 86.400,333.200 86.220,333.200 86.000 C 333.200 85.780,332.480 85.600,331.600 85.600 C 330.720 85.600,330.000 85.420,330.000 85.200 C 330.000 84.980,329.280 84.800,328.400 84.800 C 327.520 84.800,326.800 84.620,326.800 84.400 C 326.800 84.178,325.741 84.000,324.424 84.000 C 323.117 84.000,321.936 83.820,321.800 83.600 C 321.662 83.377,319.796 83.200,317.576 83.200 C 315.192 83.200,313.600 83.040,313.600 82.800 C 313.600 82.565,312.200 82.400,310.200 82.400 C 307.431 82.400,306.800 82.288,306.800 81.795 C 306.800 81.462,306.640 80.877,306.444 80.495 C 306.248 80.113,305.665 78.900,305.149 77.800 C 304.633 76.700,304.101 75.710,303.967 75.600 C 303.833 75.490,303.605 74.918,303.461 74.328 C 303.317 73.738,302.929 72.986,302.599 72.657 C 302.270 72.327,302.000 71.774,302.000 71.429 C 302.000 71.083,301.820 70.800,301.600 70.800 C 301.380 70.800,301.200 70.440,301.200 70.000 C 301.200 69.560,301.020 69.200,300.800 69.200 C 300.580 69.200,300.400 68.840,300.400 68.400 C 300.400 67.960,300.220 67.600,300.000 67.600 C 299.780 67.600,299.600 67.240,299.600 66.800 C 299.600 66.360,299.420 66.000,299.200 66.000 C 298.980 66.000,298.800 65.764,298.800 65.475 C 298.800 65.187,298.440 64.564,298.000 64.092 C 297.560 63.620,297.200 62.996,297.200 62.705 C 297.200 62.414,296.840 61.917,296.400 61.600 C 295.960 61.283,295.600 60.793,295.600 60.512 C 295.600 60.230,295.285 59.653,294.900 59.229 C 293.558 57.750,293.200 57.231,293.200 56.764 C 293.200 56.505,292.867 56.003,292.459 55.647 C 292.052 55.291,291.432 54.460,291.083 53.800 C 290.733 53.140,289.986 52.077,289.423 51.438 C 288.861 50.799,288.400 50.128,288.400 49.948 C 288.400 49.768,287.590 48.811,286.600 47.821 C 285.610 46.831,284.800 45.897,284.800 45.745 C 284.800 45.594,282.548 43.204,279.795 40.435 C 277.043 37.666,273.943 34.545,272.907 33.500 C 271.871 32.455,270.884 31.600,270.714 31.600 C 270.543 31.600,269.485 30.700,268.361 29.600 C 267.238 28.500,266.077 27.600,265.782 27.600 C 265.487 27.600,265.010 27.267,264.723 26.860 C 264.435 26.452,263.570 25.796,262.800 25.400 C 262.030 25.005,261.109 24.348,260.753 23.941 C 260.397 23.533,259.856 23.200,259.549 23.200 C 259.243 23.200,258.768 22.840,258.493 22.400 C 258.218 21.960,257.807 21.600,257.580 21.600 C 257.353 21.600,256.780 21.240,256.308 20.800 C 255.836 20.360,255.213 20.000,254.925 20.000 C 254.636 20.000,254.400 19.820,254.400 19.600 C 254.400 19.380,254.164 19.200,253.875 19.200 C 253.587 19.200,252.964 18.840,252.492 18.400 C 252.020 17.960,251.371 17.600,251.050 17.600 C 250.729 17.600,250.407 17.465,250.333 17.300 C 250.166 16.924,248.036 15.625,247.100 15.329 C 246.715 15.207,246.400 14.948,246.400 14.753 C 246.400 14.559,246.040 14.400,245.600 14.400 C 245.160 14.400,244.800 14.220,244.800 14.000 C 244.800 13.780,244.440 13.600,244.000 13.600 C 243.560 13.600,243.200 13.420,243.200 13.200 C 243.200 12.980,242.840 12.800,242.400 12.800 C 241.960 12.800,241.600 12.620,241.600 12.400 C 241.600 12.180,241.240 12.000,240.800 12.000 C 240.360 12.000,240.000 11.820,240.000 11.600 C 240.000 11.380,239.550 11.200,239.000 11.200 C 238.450 11.200,238.000 11.020,238.000 10.800 C 238.000 10.580,237.762 10.400,237.471 10.400 C 237.181 10.400,236.237 10.057,235.374 9.637 C 234.511 9.217,233.669 8.958,233.502 9.060 C 233.336 9.163,233.200 9.057,233.200 8.824 C 233.200 8.591,232.660 8.400,232.000 8.400 C 231.340 8.400,230.800 8.220,230.800 8.000 C 230.800 7.780,230.260 7.600,229.600 7.600 C 228.940 7.600,228.400 7.420,228.400 7.200 C 228.400 6.980,227.860 6.800,227.200 6.800 C 226.540 6.800,226.000 6.620,226.000 6.400 C 226.000 6.180,225.550 6.000,225.000 6.000 C 224.450 6.000,224.000 5.820,224.000 5.600 C 224.000 5.380,223.460 5.200,222.800 5.200 C 222.140 5.200,221.600 5.020,221.600 4.800 C 221.600 4.580,220.880 4.400,220.000 4.400 C 219.120 4.400,218.400 4.220,218.400 4.000 C 218.400 3.780,217.770 3.600,217.000 3.600 C 216.230 3.600,215.600 3.420,215.600 3.200 C 215.600 2.980,214.790 2.800,213.800 2.800 C 212.810 2.800,212.000 2.620,212.000 2.400 C 212.000 2.180,211.100 2.000,210.000 2.000 C 208.900 2.000,208.000 1.820,208.000 1.600 C 208.000 1.380,207.226 1.200,206.280 1.200 C 205.334 1.200,204.348 0.988,204.088 0.728 C 203.616 0.256,172.426 -0.122,166.400 0.272 M193.000 16.831 C 195.420 17.069,199.020 17.539,201.000 17.875 C 202.980 18.211,205.500 18.630,206.600 18.806 C 211.044 19.518,222.446 22.950,226.768 24.877 C 227.776 25.326,229.230 25.960,230.000 26.286 C 240.237 30.620,252.383 38.441,260.305 45.800 C 261.726 47.120,263.337 48.560,263.885 49.000 C 264.432 49.440,266.527 51.617,268.540 53.838 C 272.317 58.005,272.467 58.181,274.806 61.200 C 275.572 62.190,276.298 63.090,276.418 63.200 C 276.985 63.721,281.993 71.251,283.069 73.200 C 283.736 74.410,284.811 76.300,285.457 77.400 C 286.981 79.997,289.200 84.697,289.200 85.331 C 289.200 85.603,288.345 86.064,287.300 86.355 C 286.255 86.647,284.815 87.046,284.100 87.243 C 280.236 88.305,277.790 89.119,274.500 90.439 C 274.005 90.638,273.195 90.953,272.700 91.139 C 267.223 93.205,254.811 100.419,252.519 102.869 C 247.805 107.909,251.514 116.400,258.430 116.400 C 260.348 116.400,261.471 115.914,265.046 113.539 C 275.196 106.797,285.570 102.659,297.200 100.718 C 301.052 100.074,314.319 99.867,317.400 100.402 C 325.625 101.829,329.070 102.674,334.000 104.472 C 338.030 105.941,345.324 109.496,347.791 111.194 C 348.755 111.857,349.646 112.400,349.770 112.400 C 350.561 112.400,357.384 118.159,361.602 122.386 C 380.130 140.958,387.084 165.968,381.226 192.965 C 379.670 200.139,373.068 214.520,369.583 218.326 C 369.244 218.697,368.350 219.900,367.596 221.000 C 358.821 233.803,338.830 245.930,321.800 248.780 C 320.260 249.038,318.131 249.418,317.069 249.624 C 315.099 250.008,210.400 250.180,210.400 249.799 C 210.400 249.624,224.880 229.160,228.798 223.800 C 229.602 222.700,232.750 218.290,235.794 214.000 C 241.355 206.163,243.115 203.707,246.771 198.680 C 251.117 192.703,250.740 187.974,245.661 184.752 L 243.843 183.600 222.955 183.600 C 206.928 183.600,202.029 183.487,201.905 183.114 C 201.816 182.847,202.153 180.642,202.653 178.214 C 203.391 174.639,206.031 161.434,207.614 153.400 C 207.788 152.520,208.110 150.900,208.329 149.800 C 208.549 148.700,208.942 146.720,209.202 145.400 C 209.461 144.080,209.821 142.280,210.000 141.400 C 210.179 140.520,210.539 138.720,210.800 137.400 C 211.061 136.080,211.446 134.190,211.655 133.200 C 211.865 132.210,212.190 130.590,212.378 129.600 C 212.744 127.674,213.469 124.009,214.000 121.400 C 214.179 120.520,214.539 118.720,214.800 117.400 C 215.061 116.080,215.446 114.190,215.657 113.200 C 217.256 105.689,215.028 101.216,209.352 100.543 C 205.269 100.060,203.343 101.341,199.117 107.351 C 197.550 109.578,195.533 112.408,194.634 113.641 C 193.735 114.873,192.010 117.282,190.800 118.993 C 189.590 120.704,188.420 122.313,188.200 122.569 C 187.980 122.824,187.620 123.331,187.400 123.695 C 186.960 124.422,174.468 141.912,173.084 143.739 C 172.609 144.365,171.496 145.932,170.611 147.221 C 168.379 150.470,160.515 161.499,159.218 163.200 C 158.631 163.970,157.544 165.500,156.802 166.600 C 156.060 167.700,155.337 168.690,155.196 168.800 C 155.055 168.910,154.211 170.080,153.319 171.400 C 152.428 172.720,150.137 175.960,148.229 178.600 C 146.321 181.240,144.017 184.480,143.110 185.800 C 142.202 187.120,141.348 188.290,141.211 188.400 C 141.074 188.510,140.533 189.230,140.009 190.000 C 137.976 192.987,123.412 213.411,123.180 213.600 C 122.832 213.884,118.195 220.824,117.652 221.874 C 116.324 224.440,117.318 228.699,119.783 231.000 C 121.998 233.068,121.136 232.992,143.700 233.120 L 164.800 233.239 164.781 234.120 C 164.771 234.604,164.083 238.330,163.251 242.400 L 161.740 249.800 115.570 249.924 C 67.494 250.052,67.565 250.054,60.400 248.325 C 48.945 245.561,34.546 236.122,28.785 227.600 C 28.264 226.830,27.731 226.110,27.600 226.000 C 26.197 224.824,21.971 216.988,20.049 212.000 C 14.383 197.295,15.526 178.615,22.937 164.800 C 23.586 163.590,24.316 162.196,24.559 161.703 C 24.801 161.210,25.135 160.805,25.300 160.803 C 25.465 160.801,25.600 160.564,25.600 160.275 C 25.600 159.987,25.920 159.402,26.311 158.975 C 26.702 158.549,27.464 157.570,28.004 156.800 C 30.294 153.535,33.673 149.938,37.183 147.033 C 40.477 144.305,44.928 141.200,45.545 141.200 C 45.758 141.200,45.993 141.056,46.067 140.881 C 47.083 138.449,62.282 133.922,71.879 133.194 C 80.028 132.575,82.802 130.485,82.799 124.965 C 82.795 119.436,79.347 116.925,72.344 117.350 C 67.564 117.641,67.541 117.628,68.058 115.010 C 68.233 114.125,68.581 112.140,68.831 110.600 C 69.217 108.218,69.943 105.164,71.588 99.000 C 71.930 97.718,72.276 96.687,72.796 95.400 C 72.974 94.960,73.336 93.970,73.600 93.200 C 73.864 92.430,74.267 91.350,74.494 90.800 C 74.721 90.250,75.040 89.440,75.203 89.000 C 76.564 85.318,80.384 77.744,83.373 72.800 C 87.461 66.038,90.780 61.587,97.200 54.259 C 99.622 51.495,105.964 45.490,108.400 43.655 C 109.170 43.075,110.340 42.093,111.000 41.474 C 112.559 40.012,123.441 32.699,125.450 31.763 C 126.302 31.366,127.090 30.928,127.200 30.788 C 127.403 30.531,133.192 27.703,136.300 26.344 C 137.235 25.935,138.765 25.249,139.700 24.820 C 152.770 18.823,176.727 15.232,193.000 16.831 M192.035 148.687 C 191.265 152.249,190.906 153.991,190.400 156.600 C 190.144 157.920,189.784 159.720,189.600 160.600 C 189.416 161.480,189.056 163.280,188.800 164.600 C 188.544 165.920,188.184 167.720,188.000 168.600 C 187.816 169.480,187.456 171.280,187.200 172.600 C 186.944 173.920,186.587 175.720,186.407 176.600 C 185.918 178.977,185.335 181.901,184.810 184.600 C 184.554 185.920,184.176 187.651,183.972 188.446 C 182.691 193.428,185.101 198.205,189.569 199.543 C 190.607 199.855,196.525 200.000,208.146 200.000 C 217.526 200.000,225.200 200.119,225.200 200.264 C 225.200 200.524,220.684 207.236,219.726 208.400 C 219.284 208.937,212.637 218.220,209.441 222.764 C 208.758 223.735,207.469 225.535,206.575 226.764 C 205.681 227.994,202.719 232.150,199.994 236.000 C 197.269 239.850,194.118 244.260,192.992 245.800 C 191.866 247.340,187.393 253.591,183.051 259.690 C 173.269 273.430,173.692 273.114,175.247 265.529 C 175.712 263.258,176.236 260.680,176.411 259.800 C 176.586 258.920,176.910 257.300,177.129 256.200 C 177.349 255.100,177.742 253.120,178.002 251.800 C 178.261 250.480,178.621 248.680,178.800 247.800 C 178.979 246.920,179.339 245.120,179.600 243.800 C 179.861 242.480,180.221 240.680,180.400 239.800 C 180.579 238.920,180.939 237.120,181.200 235.800 C 181.461 234.480,181.821 232.680,182.000 231.800 C 183.609 223.903,183.361 221.764,180.536 219.149 C 178.158 216.949,178.717 217.009,159.500 216.877 C 146.442 216.788,141.600 216.632,141.600 216.299 C 141.600 215.902,143.423 212.953,144.010 212.400 C 144.127 212.290,145.559 210.310,147.191 208.000 C 148.824 205.690,152.165 201.010,154.615 197.600 C 159.421 190.912,160.704 189.105,163.275 185.400 C 164.191 184.080,165.055 182.910,165.195 182.800 C 165.336 182.690,166.445 181.160,167.661 179.400 C 170.370 175.480,174.265 170.015,174.939 169.191 C 175.213 168.856,176.047 167.686,176.794 166.591 C 177.540 165.496,178.631 163.970,179.219 163.200 C 180.422 161.623,188.274 150.606,190.366 147.561 C 192.115 145.016,192.737 145.435,192.035 148.687 M106.000 282.800 C 106.000 283.020,105.500 283.200,104.888 283.200 C 104.235 283.200,103.539 283.530,103.200 284.000 C 102.883 284.440,102.375 284.800,102.072 284.800 C 101.769 284.800,101.017 285.340,100.400 286.000 C 99.783 286.660,99.119 287.200,98.924 287.200 C 98.728 287.200,97.772 287.920,96.800 288.800 C 95.828 289.680,94.882 290.400,94.698 290.400 C 94.514 290.400,93.944 290.805,93.432 291.300 C 91.973 292.710,90.800 293.617,90.800 293.335 C 90.800 293.193,90.464 293.465,90.053 293.939 C 89.642 294.412,89.147 294.801,88.953 294.802 C 88.759 294.803,88.025 295.343,87.322 296.002 C 86.619 296.661,85.891 297.200,85.706 297.200 C 85.520 297.200,84.572 297.920,83.600 298.800 C 82.628 299.680,81.672 300.400,81.476 300.400 C 81.281 300.400,80.617 300.940,80.000 301.600 C 79.383 302.260,78.703 302.800,78.488 302.800 C 77.966 302.800,74.800 305.890,74.800 306.400 C 74.800 306.620,74.522 306.800,74.182 306.800 C 73.370 306.800,71.600 308.586,71.600 309.405 C 71.600 309.758,71.447 309.953,71.260 309.837 C 71.073 309.722,70.670 310.116,70.363 310.714 C 70.056 311.311,69.489 312.091,69.103 312.447 C 68.716 312.803,68.400 313.568,68.400 314.147 C 68.400 314.726,68.220 315.200,68.000 315.200 C 67.780 315.200,67.600 315.560,67.600 316.000 C 67.600 316.440,67.438 316.800,67.240 316.800 C 66.432 316.800,65.616 329.376,66.375 330.135 C 66.609 330.369,66.800 331.154,66.800 331.880 C 66.800 332.606,66.980 333.200,67.200 333.200 C 67.420 333.200,67.600 333.740,67.600 334.400 C 67.600 335.060,67.780 335.600,68.000 335.600 C 68.220 335.600,68.400 335.960,68.400 336.400 C 68.400 336.840,68.580 337.200,68.800 337.200 C 69.020 337.200,69.200 337.436,69.200 337.725 C 69.200 338.013,69.560 338.636,70.000 339.108 C 70.440 339.580,70.800 340.067,70.800 340.190 C 70.800 340.594,76.778 346.400,77.194 346.400 C 77.417 346.400,77.600 346.580,77.600 346.800 C 77.600 347.020,77.960 347.200,78.400 347.200 C 78.840 347.200,79.200 347.380,79.200 347.600 C 79.200 347.820,79.560 348.000,80.000 348.000 C 80.440 348.000,80.800 348.180,80.800 348.400 C 80.800 348.620,81.149 348.800,81.576 348.800 C 82.003 348.800,82.464 348.980,82.600 349.200 C 82.736 349.420,83.366 349.600,84.000 349.600 C 84.634 349.600,85.264 349.780,85.400 350.000 C 85.548 350.239,88.137 350.400,91.824 350.400 C 95.675 350.400,98.000 350.249,98.000 350.000 C 98.000 349.780,98.540 349.600,99.200 349.600 C 99.860 349.600,100.400 349.420,100.400 349.200 C 100.400 348.980,100.940 348.800,101.600 348.800 C 102.260 348.800,102.800 348.620,102.800 348.400 C 102.800 348.180,103.160 348.000,103.600 348.000 C 104.040 348.000,104.400 347.820,104.400 347.600 C 104.400 347.380,104.643 347.200,104.941 347.200 C 105.238 347.200,106.046 346.660,106.737 346.000 C 107.428 345.340,108.090 344.800,108.210 344.800 C 108.514 344.800,111.200 342.082,111.200 341.774 C 111.200 341.635,111.740 341.017,112.400 340.400 C 113.060 339.783,113.600 338.991,113.600 338.640 C 113.600 338.288,113.780 338.000,114.000 338.000 C 114.220 338.000,114.400 337.640,114.400 337.200 C 114.400 336.760,114.580 336.400,114.800 336.400 C 115.020 336.400,115.200 336.040,115.200 335.600 C 115.200 335.160,115.380 334.800,115.600 334.800 C 115.820 334.800,116.000 334.260,116.000 333.600 C 116.000 332.940,116.180 332.400,116.400 332.400 C 116.620 332.400,116.800 331.421,116.800 330.224 C 116.800 329.027,116.980 327.936,117.200 327.800 C 117.458 327.641,117.600 320.796,117.600 308.576 C 117.600 296.192,117.461 289.600,117.200 289.600 C 116.980 289.600,116.800 289.060,116.800 288.400 C 116.800 287.740,116.664 287.200,116.498 287.200 C 116.331 287.200,115.961 286.670,115.674 286.023 C 115.388 285.376,114.624 284.612,113.977 284.326 C 113.330 284.039,112.800 283.669,112.800 283.502 C 112.800 283.336,112.260 283.200,111.600 283.200 C 110.940 283.200,110.400 283.020,110.400 282.800 C 110.400 282.580,109.410 282.400,108.200 282.400 C 106.990 282.400,106.000 282.580,106.000 282.800 M289.600 282.800 C 289.600 283.020,289.060 283.200,288.400 283.200 C 287.740 283.200,287.200 283.380,287.200 283.600 C 287.200 283.820,286.912 284.000,286.560 284.000 C 286.209 284.000,285.417 284.540,284.800 285.200 C 284.183 285.860,283.508 286.400,283.299 286.400 C 283.090 286.400,282.354 286.940,281.663 287.600 C 280.972 288.260,280.226 288.800,280.004 288.800 C 279.782 288.800,279.600 288.980,279.600 289.200 C 279.600 289.420,279.402 289.600,279.160 289.600 C 278.919 289.600,278.217 290.140,277.600 290.800 C 276.983 291.460,276.280 292.000,276.037 292.000 C 275.794 292.000,275.203 292.450,274.725 293.000 C 274.247 293.550,273.645 294.000,273.387 294.000 C 273.129 294.000,272.354 294.540,271.663 295.200 C 270.972 295.860,270.247 296.400,270.052 296.400 C 269.856 296.400,268.955 297.120,268.048 298.000 C 267.141 298.880,266.202 299.600,265.960 299.600 C 265.719 299.600,265.017 300.140,264.400 300.800 C 263.783 301.460,263.084 302.000,262.846 302.000 C 262.608 302.000,261.682 302.675,260.787 303.500 C 256.822 307.158,254.400 309.581,254.400 309.890 C 254.400 310.073,254.040 310.483,253.600 310.800 C 253.160 311.117,252.800 311.697,252.800 312.088 C 252.800 312.480,252.620 312.800,252.400 312.800 C 252.180 312.800,252.000 313.160,252.000 313.600 C 252.000 314.040,251.820 314.400,251.600 314.400 C 251.380 314.400,251.200 314.749,251.200 315.176 C 251.200 315.603,251.020 316.064,250.800 316.200 C 250.580 316.336,250.400 316.887,250.400 317.424 C 250.400 317.961,250.220 318.400,250.000 318.400 C 249.749 318.400,249.600 320.867,249.600 325.000 C 249.600 329.133,249.749 331.600,250.000 331.600 C 250.220 331.600,250.400 332.140,250.400 332.800 C 250.400 333.460,250.580 334.000,250.800 334.000 C 251.020 334.000,251.204 334.405,251.209 334.900 C 251.214 335.395,251.570 336.250,252.000 336.800 C 252.430 337.350,252.786 338.025,252.791 338.300 C 252.796 338.575,252.936 338.800,253.102 338.800 C 253.269 338.800,253.640 339.331,253.927 339.981 C 254.215 340.631,254.799 341.273,255.225 341.408 C 255.651 341.543,256.000 341.925,256.000 342.256 C 256.000 342.964,256.948 344.000,257.597 344.000 C 257.847 344.000,258.506 344.540,259.061 345.200 C 259.617 345.860,260.325 346.400,260.636 346.400 C 260.946 346.400,261.200 346.580,261.200 346.800 C 261.200 347.020,261.425 347.204,261.700 347.209 C 261.975 347.214,262.650 347.570,263.200 348.000 C 263.750 348.430,264.605 348.786,265.100 348.791 C 265.595 348.796,266.000 348.980,266.000 349.200 C 266.000 349.420,266.540 349.600,267.200 349.600 C 267.860 349.600,268.400 349.780,268.400 350.000 C 268.400 350.251,270.867 350.400,275.000 350.400 C 279.133 350.400,281.600 350.251,281.600 350.000 C 281.600 349.780,282.140 349.600,282.800 349.600 C 283.460 349.600,284.000 349.420,284.000 349.200 C 284.000 348.980,284.405 348.796,284.900 348.791 C 285.395 348.786,286.250 348.430,286.800 348.000 C 287.350 347.570,288.025 347.214,288.300 347.209 C 288.575 347.204,288.800 347.064,288.800 346.898 C 288.800 346.731,289.331 346.360,289.981 346.073 C 290.631 345.785,291.273 345.201,291.408 344.775 C 291.543 344.349,291.925 344.000,292.256 344.000 C 293.030 344.000,294.000 343.030,294.000 342.256 C 294.000 341.925,294.349 341.543,294.775 341.408 C 295.201 341.273,295.785 340.631,296.073 339.981 C 296.360 339.331,296.731 338.800,296.898 338.800 C 297.064 338.800,297.204 338.575,297.209 338.300 C 297.214 338.025,297.570 337.350,298.000 336.800 C 298.430 336.250,298.786 335.395,298.791 334.900 C 298.796 334.405,298.980 334.000,299.200 334.000 C 299.420 334.000,299.600 333.460,299.600 332.800 C 299.600 332.140,299.780 331.600,300.000 331.600 C 300.262 331.600,300.400 324.067,300.400 309.800 C 300.400 295.533,300.262 288.000,300.000 288.000 C 299.780 288.000,299.600 287.725,299.600 287.389 C 299.600 286.358,296.140 283.200,295.011 283.200 C 294.455 283.200,294.000 283.020,294.000 282.800 C 294.000 282.580,293.010 282.400,291.800 282.400 C 290.590 282.400,289.600 282.580,289.600 282.800 M100.000 317.694 C 100.000 326.518,99.992 326.605,98.942 328.679 C 95.133 336.207,83.643 333.659,83.610 325.280 C 83.594 321.176,84.082 320.591,93.303 313.654 C 96.330 311.377,98.905 309.353,99.027 309.157 C 99.805 307.898,100.000 309.611,100.000 317.694 M283.132 318.500 L 283.000 327.800 281.938 329.338 C 277.663 335.524,268.184 333.692,267.051 326.461 C 266.434 322.524,267.786 320.478,274.255 315.557 C 276.393 313.931,279.145 311.837,280.371 310.904 C 281.597 309.972,282.750 309.207,282.932 309.204 C 283.115 309.202,283.205 313.385,283.132 318.500 M197.800 332.800 C 197.664 333.020,197.113 333.200,196.576 333.200 C 196.039 333.200,195.600 333.380,195.600 333.600 C 195.600 333.820,195.280 334.000,194.888 334.000 C 194.497 334.000,193.917 334.360,193.600 334.800 C 193.283 335.240,192.865 335.600,192.672 335.600 C 192.479 335.600,191.817 336.140,191.200 336.800 C 190.583 337.460,189.903 338.000,189.688 338.000 C 189.473 338.000,188.555 338.720,187.648 339.600 C 186.741 340.480,185.769 341.200,185.488 341.200 C 185.207 341.200,184.724 341.550,184.415 341.979 C 184.107 342.407,183.726 342.678,183.569 342.581 C 183.412 342.484,183.181 342.674,183.054 343.002 C 182.928 343.331,182.558 343.600,182.231 343.600 C 181.904 343.600,181.223 344.009,180.718 344.509 C 180.213 345.008,179.170 345.861,178.400 346.403 C 176.743 347.570,176.013 348.161,174.085 349.900 C 173.292 350.615,172.481 351.200,172.282 351.200 C 172.084 351.200,171.417 351.740,170.800 352.400 C 170.183 353.060,169.482 353.600,169.242 353.600 C 168.669 353.600,162.000 360.197,162.000 360.764 C 162.000 361.004,161.841 361.200,161.646 361.200 C 161.269 361.200,159.914 363.772,159.734 364.828 C 159.675 365.174,159.352 365.984,159.016 366.628 C 158.676 367.280,158.404 368.820,158.402 370.100 C 158.401 371.365,158.220 372.400,158.000 372.400 C 157.510 372.400,157.459 377.465,157.946 377.766 C 158.136 377.884,158.380 379.199,158.488 380.690 C 158.707 383.684,160.723 388.509,162.581 390.483 C 163.141 391.078,163.600 391.669,163.600 391.796 C 163.600 392.222,166.368 394.800,166.826 394.800 C 167.075 394.800,167.783 395.340,168.400 396.000 C 169.017 396.660,169.809 397.200,170.160 397.200 C 170.512 397.200,170.800 397.380,170.800 397.600 C 170.800 397.820,171.160 398.000,171.600 398.000 C 172.040 398.000,172.400 398.180,172.400 398.400 C 172.400 398.620,172.925 398.800,173.567 398.800 C 174.208 398.800,174.808 399.025,174.900 399.300 C 175.027 399.679,177.129 399.800,183.600 399.800 C 190.071 399.800,192.174 399.679,192.300 399.300 C 192.392 399.025,192.812 398.800,193.233 398.800 C 193.655 398.800,194.000 398.620,194.000 398.400 C 194.000 398.180,194.360 398.000,194.800 398.000 C 195.240 398.000,195.600 397.820,195.600 397.600 C 195.600 397.380,195.960 397.200,196.400 397.200 C 196.840 397.200,197.200 397.020,197.200 396.800 C 197.200 396.580,197.452 396.400,197.759 396.400 C 198.393 396.400,204.400 390.666,204.400 390.061 C 204.400 389.844,204.550 389.607,204.733 389.533 C 205.250 389.326,207.600 384.836,207.600 384.055 C 207.600 383.673,207.825 383.135,208.100 382.860 C 208.765 382.196,209.071 340.133,208.427 338.000 C 207.922 336.328,205.955 334.000,205.047 334.000 C 204.691 334.000,204.400 333.820,204.400 333.600 C 204.400 333.380,204.051 333.200,203.624 333.200 C 203.197 333.200,202.736 333.020,202.600 332.800 C 202.464 332.580,201.384 332.400,200.200 332.400 C 199.016 332.400,197.936 332.580,197.800 332.800 M191.591 367.900 C 191.583 375.652,191.499 376.774,190.813 378.200 C 187.077 385.970,176.086 384.195,175.315 375.697 C 174.999 372.207,175.990 370.653,181.000 366.785 C 188.611 360.910,190.920 359.200,191.245 359.200 C 191.441 359.200,191.596 363.102,191.591 367.900 " stroke="none" fill="#444f54" fill-rule="evenodd"></path><path id="path1" d="M190.366 147.561 C 188.274 150.606,180.422 161.623,179.219 163.200 C 178.631 163.970,177.540 165.496,176.794 166.591 C 176.047 167.686,175.213 168.856,174.939 169.191 C 174.265 170.015,170.370 175.480,167.661 179.400 C 166.445 181.160,165.336 182.690,165.195 182.800 C 165.055 182.910,164.191 184.080,163.275 185.400 C 160.704 189.105,159.421 190.912,154.615 197.600 C 152.165 201.010,148.824 205.690,147.191 208.000 C 145.559 210.310,144.127 212.290,144.010 212.400 C 143.423 212.953,141.600 215.902,141.600 216.299 C 141.600 216.632,146.442 216.788,159.500 216.877 C 178.717 217.009,178.158 216.949,180.536 219.149 C 183.361 221.764,183.609 223.903,182.000 231.800 C 181.821 232.680,181.461 234.480,181.200 235.800 C 180.939 237.120,180.579 238.920,180.400 239.800 C 180.221 240.680,179.861 242.480,179.600 243.800 C 179.339 245.120,178.979 246.920,178.800 247.800 C 178.621 248.680,178.261 250.480,178.002 251.800 C 177.742 253.120,177.349 255.100,177.129 256.200 C 176.910 257.300,176.586 258.920,176.411 259.800 C 176.236 260.680,175.712 263.258,175.247 265.529 C 173.692 273.114,173.269 273.430,183.051 259.690 C 187.393 253.591,191.866 247.340,192.992 245.800 C 194.118 244.260,197.269 239.850,199.994 236.000 C 202.719 232.150,205.681 227.994,206.575 226.764 C 207.469 225.535,208.758 223.735,209.441 222.764 C 212.637 218.220,219.284 208.937,219.726 208.400 C 220.684 207.236,225.200 200.524,225.200 200.264 C 225.200 200.119,217.526 200.000,208.146 200.000 C 196.525 200.000,190.607 199.855,189.569 199.543 C 185.101 198.205,182.691 193.428,183.972 188.446 C 184.176 187.651,184.554 185.920,184.810 184.600 C 185.335 181.901,185.918 178.977,186.407 176.600 C 186.587 175.720,186.944 173.920,187.200 172.600 C 187.456 171.280,187.816 169.480,188.000 168.600 C 188.184 167.720,188.544 165.920,188.800 164.600 C 189.056 163.280,189.416 161.480,189.600 160.600 C 189.784 159.720,190.144 157.920,190.400 156.600 C 190.906 153.991,191.265 152.249,192.035 148.687 C 192.737 145.435,192.115 145.016,190.366 147.561 " stroke="none" fill="#bfaa55" fill-rule="evenodd"></path><path id="path2" d="M177.600 17.218 C 173.685 17.376,175.170 17.442,183.000 17.458 C 193.798 17.480,195.688 17.333,187.400 17.116 C 184.980 17.052,180.570 17.098,177.600 17.218 M168.400 18.000 L 166.600 18.280 168.800 18.334 C 170.010 18.363,171.270 18.213,171.600 18.000 C 172.302 17.546,171.318 17.546,168.400 18.000 M194.400 17.985 C 194.937 18.346,200.771 18.609,200.367 18.254 C 200.275 18.174,198.760 17.990,197.000 17.845 C 194.801 17.665,193.988 17.708,194.400 17.985 M163.400 18.667 C 162.255 18.807,160.252 19.238,157.200 20.000 C 156.430 20.192,154.900 20.565,153.800 20.827 C 150.734 21.560,147.948 22.481,148.159 22.692 C 148.263 22.796,149.215 22.608,150.274 22.273 C 151.333 21.939,153.190 21.450,154.400 21.187 C 155.610 20.925,157.013 20.550,157.519 20.355 C 158.024 20.160,158.959 20.000,159.595 20.000 C 160.232 20.000,160.864 19.820,161.000 19.600 C 161.136 19.380,162.182 19.197,163.324 19.194 C 164.466 19.191,165.670 19.013,166.000 18.800 C 166.637 18.388,165.957 18.353,163.400 18.667 M200.939 18.672 C 201.197 18.930,203.440 19.370,207.000 19.861 C 207.880 19.983,208.771 20.244,208.980 20.441 C 209.189 20.638,209.856 20.800,210.461 20.800 C 211.067 20.800,211.976 20.961,212.481 21.158 C 212.987 21.355,214.210 21.735,215.200 22.002 C 216.190 22.269,218.855 23.118,221.123 23.888 C 223.390 24.658,225.354 25.179,225.487 25.047 C 225.619 24.914,225.155 24.691,224.456 24.551 C 223.756 24.411,223.086 24.140,222.968 23.948 C 222.850 23.757,222.324 23.600,221.800 23.600 C 221.276 23.600,220.749 23.441,220.630 23.248 C 220.510 23.054,220.004 22.797,219.506 22.676 C 219.008 22.555,217.970 22.276,217.200 22.055 C 211.262 20.358,208.423 19.677,203.800 18.839 C 200.986 18.330,200.572 18.305,200.939 18.672 M145.800 23.200 C 145.508 23.673,145.899 23.673,147.000 23.200 C 147.771 22.869,147.769 22.855,146.924 22.828 C 146.442 22.813,145.936 22.980,145.800 23.200 M143.400 24.000 C 143.085 24.509,144.012 24.509,144.800 24.000 C 145.288 23.685,145.236 23.611,144.524 23.606 C 144.042 23.603,143.536 23.780,143.400 24.000 M125.200 32.535 C 121.612 34.580,113.767 39.806,113.405 40.392 C 113.166 40.779,122.359 34.948,122.800 34.434 C 123.018 34.179,126.059 32.484,127.497 31.817 C 127.990 31.587,128.395 31.265,128.397 31.100 C 128.401 30.691,128.557 30.621,125.200 32.535 M239.600 31.995 C 239.600 32.181,240.140 32.572,240.800 32.864 C 241.460 33.156,242.000 33.531,242.000 33.698 C 242.000 33.864,242.360 34.000,242.800 34.000 C 243.240 34.000,243.600 34.150,243.600 34.332 C 243.600 34.515,244.095 34.920,244.700 35.232 C 245.305 35.544,245.890 35.897,246.000 36.018 C 246.110 36.138,247.995 37.480,250.189 39.000 C 252.383 40.520,254.705 42.267,255.348 42.882 C 255.992 43.497,256.717 43.999,256.959 43.998 C 257.511 43.996,255.575 42.180,253.200 40.472 C 246.559 35.695,239.600 31.358,239.600 31.995 M181.967 33.763 C 181.875 33.853,180.000 34.136,177.800 34.392 C 173.712 34.867,164.599 36.553,162.800 37.166 C 162.250 37.354,161.080 37.700,160.200 37.936 C 156.440 38.942,152.884 40.095,151.304 40.821 C 150.372 41.250,149.424 41.600,149.199 41.600 C 148.974 41.600,148.477 41.765,148.095 41.967 C 147.713 42.169,146.500 42.736,145.400 43.226 C 139.322 45.935,136.982 47.124,132.616 49.722 C 129.967 51.298,126.630 53.448,125.200 54.500 C 123.770 55.552,122.166 56.724,121.635 57.106 C 115.065 61.831,103.612 73.322,99.703 79.113 C 99.150 79.931,98.586 80.690,98.449 80.800 C 97.984 81.173,95.600 84.352,95.600 84.598 C 95.600 84.733,94.896 85.880,94.036 87.146 C 89.592 93.691,84.246 105.001,81.579 113.500 C 80.506 116.920,79.200 118.997,79.200 117.283 C 79.200 116.355,73.420 115.707,71.200 116.385 C 70.580 116.575,71.493 116.674,73.600 116.646 C 79.910 116.561,83.377 119.541,83.377 125.050 C 83.378 130.509,80.530 133.036,73.754 133.589 C 64.174 134.370,57.946 135.773,52.000 138.489 C 51.010 138.941,49.660 139.556,49.000 139.855 C 42.899 142.617,33.865 150.098,29.164 156.280 C 28.194 157.556,27.265 158.660,27.100 158.733 C 26.935 158.807,26.800 159.044,26.800 159.261 C 26.800 159.478,26.297 160.408,25.681 161.328 C 22.107 166.671,19.183 174.560,17.642 183.024 C 17.012 186.479,17.086 196.654,17.766 200.117 C 18.077 201.703,18.448 203.690,18.590 204.533 C 19.317 208.847,24.666 221.601,26.419 223.200 C 26.540 223.310,27.071 224.030,27.600 224.800 C 28.129 225.570,28.661 226.290,28.783 226.400 C 28.905 226.510,29.531 227.305,30.174 228.167 C 31.845 230.407,36.988 235.373,39.800 237.462 C 41.120 238.442,42.484 239.460,42.830 239.722 C 43.439 240.184,44.205 240.647,46.100 241.700 C 46.595 241.975,47.090 242.290,47.200 242.401 C 47.310 242.511,47.850 242.803,48.400 243.050 C 48.950 243.297,50.300 243.904,51.400 244.400 C 54.373 245.740,54.780 245.897,57.463 246.750 C 66.010 249.465,68.547 249.585,117.457 249.593 C 165.386 249.601,161.600 249.798,161.600 247.296 C 161.600 246.724,161.767 245.704,161.971 245.028 C 162.175 244.353,162.638 242.090,163.002 240.000 C 163.365 237.910,163.759 235.710,163.879 235.111 L 164.096 234.021 143.548 233.911 C 120.854 233.788,121.524 233.863,118.831 231.169 C 114.341 226.680,115.867 221.541,125.026 210.295 C 125.342 209.908,125.600 209.504,125.600 209.399 C 125.600 209.293,126.185 208.424,126.900 207.467 C 127.615 206.509,129.190 204.323,130.400 202.608 C 131.610 200.894,133.860 197.740,135.400 195.600 C 136.940 193.460,139.190 190.308,140.400 188.596 C 141.610 186.883,143.332 184.473,144.228 183.241 C 145.123 182.008,148.540 177.220,151.821 172.600 C 155.103 167.980,157.894 164.110,158.024 164.000 C 158.154 163.890,159.048 162.630,160.011 161.200 C 160.973 159.770,161.913 158.420,162.098 158.200 C 162.284 157.980,165.311 153.750,168.826 148.800 C 172.341 143.850,175.483 139.483,175.808 139.095 C 176.134 138.708,176.400 138.228,176.400 138.029 C 176.400 137.830,176.547 137.607,176.726 137.533 C 176.906 137.460,177.761 136.379,178.626 135.131 C 180.372 132.614,184.079 127.411,187.918 122.090 C 189.303 120.171,191.359 117.250,192.486 115.600 C 193.613 113.950,194.645 112.510,194.779 112.400 C 194.913 112.290,196.354 110.310,197.982 108.000 C 202.971 100.919,204.180 100.000,208.506 100.000 C 216.037 100.000,218.044 105.005,215.483 117.400 C 214.893 120.260,214.212 123.590,213.972 124.800 C 213.732 126.010,213.379 127.720,213.188 128.600 C 212.997 129.480,212.663 131.100,212.446 132.200 C 212.228 133.300,211.938 134.740,211.801 135.400 C 211.465 137.011,210.915 139.745,210.413 142.300 C 210.186 143.455,209.826 145.255,209.613 146.300 C 209.400 147.345,209.040 149.145,208.813 150.300 C 208.586 151.455,208.220 153.300,208.000 154.400 C 207.780 155.500,207.420 157.300,207.200 158.400 C 206.980 159.500,206.620 161.300,206.400 162.400 C 205.489 166.957,205.218 168.288,204.855 170.000 C 204.646 170.990,204.261 172.880,204.000 174.200 C 203.739 175.520,203.378 177.320,203.198 178.200 C 203.017 179.080,202.742 180.466,202.586 181.280 L 202.302 182.760 223.051 182.880 L 243.800 183.000 245.686 184.109 C 251.676 187.630,251.892 192.496,246.393 200.059 C 245.057 201.897,243.219 204.480,242.309 205.800 C 241.399 207.120,240.175 208.830,239.589 209.600 C 237.689 212.096,229.823 223.193,229.016 224.515 C 228.585 225.222,228.090 225.860,227.916 225.933 C 227.742 226.007,227.600 226.288,227.600 226.558 C 227.600 226.828,227.278 227.398,226.883 227.825 C 226.489 228.251,225.559 229.500,224.816 230.600 C 222.733 233.685,216.665 242.139,216.130 242.702 C 215.867 242.979,215.538 243.564,215.399 244.002 C 215.260 244.441,215.021 244.800,214.867 244.800 C 214.714 244.800,214.144 245.520,213.600 246.400 C 213.056 247.280,212.474 248.000,212.306 248.000 C 212.138 248.000,212.000 248.255,212.000 248.567 C 212.000 248.878,211.775 249.227,211.500 249.341 C 210.568 249.727,311.725 249.280,315.400 248.882 C 319.815 248.403,323.678 247.776,325.800 247.194 C 326.680 246.952,328.120 246.578,329.000 246.362 C 329.880 246.146,331.860 245.506,333.400 244.940 C 334.940 244.374,336.605 243.820,337.100 243.709 C 337.595 243.598,338.000 243.348,338.000 243.153 C 338.000 242.959,338.360 242.800,338.800 242.800 C 339.240 242.800,339.600 242.620,339.600 242.400 C 339.600 242.180,339.853 242.000,340.162 242.000 C 340.828 242.000,344.141 240.332,344.333 239.900 C 344.407 239.735,344.644 239.600,344.861 239.600 C 345.078 239.600,346.041 239.060,347.000 238.400 C 347.959 237.740,348.937 237.200,349.172 237.200 C 349.407 237.200,349.600 237.059,349.600 236.886 C 349.600 236.714,350.133 236.257,350.785 235.872 C 351.437 235.487,352.202 234.947,352.485 234.673 C 352.768 234.398,353.630 233.736,354.400 233.200 C 357.514 231.035,364.729 223.832,366.472 221.148 C 366.842 220.578,367.391 219.862,367.691 219.556 C 368.600 218.632,370.800 215.285,370.800 214.828 C 370.800 214.593,370.980 214.400,371.200 214.400 C 371.420 214.400,371.600 214.130,371.600 213.800 C 371.600 213.470,371.780 213.200,372.000 213.200 C 372.220 213.200,372.400 212.964,372.400 212.675 C 372.400 212.387,372.760 211.764,373.200 211.292 C 373.640 210.820,374.000 210.156,374.000 209.817 C 374.000 209.478,374.180 209.200,374.400 209.200 C 374.620 209.200,374.800 208.840,374.800 208.400 C 374.800 207.960,374.980 207.600,375.200 207.600 C 375.420 207.600,375.600 207.240,375.600 206.800 C 375.600 206.360,375.780 206.000,376.000 206.000 C 376.220 206.000,376.400 205.640,376.400 205.200 C 376.400 204.760,376.580 204.400,376.800 204.400 C 377.020 204.400,377.200 204.047,377.200 203.615 C 377.200 203.183,377.588 201.793,378.062 200.525 C 378.537 199.257,379.077 197.630,379.262 196.910 C 379.448 196.189,379.792 194.925,380.027 194.100 C 381.748 188.046,382.109 184.730,382.106 175.000 C 382.103 166.462,381.741 161.907,380.801 158.600 C 380.551 157.720,380.191 156.370,380.000 155.600 C 378.879 151.079,377.963 148.230,377.474 147.741 C 377.323 147.590,377.200 147.047,377.200 146.533 C 377.200 146.020,377.020 145.600,376.800 145.600 C 376.580 145.600,376.400 145.240,376.400 144.800 C 376.400 144.360,376.220 144.000,376.000 144.000 C 375.780 144.000,375.600 143.640,375.600 143.200 C 375.600 142.760,375.420 142.400,375.200 142.400 C 374.980 142.400,374.800 142.148,374.800 141.841 C 374.800 140.562,371.682 135.356,367.828 130.200 C 364.788 126.133,362.893 124.090,357.047 118.579 C 354.784 116.445,345.848 110.247,344.300 109.737 C 343.915 109.610,343.600 109.348,343.600 109.153 C 343.600 108.959,343.355 108.800,343.056 108.800 C 342.757 108.800,341.362 108.236,339.956 107.547 C 338.550 106.858,336.995 106.138,336.500 105.947 C 336.005 105.756,335.195 105.432,334.700 105.226 C 319.754 99.020,297.116 99.049,282.000 105.294 C 281.450 105.521,280.640 105.844,280.200 106.011 C 276.777 107.310,269.696 111.115,265.446 113.939 C 257.416 119.274,250.000 116.614,250.000 108.400 C 250.000 104.283,251.345 102.446,257.000 98.846 C 258.760 97.725,260.380 96.666,260.600 96.493 C 261.267 95.968,272.501 90.531,274.000 90.008 C 275.889 89.349,276.813 88.991,278.000 88.459 C 278.936 88.039,280.192 87.681,286.200 86.120 C 287.520 85.777,288.649 85.456,288.709 85.406 C 289.030 85.139,288.251 84.045,287.896 84.264 C 287.657 84.412,287.594 84.333,287.751 84.079 C 288.048 83.599,285.273 77.822,282.756 73.679 C 281.900 72.271,281.200 70.972,281.200 70.792 C 281.200 70.613,281.065 70.407,280.900 70.333 C 280.735 70.260,279.895 69.165,279.033 67.900 C 278.172 66.635,277.396 65.670,277.310 65.756 C 277.224 65.842,277.839 66.947,278.677 68.210 C 279.515 69.474,280.380 70.796,280.600 71.147 C 280.820 71.499,281.495 72.542,282.100 73.465 C 282.705 74.389,283.200 75.337,283.200 75.572 C 283.200 75.807,283.380 76.000,283.600 76.000 C 283.820 76.000,284.000 76.345,284.000 76.767 C 284.000 77.188,284.135 77.593,284.300 77.667 C 284.685 77.838,286.400 81.138,286.400 81.708 C 286.400 81.945,285.635 81.142,284.700 79.922 C 268.243 58.461,243.826 42.164,220.400 37.005 C 218.750 36.641,216.680 36.170,215.800 35.958 C 213.978 35.519,211.448 35.131,204.600 34.241 C 200.264 33.677,182.439 33.301,181.967 33.763 M111.183 42.016 C 110.423 42.666,109.980 43.198,110.200 43.199 C 110.716 43.199,112.987 41.253,112.748 41.015 C 112.648 40.915,111.944 41.366,111.183 42.016 M101.162 51.162 C 97.183 55.176,94.033 58.566,94.161 58.694 C 94.289 58.823,95.161 58.044,96.097 56.964 C 98.076 54.681,104.196 48.568,106.984 46.088 C 108.043 45.146,108.793 44.260,108.652 44.119 C 108.511 43.978,105.140 47.147,101.162 51.162 M257.600 44.084 C 257.600 44.207,260.621 47.343,264.312 51.054 C 268.004 54.764,271.559 58.520,272.212 59.400 C 273.708 61.416,274.393 62.140,274.603 61.930 C 274.694 61.840,274.370 61.298,273.884 60.727 C 268.651 54.576,266.739 52.490,263.507 49.400 C 258.645 44.751,257.600 43.811,257.600 44.084 M92.344 60.700 C 91.052 62.260,90.719 62.800,91.051 62.795 C 91.243 62.792,91.807 62.162,92.304 61.395 C 93.272 59.901,93.292 59.556,92.344 60.700 M275.284 63.185 C 275.915 64.388,276.777 65.356,277.011 65.123 C 277.106 65.028,276.640 64.331,275.975 63.575 C 275.092 62.569,274.906 62.464,275.284 63.185 M88.757 65.604 C 86.221 69.074,81.535 76.800,81.966 76.800 C 82.168 76.800,82.572 76.260,82.864 75.600 C 83.156 74.940,83.531 74.400,83.698 74.400 C 83.864 74.400,84.000 74.242,84.000 74.048 C 84.000 73.566,86.223 69.936,88.439 66.800 C 90.489 63.898,90.924 63.200,90.681 63.200 C 90.590 63.200,89.724 64.282,88.757 65.604 M74.600 92.000 C 74.450 92.473,74.417 92.950,74.527 93.060 C 74.637 93.170,74.850 92.873,75.000 92.400 C 75.150 91.927,75.183 91.450,75.073 91.340 C 74.963 91.230,74.750 91.527,74.600 92.000 M72.158 99.100 C 72.016 99.705,71.638 101.190,71.318 102.400 C 68.690 112.329,68.014 117.217,69.275 117.154 C 69.928 117.121,69.999 117.054,69.515 116.927 C 68.788 116.736,68.791 116.596,69.635 112.000 C 70.615 106.655,71.206 104.080,72.021 101.600 C 72.538 100.029,72.886 98.000,72.639 98.000 C 72.516 98.000,72.299 98.495,72.158 99.100 " stroke="none" fill="#bfdff8" fill-rule="evenodd"></path><path id="path3" d="M171.847 17.886 C 171.563 18.170,169.668 18.437,163.600 19.049 C 162.390 19.171,161.229 19.435,161.020 19.635 C 160.811 19.836,160.144 20.000,159.539 20.000 C 158.933 20.000,158.024 20.162,157.519 20.361 C 157.013 20.559,155.321 21.008,153.758 21.357 C 152.196 21.707,148.687 22.714,145.962 23.596 C 143.237 24.478,140.781 25.200,140.504 25.200 C 140.227 25.200,140.000 25.380,140.000 25.600 C 140.000 25.820,139.640 26.000,139.200 26.000 C 138.760 26.000,138.400 26.180,138.400 26.400 C 138.400 26.620,138.051 26.800,137.624 26.800 C 137.197 26.800,136.736 26.980,136.600 27.200 C 136.464 27.420,136.003 27.600,135.576 27.600 C 135.149 27.600,134.800 27.780,134.800 28.000 C 134.800 28.220,134.547 28.400,134.238 28.400 C 133.572 28.400,130.259 30.068,130.067 30.500 C 129.993 30.665,129.588 30.800,129.167 30.800 C 128.745 30.800,128.399 30.935,128.397 31.100 C 128.395 31.265,127.990 31.587,127.497 31.817 C 126.059 32.484,123.018 34.179,122.800 34.434 C 122.690 34.562,120.499 36.032,117.932 37.700 C 115.364 39.368,112.682 41.288,111.972 41.966 C 111.262 42.645,110.536 43.200,110.358 43.200 C 109.389 43.200,94.711 57.935,92.363 61.265 C 91.845 61.999,91.278 62.780,91.103 63.000 C 89.081 65.535,84.000 73.438,84.000 74.048 C 84.000 74.242,83.820 74.400,83.600 74.400 C 83.380 74.400,83.200 74.636,83.200 74.925 C 83.200 75.213,82.840 75.836,82.400 76.308 C 81.960 76.780,81.600 77.444,81.600 77.783 C 81.600 78.122,81.420 78.400,81.200 78.400 C 80.980 78.400,80.800 78.760,80.800 79.200 C 80.800 79.640,80.620 80.000,80.400 80.000 C 80.180 80.000,80.000 80.360,80.000 80.800 C 80.000 81.240,79.820 81.600,79.600 81.600 C 79.380 81.600,79.200 81.960,79.200 82.400 C 79.200 82.840,79.020 83.200,78.800 83.200 C 78.580 83.200,78.400 83.465,78.400 83.788 C 78.400 84.111,78.040 85.017,77.600 85.800 C 77.160 86.583,76.800 87.489,76.800 87.812 C 76.800 88.135,76.620 88.400,76.400 88.400 C 76.180 88.400,76.000 88.762,76.000 89.205 C 76.000 89.648,75.833 90.323,75.630 90.705 C 74.831 92.203,73.063 97.113,72.570 99.200 C 72.285 100.410,71.848 102.120,71.599 103.000 C 70.427 107.146,68.705 116.380,69.035 116.751 C 69.109 116.835,69.976 116.700,70.962 116.451 C 73.844 115.725,79.200 116.266,79.200 117.283 C 79.200 118.997,80.506 116.920,81.579 113.500 C 84.246 105.001,89.592 93.691,94.036 87.146 C 94.896 85.880,95.600 84.733,95.600 84.598 C 95.600 84.352,97.984 81.173,98.449 80.800 C 98.586 80.690,99.150 79.931,99.703 79.113 C 103.612 73.322,115.065 61.831,121.635 57.106 C 122.166 56.724,123.770 55.552,125.200 54.500 C 126.630 53.448,129.967 51.298,132.616 49.722 C 136.982 47.124,139.322 45.935,145.400 43.226 C 146.500 42.736,147.713 42.169,148.095 41.967 C 148.477 41.765,148.974 41.600,149.199 41.600 C 149.424 41.600,150.372 41.250,151.304 40.821 C 152.884 40.095,156.440 38.942,160.200 37.936 C 161.080 37.700,162.250 37.357,162.800 37.173 C 174.793 33.159,201.642 32.544,215.800 35.958 C 216.680 36.170,218.750 36.641,220.400 37.005 C 243.826 42.164,268.243 58.461,284.700 79.922 C 285.635 81.142,286.400 81.945,286.400 81.708 C 286.400 81.138,284.685 77.838,284.300 77.667 C 284.135 77.593,284.000 77.188,284.000 76.767 C 284.000 76.345,283.820 76.000,283.600 76.000 C 283.380 76.000,283.200 75.807,283.200 75.572 C 283.200 75.337,282.705 74.389,282.100 73.465 C 281.495 72.542,280.820 71.499,280.600 71.147 C 280.380 70.796,279.525 69.490,278.700 68.246 C 277.875 67.002,277.200 65.848,277.200 65.681 C 277.200 65.513,276.840 65.117,276.400 64.800 C 275.960 64.483,275.600 64.020,275.600 63.771 C 275.600 63.522,275.105 62.793,274.500 62.150 C 273.895 61.508,272.865 60.266,272.211 59.391 C 270.662 57.318,257.424 44.000,256.912 44.000 C 256.696 44.000,255.992 43.497,255.348 42.882 C 254.705 42.267,252.383 40.520,250.189 39.000 C 247.995 37.480,246.110 36.138,246.000 36.018 C 245.890 35.897,245.305 35.544,244.700 35.232 C 244.095 34.920,243.600 34.515,243.600 34.332 C 243.600 34.150,243.240 34.000,242.800 34.000 C 242.360 34.000,242.000 33.820,242.000 33.600 C 242.000 33.380,241.764 33.200,241.475 33.200 C 241.187 33.200,240.564 32.840,240.092 32.400 C 239.620 31.960,238.956 31.600,238.617 31.600 C 238.278 31.600,238.000 31.420,238.000 31.200 C 238.000 30.980,237.640 30.800,237.200 30.800 C 236.760 30.800,236.400 30.620,236.400 30.400 C 236.400 30.180,236.040 30.000,235.600 30.000 C 235.160 30.000,234.800 29.820,234.800 29.600 C 234.800 29.380,234.440 29.200,234.000 29.200 C 233.560 29.200,233.200 29.064,233.200 28.898 C 233.200 28.731,232.615 28.360,231.900 28.071 C 231.185 27.783,230.287 27.379,229.905 27.174 C 229.523 26.968,228.938 26.800,228.605 26.800 C 228.272 26.800,228.000 26.620,228.000 26.400 C 228.000 26.180,227.640 26.000,227.200 26.000 C 226.760 26.000,226.400 25.820,226.400 25.600 C 226.400 25.380,226.085 25.200,225.700 25.200 C 225.315 25.200,223.200 24.590,221.000 23.844 C 218.800 23.098,216.190 22.269,215.200 22.002 C 214.210 21.735,212.987 21.355,212.481 21.158 C 211.976 20.961,211.067 20.800,210.461 20.800 C 209.856 20.800,209.189 20.638,208.980 20.441 C 208.771 20.244,207.880 19.983,207.000 19.861 C 206.120 19.740,204.410 19.439,203.200 19.192 C 197.556 18.042,172.726 17.008,171.847 17.886 " stroke="none" fill="#d4ebfc" fill-rule="evenodd"></path><path id="path4" d="M96.800 311.050 C 83.975 320.882,83.600 321.280,83.600 325.056 C 83.600 332.822,94.095 336.200,98.298 329.787 C 99.836 327.441,100.046 325.792,99.920 317.075 L 99.800 308.750 96.800 311.050 M280.371 310.904 C 279.145 311.837,276.393 313.931,274.255 315.557 C 267.786 320.478,266.434 322.524,267.051 326.461 C 268.184 333.692,277.663 335.524,281.938 329.338 L 283.000 327.800 283.132 318.500 C 283.205 313.385,283.115 309.202,282.932 309.204 C 282.750 309.207,281.597 309.972,280.371 310.904 M187.345 361.912 C 179.615 367.825,178.165 368.986,177.277 369.973 C 172.554 375.224,176.203 382.953,183.413 382.971 C 187.175 382.980,189.117 381.729,190.813 378.200 C 191.644 376.471,192.037 359.200,191.245 359.200 C 191.050 359.200,189.295 360.420,187.345 361.912 " stroke="none" fill="#14ade7" fill-rule="evenodd"></path><path id="path5" d="M173.800 16.827 C 162.275 17.837,147.235 21.363,139.700 24.820 C 138.765 25.249,137.235 25.935,136.300 26.344 C 133.192 27.703,127.403 30.531,127.200 30.788 C 127.090 30.928,126.302 31.366,125.450 31.763 C 123.441 32.699,112.559 40.012,111.000 41.474 C 110.340 42.093,109.170 43.075,108.400 43.655 C 105.964 45.490,99.622 51.495,97.200 54.259 C 90.780 61.587,87.461 66.038,83.373 72.800 C 80.384 77.744,76.564 85.318,75.203 89.000 C 75.040 89.440,74.721 90.250,74.494 90.800 C 74.267 91.350,73.864 92.430,73.600 93.200 C 73.336 93.970,72.974 94.960,72.796 95.400 C 72.276 96.687,71.930 97.718,71.588 99.000 C 69.943 105.164,69.217 108.218,68.831 110.600 C 68.581 112.140,68.233 114.125,68.058 115.010 C 67.541 117.628,67.564 117.641,72.344 117.350 C 79.347 116.925,82.795 119.436,82.799 124.965 C 82.802 130.485,80.028 132.575,71.879 133.194 C 62.282 133.922,47.083 138.449,46.067 140.881 C 45.993 141.056,45.758 141.200,45.545 141.200 C 44.928 141.200,40.477 144.305,37.183 147.033 C 33.673 149.938,30.294 153.535,28.004 156.800 C 27.464 157.570,26.702 158.549,26.311 158.975 C 25.920 159.402,25.600 159.987,25.600 160.275 C 25.600 160.564,25.465 160.801,25.300 160.803 C 25.135 160.805,24.801 161.210,24.559 161.703 C 24.316 162.196,23.586 163.590,22.937 164.800 C 15.526 178.615,14.383 197.295,20.049 212.000 C 21.971 216.988,26.197 224.824,27.600 226.000 C 27.731 226.110,28.264 226.830,28.785 227.600 C 34.546 236.122,48.945 245.561,60.400 248.325 C 67.565 250.054,67.494 250.052,115.570 249.924 L 161.740 249.800 163.251 242.400 C 164.083 238.330,164.771 234.604,164.781 234.120 L 164.800 233.239 143.700 233.120 C 121.136 232.992,121.998 233.068,119.783 231.000 C 117.318 228.699,116.324 224.440,117.652 221.874 C 118.195 220.824,122.832 213.884,123.180 213.600 C 123.412 213.411,137.976 192.987,140.009 190.000 C 140.533 189.230,141.074 188.510,141.211 188.400 C 141.348 188.290,142.202 187.120,143.110 185.800 C 144.017 184.480,146.321 181.240,148.229 178.600 C 150.137 175.960,152.428 172.720,153.319 171.400 C 154.211 170.080,155.055 168.910,155.196 168.800 C 155.337 168.690,156.060 167.700,156.802 166.600 C 157.544 165.500,158.631 163.970,159.218 163.200 C 160.515 161.499,168.379 150.470,170.611 147.221 C 171.496 145.932,172.609 144.365,173.084 143.739 C 174.468 141.912,186.960 124.422,187.400 123.695 C 187.620 123.331,187.980 122.824,188.200 122.569 C 188.420 122.313,189.590 120.704,190.800 118.993 C 192.010 117.282,193.735 114.873,194.634 113.641 C 195.533 112.408,197.550 109.578,199.117 107.351 C 203.343 101.341,205.269 100.060,209.352 100.543 C 215.028 101.216,217.256 105.689,215.657 113.200 C 215.446 114.190,215.061 116.080,214.800 117.400 C 214.539 118.720,214.179 120.520,214.000 121.400 C 213.469 124.009,212.744 127.674,212.378 129.600 C 212.190 130.590,211.865 132.210,211.655 133.200 C 211.446 134.190,211.061 136.080,210.800 137.400 C 210.539 138.720,210.179 140.520,210.000 141.400 C 209.821 142.280,209.461 144.080,209.202 145.400 C 208.942 146.720,208.549 148.700,208.329 149.800 C 208.110 150.900,207.788 152.520,207.614 153.400 C 206.031 161.434,203.391 174.639,202.653 178.214 C 202.153 180.642,201.816 182.847,201.905 183.114 C 202.029 183.487,206.928 183.600,222.955 183.600 L 243.843 183.600 245.661 184.752 C 250.740 187.974,251.117 192.703,246.771 198.680 C 243.115 203.707,241.355 206.163,235.794 214.000 C 232.750 218.290,229.602 222.700,228.798 223.800 C 224.880 229.160,210.400 249.624,210.400 249.799 C 210.400 250.180,315.099 250.008,317.069 249.624 C 318.131 249.418,320.260 249.038,321.800 248.780 C 338.830 245.930,358.821 233.803,367.596 221.000 C 368.350 219.900,369.244 218.697,369.583 218.326 C 376.936 210.294,383.275 190.235,383.275 175.000 C 383.275 154.789,375.782 136.600,361.602 122.386 C 357.384 118.159,350.561 112.400,349.770 112.400 C 349.646 112.400,348.755 111.857,347.791 111.194 C 345.324 109.496,338.030 105.941,334.000 104.472 C 329.070 102.674,325.625 101.829,317.400 100.402 C 314.319 99.867,301.052 100.074,297.200 100.718 C 285.570 102.659,275.196 106.797,265.046 113.539 C 261.471 115.914,260.348 116.400,258.430 116.400 C 251.514 116.400,247.805 107.909,252.519 102.869 C 254.811 100.419,267.223 93.205,272.700 91.139 C 273.195 90.953,274.005 90.638,274.500 90.439 C 277.790 89.119,280.236 88.305,284.100 87.243 C 290.084 85.597,289.764 86.028,287.916 82.118 C 287.209 80.623,286.103 78.500,285.457 77.400 C 284.811 76.300,283.736 74.410,283.069 73.200 C 281.993 71.251,276.985 63.721,276.418 63.200 C 276.298 63.090,275.572 62.190,274.806 61.200 C 272.467 58.181,272.317 58.005,268.540 53.838 C 266.527 51.617,264.432 49.440,263.885 49.000 C 263.337 48.560,261.726 47.120,260.305 45.800 C 252.383 38.441,240.237 30.620,230.000 26.286 C 229.230 25.960,227.776 25.326,226.768 24.877 C 222.167 22.826,208.511 18.800,206.155 18.800 C 204.574 18.800,205.200 19.179,207.449 19.582 C 209.188 19.895,213.206 20.914,217.200 22.055 C 217.970 22.276,219.008 22.555,219.506 22.676 C 220.004 22.797,220.510 23.054,220.630 23.248 C 220.749 23.441,221.276 23.600,221.800 23.600 C 222.324 23.600,222.864 23.780,223.000 24.000 C 223.136 24.220,223.509 24.400,223.828 24.400 C 224.147 24.400,225.262 24.781,226.304 25.247 C 227.347 25.712,228.830 26.360,229.600 26.687 C 243.972 32.787,258.648 43.380,269.101 55.200 C 273.901 60.628,275.426 62.571,278.837 67.600 C 279.807 69.030,280.735 70.260,280.900 70.333 C 281.065 70.407,281.200 70.613,281.200 70.792 C 281.200 70.972,281.902 72.274,282.760 73.686 C 284.495 76.541,288.919 85.224,288.724 85.391 C 288.656 85.449,287.520 85.777,286.200 86.120 C 280.283 87.657,278.944 88.035,278.100 88.405 C 276.742 89.001,275.549 89.467,274.000 90.008 C 272.501 90.531,261.267 95.968,260.600 96.493 C 260.380 96.666,258.760 97.725,257.000 98.846 C 251.345 102.446,250.000 104.283,250.000 108.400 C 250.000 116.614,257.416 119.274,265.446 113.939 C 269.696 111.115,276.777 107.310,280.200 106.011 C 280.640 105.844,281.450 105.521,282.000 105.294 C 297.116 99.049,319.754 99.020,334.700 105.226 C 335.195 105.432,336.005 105.756,336.500 105.947 C 336.995 106.138,338.550 106.858,339.956 107.547 C 341.362 108.236,342.757 108.800,343.056 108.800 C 343.355 108.800,343.600 108.959,343.600 109.153 C 343.600 109.348,343.915 109.610,344.300 109.737 C 348.205 111.023,357.783 118.799,365.016 126.554 C 368.165 129.931,374.800 140.297,374.800 141.841 C 374.800 142.148,374.980 142.400,375.200 142.400 C 375.420 142.400,375.600 142.760,375.600 143.200 C 375.600 143.640,375.780 144.000,376.000 144.000 C 376.220 144.000,376.400 144.360,376.400 144.800 C 376.400 145.240,376.580 145.600,376.800 145.600 C 377.020 145.600,377.200 146.020,377.200 146.533 C 377.200 147.047,377.323 147.590,377.474 147.741 C 377.963 148.230,378.879 151.079,380.000 155.600 C 380.191 156.370,380.551 157.720,380.801 158.600 C 381.741 161.907,382.103 166.462,382.106 175.000 C 382.109 184.730,381.748 188.046,380.027 194.100 C 379.792 194.925,379.448 196.189,379.262 196.910 C 379.077 197.630,378.537 199.257,378.062 200.525 C 377.588 201.793,377.200 203.183,377.200 203.615 C 377.200 204.047,377.020 204.400,376.800 204.400 C 376.580 204.400,376.400 204.760,376.400 205.200 C 376.400 205.640,376.220 206.000,376.000 206.000 C 375.780 206.000,375.600 206.360,375.600 206.800 C 375.600 207.240,375.420 207.600,375.200 207.600 C 374.980 207.600,374.800 207.960,374.800 208.400 C 374.800 208.840,374.620 209.200,374.400 209.200 C 374.180 209.200,374.000 209.478,374.000 209.817 C 374.000 210.156,373.640 210.820,373.200 211.292 C 372.760 211.764,372.400 212.387,372.400 212.675 C 372.400 212.964,372.220 213.200,372.000 213.200 C 371.780 213.200,371.600 213.470,371.600 213.800 C 371.600 214.130,371.420 214.400,371.200 214.400 C 370.980 214.400,370.800 214.593,370.800 214.828 C 370.800 215.285,368.600 218.632,367.691 219.556 C 367.391 219.862,366.842 220.578,366.472 221.148 C 364.729 223.832,357.514 231.035,354.400 233.200 C 353.630 233.736,352.768 234.398,352.485 234.673 C 352.202 234.947,351.437 235.487,350.785 235.872 C 350.133 236.257,349.600 236.714,349.600 236.886 C 349.600 237.059,349.407 237.200,349.172 237.200 C 348.937 237.200,347.959 237.740,347.000 238.400 C 346.041 239.060,345.078 239.600,344.861 239.600 C 344.644 239.600,344.407 239.735,344.333 239.900 C 344.141 240.332,340.828 242.000,340.162 242.000 C 339.853 242.000,339.600 242.180,339.600 242.400 C 339.600 242.620,339.240 242.800,338.800 242.800 C 338.360 242.800,338.000 242.959,338.000 243.153 C 338.000 243.348,337.595 243.598,337.100 243.709 C 336.605 243.820,334.940 244.374,333.400 244.940 C 331.860 245.506,329.880 246.146,329.000 246.362 C 328.120 246.578,326.680 246.952,325.800 247.194 C 323.678 247.776,319.815 248.403,315.400 248.882 C 311.725 249.280,210.568 249.727,211.500 249.341 C 211.775 249.227,212.000 248.878,212.000 248.567 C 212.000 248.255,212.138 248.000,212.306 248.000 C 212.474 248.000,213.056 247.280,213.600 246.400 C 214.144 245.520,214.714 244.800,214.867 244.800 C 215.021 244.800,215.260 244.441,215.399 244.002 C 215.538 243.564,215.867 242.979,216.130 242.702 C 216.665 242.139,222.733 233.685,224.816 230.600 C 225.559 229.500,226.489 228.251,226.883 227.825 C 227.278 227.398,227.600 226.828,227.600 226.558 C 227.600 226.288,227.742 226.007,227.916 225.933 C 228.090 225.860,228.585 225.222,229.016 224.515 C 229.823 223.193,237.689 212.096,239.589 209.600 C 240.175 208.830,241.399 207.120,242.309 205.800 C 243.219 204.480,245.057 201.897,246.393 200.059 C 251.892 192.496,251.676 187.630,245.686 184.109 L 243.800 183.000 223.051 182.880 L 202.302 182.760 202.586 181.280 C 202.742 180.466,203.017 179.080,203.198 178.200 C 203.378 177.320,203.739 175.520,204.000 174.200 C 204.261 172.880,204.646 170.990,204.855 170.000 C 205.218 168.288,205.489 166.957,206.400 162.400 C 206.620 161.300,206.974 159.545,207.187 158.500 C 207.400 157.455,207.766 155.610,208.000 154.400 C 208.234 153.190,208.600 151.345,208.813 150.300 C 209.026 149.255,209.380 147.500,209.600 146.400 C 209.820 145.300,210.174 143.545,210.387 142.500 C 210.600 141.455,210.949 139.700,211.162 138.600 C 211.376 137.500,211.663 136.060,211.801 135.400 C 211.938 134.740,212.228 133.300,212.446 132.200 C 212.663 131.100,212.997 129.480,213.188 128.600 C 213.379 127.720,213.732 126.010,213.972 124.800 C 214.212 123.590,214.893 120.260,215.483 117.400 C 218.044 105.005,216.037 100.000,208.506 100.000 C 204.180 100.000,202.971 100.919,197.982 108.000 C 196.354 110.310,194.913 112.290,194.779 112.400 C 194.645 112.510,193.613 113.950,192.486 115.600 C 191.359 117.250,189.303 120.171,187.918 122.090 C 184.079 127.411,180.372 132.614,178.626 135.131 C 177.761 136.379,176.906 137.460,176.726 137.533 C 176.547 137.607,176.400 137.830,176.400 138.029 C 176.400 138.228,176.134 138.708,175.808 139.095 C 175.483 139.483,172.341 143.850,168.826 148.800 C 165.311 153.750,162.284 157.980,162.098 158.200 C 161.913 158.420,160.973 159.770,160.011 161.200 C 159.048 162.630,158.154 163.890,158.024 164.000 C 157.894 164.110,155.103 167.980,151.821 172.600 C 148.540 177.220,145.123 182.008,144.228 183.241 C 143.332 184.473,141.610 186.883,140.400 188.596 C 139.190 190.308,136.940 193.460,135.400 195.600 C 133.860 197.740,131.610 200.894,130.400 202.608 C 129.190 204.323,127.615 206.509,126.900 207.467 C 126.185 208.424,125.600 209.293,125.600 209.399 C 125.600 209.504,125.342 209.908,125.026 210.295 C 115.867 221.541,114.341 226.680,118.831 231.169 C 121.524 233.863,120.854 233.788,143.548 233.911 L 164.096 234.021 163.879 235.111 C 163.759 235.710,163.365 237.910,163.002 240.000 C 162.638 242.090,162.175 244.353,161.971 245.028 C 161.767 245.704,161.600 246.724,161.600 247.296 C 161.600 249.798,165.386 249.601,117.457 249.593 C 68.547 249.585,66.010 249.465,57.463 246.750 C 54.780 245.897,54.373 245.740,51.400 244.400 C 50.300 243.904,48.950 243.297,48.400 243.050 C 47.850 242.803,47.310 242.511,47.200 242.401 C 47.090 242.290,46.550 241.947,46.000 241.638 C 43.771 240.384,43.435 240.181,42.830 239.722 C 42.484 239.460,41.120 238.442,39.800 237.462 C 36.988 235.373,31.845 230.407,30.174 228.167 C 29.531 227.305,28.905 226.510,28.783 226.400 C 28.661 226.290,28.129 225.570,27.600 224.800 C 27.071 224.030,26.540 223.310,26.419 223.200 C 24.666 221.601,19.317 208.847,18.590 204.533 C 18.448 203.690,18.077 201.703,17.766 200.117 C 15.474 188.443,18.956 171.381,25.681 161.328 C 26.297 160.408,26.800 159.478,26.800 159.261 C 26.800 159.044,26.935 158.807,27.100 158.733 C 27.265 158.660,28.194 157.556,29.164 156.280 C 33.865 150.098,42.899 142.617,49.000 139.855 C 49.660 139.556,51.010 138.941,52.000 138.489 C 57.946 135.773,64.174 134.370,73.754 133.589 C 80.530 133.036,83.378 130.509,83.377 125.050 C 83.377 118.700,78.890 115.824,70.675 116.906 L 68.349 117.213 68.600 115.306 C 69.038 111.974,70.110 106.994,71.551 101.600 C 71.992 99.950,72.468 98.150,72.610 97.600 C 72.751 97.050,73.032 96.195,73.233 95.700 C 74.084 93.612,74.366 92.879,75.197 90.600 C 80.912 74.923,94.876 55.372,108.000 44.674 C 109.650 43.329,111.090 42.132,111.200 42.014 C 114.074 38.933,128.994 30.000,136.800 26.687 C 137.570 26.360,139.053 25.712,140.096 25.247 C 141.138 24.781,142.253 24.400,142.572 24.400 C 142.891 24.400,143.264 24.220,143.400 24.000 C 143.536 23.780,143.999 23.600,144.429 23.600 C 144.859 23.600,145.523 23.437,145.905 23.237 C 147.068 22.629,151.553 21.305,155.600 20.375 C 156.590 20.147,158.120 19.789,159.000 19.579 C 170.418 16.853,189.270 16.335,201.167 18.420 C 203.542 18.837,205.045 18.912,204.733 18.599 C 204.427 18.294,197.942 17.317,193.000 16.831 C 188.092 16.349,179.277 16.347,173.800 16.827 " stroke="none" fill="#92a8b9" fill-rule="evenodd"></path></g></svg>