<svg id="svg" version="1.1" xmlns="http://www.w3.org/2000/svg" xmlns:xlink="http://www.w3.org/1999/xlink" width="400" height="400" viewBox="0, 0, 400,400"><g id="svgg"><path id="path0" d="M187.400 98.859 C 180.796 99.840,179.109 100.129,175.600 100.879 C 170.406 101.989,165.663 103.385,158.200 106.000 C 135.747 113.867,112.706 133.573,99.505 156.200 C 94.532 164.724,89.282 178.006,87.253 187.200 C 87.035 188.190,86.675 189.810,86.455 190.800 C 85.311 195.931,84.516 202.049,83.990 209.769 L 83.583 215.739 87.724 219.969 C 90.002 222.296,92.444 225.055,93.152 226.100 C 94.671 228.343,94.433 228.290,96.528 226.853 C 106.695 219.880,120.558 219.035,131.800 224.702 C 142.759 230.228,149.606 240.454,150.746 253.000 L 151.000 255.800 161.649 255.906 L 172.297 256.013 172.549 254.756 C 172.687 254.065,172.800 252.922,172.800 252.216 C 172.800 245.629,180.039 235.536,187.267 232.045 C 193.655 228.960,192.764 229.053,217.647 228.897 L 239.893 228.757 240.112 225.079 C 241.735 197.801,274.061 182.184,296.878 197.655 C 299.754 199.605,299.383 199.725,302.200 195.934 C 303.520 194.157,306.303 191.099,308.385 189.139 L 312.171 185.575 311.436 182.688 C 310.276 178.126,306.954 169.468,304.190 163.800 C 300.593 156.428,298.518 153.074,290.993 142.474 C 288.803 139.389,288.581 137.212,290.190 134.600 C 291.697 132.152,291.994 132.748,286.419 127.035 C 283.929 124.483,283.948 124.488,281.800 125.810 C 280.705 126.485,279.614 126.797,278.344 126.798 C 276.355 126.800,276.025 126.610,269.934 121.959 C 264.086 117.494,256.222 112.616,250.800 110.091 C 244.762 107.279,242.758 106.400,242.385 106.400 C 242.167 106.400,241.677 106.234,241.295 106.032 C 239.327 104.990,232.930 102.961,227.400 101.626 C 221.681 100.245,220.799 100.069,217.200 99.589 C 215.330 99.339,212.705 98.970,211.367 98.768 C 208.336 98.310,190.645 98.377,187.400 98.859 " stroke="none" fill="#fac004" fill-rule="evenodd"></path><path id="path1" d="M195.821 10.350 C 193.241 11.864,193.262 11.708,193.229 29.726 C 193.209 41.133,193.336 46.307,193.651 46.896 C 194.322 48.150,195.881 49.600,196.558 49.600 C 196.885 49.600,197.264 49.780,197.400 50.000 C 197.536 50.220,198.627 50.400,199.824 50.400 C 201.021 50.400,202.000 50.220,202.000 50.000 C 202.000 49.780,202.288 49.600,202.640 49.600 C 203.458 49.600,206.000 47.076,206.000 46.264 C 206.000 45.925,206.180 45.536,206.400 45.400 C 207.046 45.001,206.919 15.776,206.263 13.894 C 204.869 9.889,199.635 8.113,195.821 10.350 M121.800 28.800 C 121.664 29.020,121.287 29.200,120.963 29.200 C 120.639 29.200,119.749 29.824,118.987 30.587 C 118.224 31.349,117.600 32.239,117.600 32.563 C 117.600 32.887,117.420 33.264,117.200 33.400 C 116.980 33.536,116.800 34.447,116.800 35.424 C 116.800 36.401,116.980 37.200,117.200 37.200 C 117.420 37.200,117.600 37.740,117.600 38.400 C 117.600 39.060,117.780 39.600,118.000 39.600 C 118.220 39.600,118.400 40.050,118.400 40.600 C 118.400 41.150,118.580 41.600,118.800 41.600 C 119.020 41.600,119.200 42.140,119.200 42.800 C 119.200 43.460,119.380 44.000,119.600 44.000 C 119.820 44.000,120.000 44.439,120.000 44.976 C 120.000 45.513,120.180 46.064,120.400 46.200 C 120.620 46.336,120.800 46.797,120.800 47.224 C 120.800 47.651,120.980 48.000,121.200 48.000 C 121.420 48.000,121.600 48.540,121.600 49.200 C 121.600 49.860,121.780 50.400,122.000 50.400 C 122.220 50.400,122.400 50.940,122.400 51.600 C 122.400 52.260,122.580 52.800,122.800 52.800 C 123.020 52.800,123.200 53.250,123.200 53.800 C 123.200 54.350,123.380 54.800,123.600 54.800 C 123.820 54.800,124.000 55.250,124.000 55.800 C 124.000 56.350,124.180 56.800,124.400 56.800 C 124.620 56.800,124.800 57.148,124.800 57.572 C 124.800 60.244,127.888 66.800,129.147 66.800 C 129.396 66.800,129.600 66.980,129.600 67.200 C 129.600 67.435,131.000 67.600,133.000 67.600 C 135.000 67.600,136.400 67.435,136.400 67.200 C 136.400 66.980,136.745 66.800,137.166 66.800 C 137.633 66.800,138.141 66.331,138.464 65.600 C 138.756 64.940,139.131 64.400,139.298 64.400 C 139.464 64.400,139.600 62.870,139.600 61.000 C 139.600 59.000,139.435 57.600,139.200 57.600 C 138.980 57.600,138.800 57.161,138.800 56.624 C 138.800 56.087,138.656 55.558,138.479 55.449 C 138.303 55.340,137.910 54.339,137.607 53.225 C 137.304 52.111,136.908 51.200,136.728 51.200 C 136.547 51.200,136.400 50.660,136.400 50.000 C 136.400 49.340,136.220 48.800,136.000 48.800 C 135.780 48.800,135.600 48.438,135.600 47.995 C 135.600 47.552,135.441 46.877,135.247 46.495 C 135.052 46.113,134.671 45.260,134.400 44.600 C 134.129 43.940,133.748 43.087,133.553 42.705 C 133.359 42.323,133.200 41.648,133.200 41.205 C 133.200 40.762,133.020 40.400,132.800 40.400 C 132.580 40.400,132.400 39.860,132.400 39.200 C 132.400 38.540,132.220 38.000,132.000 38.000 C 131.780 38.000,131.600 37.561,131.600 37.024 C 131.600 36.487,131.420 35.936,131.200 35.800 C 130.980 35.664,130.800 35.203,130.800 34.776 C 130.800 34.349,130.620 34.000,130.400 34.000 C 130.180 34.000,130.000 33.544,130.000 32.987 C 130.000 30.396,123.017 26.831,121.800 28.800 M274.000 28.750 C 274.000 28.943,273.503 29.199,272.895 29.321 C 271.526 29.595,270.000 30.874,270.000 31.747 C 270.000 32.106,269.820 32.400,269.600 32.400 C 269.380 32.400,269.200 32.940,269.200 33.600 C 269.200 34.260,269.020 34.800,268.800 34.800 C 268.580 34.800,268.400 35.149,268.400 35.576 C 268.400 36.003,268.220 36.464,268.000 36.600 C 267.780 36.736,267.600 37.287,267.600 37.824 C 267.600 38.361,267.420 38.800,267.200 38.800 C 266.980 38.800,266.800 39.340,266.800 40.000 C 266.800 40.660,266.620 41.200,266.400 41.200 C 266.180 41.200,266.000 41.650,266.000 42.200 C 266.000 42.750,265.820 43.200,265.600 43.200 C 265.380 43.200,265.200 43.650,265.200 44.200 C 265.200 44.750,265.020 45.200,264.800 45.200 C 264.580 45.200,264.400 45.639,264.400 46.176 C 264.400 46.713,264.220 47.264,264.000 47.400 C 263.780 47.536,263.600 48.087,263.600 48.624 C 263.600 49.161,263.420 49.600,263.200 49.600 C 262.980 49.600,262.800 50.140,262.800 50.800 C 262.800 51.460,262.653 52.000,262.472 52.000 C 262.292 52.000,261.896 52.911,261.593 54.025 C 261.290 55.139,260.897 56.140,260.721 56.249 C 260.544 56.358,260.400 56.887,260.400 57.424 C 260.400 57.961,260.220 58.400,260.000 58.400 C 258.434 58.400,259.786 64.254,261.825 66.300 C 264.545 69.030,272.400 67.480,272.400 64.213 C 272.400 63.876,272.541 63.600,272.713 63.600 C 272.885 63.600,273.271 62.745,273.571 61.700 C 273.871 60.655,274.249 59.620,274.412 59.400 C 274.575 59.180,274.829 58.370,274.977 57.600 C 275.236 56.258,275.688 54.997,276.447 53.505 C 276.641 53.123,276.800 52.448,276.800 52.005 C 276.800 51.562,276.980 51.200,277.200 51.200 C 277.420 51.200,277.600 50.660,277.600 50.000 C 277.600 49.340,277.780 48.800,278.000 48.800 C 278.220 48.800,278.400 48.361,278.400 47.824 C 278.400 47.287,278.580 46.736,278.800 46.600 C 279.020 46.464,279.200 46.003,279.200 45.576 C 279.200 45.149,279.380 44.800,279.600 44.800 C 279.820 44.800,280.000 44.260,280.000 43.600 C 280.000 42.940,280.180 42.400,280.400 42.400 C 280.620 42.400,280.800 41.950,280.800 41.400 C 280.800 40.850,280.980 40.400,281.200 40.400 C 281.420 40.400,281.600 39.860,281.600 39.200 C 281.600 38.540,281.780 38.000,282.000 38.000 C 282.763 38.000,282.452 33.373,281.579 31.737 C 280.810 30.298,279.314 29.200,278.120 29.200 C 277.834 29.200,277.600 29.020,277.600 28.800 C 277.600 28.580,276.790 28.400,275.800 28.400 C 274.810 28.400,274.000 28.558,274.000 28.750 M57.600 72.800 C 57.600 73.020,57.322 73.200,56.982 73.200 C 56.308 73.200,54.892 74.535,54.100 75.917 C 52.954 77.917,53.597 82.058,55.300 83.643 C 55.685 84.001,56.000 84.471,56.000 84.688 C 56.000 84.904,56.497 85.603,57.105 86.241 C 57.713 86.878,58.748 88.117,59.405 88.993 C 60.062 89.869,61.365 91.359,62.300 92.303 C 63.235 93.248,64.000 94.180,64.000 94.375 C 64.000 94.569,64.990 95.758,66.200 97.018 C 67.410 98.277,68.400 99.462,68.400 99.652 C 68.400 99.841,69.300 100.915,70.400 102.039 C 71.500 103.162,72.400 104.241,72.400 104.436 C 72.400 105.386,75.630 106.800,77.800 106.800 C 80.201 106.800,83.200 105.353,83.200 104.195 C 83.200 103.868,83.380 103.600,83.600 103.600 C 83.820 103.600,84.000 103.251,84.000 102.824 C 84.000 102.397,84.180 101.936,84.400 101.800 C 84.620 101.664,84.800 100.854,84.800 100.000 C 84.800 99.146,84.620 98.336,84.400 98.200 C 84.180 98.064,84.000 97.603,84.000 97.176 C 84.000 96.749,83.820 96.400,83.600 96.400 C 83.380 96.400,83.200 96.174,83.200 95.898 C 83.200 95.288,80.164 92.000,79.601 92.000 C 79.380 92.000,79.200 91.718,79.200 91.374 C 79.200 91.030,78.300 89.871,77.200 88.800 C 76.100 87.729,75.200 86.662,75.200 86.429 C 75.200 86.014,74.196 84.711,72.591 83.041 C 72.147 82.579,71.342 81.570,70.804 80.800 C 70.266 80.030,69.145 78.739,68.313 77.931 C 67.481 77.124,66.800 76.353,66.800 76.218 C 66.800 75.699,63.995 73.200,63.413 73.200 C 63.076 73.200,62.800 73.020,62.800 72.800 C 62.800 72.574,61.667 72.400,60.200 72.400 C 58.733 72.400,57.600 72.574,57.600 72.800 M335.707 73.347 C 334.776 73.816,334.011 74.341,334.007 74.513 C 334.003 74.686,333.389 75.437,332.643 76.184 C 331.897 76.930,330.772 78.225,330.143 79.062 C 329.514 79.898,328.527 81.085,327.948 81.700 C 327.370 82.315,326.380 83.579,325.748 84.509 C 325.117 85.439,323.925 86.861,323.100 87.669 C 322.275 88.476,321.600 89.342,321.600 89.591 C 321.600 89.841,320.700 90.908,319.600 91.963 C 318.500 93.017,317.600 93.999,317.600 94.144 C 317.600 94.289,317.060 94.972,316.400 95.663 C 314.540 97.609,314.595 102.385,316.500 104.457 C 320.113 108.386,324.964 107.711,328.396 102.800 C 328.934 102.030,330.055 100.739,330.887 99.931 C 331.719 99.124,332.400 98.293,332.400 98.085 C 332.400 97.877,333.390 96.677,334.600 95.418 C 335.810 94.158,336.800 92.969,336.800 92.774 C 336.800 92.579,337.418 91.857,338.173 91.170 C 338.929 90.482,340.054 89.173,340.673 88.260 C 341.293 87.347,342.475 85.939,343.300 85.131 C 344.125 84.324,344.800 83.379,344.800 83.031 C 344.800 82.684,344.980 82.400,345.200 82.400 C 345.433 82.400,345.600 81.062,345.600 79.187 C 345.600 75.839,344.107 73.200,342.213 73.200 C 341.876 73.200,341.600 73.020,341.600 72.800 C 341.600 72.072,337.478 72.454,335.707 73.347 M189.600 86.000 C 189.600 86.238,188.075 86.400,185.824 86.400 C 183.737 86.400,181.937 86.579,181.800 86.800 C 181.664 87.020,180.584 87.200,179.400 87.200 C 178.216 87.200,177.136 87.380,177.000 87.600 C 176.864 87.820,175.953 88.000,174.976 88.000 C 173.999 88.000,173.200 88.180,173.200 88.400 C 173.200 88.620,172.300 88.800,171.200 88.800 C 170.100 88.800,169.200 88.980,169.200 89.200 C 169.200 89.420,168.480 89.600,167.600 89.600 C 166.720 89.600,166.000 89.780,166.000 90.000 C 166.000 90.220,165.460 90.400,164.800 90.400 C 164.140 90.400,163.600 90.580,163.600 90.800 C 163.600 91.020,162.981 91.200,162.224 91.200 C 161.467 91.200,160.736 91.380,160.600 91.600 C 160.464 91.820,160.057 92.000,159.696 92.000 C 158.632 92.000,154.400 93.349,154.400 93.689 C 154.400 93.860,153.961 94.000,153.424 94.000 C 152.887 94.000,152.336 94.180,152.200 94.400 C 152.064 94.620,151.603 94.800,151.176 94.800 C 150.749 94.800,150.400 94.980,150.400 95.200 C 150.400 95.420,149.961 95.600,149.424 95.600 C 148.887 95.600,148.336 95.780,148.200 96.000 C 148.064 96.220,147.603 96.400,147.176 96.400 C 146.749 96.400,146.400 96.580,146.400 96.800 C 146.400 97.020,146.040 97.200,145.600 97.200 C 145.160 97.200,144.800 97.380,144.800 97.600 C 144.800 97.820,144.440 98.000,144.000 98.000 C 143.560 98.000,143.200 98.180,143.200 98.400 C 143.200 98.620,142.930 98.800,142.600 98.800 C 142.270 98.800,142.000 98.980,142.000 99.200 C 142.000 99.420,141.640 99.600,141.200 99.600 C 140.760 99.600,140.400 99.780,140.400 100.000 C 140.400 100.220,140.040 100.400,139.600 100.400 C 139.160 100.400,138.800 100.580,138.800 100.800 C 138.800 101.020,138.440 101.200,138.000 101.200 C 137.560 101.200,137.200 101.380,137.200 101.600 C 137.200 101.820,136.840 102.000,136.400 102.000 C 135.960 102.000,135.600 102.180,135.600 102.400 C 135.600 102.620,135.330 102.800,135.000 102.800 C 134.670 102.800,134.400 102.980,134.400 103.200 C 134.400 103.420,134.130 103.600,133.800 103.600 C 133.470 103.600,133.200 103.780,133.200 104.000 C 133.200 104.220,132.880 104.400,132.488 104.400 C 132.097 104.400,131.517 104.760,131.200 105.200 C 130.883 105.640,130.343 106.000,130.000 106.000 C 129.657 106.000,129.117 106.360,128.800 106.800 C 128.483 107.240,127.903 107.600,127.512 107.600 C 127.120 107.600,126.800 107.741,126.800 107.914 C 126.800 108.086,126.215 108.572,125.500 108.994 C 124.785 109.415,123.851 110.084,123.425 110.480 C 122.998 110.876,122.485 111.200,122.285 111.200 C 122.085 111.200,121.417 111.740,120.800 112.400 C 120.183 113.060,119.499 113.600,119.280 113.600 C 119.061 113.600,117.962 114.500,116.839 115.600 C 115.715 116.700,114.705 117.600,114.595 117.600 C 114.270 117.600,111.980 119.658,110.223 121.528 C 109.331 122.478,107.430 124.487,106.000 125.991 C 101.053 131.195,99.600 132.814,99.600 133.122 C 99.600 133.293,98.880 134.228,98.000 135.200 C 97.120 136.172,96.400 137.118,96.400 137.302 C 96.400 137.486,95.950 138.086,95.400 138.636 C 94.850 139.186,94.400 139.795,94.400 139.990 C 94.400 140.184,94.175 140.581,93.899 140.871 C 93.086 141.730,91.200 144.749,91.200 145.191 C 91.200 145.416,91.020 145.600,90.800 145.600 C 90.580 145.600,90.400 145.920,90.400 146.312 C 90.400 146.703,90.040 147.283,89.600 147.600 C 89.160 147.917,88.800 148.497,88.800 148.888 C 88.800 149.280,88.620 149.600,88.400 149.600 C 88.180 149.600,88.000 149.878,88.000 150.217 C 88.000 150.556,87.640 151.220,87.200 151.692 C 86.760 152.164,86.400 152.787,86.400 153.075 C 86.400 153.364,86.220 153.600,86.000 153.600 C 85.780 153.600,85.600 153.960,85.600 154.400 C 85.600 154.840,85.420 155.200,85.200 155.200 C 84.980 155.200,84.800 155.560,84.800 156.000 C 84.800 156.440,84.620 156.800,84.400 156.800 C 84.180 156.800,84.000 157.160,84.000 157.600 C 84.000 158.040,83.820 158.400,83.600 158.400 C 83.380 158.400,83.200 158.760,83.200 159.200 C 83.200 159.640,83.020 160.000,82.800 160.000 C 82.580 160.000,82.400 160.450,82.400 161.000 C 82.400 161.550,82.220 162.000,82.000 162.000 C 81.780 162.000,81.600 162.360,81.600 162.800 C 81.600 163.240,81.420 163.600,81.200 163.600 C 80.980 163.600,80.800 163.949,80.800 164.376 C 80.800 164.803,80.620 165.264,80.400 165.400 C 80.180 165.536,80.000 166.087,80.000 166.624 C 80.000 167.161,79.820 167.600,79.600 167.600 C 79.380 167.600,79.200 167.962,79.200 168.405 C 79.200 168.848,79.041 169.523,78.847 169.905 C 77.357 172.834,74.813 181.892,74.805 184.300 C 74.802 185.015,74.620 185.600,74.400 185.600 C 74.180 185.600,74.000 186.399,74.000 187.376 C 74.000 188.353,73.820 189.264,73.600 189.400 C 73.380 189.536,73.200 190.537,73.200 191.624 C 73.200 192.711,73.020 193.600,72.800 193.600 C 72.569 193.600,72.400 194.867,72.400 196.600 C 72.400 198.333,72.231 199.600,72.000 199.600 C 71.759 199.600,71.587 201.388,71.568 204.100 C 71.551 206.575,71.446 208.375,71.335 208.100 C 71.224 207.825,70.698 207.600,70.167 207.600 C 69.635 207.600,69.200 207.420,69.200 207.200 C 69.200 206.980,68.660 206.800,68.000 206.800 C 67.340 206.800,66.800 206.620,66.800 206.400 C 66.800 206.180,66.080 206.000,65.200 206.000 C 64.320 206.000,63.600 205.820,63.600 205.600 C 63.600 205.380,62.700 205.200,61.600 205.200 C 60.500 205.200,59.600 205.020,59.600 204.800 C 59.600 204.547,56.667 204.400,51.600 204.400 C 46.533 204.400,43.600 204.547,43.600 204.800 C 43.600 205.020,42.700 205.200,41.600 205.200 C 40.500 205.200,39.600 205.380,39.600 205.600 C 39.600 205.820,38.880 206.000,38.000 206.000 C 37.120 206.000,36.400 206.180,36.400 206.400 C 36.400 206.620,35.860 206.800,35.200 206.800 C 34.540 206.800,34.000 206.980,34.000 207.200 C 34.000 207.420,33.460 207.600,32.800 207.600 C 32.140 207.600,31.600 207.780,31.600 208.000 C 31.600 208.220,31.303 208.400,30.940 208.400 C 30.315 208.400,26.028 210.312,25.600 210.782 C 25.490 210.903,24.905 211.256,24.300 211.568 C 23.695 211.880,23.200 212.285,23.200 212.468 C 23.200 212.650,22.880 212.800,22.488 212.800 C 22.097 212.800,21.517 213.160,21.200 213.600 C 20.883 214.040,20.406 214.400,20.140 214.400 C 19.055 214.400,8.400 225.630,8.400 226.773 C 8.400 227.008,8.220 227.200,8.000 227.200 C 7.780 227.200,7.600 227.470,7.600 227.800 C 7.600 228.130,7.420 228.400,7.200 228.400 C 6.980 228.400,6.800 228.678,6.800 229.017 C 6.800 229.356,6.440 230.020,6.000 230.492 C 5.560 230.964,5.200 231.587,5.200 231.875 C 5.200 232.164,5.020 232.400,4.800 232.400 C 4.580 232.400,4.400 232.760,4.400 233.200 C 4.400 233.640,4.220 234.000,4.000 234.000 C 3.780 234.000,3.600 234.540,3.600 235.200 C 3.600 235.860,3.420 236.400,3.200 236.400 C 2.980 236.400,2.800 236.760,2.800 237.200 C 2.800 237.640,2.620 238.000,2.400 238.000 C 2.180 238.000,2.000 238.540,2.000 239.200 C 2.000 239.860,1.820 240.400,1.600 240.400 C 1.380 240.400,1.200 240.994,1.200 241.720 C 1.200 242.446,0.975 243.265,0.700 243.540 C -0.025 244.265,-0.025 269.259,0.700 269.500 C 0.975 269.592,1.200 270.282,1.200 271.033 C 1.200 271.785,1.380 272.400,1.600 272.400 C 1.820 272.400,2.000 272.839,2.000 273.376 C 2.000 273.913,2.180 274.464,2.400 274.600 C 2.620 274.736,2.800 275.287,2.800 275.824 C 2.800 276.361,2.980 276.800,3.200 276.800 C 3.420 276.800,3.600 277.160,3.600 277.600 C 3.600 278.040,3.780 278.400,4.000 278.400 C 4.220 278.400,4.400 278.760,4.400 279.200 C 4.400 279.640,4.580 280.000,4.800 280.000 C 5.020 280.000,5.200 280.360,5.200 280.800 C 5.200 281.240,5.380 281.600,5.600 281.600 C 5.820 281.600,6.000 281.920,6.000 282.312 C 6.000 282.703,6.360 283.283,6.800 283.600 C 7.240 283.917,7.600 284.497,7.600 284.888 C 7.600 285.280,7.751 285.600,7.936 285.600 C 8.120 285.600,8.484 286.066,8.744 286.636 C 9.679 288.688,16.729 296.400,17.670 296.400 C 17.895 296.400,18.556 296.895,19.140 297.500 C 19.723 298.105,20.695 298.855,21.300 299.168 C 21.905 299.480,22.400 299.885,22.400 300.068 C 22.400 300.250,22.636 300.400,22.925 300.400 C 23.213 300.400,23.798 300.725,24.225 301.122 C 24.651 301.520,25.585 302.103,26.300 302.420 C 27.015 302.736,27.600 303.131,27.600 303.298 C 27.600 303.464,27.960 303.600,28.400 303.600 C 28.840 303.600,29.200 303.780,29.200 304.000 C 29.200 304.220,29.549 304.400,29.976 304.400 C 30.403 304.400,30.864 304.580,31.000 304.800 C 31.136 305.020,31.687 305.200,32.224 305.200 C 32.761 305.200,33.200 305.380,33.200 305.600 C 33.200 305.820,33.740 306.000,34.400 306.000 C 35.060 306.000,35.600 306.160,35.600 306.356 C 35.600 306.702,36.471 306.921,39.800 307.413 C 40.680 307.543,41.832 307.863,42.360 308.125 C 43.047 308.465,47.343 308.600,57.440 308.600 L 71.559 308.600 73.162 307.036 C 75.053 305.191,75.468 303.805,74.618 302.175 C 74.281 301.529,74.004 300.758,74.002 300.462 C 73.998 299.577,72.418 297.630,71.188 296.994 C 70.273 296.520,68.219 296.400,61.062 296.400 C 44.745 296.400,39.496 295.354,30.806 290.370 C 13.863 280.653,6.865 257.252,15.502 239.200 C 25.755 217.769,54.130 210.091,74.093 223.346 C 79.048 226.636,84.064 232.599,87.221 238.951 C 89.026 242.584,90.369 243.600,93.365 243.600 L 95.655 243.600 98.727 240.538 C 104.559 234.725,108.800 232.797,115.738 232.805 C 131.017 232.823,142.444 246.659,138.710 260.620 C 138.258 262.310,138.297 262.597,139.210 264.326 C 141.190 268.075,137.419 267.785,185.700 267.909 C 208.965 267.969,228.000 268.169,228.000 268.354 C 228.000 268.539,226.697 269.659,225.105 270.842 C 219.766 274.813,212.583 283.113,209.986 288.314 L 209.126 290.035 207.663 289.145 C 194.497 281.130,178.128 280.395,165.360 287.246 C 164.062 287.942,162.524 288.761,161.942 289.064 C 161.360 289.368,160.663 289.883,160.393 290.208 C 160.123 290.534,159.743 290.800,159.548 290.800 C 159.194 290.800,158.898 291.038,154.887 294.550 L 152.773 296.400 121.767 296.400 C 87.825 296.400,89.386 296.292,87.632 298.756 C 87.174 299.398,86.800 300.369,86.800 300.913 C 86.800 301.457,86.530 302.126,86.200 302.400 C 85.527 302.959,85.383 304.400,86.000 304.400 C 86.220 304.400,86.400 304.691,86.400 305.046 C 86.400 306.091,89.103 308.279,90.726 308.547 C 91.537 308.681,103.696 308.793,117.747 308.796 L 143.293 308.800 143.061 309.700 C 142.932 310.195,142.572 311.710,142.259 313.066 C 141.945 314.422,141.585 315.700,141.458 315.906 C 141.331 316.111,141.204 318.647,141.176 321.540 L 141.124 326.800 126.786 326.800 C 117.658 326.800,112.357 326.945,112.200 327.200 C 112.064 327.420,111.153 327.600,110.176 327.600 C 109.199 327.600,108.400 327.780,108.400 328.000 C 108.400 328.220,107.860 328.400,107.200 328.400 C 106.540 328.400,106.000 328.580,106.000 328.800 C 106.000 329.020,105.460 329.200,104.800 329.200 C 104.140 329.200,103.600 329.380,103.600 329.600 C 103.600 329.820,103.240 330.000,102.800 330.000 C 102.360 330.000,102.000 330.180,102.000 330.400 C 102.000 330.620,101.680 330.800,101.288 330.800 C 100.897 330.800,100.317 331.160,100.000 331.600 C 99.683 332.040,99.196 332.400,98.919 332.400 C 98.641 332.400,97.852 332.895,97.165 333.500 C 93.992 336.295,92.000 338.288,92.000 338.667 C 92.000 338.895,91.489 339.616,90.865 340.269 C 90.241 340.921,89.478 342.028,89.168 342.728 C 88.858 343.428,88.469 344.000,88.302 344.000 C 88.136 344.000,88.000 344.360,88.000 344.800 C 88.000 345.240,87.820 345.600,87.600 345.600 C 87.380 345.600,87.200 345.960,87.200 346.400 C 87.200 346.840,87.020 347.200,86.800 347.200 C 86.580 347.200,86.400 347.740,86.400 348.400 C 86.400 349.060,86.220 349.600,86.000 349.600 C 85.780 349.600,85.600 350.320,85.600 351.200 C 85.600 352.080,85.420 352.800,85.200 352.800 C 84.949 352.800,84.800 355.267,84.800 359.400 C 84.800 363.533,84.949 366.000,85.200 366.000 C 85.420 366.000,85.600 366.720,85.600 367.600 C 85.600 368.480,85.780 369.200,86.000 369.200 C 86.220 369.200,86.400 369.740,86.400 370.400 C 86.400 371.060,86.580 371.600,86.800 371.600 C 87.020 371.600,87.200 371.949,87.200 372.376 C 87.200 372.803,87.380 373.264,87.600 373.400 C 87.820 373.536,88.000 373.957,88.000 374.335 C 88.000 374.714,88.360 375.283,88.800 375.600 C 89.240 375.917,89.600 376.457,89.600 376.800 C 89.600 377.143,89.960 377.683,90.400 378.000 C 90.840 378.317,91.200 378.806,91.200 379.085 C 91.200 380.011,96.478 385.600,97.352 385.600 C 97.611 385.600,98.083 385.960,98.400 386.400 C 98.717 386.840,99.297 387.200,99.688 387.200 C 100.080 387.200,100.400 387.344,100.400 387.520 C 100.400 387.918,103.806 389.600,104.611 389.600 C 104.935 389.600,105.200 389.736,105.200 389.902 C 105.200 390.068,105.875 390.467,106.700 390.787 C 108.607 391.529,275.182 391.913,280.627 391.189 C 286.092 390.461,286.799 390.325,287.026 389.958 C 287.148 389.761,287.856 389.600,288.600 389.600 C 289.344 389.600,290.064 389.420,290.200 389.200 C 290.336 388.980,290.887 388.800,291.424 388.800 C 291.961 388.800,292.400 388.620,292.400 388.400 C 292.400 388.180,292.940 388.000,293.600 388.000 C 294.260 388.000,294.800 387.820,294.800 387.600 C 294.800 387.380,295.149 387.200,295.576 387.200 C 296.003 387.200,296.464 387.020,296.600 386.800 C 296.736 386.580,297.287 386.400,297.824 386.400 C 298.361 386.400,298.800 386.220,298.800 386.000 C 298.800 385.780,299.160 385.600,299.600 385.600 C 300.040 385.600,300.400 385.420,300.400 385.200 C 300.400 384.980,300.760 384.800,301.200 384.800 C 301.640 384.800,302.000 384.620,302.000 384.400 C 302.000 384.180,302.360 384.000,302.800 384.000 C 303.240 384.000,303.600 383.820,303.600 383.600 C 303.600 383.380,303.870 383.200,304.200 383.200 C 304.530 383.200,304.800 383.020,304.800 382.800 C 304.800 382.580,305.070 382.400,305.400 382.400 C 305.730 382.400,306.000 382.220,306.000 382.000 C 306.000 381.780,306.236 381.600,306.525 381.600 C 306.813 381.600,307.436 381.240,307.908 380.800 C 308.380 380.360,308.914 380.000,309.095 380.000 C 309.276 380.000,309.683 379.640,310.000 379.200 C 310.317 378.760,310.776 378.400,311.020 378.400 C 311.835 378.400,320.775 369.914,322.397 367.600 C 322.937 366.830,323.698 365.851,324.089 365.425 C 324.480 364.998,324.800 364.426,324.800 364.153 C 324.800 363.880,325.025 363.419,325.300 363.129 C 325.575 362.838,326.055 362.105,326.368 361.500 C 326.680 360.895,327.085 360.400,327.268 360.400 C 327.450 360.400,327.600 360.040,327.600 359.600 C 327.600 359.160,327.780 358.800,328.000 358.800 C 328.220 358.800,328.400 358.545,328.400 358.233 C 328.400 357.922,328.535 357.607,328.700 357.533 C 329.124 357.345,331.600 352.401,331.600 351.744 C 331.600 351.445,331.780 351.200,332.000 351.200 C 332.220 351.200,332.400 350.851,332.400 350.424 C 332.400 349.997,332.580 349.536,332.800 349.400 C 333.020 349.264,333.200 348.713,333.200 348.176 C 333.200 347.639,333.380 347.200,333.600 347.200 C 333.820 347.200,334.000 346.660,334.000 346.000 C 334.000 345.340,334.180 344.800,334.400 344.800 C 334.620 344.800,334.800 344.181,334.800 343.424 C 334.800 342.667,334.980 341.936,335.200 341.800 C 335.420 341.664,335.600 341.059,335.600 340.456 C 335.600 339.853,335.762 339.189,335.959 338.980 C 336.385 338.529,336.773 336.095,337.057 332.100 C 337.170 330.505,337.429 329.200,337.632 329.200 C 338.145 329.200,338.114 314.118,337.600 313.800 C 337.380 313.664,337.200 312.393,337.200 310.976 C 337.200 309.525,337.025 308.400,336.800 308.400 C 336.580 308.400,336.400 307.500,336.400 306.400 C 336.400 305.300,336.220 304.400,336.000 304.400 C 335.780 304.400,335.600 303.680,335.600 302.800 C 335.600 301.920,335.420 301.200,335.200 301.200 C 334.980 301.200,334.800 300.660,334.800 300.000 C 334.800 299.340,334.620 298.800,334.400 298.800 C 334.180 298.800,334.000 298.260,334.000 297.600 C 334.000 296.940,333.820 296.400,333.600 296.400 C 333.380 296.400,333.200 296.057,333.200 295.638 C 333.200 294.822,331.599 291.488,331.100 291.267 C 330.935 291.193,330.800 290.788,330.800 290.367 C 330.800 289.945,330.620 289.600,330.400 289.600 C 330.180 289.600,330.000 289.240,330.000 288.800 C 330.000 288.360,329.820 288.000,329.600 288.000 C 329.380 288.000,329.200 287.640,329.200 287.200 C 329.200 286.760,329.020 286.400,328.800 286.400 C 328.580 286.400,328.400 286.040,328.400 285.600 C 328.400 285.160,328.220 284.800,328.000 284.800 C 327.780 284.800,327.600 284.620,327.600 284.400 C 327.600 284.141,332.259 284.000,340.776 284.000 C 349.129 284.000,354.043 283.854,354.200 283.600 C 354.336 283.380,355.236 283.200,356.200 283.200 C 357.164 283.200,358.064 283.020,358.200 282.800 C 358.336 282.580,359.067 282.400,359.824 282.400 C 360.581 282.400,361.200 282.220,361.200 282.000 C 361.200 281.780,361.740 281.600,362.400 281.600 C 363.060 281.600,363.600 281.420,363.600 281.200 C 363.600 280.980,364.140 280.800,364.800 280.800 C 365.460 280.800,366.000 280.620,366.000 280.400 C 366.000 280.180,366.360 280.000,366.800 280.000 C 367.240 280.000,367.600 279.820,367.600 279.600 C 367.600 279.380,368.050 279.200,368.600 279.200 C 369.150 279.200,369.600 279.020,369.600 278.800 C 369.600 278.580,369.960 278.400,370.400 278.400 C 370.840 278.400,371.200 278.220,371.200 278.000 C 371.200 277.780,371.470 277.600,371.800 277.600 C 372.130 277.600,372.400 277.420,372.400 277.200 C 372.400 276.980,372.760 276.800,373.200 276.800 C 373.640 276.800,374.000 276.620,374.000 276.400 C 374.000 276.180,374.270 276.000,374.600 276.000 C 374.930 276.000,375.200 275.842,375.200 275.649 C 375.200 275.455,375.763 275.064,376.452 274.779 C 377.140 274.493,378.122 273.842,378.634 273.330 C 379.145 272.819,379.742 272.400,379.959 272.400 C 380.456 272.400,388.400 264.536,388.400 264.045 C 388.400 263.847,388.915 263.133,389.544 262.460 C 390.174 261.786,390.915 260.687,391.193 260.017 C 391.470 259.348,391.855 258.800,392.049 258.800 C 392.242 258.800,392.400 258.530,392.400 258.200 C 392.400 257.870,392.580 257.600,392.800 257.600 C 393.020 257.600,393.200 257.240,393.200 256.800 C 393.200 256.360,393.335 255.999,393.500 255.997 C 393.859 255.993,394.800 254.056,394.800 253.320 C 394.800 253.034,394.980 252.800,395.200 252.800 C 395.420 252.800,395.600 252.440,395.600 252.000 C 395.600 251.560,395.780 251.200,396.000 251.200 C 396.220 251.200,396.400 250.840,396.400 250.400 C 396.400 249.960,396.580 249.600,396.800 249.600 C 397.020 249.600,397.200 249.060,397.200 248.400 C 397.200 247.740,397.380 247.200,397.600 247.200 C 397.820 247.200,398.000 246.660,398.000 246.000 C 398.000 245.340,398.180 244.800,398.400 244.800 C 398.620 244.800,398.800 244.296,398.800 243.680 C 398.800 243.064,399.025 242.335,399.300 242.060 C 400.022 241.338,400.022 216.262,399.300 215.540 C 399.025 215.265,398.800 214.536,398.800 213.920 C 398.800 213.304,398.620 212.800,398.400 212.800 C 398.180 212.800,398.000 212.260,398.000 211.600 C 398.000 210.940,397.820 210.400,397.600 210.400 C 397.380 210.400,397.200 209.950,397.200 209.400 C 397.200 208.850,397.020 208.400,396.800 208.400 C 396.580 208.400,396.400 208.128,396.400 207.795 C 396.400 207.462,396.220 206.832,396.000 206.395 C 395.780 205.958,395.420 205.242,395.200 204.805 C 394.980 204.368,394.800 203.822,394.800 203.592 C 394.800 202.943,392.102 200.400,391.413 200.400 C 391.076 200.400,390.800 200.220,390.800 200.000 C 390.800 199.370,386.825 199.517,386.171 200.171 C 385.857 200.486,385.600 200.908,385.600 201.109 C 385.600 201.311,385.222 201.818,384.759 202.237 C 382.521 204.263,382.274 206.687,383.947 210.223 C 387.656 218.064,389.090 226.584,387.964 234.093 C 385.457 250.799,374.724 264.067,359.400 269.399 C 353.408 271.484,347.787 271.992,330.674 271.997 C 314.939 272.000,316.028 272.164,312.205 269.215 C 305.135 263.762,295.746 259.707,285.400 257.639 C 279.502 256.461,276.857 256.400,231.254 256.400 L 184.400 256.400 184.400 254.694 C 184.400 250.833,187.122 246.095,190.791 243.570 C 195.258 240.496,193.930 240.624,222.784 240.488 L 248.568 240.367 249.927 239.331 C 251.996 237.752,252.598 235.944,252.049 232.954 C 247.501 208.181,276.630 193.360,294.787 211.209 C 300.484 216.809,303.758 216.569,306.993 210.313 C 307.821 208.711,308.738 206.950,309.029 206.399 C 319.449 186.726,348.704 180.288,369.049 193.190 C 371.553 194.778,374.174 194.854,376.314 193.400 C 377.123 192.850,378.104 192.400,378.493 192.400 C 379.114 192.400,379.200 191.985,379.200 189.000 C 379.200 187.000,379.035 185.600,378.800 185.600 C 378.580 185.600,378.400 185.317,378.400 184.971 C 378.400 184.227,377.458 183.200,376.775 183.200 C 376.511 183.200,376.003 182.871,375.647 182.470 C 375.291 182.068,374.415 181.484,373.700 181.172 C 372.985 180.860,372.400 180.469,372.400 180.302 C 372.400 180.136,372.040 180.000,371.600 180.000 C 371.160 180.000,370.800 179.820,370.800 179.600 C 370.800 179.380,370.440 179.200,370.000 179.200 C 369.560 179.200,369.200 179.020,369.200 178.800 C 369.200 178.580,368.840 178.400,368.400 178.400 C 367.960 178.400,367.600 178.259,367.600 178.087 C 367.600 177.915,366.745 177.525,365.700 177.220 C 364.655 176.915,363.530 176.524,363.200 176.351 C 362.099 175.775,357.370 174.800,355.674 174.800 C 354.753 174.800,354.000 174.620,354.000 174.400 C 354.000 174.146,350.933 174.000,345.600 174.000 C 340.980 174.000,337.200 174.154,337.200 174.341 C 337.200 174.529,335.867 174.795,334.237 174.933 C 332.607 175.071,330.852 175.354,330.337 175.562 C 329.822 175.770,328.545 176.173,327.500 176.457 C 326.455 176.742,325.600 177.095,325.600 177.242 C 325.600 177.389,325.060 177.588,324.400 177.685 C 323.576 177.806,323.200 177.693,323.200 177.325 C 323.200 177.030,323.038 176.477,322.839 176.095 C 322.640 175.713,322.249 174.590,321.969 173.600 C 321.690 172.610,321.312 171.629,321.130 171.420 C 320.949 171.211,320.800 170.626,320.800 170.120 C 320.800 169.614,320.620 169.200,320.400 169.200 C 320.180 169.200,320.000 168.660,320.000 168.000 C 320.000 167.340,319.820 166.800,319.600 166.800 C 319.380 166.800,319.200 166.440,319.200 166.000 C 319.200 165.560,319.020 165.200,318.800 165.200 C 318.580 165.200,318.400 164.761,318.400 164.224 C 318.400 163.687,318.220 163.136,318.000 163.000 C 317.780 162.864,317.600 162.403,317.600 161.976 C 317.600 161.549,317.420 161.200,317.200 161.200 C 316.980 161.200,316.800 160.840,316.800 160.400 C 316.800 159.960,316.620 159.600,316.400 159.600 C 316.180 159.600,316.000 159.330,316.000 159.000 C 316.000 158.670,315.820 158.400,315.600 158.400 C 315.380 158.400,315.200 158.147,315.200 157.838 C 315.200 157.172,313.532 153.859,313.100 153.667 C 312.935 153.593,312.800 153.188,312.800 152.767 C 312.800 152.345,312.620 152.000,312.400 152.000 C 312.180 152.000,312.000 151.640,312.000 151.200 C 312.000 150.760,311.820 150.400,311.600 150.400 C 311.380 150.400,311.200 150.080,311.200 149.688 C 311.200 149.297,310.840 148.717,310.400 148.400 C 309.960 148.083,309.600 147.518,309.600 147.145 C 309.600 146.772,309.465 146.407,309.300 146.333 C 309.135 146.260,308.661 145.533,308.247 144.719 C 307.833 143.904,307.158 142.876,306.747 142.435 C 306.336 141.994,306.000 141.491,306.000 141.317 C 305.999 141.143,305.549 140.477,305.000 139.838 C 304.450 139.199,304.000 138.546,304.000 138.388 C 304.000 138.230,303.370 137.413,302.600 136.572 C 301.830 135.731,301.200 134.878,301.200 134.676 C 301.200 132.572,293.844 130.405,291.800 131.906 C 288.927 134.017,288.545 139.026,290.993 142.474 C 298.518 153.074,300.593 156.428,304.190 163.800 C 306.954 169.468,310.276 178.126,311.436 182.688 L 312.171 185.575 308.385 189.139 C 306.303 191.099,303.520 194.157,302.200 195.934 C 299.383 199.725,299.754 199.605,296.878 197.655 C 282.690 188.035,262.989 190.002,250.600 202.274 C 244.291 208.524,240.622 216.501,240.112 225.079 L 239.893 228.757 217.647 228.897 C 192.764 229.053,193.655 228.960,187.267 232.045 C 180.039 235.536,172.800 245.629,172.800 252.216 C 172.800 252.922,172.687 254.065,172.549 254.756 L 172.297 256.013 161.649 255.906 L 151.000 255.800 150.746 253.000 C 148.322 226.319,118.368 211.874,96.528 226.853 C 94.433 228.290,94.671 228.343,93.152 226.100 C 92.444 225.055,90.002 222.296,87.724 219.969 L 83.583 215.739 83.990 209.769 C 84.516 202.049,85.311 195.931,86.455 190.800 C 86.675 189.810,87.035 188.190,87.253 187.200 C 95.099 151.649,124.741 117.724,158.200 106.000 C 165.663 103.385,170.406 101.989,175.600 100.879 C 179.187 100.112,180.995 99.808,187.877 98.815 C 191.437 98.301,208.059 98.268,211.367 98.768 C 212.705 98.970,215.330 99.339,217.200 99.589 C 220.799 100.069,221.681 100.245,227.400 101.626 C 232.930 102.961,239.327 104.990,241.295 106.032 C 241.677 106.234,242.167 106.400,242.385 106.400 C 242.758 106.400,244.762 107.279,250.800 110.091 C 256.222 112.616,264.086 117.494,269.934 121.959 C 277.380 127.644,278.131 127.857,282.424 125.500 L 284.791 124.200 284.795 120.900 C 284.798 118.964,284.635 117.600,284.400 117.600 C 284.180 117.600,284.000 117.334,284.000 117.009 C 284.000 116.684,283.505 116.099,282.900 115.709 C 282.295 115.319,281.209 114.415,280.487 113.700 C 279.764 112.985,279.008 112.400,278.805 112.400 C 278.602 112.400,278.022 111.995,277.516 111.500 C 276.342 110.352,273.477 108.400,272.967 108.400 C 272.752 108.400,272.317 108.040,272.000 107.600 C 271.683 107.160,271.143 106.800,270.800 106.800 C 270.457 106.800,269.917 106.440,269.600 106.000 C 269.283 105.560,268.703 105.200,268.312 105.200 C 267.920 105.200,267.600 105.020,267.600 104.800 C 267.600 104.580,267.364 104.400,267.075 104.400 C 266.787 104.400,266.164 104.040,265.692 103.600 C 265.220 103.160,264.556 102.800,264.217 102.800 C 263.878 102.800,263.600 102.620,263.600 102.400 C 263.600 102.180,263.240 102.000,262.800 102.000 C 262.360 102.000,262.000 101.820,262.000 101.600 C 262.000 101.380,261.764 101.200,261.475 101.200 C 261.187 101.200,260.564 100.840,260.092 100.400 C 259.620 99.960,258.956 99.600,258.617 99.600 C 258.278 99.600,258.000 99.420,258.000 99.200 C 258.000 98.980,257.735 98.800,257.412 98.800 C 257.089 98.800,256.183 98.440,255.400 98.000 C 254.617 97.560,253.711 97.200,253.388 97.200 C 253.065 97.200,252.800 97.020,252.800 96.800 C 252.800 96.580,252.440 96.400,252.000 96.400 C 251.560 96.400,251.200 96.220,251.200 96.000 C 251.200 95.780,250.851 95.600,250.424 95.600 C 249.997 95.600,249.536 95.420,249.400 95.200 C 249.264 94.980,248.728 94.800,248.210 94.800 C 247.691 94.800,247.207 94.657,247.133 94.482 C 247.060 94.307,245.380 93.664,243.400 93.053 C 241.420 92.441,239.487 91.774,239.105 91.571 C 238.723 91.367,237.868 91.200,237.205 91.200 C 236.542 91.200,236.000 91.020,236.000 90.800 C 236.000 90.580,235.370 90.400,234.600 90.400 C 233.830 90.400,233.200 90.220,233.200 90.000 C 233.200 89.780,232.480 89.600,231.600 89.600 C 230.720 89.600,230.000 89.420,230.000 89.200 C 230.000 88.980,229.291 88.800,228.424 88.800 C 227.557 88.800,226.736 88.620,226.600 88.400 C 226.464 88.180,225.564 88.000,224.600 88.000 C 223.636 88.000,222.736 87.820,222.600 87.600 C 222.464 87.380,221.283 87.200,219.976 87.200 C 218.659 87.200,217.600 87.022,217.600 86.800 C 217.600 86.560,216.000 86.400,213.600 86.400 C 211.200 86.400,209.600 86.240,209.600 86.000 C 209.600 85.744,206.000 85.600,199.600 85.600 C 193.200 85.600,189.600 85.744,189.600 86.000 M16.800 133.600 C 16.800 133.820,16.524 134.000,16.187 134.000 C 15.193 134.000,12.800 136.659,12.800 137.763 C 12.800 138.307,12.620 138.864,12.400 139.000 C 12.180 139.136,12.000 139.597,12.000 140.024 C 12.000 140.451,12.180 140.800,12.400 140.800 C 12.620 140.800,12.800 141.340,12.800 142.000 C 12.800 142.660,12.980 143.200,13.200 143.200 C 13.420 143.200,13.600 143.483,13.600 143.829 C 13.600 144.637,14.563 145.600,15.371 145.600 C 15.717 145.600,16.000 145.780,16.000 146.000 C 16.000 146.220,16.320 146.400,16.712 146.400 C 17.103 146.400,17.683 146.760,18.000 147.200 C 18.317 147.640,18.897 148.000,19.288 148.000 C 19.680 148.000,20.000 148.180,20.000 148.400 C 20.000 148.620,20.360 148.800,20.800 148.800 C 21.240 148.800,21.600 148.980,21.600 149.200 C 21.600 149.420,21.836 149.600,22.125 149.600 C 22.413 149.600,23.036 149.960,23.508 150.400 C 23.980 150.840,24.644 151.200,24.983 151.200 C 25.322 151.200,25.600 151.380,25.600 151.600 C 25.600 151.820,25.855 152.000,26.167 152.000 C 26.478 152.000,26.793 152.135,26.867 152.300 C 27.034 152.676,29.164 153.975,30.100 154.271 C 30.485 154.393,30.800 154.652,30.800 154.847 C 30.800 155.041,31.160 155.200,31.600 155.200 C 32.040 155.200,32.400 155.343,32.400 155.519 C 32.400 155.694,33.795 156.541,35.500 157.401 C 37.205 158.261,38.660 159.108,38.733 159.282 C 38.807 159.457,39.291 159.600,39.810 159.600 C 40.328 159.600,40.864 159.780,41.000 160.000 C 41.136 160.220,42.047 160.400,43.024 160.400 C 44.001 160.400,44.800 160.220,44.800 160.000 C 44.800 159.780,45.258 159.600,45.818 159.600 C 46.941 159.600,48.800 157.990,48.800 157.018 C 48.800 156.678,48.980 156.400,49.200 156.400 C 49.428 156.400,49.600 155.221,49.600 153.664 C 49.600 150.799,47.284 147.200,45.440 147.200 C 45.088 147.200,44.800 147.020,44.800 146.800 C 44.800 146.580,44.564 146.400,44.275 146.400 C 43.987 146.400,43.364 146.040,42.892 145.600 C 42.420 145.160,41.756 144.800,41.417 144.800 C 41.078 144.800,40.800 144.620,40.800 144.400 C 40.800 144.180,40.616 144.000,40.392 144.000 C 40.168 144.000,39.271 143.550,38.400 143.000 C 37.529 142.450,36.542 142.000,36.208 142.000 C 35.874 142.000,35.600 141.820,35.600 141.600 C 35.600 141.380,35.322 141.200,34.983 141.200 C 34.644 141.200,33.980 140.840,33.508 140.400 C 33.036 139.960,32.413 139.600,32.125 139.600 C 31.836 139.600,31.600 139.420,31.600 139.200 C 31.600 138.980,31.240 138.800,30.800 138.800 C 30.360 138.800,30.000 138.620,30.000 138.400 C 30.000 138.180,29.680 138.000,29.288 138.000 C 28.897 138.000,28.317 137.640,28.000 137.200 C 27.683 136.760,27.103 136.400,26.712 136.400 C 26.320 136.400,26.000 136.254,26.000 136.075 C 26.000 135.896,25.370 135.502,24.600 135.200 C 23.830 134.898,23.200 134.504,23.200 134.325 C 23.200 134.146,22.840 134.000,22.400 134.000 C 21.960 134.000,21.600 133.820,21.600 133.600 C 21.600 133.378,20.533 133.200,19.200 133.200 C 17.867 133.200,16.800 133.378,16.800 133.600 M377.600 133.525 C 377.600 133.704,376.970 134.098,376.200 134.400 C 375.430 134.702,374.800 135.096,374.800 135.275 C 374.800 135.454,374.480 135.600,374.088 135.600 C 373.697 135.600,373.117 135.960,372.800 136.400 C 372.483 136.840,371.903 137.200,371.512 137.200 C 371.120 137.200,370.800 137.380,370.800 137.600 C 370.800 137.820,370.440 138.000,370.000 138.000 C 369.560 138.000,369.200 138.180,369.200 138.400 C 369.200 138.620,368.964 138.800,368.675 138.800 C 368.387 138.800,367.764 139.160,367.292 139.600 C 366.820 140.040,366.156 140.400,365.817 140.400 C 365.478 140.400,365.200 140.580,365.200 140.800 C 365.200 141.020,364.840 141.200,364.400 141.200 C 363.960 141.200,363.600 141.335,363.600 141.501 C 363.600 141.666,362.556 142.294,361.279 142.897 C 360.003 143.500,358.570 144.355,358.096 144.797 C 357.622 145.238,356.956 145.600,356.617 145.600 C 356.278 145.600,356.000 145.780,356.000 146.000 C 356.000 146.220,355.640 146.400,355.200 146.400 C 354.760 146.400,354.400 146.580,354.400 146.800 C 354.400 147.020,354.165 147.200,353.878 147.200 C 353.011 147.200,350.400 149.850,350.400 150.730 C 350.400 151.183,350.220 151.664,350.000 151.800 C 349.780 151.936,349.600 152.847,349.600 153.824 C 349.600 154.801,349.780 155.600,350.000 155.600 C 350.220 155.600,350.400 155.926,350.400 156.325 C 350.400 157.375,352.698 159.600,353.783 159.600 C 354.122 159.600,354.400 159.780,354.400 160.000 C 354.400 160.220,355.390 160.400,356.600 160.400 C 357.810 160.400,358.800 160.220,358.800 160.000 C 358.800 159.780,359.160 159.600,359.600 159.600 C 360.040 159.600,360.400 159.420,360.400 159.200 C 360.400 158.980,360.747 158.800,361.171 158.800 C 361.596 158.800,362.213 158.530,362.543 158.200 C 362.873 157.870,363.426 157.600,363.771 157.600 C 364.117 157.600,364.403 157.465,364.406 157.300 C 364.410 157.135,365.310 156.560,366.406 156.021 C 367.503 155.483,368.400 154.898,368.400 154.721 C 368.400 154.545,368.760 154.400,369.200 154.400 C 369.640 154.400,370.000 154.241,370.000 154.047 C 370.000 153.852,370.315 153.593,370.700 153.471 C 371.636 153.175,373.766 151.876,373.933 151.500 C 374.007 151.335,374.322 151.200,374.633 151.200 C 374.945 151.200,375.200 151.020,375.200 150.800 C 375.200 150.580,375.560 150.400,376.000 150.400 C 376.440 150.400,376.800 150.242,376.800 150.049 C 376.800 149.855,377.340 149.473,378.000 149.200 C 378.660 148.927,379.200 148.545,379.200 148.351 C 379.200 148.158,379.560 148.000,380.000 148.000 C 380.440 148.000,380.800 147.820,380.800 147.600 C 380.800 147.380,381.160 147.200,381.600 147.200 C 382.040 147.200,382.400 147.050,382.400 146.868 C 382.400 146.685,382.895 146.280,383.500 145.968 C 384.997 145.195,386.400 143.768,386.400 143.018 C 386.400 142.678,386.580 142.400,386.800 142.400 C 388.726 142.400,386.235 135.299,383.862 134.025 C 382.314 133.194,377.600 132.818,377.600 133.525 M281.200 268.629 C 288.537 269.895,296.796 272.928,301.472 276.075 C 302.392 276.694,303.337 277.200,303.572 277.200 C 303.807 277.200,304.000 277.341,304.000 277.514 C 304.000 277.686,304.495 278.120,305.100 278.479 C 307.987 280.187,313.604 285.944,316.343 290.000 C 320.033 295.467,322.273 300.599,323.935 307.400 C 325.733 314.755,325.751 328.139,323.973 335.300 C 322.779 340.107,321.936 342.881,321.518 343.380 C 321.343 343.589,321.199 344.039,321.198 344.380 C 321.184 348.501,311.139 362.402,304.410 367.614 C 303.425 368.376,302.380 369.222,302.087 369.494 C 300.917 370.580,293.673 374.430,290.500 375.653 C 290.005 375.844,289.195 376.165,288.700 376.367 C 288.205 376.568,287.350 376.846,286.800 376.985 C 286.250 377.123,284.900 377.474,283.800 377.765 C 277.381 379.459,280.611 379.400,194.400 379.400 L 112.200 379.400 108.800 377.717 C 92.025 369.415,93.547 346.571,111.293 340.285 C 112.175 339.973,118.645 339.754,131.200 339.611 C 148.108 339.419,149.920 339.335,151.118 338.681 C 153.219 337.533,154.071 335.809,153.827 333.200 C 152.225 316.063,155.711 307.177,167.000 299.625 C 170.818 297.071,171.479 296.778,178.000 294.758 C 181.653 293.626,190.740 294.090,194.600 295.605 C 195.040 295.778,196.030 296.152,196.800 296.437 C 199.178 297.317,203.313 299.955,205.609 302.058 C 210.348 306.398,214.654 306.188,216.562 301.524 C 226.711 276.709,252.362 263.655,281.200 268.629 " stroke="none" fill="#050505" fill-rule="evenodd"></path><path id="path2" d="M261.800 268.992 C 259.820 269.257,257.750 269.584,257.200 269.717 C 256.650 269.851,254.985 270.247,253.500 270.599 C 250.200 271.379,244.281 273.456,242.493 274.460 C 241.768 274.867,240.911 275.200,240.588 275.200 C 240.265 275.200,240.000 275.380,240.000 275.600 C 240.000 275.820,239.730 276.000,239.400 276.000 C 239.070 276.000,238.800 276.136,238.800 276.302 C 238.800 276.469,238.305 276.828,237.700 277.101 C 234.882 278.371,227.248 284.980,224.382 288.631 C 222.620 290.875,221.075 293.431,219.772 296.256 C 218.975 297.985,218.160 299.713,217.962 300.095 C 217.763 300.477,217.600 301.058,217.600 301.388 C 217.600 301.717,216.821 302.799,215.869 303.793 C 212.770 307.026,209.793 306.545,204.227 301.911 C 202.703 300.642,200.948 299.378,200.327 299.104 C 199.707 298.829,199.200 298.469,199.200 298.302 C 199.200 298.136,198.840 298.000,198.400 298.000 C 197.960 298.000,197.600 297.820,197.600 297.600 C 197.600 297.380,197.251 297.200,196.824 297.200 C 196.397 297.200,195.936 297.020,195.800 296.800 C 195.664 296.580,195.113 296.400,194.576 296.400 C 194.039 296.400,193.600 296.220,193.600 296.000 C 193.600 295.780,192.891 295.600,192.024 295.600 C 191.157 295.600,190.336 295.420,190.200 295.200 C 190.057 294.968,187.870 294.800,185.000 294.800 C 182.130 294.800,179.943 294.968,179.800 295.200 C 179.664 295.420,179.081 295.600,178.505 295.600 C 177.434 295.600,175.151 296.220,173.905 296.849 C 173.523 297.042,172.938 297.200,172.605 297.200 C 172.272 297.200,172.000 297.380,172.000 297.600 C 172.000 297.820,171.640 298.000,171.200 298.000 C 170.760 298.000,170.400 298.180,170.400 298.400 C 170.400 298.620,170.197 298.800,169.949 298.800 C 168.016 298.800,159.691 306.407,158.313 309.431 C 158.070 309.964,157.720 310.400,157.536 310.400 C 157.351 310.400,157.200 310.745,157.200 311.167 C 157.200 311.588,157.055 311.993,156.877 312.067 C 154.990 312.847,153.509 324.066,154.402 330.815 C 154.894 334.529,154.878 334.786,154.067 336.462 C 152.416 339.872,153.052 339.767,132.400 340.043 C 114.897 340.277,111.451 340.470,110.973 341.244 C 110.852 341.440,110.313 341.600,109.776 341.600 C 109.239 341.600,108.800 341.736,108.800 341.902 C 108.800 342.069,108.276 342.436,107.637 342.720 C 105.007 343.884,99.600 349.962,99.600 351.754 C 99.600 352.084,99.420 352.464,99.200 352.600 C 98.980 352.736,98.800 353.276,98.800 353.800 C 98.800 354.324,98.620 354.864,98.400 355.000 C 97.873 355.326,97.873 363.874,98.400 364.200 C 98.620 364.336,98.800 364.876,98.800 365.400 C 98.800 365.924,98.980 366.464,99.200 366.600 C 99.420 366.736,99.600 367.119,99.600 367.452 C 99.600 369.638,107.162 377.200,109.348 377.200 C 109.681 377.200,110.064 377.380,110.200 377.600 C 110.336 377.820,110.851 378.000,111.344 378.000 C 111.837 378.000,112.421 378.181,112.643 378.403 C 113.112 378.872,276.159 378.687,279.400 378.214 C 280.500 378.054,281.571 377.760,281.780 377.561 C 281.989 377.363,282.743 377.200,283.456 377.200 C 284.169 377.200,284.864 377.020,285.000 376.800 C 285.136 376.580,285.689 376.400,286.229 376.400 C 286.769 376.400,287.523 376.241,287.905 376.047 C 288.287 375.852,289.140 375.471,289.800 375.200 C 290.460 374.929,291.313 374.548,291.695 374.353 C 292.077 374.159,292.662 374.000,292.995 374.000 C 293.328 374.000,293.600 373.820,293.600 373.600 C 293.600 373.380,293.915 373.196,294.300 373.191 C 294.685 373.186,295.450 372.830,296.000 372.400 C 296.550 371.970,297.145 371.614,297.322 371.609 C 297.872 371.594,302.481 368.367,305.000 366.235 C 311.665 360.592,315.950 354.632,320.126 345.200 C 324.614 335.064,325.886 319.460,323.208 307.400 C 322.964 306.300,322.661 304.903,322.536 304.295 C 322.410 303.687,322.149 303.092,321.954 302.971 C 321.759 302.851,321.600 302.401,321.600 301.971 C 321.600 301.541,321.436 300.877,321.235 300.495 C 321.034 300.113,320.379 298.720,319.779 297.400 C 316.626 290.465,310.169 282.435,305.550 279.707 C 304.918 279.333,304.400 278.886,304.400 278.714 C 304.400 278.541,304.130 278.400,303.800 278.400 C 303.470 278.400,303.200 278.220,303.200 278.000 C 303.200 277.780,302.930 277.600,302.600 277.600 C 302.270 277.600,301.999 277.465,301.997 277.300 C 301.995 277.135,301.590 276.799,301.097 276.554 C 300.604 276.309,298.850 275.407,297.200 274.550 C 287.637 269.580,273.710 267.393,261.800 268.992 " stroke="none" fill="#dbedfb" fill-rule="evenodd"></path><path id="path3" d="M342.500 187.097 C 344.205 187.172,346.995 187.172,348.700 187.097 C 350.405 187.022,349.010 186.961,345.600 186.961 C 342.190 186.961,340.795 187.022,342.500 187.097 M334.200 188.097 C 333.540 188.324,332.749 188.579,332.443 188.664 C 332.136 188.749,331.960 188.894,332.052 188.985 C 332.143 189.077,333.474 188.813,335.009 188.400 C 336.697 187.945,337.326 187.655,336.600 187.667 C 335.940 187.677,334.860 187.871,334.200 188.097 M354.000 187.882 C 354.891 188.037,356.339 188.446,360.154 189.620 C 360.789 189.815,361.192 189.859,361.050 189.717 C 360.502 189.169,355.341 187.623,354.200 187.665 C 353.130 187.704,353.108 187.728,354.000 187.882 M377.094 193.465 C 376.270 194.051,375.690 194.624,375.805 194.738 C 375.920 194.853,376.226 194.734,376.487 194.473 C 380.185 190.775,377.304 210.621,372.845 219.557 C 365.442 234.394,353.046 243.380,335.833 246.387 C 334.263 246.661,309.051 246.800,260.891 246.800 L 188.315 246.800 189.613 245.588 C 190.326 244.922,190.817 244.283,190.703 244.169 C 189.739 243.205,185.528 250.408,184.953 254.004 L 184.698 255.600 228.249 255.619 C 269.362 255.637,278.495 255.832,284.200 256.817 C 285.520 257.045,287.276 257.333,288.103 257.458 C 288.929 257.583,289.705 257.845,289.826 258.042 C 289.948 258.239,290.566 258.400,291.200 258.400 C 291.834 258.400,292.464 258.580,292.600 258.800 C 292.736 259.020,293.276 259.200,293.800 259.200 C 294.324 259.200,294.864 259.380,295.000 259.600 C 295.136 259.820,295.599 260.000,296.029 260.000 C 296.459 260.000,297.123 260.161,297.505 260.357 C 297.887 260.553,300.450 261.811,303.200 263.153 C 305.950 264.494,309.617 266.629,311.350 267.896 C 313.082 269.163,314.882 270.434,315.350 270.720 C 316.027 271.134,319.873 271.202,334.200 271.052 C 352.643 270.859,352.402 270.878,358.200 269.189 C 365.290 267.124,373.962 261.191,378.166 255.530 C 379.199 254.138,380.305 252.683,380.622 252.295 C 380.940 251.908,381.200 251.486,381.200 251.357 C 381.200 251.229,381.526 250.646,381.924 250.062 C 386.434 243.449,388.984 228.004,386.854 220.200 C 385.956 216.907,384.358 212.293,383.600 210.800 C 381.698 207.053,381.854 204.808,384.212 201.985 C 385.627 200.291,385.914 199.600,385.200 199.600 C 384.980 199.600,384.800 199.330,384.800 199.000 C 384.800 198.557,379.068 192.400,378.656 192.400 C 378.620 192.400,377.917 192.879,377.094 193.465 M319.985 195.232 L 318.600 196.463 319.888 195.613 C 321.030 194.859,321.893 194.000,321.508 194.000 C 321.432 194.000,320.747 194.554,319.985 195.232 M371.450 195.281 C 371.700 195.686,374.400 195.703,374.399 195.300 C 374.398 195.135,373.690 194.992,372.825 194.981 C 371.961 194.971,371.342 195.106,371.450 195.281 M315.389 199.211 C 313.867 200.745,312.742 202.000,312.890 202.000 C 313.273 202.000,318.505 196.772,318.314 196.581 C 318.227 196.494,316.911 197.678,315.389 199.211 M275.905 203.883 C 276.402 203.979,277.122 203.975,277.505 203.875 C 277.887 203.775,277.480 203.696,276.600 203.701 C 275.720 203.705,275.407 203.787,275.905 203.883 M268.726 204.939 C 267.475 205.413,266.325 205.930,266.170 206.089 C 266.015 206.249,266.948 205.993,268.244 205.522 C 269.540 205.051,271.410 204.540,272.400 204.386 L 274.200 204.107 272.600 204.092 C 271.720 204.085,269.977 204.465,268.726 204.939 M280.800 204.407 C 282.394 204.684,283.914 205.155,286.600 206.205 C 287.146 206.418,287.273 206.387,287.000 206.105 C 286.311 205.396,281.811 203.998,280.373 204.047 C 279.102 204.091,279.134 204.117,280.800 204.407 M257.944 212.300 C 256.793 213.689,256.306 214.400,256.504 214.400 C 256.614 214.400,257.186 213.770,257.773 213.000 C 258.863 211.571,258.995 211.032,257.944 212.300 M295.091 212.600 C 296.023 213.959,297.530 215.411,297.753 215.164 C 297.835 215.074,297.084 214.190,296.085 213.200 C 294.767 211.894,294.494 211.729,295.091 212.600 M306.553 212.100 C 306.390 212.375,305.975 213.043,305.629 213.585 C 305.238 214.197,305.190 214.452,305.503 214.259 C 306.020 213.940,307.368 211.600,307.034 211.600 C 306.931 211.600,306.715 211.825,306.553 212.100 M255.414 215.835 C 255.041 216.404,254.827 216.961,254.939 217.072 C 255.050 217.183,255.429 216.718,255.781 216.037 C 256.559 214.533,256.344 214.415,255.414 215.835 M298.662 215.700 C 298.764 215.865,299.816 216.000,301.000 216.000 C 302.184 216.000,303.236 215.865,303.338 215.700 C 303.440 215.535,302.388 215.400,301.000 215.400 C 299.612 215.400,298.560 215.535,298.662 215.700 M48.100 217.487 C 48.705 217.578,49.695 217.578,50.300 217.487 C 50.905 217.395,50.410 217.320,49.200 217.320 C 47.990 217.320,47.495 217.395,48.100 217.487 M54.505 217.487 C 55.114 217.579,56.014 217.577,56.505 217.482 C 56.997 217.387,56.500 217.311,55.400 217.314 C 54.300 217.317,53.897 217.395,54.505 217.487 M253.950 218.700 C 252.425 222.600,251.909 226.625,252.374 231.000 C 252.640 233.506,252.674 233.270,252.695 228.741 C 252.717 223.954,252.887 222.900,254.254 219.100 C 254.871 217.385,254.603 217.031,253.950 218.700 M41.400 218.676 C 39.794 219.044,35.789 220.503,35.408 220.859 C 35.192 221.060,36.271 220.769,37.806 220.212 C 39.341 219.655,40.902 219.200,41.275 219.200 C 41.648 219.200,42.064 219.020,42.200 218.800 C 42.336 218.580,42.392 218.421,42.324 218.446 C 42.256 218.472,41.840 218.575,41.400 218.676 M33.100 221.829 C 31.549 222.670,31.725 222.961,33.300 222.159 C 34.808 221.393,35.075 221.194,34.567 221.216 C 34.365 221.225,33.705 221.501,33.100 221.829 M28.800 224.420 L 27.800 225.222 28.900 224.747 C 29.505 224.485,30.000 224.120,30.000 223.936 C 30.000 223.479,29.945 223.502,28.800 224.420 M26.218 226.218 C 25.587 226.760,25.153 227.286,25.253 227.386 C 25.353 227.486,25.951 227.124,26.582 226.582 C 27.213 226.040,27.647 225.514,27.547 225.414 C 27.447 225.314,26.849 225.676,26.218 226.218 M23.273 228.925 C 22.573 229.647,22.000 230.347,22.000 230.479 C 22.000 230.612,22.636 230.084,23.413 229.307 C 24.191 228.529,24.763 227.830,24.686 227.753 C 24.609 227.675,23.973 228.203,23.273 228.925 M19.346 233.730 C 17.098 236.880,15.804 239.200,16.295 239.200 C 16.469 239.200,16.904 238.524,17.262 237.697 C 17.620 236.871,18.764 235.062,19.805 233.679 C 20.845 232.295,21.628 231.095,21.545 231.011 C 21.462 230.928,20.472 232.152,19.346 233.730 M252.400 236.795 C 252.400 237.360,251.766 238.327,250.783 239.262 C 249.894 240.108,249.327 240.800,249.524 240.800 C 250.760 240.800,253.390 236.856,252.648 236.115 C 252.512 235.978,252.400 236.285,252.400 236.795 M222.200 241.200 L 197.400 241.409 222.200 241.476 C 235.840 241.513,247.360 241.389,247.800 241.200 L 248.600 240.856 247.800 240.924 C 247.360 240.961,235.840 241.085,222.200 241.200 M12.336 254.090 C 12.261 255.459,12.308 257.664,12.439 258.990 C 12.623 260.843,12.692 260.268,12.739 256.500 C 12.803 251.322,12.564 249.892,12.336 254.090 M12.828 263.876 C 12.918 264.915,13.544 265.796,13.572 264.924 C 13.587 264.442,13.420 263.936,13.200 263.800 C 12.980 263.664,12.813 263.698,12.828 263.876 M163.931 268.300 C 175.662 268.359,194.742 268.359,206.331 268.300 C 217.919 268.241,208.320 268.193,185.000 268.193 C 161.680 268.193,152.199 268.241,163.931 268.300 M266.305 268.283 C 266.802 268.379,267.522 268.375,267.905 268.275 C 268.287 268.175,267.880 268.096,267.000 268.101 C 266.120 268.105,265.807 268.187,266.305 268.283 M17.900 276.779 C 18.505 277.867,19.059 278.590,19.131 278.385 C 19.204 278.180,18.889 277.486,18.431 276.844 C 17.974 276.202,17.600 275.479,17.600 275.238 C 17.600 274.997,17.420 274.800,17.200 274.800 C 16.980 274.800,17.295 275.690,17.900 276.779 M19.600 279.082 C 19.600 279.310,20.335 280.285,21.234 281.249 L 22.868 283.000 21.348 281.000 C 20.512 279.900,19.777 278.925,19.714 278.833 C 19.651 278.742,19.600 278.854,19.600 279.082 M214.994 279.340 C 213.826 280.663,211.530 284.063,211.694 284.227 C 211.798 284.331,212.382 283.648,212.993 282.708 C 213.603 281.769,214.470 280.596,214.919 280.102 C 215.369 279.607,215.661 279.131,215.568 279.042 C 215.476 278.953,215.217 279.088,214.994 279.340 M179.338 281.890 C 179.084 282.060,181.057 282.135,183.723 282.055 C 186.389 281.976,189.477 282.098,190.585 282.327 C 194.164 283.065,195.807 283.278,195.494 282.963 C 194.649 282.112,180.417 281.166,179.338 281.890 M175.052 282.716 C 174.944 282.890,175.518 282.967,176.328 282.887 C 178.542 282.669,178.805 282.467,176.924 282.432 C 176.002 282.414,175.159 282.542,175.052 282.716 M171.790 283.616 C 171.621 283.889,171.923 283.938,172.666 283.760 C 174.199 283.392,174.344 283.200,173.090 283.200 C 172.517 283.200,171.932 283.387,171.790 283.616 M168.900 284.634 C 168.185 284.946,167.600 285.290,167.600 285.398 C 167.600 285.576,170.776 284.451,171.167 284.135 C 171.595 283.788,170.062 284.126,168.900 284.634 M200.153 284.836 C 201.227 285.272,202.197 285.536,202.310 285.423 C 202.422 285.311,202.174 285.111,201.757 284.980 C 201.341 284.849,200.687 284.575,200.305 284.371 C 199.923 284.167,199.293 284.010,198.905 284.022 C 198.517 284.034,199.079 284.400,200.153 284.836 M210.469 285.639 C 209.710 286.854,210.166 287.016,210.955 285.812 C 211.320 285.256,211.478 284.800,211.305 284.800 C 211.133 284.800,210.757 285.178,210.469 285.639 M27.400 287.365 C 28.060 287.932,28.765 288.397,28.967 288.398 C 29.401 288.400,29.396 288.396,27.600 287.237 L 26.200 286.334 27.400 287.365 M163.600 287.233 L 162.600 288.048 163.900 287.414 C 164.615 287.065,165.200 286.694,165.200 286.590 C 165.200 286.192,164.563 286.448,163.600 287.233 M204.400 286.590 C 204.400 286.694,204.985 287.065,205.700 287.414 L 207.000 288.048 206.000 287.233 C 205.037 286.448,204.400 286.192,204.400 286.590 M159.829 289.409 C 159.405 289.729,159.138 290.071,159.235 290.169 C 159.332 290.266,159.859 290.002,160.406 289.582 C 160.953 289.161,161.220 288.820,161.000 288.822 C 160.780 288.824,160.253 289.088,159.829 289.409 M156.629 291.829 C 156.205 292.138,155.936 292.469,156.030 292.563 C 156.124 292.657,156.548 292.481,156.971 292.171 C 157.395 291.862,157.664 291.531,157.570 291.437 C 157.476 291.343,157.052 291.519,156.629 291.829 M40.000 294.000 C 40.330 294.213,40.870 294.388,41.200 294.388 C 41.733 294.388,41.733 294.345,41.200 294.000 C 40.870 293.787,40.330 293.612,40.000 293.612 C 39.467 293.612,39.467 293.655,40.000 294.000 M43.200 294.782 C 43.530 295.005,44.145 295.191,44.567 295.194 C 45.590 295.202,45.271 294.973,43.800 294.644 C 42.924 294.448,42.762 294.485,43.200 294.782 M153.202 294.998 C 152.771 295.517,148.624 295.609,121.653 295.700 L 90.600 295.805 121.638 295.902 C 152.231 295.999,152.686 295.989,153.400 295.200 C 153.798 294.760,154.028 294.400,153.911 294.400 C 153.794 294.400,153.475 294.669,153.202 294.998 M184.105 294.687 C 184.714 294.779,185.614 294.777,186.105 294.682 C 186.597 294.587,186.100 294.511,185.000 294.514 C 183.900 294.517,183.497 294.595,184.105 294.687 M48.800 295.650 C 50.506 295.926,70.866 296.051,69.600 295.778 C 69.270 295.707,64.050 295.584,58.000 295.504 C 51.950 295.425,47.810 295.490,48.800 295.650 M72.670 297.503 C 73.511 298.363,74.276 299.006,74.368 298.932 C 74.606 298.741,72.745 296.805,71.870 296.333 C 71.468 296.117,71.828 296.643,72.670 297.503 M88.303 296.900 C 87.785 297.395,87.640 297.600,87.980 297.356 C 88.321 297.112,88.960 296.712,89.400 296.468 C 89.840 296.224,89.985 296.019,89.722 296.012 C 89.460 296.005,88.821 296.405,88.303 296.900 M74.468 300.000 C 74.488 301.039,75.118 302.746,75.132 301.800 C 75.138 301.360,74.989 300.640,74.800 300.200 C 74.589 299.710,74.461 299.632,74.468 300.000 M85.867 300.267 C 85.720 300.413,85.615 300.998,85.634 301.567 C 85.668 302.581,85.675 302.579,86.021 301.420 C 86.385 300.203,86.331 299.802,85.867 300.267 " stroke="none" fill="#83b9f7" fill-rule="evenodd"></path><path id="path4" d="M337.800 187.677 C 334.336 188.530,329.321 190.121,327.825 190.841 C 326.959 191.259,326.014 191.600,325.725 191.600 C 325.436 191.600,325.200 191.780,325.200 192.000 C 325.200 192.220,324.930 192.400,324.600 192.400 C 324.270 192.400,324.000 192.580,324.000 192.800 C 324.000 193.020,323.730 193.200,323.400 193.200 C 323.070 193.200,322.800 193.380,322.800 193.600 C 322.800 193.820,322.609 194.000,322.377 194.000 C 321.076 194.000,311.200 203.548,311.200 204.805 C 311.200 205.022,311.020 205.200,310.800 205.200 C 310.580 205.200,310.400 205.455,310.400 205.767 C 310.400 206.078,310.259 206.393,310.086 206.467 C 309.913 206.540,308.990 208.130,308.036 210.000 C 304.541 216.846,299.447 218.211,295.689 213.310 C 294.239 211.418,291.595 208.800,291.135 208.800 C 290.932 208.800,290.380 208.440,289.908 208.000 C 289.436 207.560,288.813 207.200,288.525 207.200 C 288.236 207.200,288.000 207.041,288.000 206.847 C 288.000 206.652,287.595 206.395,287.100 206.275 C 286.605 206.155,285.120 205.658,283.800 205.170 C 278.973 203.386,266.191 204.556,265.267 206.867 C 265.193 207.050,264.956 207.200,264.739 207.200 C 261.959 207.200,253.611 217.488,253.602 220.926 C 253.601 221.326,253.404 222.019,253.164 222.468 C 252.897 222.966,252.764 225.328,252.820 228.541 C 252.983 237.778,252.888 238.342,250.930 239.815 C 248.639 241.538,247.812 241.588,221.124 241.594 C 204.577 241.598,195.561 241.740,195.400 242.000 C 195.264 242.220,194.713 242.400,194.176 242.400 C 193.639 242.400,193.200 242.580,193.200 242.800 C 193.200 243.020,192.959 243.200,192.664 243.200 C 192.369 243.200,191.270 244.010,190.222 245.000 L 188.316 246.800 260.891 246.800 C 309.051 246.800,334.263 246.661,335.833 246.387 C 342.586 245.207,345.965 244.137,351.284 241.494 C 363.789 235.280,372.929 223.616,376.587 209.206 C 378.269 202.581,378.278 191.685,376.600 194.400 C 376.464 194.620,375.913 194.800,375.376 194.800 C 374.839 194.800,374.400 194.980,374.400 195.200 C 374.400 195.688,372.254 195.729,371.295 195.261 C 370.913 195.074,370.060 194.613,369.400 194.236 C 368.740 193.859,367.885 193.451,367.500 193.329 C 367.115 193.207,366.800 192.948,366.800 192.753 C 366.800 192.559,366.530 192.400,366.200 192.400 C 365.870 192.400,365.600 192.220,365.600 192.000 C 365.600 191.780,365.335 191.600,365.012 191.600 C 364.689 191.600,363.834 191.269,363.112 190.865 C 361.837 190.151,356.960 188.590,353.094 187.659 C 350.809 187.109,340.056 187.121,337.800 187.677 M48.200 217.594 C 45.074 217.873,43.823 218.119,42.200 218.773 C 41.760 218.950,40.140 219.497,38.600 219.989 C 36.039 220.806,30.478 223.416,30.000 224.026 C 29.890 224.166,29.386 224.498,28.881 224.765 C 25.634 226.475,18.855 234.021,17.262 237.697 C 16.904 238.524,16.474 239.200,16.306 239.200 C 16.138 239.200,16.000 239.472,16.000 239.805 C 16.000 240.138,15.820 240.768,15.600 241.205 C 15.380 241.642,15.020 242.358,14.800 242.795 C 14.580 243.232,14.400 243.941,14.400 244.371 C 14.400 244.801,14.220 245.264,14.000 245.400 C 13.780 245.536,13.600 246.256,13.600 247.000 C 13.600 247.744,13.420 248.464,13.200 248.600 C 12.661 248.933,12.661 263.467,13.200 263.800 C 13.420 263.936,13.600 264.656,13.600 265.400 C 13.600 266.144,13.780 266.864,14.000 267.000 C 14.220 267.136,14.400 267.676,14.400 268.200 C 14.400 268.724,14.580 269.264,14.800 269.400 C 15.020 269.536,15.200 270.087,15.200 270.624 C 15.200 271.161,15.380 271.600,15.600 271.600 C 15.820 271.600,16.000 271.960,16.000 272.400 C 16.000 272.840,16.180 273.200,16.400 273.200 C 16.620 273.200,16.800 273.560,16.800 274.000 C 16.800 274.440,16.959 274.800,17.153 274.800 C 17.348 274.800,17.607 275.115,17.729 275.500 C 17.946 276.185,19.204 278.404,19.600 278.800 C 19.710 278.910,20.520 279.900,21.400 281.000 C 23.485 283.606,25.853 285.969,27.600 287.186 C 28.370 287.723,29.090 288.260,29.200 288.381 C 29.310 288.501,29.805 288.825,30.300 289.100 C 30.795 289.375,31.605 289.825,32.100 290.100 C 32.595 290.375,33.090 290.690,33.200 290.800 C 33.747 291.347,36.971 292.800,37.638 292.800 C 38.057 292.800,38.400 292.960,38.400 293.156 C 38.400 293.352,38.985 293.604,39.700 293.716 C 40.415 293.827,42.080 294.209,43.400 294.564 C 45.233 295.057,48.589 295.265,57.600 295.443 C 72.915 295.746,73.776 296.009,74.896 300.723 L 75.389 302.800 80.495 302.800 L 85.600 302.800 85.600 301.624 C 85.600 300.977,85.780 300.336,86.000 300.200 C 86.220 300.064,86.400 299.692,86.400 299.373 C 86.400 298.374,88.468 296.419,89.965 296.003 C 90.860 295.754,102.921 295.604,122.028 295.602 L 152.657 295.600 154.445 293.887 C 155.429 292.944,156.856 291.734,157.617 291.197 C 158.378 290.661,159.349 289.902,159.775 289.511 C 160.202 289.120,160.787 288.800,161.075 288.800 C 161.364 288.800,161.601 288.665,161.603 288.500 C 161.605 288.335,162.010 288.002,162.503 287.760 C 162.996 287.517,164.120 286.949,165.000 286.496 C 167.663 285.126,170.357 284.000,170.972 284.000 C 171.291 284.000,171.664 283.820,171.800 283.600 C 171.936 283.380,172.631 283.200,173.344 283.200 C 174.057 283.200,174.811 283.037,175.020 282.839 C 176.040 281.869,188.905 281.486,192.800 282.309 C 194.010 282.565,195.587 282.891,196.305 283.033 C 197.023 283.176,197.708 283.451,197.829 283.646 C 197.949 283.841,198.399 284.000,198.829 284.000 C 199.259 284.000,199.923 284.159,200.305 284.354 C 200.991 284.704,205.354 286.888,207.097 287.754 C 207.590 287.999,207.995 288.335,207.997 288.500 C 208.007 289.485,209.139 288.491,209.942 286.793 C 210.461 285.697,211.046 284.800,211.242 284.800 C 211.439 284.800,211.600 284.599,211.600 284.354 C 211.600 283.004,220.039 273.812,224.000 270.848 C 224.770 270.271,225.638 269.575,225.929 269.300 C 226.219 269.025,226.669 268.757,226.929 268.704 C 227.188 268.652,208.198 268.517,184.729 268.404 C 142.218 268.201,142.054 268.197,140.929 267.363 C 138.483 265.550,137.892 264.123,138.211 260.800 C 139.384 248.602,135.623 240.454,126.754 235.977 C 116.598 230.850,107.285 232.702,98.442 241.606 C 96.069 243.996,93.165 245.325,92.271 244.431 C 92.034 244.194,91.578 244.000,91.258 244.000 C 89.994 244.000,88.112 241.954,86.434 238.753 C 83.423 233.012,79.155 227.672,75.600 225.197 C 74.830 224.660,73.851 223.902,73.425 223.511 C 72.998 223.120,72.486 222.800,72.286 222.800 C 72.087 222.800,71.446 222.470,70.862 222.067 C 66.262 218.893,56.104 216.888,48.200 217.594 M269.300 268.287 C 269.905 268.378,270.895 268.378,271.500 268.287 C 272.105 268.195,271.610 268.120,270.400 268.120 C 269.190 268.120,268.695 268.195,269.300 268.287 M259.500 269.082 C 259.995 269.178,260.805 269.178,261.300 269.082 C 261.795 268.987,261.390 268.909,260.400 268.909 C 259.410 268.909,259.005 268.987,259.500 269.082 M278.700 269.082 C 279.195 269.178,280.005 269.178,280.500 269.082 C 280.995 268.987,280.590 268.909,279.600 268.909 C 278.610 268.909,278.205 268.987,278.700 269.082 M228.181 284.100 L 226.600 285.800 228.300 284.219 C 229.235 283.349,230.000 282.584,230.000 282.519 C 230.000 282.216,229.652 282.519,228.181 284.100 M202.800 300.514 C 202.800 300.618,203.828 301.580,205.084 302.651 C 206.340 303.723,207.239 304.391,207.083 304.136 C 206.739 303.577,202.800 300.246,202.800 300.514 M324.006 312.833 C 324.009 313.365,324.189 314.070,324.406 314.400 C 324.682 314.822,324.723 314.585,324.542 313.600 C 324.225 311.875,323.998 311.549,324.006 312.833 M154.249 318.215 C 154.112 318.573,154.018 319.256,154.041 319.733 C 154.067 320.281,154.203 320.086,154.410 319.203 C 154.760 317.716,154.665 317.133,154.249 318.215 M153.724 325.000 C 153.726 326.320,153.801 326.812,153.890 326.093 C 153.979 325.374,153.977 324.294,153.886 323.693 C 153.795 323.092,153.722 323.680,153.724 325.000 M324.249 328.615 C 324.112 328.973,324.015 329.566,324.034 329.933 C 324.053 330.300,324.227 330.069,324.421 329.420 C 324.798 328.158,324.665 327.533,324.249 328.615 M102.975 346.100 L 101.800 347.400 103.100 346.225 C 104.312 345.130,104.584 344.800,104.275 344.800 C 104.206 344.800,103.621 345.385,102.975 346.100 M100.893 348.700 C 99.857 350.196,99.521 350.800,99.723 350.800 C 99.817 350.800,100.370 350.080,100.953 349.200 C 102.136 347.412,102.084 346.979,100.893 348.700 M97.720 359.600 C 97.720 360.810,97.795 361.305,97.887 360.700 C 97.978 360.095,97.978 359.105,97.887 358.500 C 97.795 357.895,97.720 358.390,97.720 359.600 M100.764 370.333 C 100.980 370.736,101.471 371.321,101.855 371.633 C 102.287 371.984,102.190 371.704,101.601 370.900 C 100.551 369.465,100.157 369.198,100.764 370.333 M103.371 373.511 C 104.015 374.215,104.621 374.712,104.718 374.615 C 104.911 374.422,104.253 373.734,102.998 372.815 C 102.559 372.494,102.727 372.807,103.371 373.511 M154.500 379.100 C 176.005 379.157,211.195 379.157,232.700 379.100 C 254.205 379.043,236.610 378.996,193.600 378.996 C 150.590 378.996,132.995 379.043,154.500 379.100 " stroke="none" fill="#a3cbfb" fill-rule="evenodd"></path><path id="path5" d="M339.478 186.572 C 337.541 186.868,335.831 187.242,335.678 187.403 C 335.525 187.564,336.120 187.573,337.000 187.424 C 340.345 186.854,350.169 186.713,352.220 187.205 C 353.331 187.471,354.591 187.614,355.020 187.522 C 358.666 186.740,344.174 185.854,339.478 186.572 M330.769 188.766 C 322.144 191.973,312.548 199.757,309.029 206.399 C 308.738 206.950,307.821 208.711,306.993 210.313 C 303.755 216.573,300.485 216.810,294.776 211.198 C 292.193 208.658,290.361 207.256,288.107 206.092 C 285.229 204.606,281.317 203.336,282.800 204.370 C 283.130 204.600,283.627 204.791,283.904 204.794 C 285.934 204.819,291.023 208.145,294.777 211.900 C 300.709 217.835,304.303 217.079,308.157 209.085 C 310.604 204.010,316.328 197.571,321.495 194.079 C 324.087 192.328,330.396 189.200,331.337 189.200 C 331.676 189.200,332.064 189.020,332.200 188.800 C 332.336 188.580,332.842 188.397,333.324 188.394 C 333.806 188.391,334.470 188.213,334.800 188.000 C 336.023 187.209,333.838 187.625,330.769 188.766 M356.000 187.754 C 356.000 187.839,356.945 188.206,358.100 188.569 C 359.255 188.933,360.560 189.381,361.000 189.565 C 363.241 190.500,365.971 191.878,367.400 192.797 C 371.622 195.509,374.027 195.732,376.828 193.672 C 378.868 192.171,378.449 191.949,376.314 193.400 C 374.174 194.854,371.553 194.778,369.049 193.190 C 364.587 190.360,356.000 186.783,356.000 187.754 M384.248 201.892 C 381.889 204.629,381.711 207.078,383.600 210.800 C 384.358 212.293,385.956 216.907,386.854 220.200 C 388.984 228.004,386.434 243.449,381.924 250.062 C 381.526 250.646,381.200 251.229,381.200 251.357 C 381.200 251.486,380.940 251.908,380.622 252.295 C 380.305 252.683,379.199 254.138,378.166 255.530 C 373.962 261.191,365.290 267.124,358.200 269.189 C 352.402 270.878,352.643 270.859,334.200 271.052 C 319.873 271.202,316.027 271.134,315.350 270.720 C 314.882 270.434,313.082 269.163,311.350 267.896 C 309.617 266.629,305.950 264.494,303.200 263.153 C 300.450 261.811,297.887 260.553,297.505 260.357 C 297.123 260.161,296.459 260.000,296.029 260.000 C 295.599 260.000,295.136 259.820,295.000 259.600 C 294.864 259.380,294.324 259.200,293.800 259.200 C 293.276 259.200,292.736 259.020,292.600 258.800 C 292.464 258.580,291.834 258.400,291.200 258.400 C 290.566 258.400,289.948 258.239,289.826 258.042 C 289.705 257.845,288.929 257.583,288.103 257.458 C 287.276 257.333,285.520 257.045,284.200 256.817 C 278.495 255.832,269.362 255.637,228.249 255.619 L 184.698 255.600 184.953 254.004 C 185.721 249.199,188.679 245.047,193.000 242.708 L 195.400 241.408 222.063 241.204 L 248.727 241.000 250.263 239.761 C 252.473 237.980,252.905 236.361,252.434 231.642 C 251.159 218.882,258.466 207.506,269.800 204.608 C 270.460 204.439,270.762 204.214,270.471 204.108 C 268.957 203.553,262.403 207.181,259.157 210.370 C 253.072 216.347,250.501 224.519,252.049 232.954 C 252.598 235.944,251.996 237.752,249.927 239.331 L 248.568 240.367 222.784 240.488 C 193.930 240.624,195.258 240.496,190.791 243.570 C 187.122 246.095,184.400 250.833,184.400 254.694 L 184.400 256.400 231.254 256.400 C 276.857 256.400,279.502 256.461,285.400 257.639 C 295.746 259.707,305.135 263.762,312.205 269.215 C 316.028 272.164,314.939 272.000,330.674 271.997 C 347.787 271.992,353.408 271.484,359.400 269.399 C 374.724 264.067,385.457 250.799,387.964 234.093 C 389.090 226.584,387.656 218.064,383.947 210.223 C 382.254 206.644,382.432 204.758,384.693 202.332 C 385.240 201.745,385.623 201.105,385.544 200.910 C 385.465 200.715,384.882 201.157,384.248 201.892 M272.000 203.573 C 271.450 203.734,273.520 203.865,276.600 203.865 C 279.680 203.865,281.750 203.734,281.200 203.573 C 280.650 203.412,278.580 203.280,276.600 203.280 C 274.620 203.280,272.550 203.412,272.000 203.573 M49.916 217.097 C 51.299 217.175,53.459 217.174,54.716 217.095 C 55.972 217.016,54.840 216.952,52.200 216.953 C 49.560 216.953,48.532 217.018,49.916 217.097 M42.600 217.796 C 14.580 224.914,2.787 255.500,18.925 279.200 C 21.406 282.843,27.231 288.320,30.806 290.370 C 36.847 293.834,41.855 295.494,47.158 295.789 L 50.200 295.958 47.400 295.563 C 44.069 295.093,39.825 294.055,37.800 293.215 C 30.534 290.203,24.349 285.641,20.471 280.432 C 19.885 279.645,19.292 278.910,19.154 278.800 C 17.917 277.814,14.328 269.557,13.242 265.200 C 12.126 260.718,12.088 251.737,13.168 247.600 C 15.327 239.336,18.152 234.227,23.582 228.768 C 28.788 223.535,35.409 220.038,43.600 218.195 C 47.517 217.314,47.654 217.261,46.000 217.276 C 45.230 217.283,43.700 217.517,42.600 217.796 M58.200 217.600 C 59.997 218.057,61.664 218.057,60.600 217.600 C 60.160 217.411,59.170 217.265,58.400 217.275 L 57.000 217.295 58.200 217.600 M63.800 218.848 C 73.945 222.191,81.604 228.869,86.537 238.674 C 90.093 245.740,93.739 246.227,99.527 240.411 C 102.336 237.589,103.650 236.605,106.400 235.265 C 109.900 233.559,110.306 232.983,107.014 234.394 C 104.274 235.569,102.071 237.204,98.685 240.579 L 95.655 243.600 93.365 243.600 C 90.369 243.600,89.026 242.584,87.221 238.951 C 82.289 229.026,73.780 221.401,64.488 218.582 C 61.635 217.716,61.051 217.942,63.800 218.848 M110.715 233.128 C 110.338 233.278,112.588 233.415,115.715 233.433 C 131.032 233.521,140.873 245.097,138.314 260.018 C 137.558 264.430,139.982 268.046,143.647 267.973 C 144.924 267.948,144.893 267.917,143.100 267.435 C 139.663 266.510,137.883 263.713,138.725 260.563 C 141.757 249.227,133.945 236.574,121.939 233.379 C 119.750 232.796,111.988 232.623,110.715 233.128 M268.300 267.893 C 269.235 267.977,270.765 267.977,271.700 267.893 C 272.635 267.809,271.870 267.740,270.000 267.740 C 268.130 267.740,267.365 267.809,268.300 267.893 M227.200 268.305 C 227.200 268.473,225.842 269.674,224.181 270.975 C 219.082 274.969,210.069 285.452,209.987 287.485 C 209.921 289.132,208.855 289.270,206.529 287.933 C 198.875 283.531,191.909 281.756,183.752 282.131 C 171.988 282.670,163.172 286.328,154.450 294.289 L 152.600 295.977 121.400 295.990 C 86.675 296.004,88.516 295.860,87.064 298.682 C 86.068 300.617,85.538 302.949,86.224 302.380 C 86.541 302.117,86.800 301.457,86.800 300.913 C 86.800 300.369,87.174 299.398,87.632 298.756 C 89.386 296.292,87.825 296.400,121.767 296.400 L 152.773 296.400 154.887 294.550 C 158.898 291.038,159.194 290.800,159.548 290.800 C 159.743 290.800,160.123 290.534,160.393 290.208 C 160.663 289.883,161.360 289.368,161.942 289.064 C 162.524 288.761,164.062 287.942,165.360 287.246 C 178.128 280.395,194.497 281.130,207.663 289.145 L 209.126 290.035 209.986 288.314 C 212.583 283.113,219.766 274.813,225.105 270.842 C 227.819 268.825,228.543 268.000,227.600 268.000 C 227.380 268.000,227.200 268.137,227.200 268.305 M260.400 268.400 C 259.001 268.848,260.973 268.859,263.800 268.418 L 265.800 268.107 263.600 268.093 C 262.390 268.086,260.950 268.224,260.400 268.400 M276.200 268.418 C 277.300 268.590,278.830 268.724,279.600 268.718 L 281.000 268.705 279.800 268.400 C 279.140 268.232,277.610 268.097,276.400 268.101 L 274.200 268.107 276.200 268.418 M252.600 269.981 C 234.515 275.040,223.423 284.749,216.562 301.524 C 214.722 306.022,210.316 306.387,206.000 302.396 C 202.948 299.574,197.051 295.973,195.551 296.015 C 195.248 296.024,196.440 296.729,198.200 297.581 C 199.960 298.434,202.660 300.186,204.200 301.476 C 208.598 305.157,209.348 305.600,211.182 305.600 C 214.531 305.600,216.151 304.060,218.196 298.933 C 219.000 296.916,220.185 294.435,220.829 293.419 C 221.473 292.403,222.000 291.413,222.000 291.219 C 222.000 291.025,222.135 290.807,222.300 290.733 C 222.465 290.660,223.394 289.555,224.365 288.279 C 228.302 283.102,235.177 277.753,242.200 274.405 C 247.338 271.955,249.753 271.085,254.400 270.007 C 255.610 269.726,257.050 269.354,257.600 269.180 L 258.600 268.863 257.600 268.862 C 257.050 268.862,254.800 269.365,252.600 269.981 M282.600 269.213 C 283.260 269.396,285.330 269.951,287.200 270.447 C 299.140 273.614,310.217 281.315,316.357 290.717 C 317.543 292.533,318.596 293.937,318.697 293.836 C 319.658 292.875,308.908 280.732,305.100 278.479 C 304.495 278.120,304.000 277.686,304.000 277.514 C 304.000 277.341,303.807 277.200,303.572 277.200 C 303.337 277.200,302.392 276.694,301.472 276.075 C 297.217 273.211,285.172 268.690,282.200 268.841 C 281.658 268.869,281.787 268.989,282.600 269.213 M180.800 294.240 C 174.508 294.983,167.010 298.725,162.100 303.572 C 158.493 307.132,154.886 313.209,154.247 316.800 C 153.959 318.420,154.232 317.910,155.637 314.200 C 160.900 300.303,177.971 291.495,192.170 295.349 C 193.474 295.703,194.625 295.909,194.728 295.806 C 194.830 295.703,194.664 295.550,194.357 295.466 C 194.051 295.382,193.170 295.113,192.400 294.868 C 190.895 294.390,183.101 293.968,180.800 294.240 M318.800 294.613 C 318.800 294.731,319.228 295.676,319.750 296.713 C 325.837 308.797,326.578 327.476,321.552 342.150 C 314.315 363.277,297.305 376.549,274.563 378.812 C 267.778 379.487,112.911 379.143,111.400 378.449 C 105.977 375.962,105.887 375.902,102.915 372.879 C 95.979 365.825,95.812 354.179,102.538 346.538 C 104.091 344.774,108.362 341.600,109.183 341.600 C 109.419 341.600,109.923 341.442,110.305 341.249 C 112.560 340.110,114.429 340.000,131.510 340.000 C 144.236 340.000,149.475 339.868,150.281 339.525 C 151.778 338.890,154.000 336.795,153.999 336.022 C 153.998 335.680,153.646 335.976,153.216 336.681 C 151.549 339.415,151.835 339.377,131.200 339.611 C 118.645 339.754,112.175 339.973,111.293 340.285 C 93.547 346.571,92.025 369.415,108.800 377.717 L 112.200 379.400 194.400 379.400 C 280.611 379.400,277.381 379.459,283.800 377.765 C 284.900 377.474,286.250 377.123,286.800 376.985 C 288.423 376.576,290.555 375.709,294.200 373.973 C 297.351 372.473,301.284 370.239,302.087 369.494 C 302.380 369.222,303.425 368.376,304.410 367.614 C 311.139 362.402,321.184 348.501,321.198 344.380 C 321.199 344.039,321.349 343.589,321.530 343.380 C 321.919 342.933,322.748 340.193,323.945 335.400 C 325.275 330.078,325.735 316.793,324.775 311.482 C 324.074 307.602,322.582 302.076,321.621 299.800 C 320.088 296.165,318.800 293.798,318.800 294.613 M60.400 296.387 C 72.369 296.637,73.283 296.949,74.181 301.095 C 74.335 301.808,74.601 302.477,74.772 302.583 C 75.826 303.234,74.041 298.841,72.713 297.513 L 71.200 296.000 60.700 296.087 L 50.200 296.173 60.400 296.387 M153.457 319.900 C 153.143 321.798,153.210 329.012,153.556 330.600 C 153.700 331.260,153.814 328.785,153.809 325.100 C 153.799 317.691,153.806 317.789,153.457 319.900 M154.109 333.600 C 154.109 334.590,154.187 334.995,154.282 334.500 C 154.378 334.005,154.378 333.195,154.282 332.700 C 154.187 332.205,154.109 332.610,154.109 333.600 " stroke="none" fill="#5577a6" fill-rule="evenodd"></path></g></svg>