<svg id="svg" version="1.1" xmlns="http://www.w3.org/2000/svg" xmlns:xlink="http://www.w3.org/1999/xlink" width="400" height="400" viewBox="0, 0, 400,400"><g id="svgg"><path id="path0" d="M225.600 25.223 C 222.643 25.633,219.032 26.267,216.600 26.803 C 215.500 27.046,214.013 27.344,213.296 27.466 C 212.579 27.588,211.894 27.849,211.773 28.044 C 211.652 28.240,211.023 28.400,210.376 28.400 C 209.729 28.400,209.200 28.580,209.200 28.800 C 209.200 29.020,208.660 29.200,208.000 29.200 C 207.340 29.200,206.800 29.380,206.800 29.600 C 206.800 29.820,206.260 30.000,205.600 30.000 C 204.940 30.000,204.400 30.180,204.400 30.400 C 204.400 30.620,203.860 30.800,203.200 30.800 C 202.540 30.800,202.000 30.980,202.000 31.200 C 202.000 31.420,201.651 31.600,201.224 31.600 C 200.797 31.600,200.336 31.780,200.200 32.000 C 200.064 32.220,199.513 32.400,198.976 32.400 C 198.439 32.400,198.000 32.580,198.000 32.800 C 198.000 33.020,197.640 33.200,197.200 33.200 C 196.760 33.200,196.400 33.380,196.400 33.600 C 196.400 33.820,196.040 34.000,195.600 34.000 C 195.160 34.000,194.800 34.180,194.800 34.400 C 194.800 34.620,194.440 34.800,194.000 34.800 C 193.560 34.800,193.200 34.980,193.200 35.200 C 193.200 35.420,192.930 35.600,192.600 35.600 C 192.270 35.600,192.000 35.780,192.000 36.000 C 192.000 36.220,191.640 36.400,191.200 36.400 C 190.760 36.400,190.400 36.580,190.400 36.800 C 190.400 37.020,190.040 37.200,189.600 37.200 C 189.160 37.200,188.800 37.380,188.800 37.600 C 188.800 37.820,188.440 38.000,188.000 38.000 C 187.560 38.000,187.200 38.180,187.200 38.400 C 187.200 38.620,186.880 38.800,186.488 38.800 C 186.097 38.800,185.517 39.160,185.200 39.600 C 184.883 40.040,184.303 40.400,183.912 40.400 C 183.520 40.400,183.200 40.559,183.200 40.754 C 183.200 40.949,182.615 41.412,181.900 41.784 C 179.608 42.973,178.822 43.456,178.071 44.136 C 177.667 44.501,177.216 44.800,177.069 44.800 C 176.922 44.800,176.059 45.520,175.152 46.400 C 174.245 47.280,173.334 48.000,173.126 48.000 C 172.918 48.000,171.905 48.860,170.874 49.911 C 169.843 50.962,168.370 52.260,167.600 52.795 C 166.043 53.878,163.838 56.100,160.456 60.000 C 159.215 61.430,157.885 62.891,157.500 63.247 C 157.115 63.603,156.800 64.071,156.800 64.288 C 156.800 64.504,156.260 65.246,155.600 65.937 C 154.940 66.628,154.400 67.392,154.400 67.636 C 154.400 67.880,153.860 68.583,153.200 69.200 C 152.540 69.817,152.000 70.569,152.000 70.872 C 152.000 71.175,151.640 71.683,151.200 72.000 C 150.760 72.317,150.400 72.814,150.400 73.105 C 150.400 73.396,150.040 74.020,149.600 74.492 C 149.160 74.964,148.576 75.856,148.303 76.475 C 148.029 77.094,147.690 77.600,147.549 77.600 C 147.408 77.600,147.190 77.915,147.064 78.300 C 146.057 81.370,143.557 83.317,142.271 82.031 C 141.711 81.471,130.545 81.442,130.200 82.000 C 130.064 82.220,128.433 82.400,126.576 82.400 C 124.592 82.400,123.200 82.565,123.200 82.800 C 123.200 83.020,122.300 83.200,121.200 83.200 C 120.100 83.200,119.200 83.380,119.200 83.600 C 119.200 83.820,118.480 84.000,117.600 84.000 C 116.720 84.000,116.000 84.180,116.000 84.400 C 116.000 84.620,115.280 84.800,114.400 84.800 C 113.520 84.800,112.800 84.980,112.800 85.200 C 112.800 85.420,112.361 85.600,111.824 85.600 C 111.287 85.600,110.736 85.780,110.600 86.000 C 110.464 86.220,109.913 86.400,109.376 86.400 C 108.839 86.400,108.400 86.580,108.400 86.800 C 108.400 87.020,108.040 87.200,107.600 87.200 C 107.160 87.200,106.800 87.380,106.800 87.600 C 106.800 87.820,106.344 88.000,105.787 88.000 C 104.660 88.000,102.000 90.379,102.000 91.387 C 102.000 91.724,101.820 92.000,101.600 92.000 C 101.380 92.000,101.200 92.990,101.200 94.200 C 101.200 95.873,101.341 96.400,101.790 96.400 C 102.115 96.400,102.929 97.003,103.599 97.739 C 105.697 100.044,107.205 100.214,111.624 98.645 C 116.615 96.873,116.341 96.963,118.400 96.414 C 123.498 95.054,124.233 94.926,130.000 94.384 C 134.446 93.966,143.916 94.194,146.600 94.784 C 147.480 94.977,149.280 95.346,150.600 95.603 C 151.920 95.860,153.313 96.235,153.695 96.435 C 154.077 96.636,154.806 96.800,155.315 96.800 C 155.824 96.800,156.411 96.943,156.620 97.118 C 156.829 97.293,157.720 97.665,158.600 97.945 C 163.034 99.353,173.493 104.845,175.689 106.917 C 175.970 107.183,176.879 107.908,177.710 108.528 C 183.077 112.537,190.232 120.846,194.155 127.624 C 195.768 130.413,198.800 136.871,198.800 137.520 C 198.800 139.325,201.907 140.690,206.800 141.035 C 210.310 141.282,214.947 142.240,217.500 143.246 C 217.995 143.441,218.805 143.757,219.300 143.949 C 225.303 146.280,237.200 155.102,237.200 157.224 C 237.200 157.399,237.434 157.781,237.719 158.071 C 238.586 158.955,240.635 162.120,241.232 163.500 C 241.542 164.215,241.931 164.800,242.098 164.800 C 242.264 164.800,242.400 165.036,242.400 165.325 C 242.400 165.614,242.760 166.595,243.200 167.506 C 243.640 168.416,244.000 169.352,244.000 169.586 C 244.000 170.023,244.218 170.525,245.311 172.600 C 247.768 177.268,255.216 175.477,255.190 170.224 C 255.172 166.584,252.417 159.941,248.488 154.067 C 245.261 149.242,240.860 144.379,237.355 141.764 C 236.500 141.126,235.710 140.502,235.600 140.376 C 232.618 136.966,219.815 131.740,211.104 130.376 C 207.604 129.828,207.610 129.834,205.820 126.098 C 198.181 110.159,183.415 96.332,166.200 89.000 C 163.333 87.779,163.031 87.663,160.400 86.775 C 158.970 86.292,157.735 85.841,157.656 85.772 C 157.424 85.568,158.567 83.200,158.898 83.200 C 159.064 83.200,159.200 83.013,159.200 82.785 C 159.200 82.407,163.324 76.055,164.602 74.465 C 172.633 64.472,179.335 58.284,189.058 51.888 C 192.538 49.598,201.274 44.924,203.800 44.000 C 204.820 43.626,206.324 43.025,207.600 42.480 C 208.545 42.076,212.363 40.810,215.000 40.026 C 228.352 36.055,247.106 35.572,261.600 38.827 C 266.231 39.866,271.553 41.434,274.000 42.480 C 274.550 42.715,275.360 43.045,275.800 43.213 C 293.679 50.045,312.030 65.236,321.420 80.978 C 322.069 82.065,323.092 83.775,323.693 84.778 C 329.752 94.885,334.226 108.743,335.582 121.600 C 336.251 127.951,336.265 127.995,338.047 129.691 C 339.311 130.893,339.943 131.200,341.152 131.200 C 342.911 131.200,349.506 132.195,351.700 132.792 C 352.525 133.016,353.788 133.352,354.506 133.537 C 357.195 134.230,362.550 136.837,366.075 139.170 C 400.399 161.884,391.850 215.092,352.200 225.528 C 351.320 225.760,349.790 226.138,348.800 226.368 C 345.166 227.212,334.789 227.600,315.854 227.600 L 296.457 227.600 295.029 228.947 C 294.228 229.702,293.488 230.858,293.344 231.581 C 293.202 232.289,292.842 232.963,292.543 233.077 C 291.119 233.624,293.009 237.536,295.284 238.750 C 296.841 239.581,297.281 239.600,315.438 239.600 C 325.647 239.600,333.995 239.735,333.988 239.900 C 333.981 240.065,333.423 240.650,332.747 241.200 C 332.071 241.750,330.052 243.698,328.259 245.529 C 326.467 247.359,322.570 251.269,319.600 254.218 C 316.630 257.166,313.141 260.640,311.848 261.937 C 310.554 263.234,306.885 266.905,303.695 270.095 C 300.505 273.285,296.636 277.156,295.098 278.698 C 290.481 283.327,281.686 292.118,278.739 295.051 C 277.220 296.563,273.192 300.640,269.789 304.111 L 263.600 310.422 263.600 313.016 C 263.600 314.443,263.825 316.003,264.100 316.483 C 264.892 317.865,266.308 319.200,266.982 319.200 C 267.322 319.200,267.600 319.380,267.600 319.600 C 267.600 319.822,268.667 320.000,270.000 320.000 C 271.333 320.000,272.400 319.822,272.400 319.600 C 272.400 319.380,272.760 319.200,273.200 319.200 C 273.640 319.200,274.000 319.020,274.000 318.800 C 274.000 318.580,274.187 318.400,274.415 318.400 C 274.643 318.400,293.098 300.130,315.427 277.800 C 347.381 245.844,356.234 237.200,357.012 237.200 C 357.555 237.200,358.000 237.020,358.000 236.800 C 358.000 236.580,358.540 236.400,359.200 236.400 C 359.860 236.400,360.400 236.220,360.400 236.000 C 360.400 235.780,360.760 235.600,361.200 235.600 C 361.640 235.600,362.000 235.420,362.000 235.200 C 362.000 234.980,362.540 234.800,363.200 234.800 C 363.860 234.800,364.400 234.620,364.400 234.400 C 364.400 234.180,364.760 234.000,365.200 234.000 C 365.640 234.000,366.000 233.820,366.000 233.600 C 366.000 233.380,366.360 233.200,366.800 233.200 C 367.240 233.200,367.600 233.020,367.600 232.800 C 367.600 232.580,367.960 232.400,368.400 232.400 C 368.840 232.400,369.200 232.220,369.200 232.000 C 369.200 231.780,369.436 231.600,369.725 231.600 C 370.013 231.600,370.636 231.240,371.108 230.800 C 371.580 230.360,372.204 230.000,372.495 230.000 C 372.786 230.000,373.283 229.640,373.600 229.200 C 373.917 228.760,374.319 228.400,374.492 228.400 C 374.665 228.400,375.372 227.860,376.063 227.200 C 376.754 226.540,377.480 226.000,377.676 226.000 C 378.382 226.000,387.200 217.444,387.200 216.759 C 387.200 216.542,387.650 215.914,388.200 215.364 C 388.750 214.814,389.200 214.205,389.200 214.010 C 389.200 213.816,389.447 213.410,389.748 213.109 C 390.505 212.353,391.600 210.170,391.600 209.420 C 391.600 209.079,391.752 208.800,391.937 208.800 C 392.123 208.800,392.708 207.945,393.237 206.900 C 393.767 205.855,394.335 204.940,394.500 204.867 C 394.665 204.793,394.800 204.298,394.800 203.767 C 394.800 203.235,394.980 202.800,395.200 202.800 C 395.420 202.800,395.600 202.440,395.600 202.000 C 395.600 201.560,395.780 201.200,396.000 201.200 C 396.220 201.200,396.400 200.660,396.400 200.000 C 396.400 199.340,396.580 198.800,396.800 198.800 C 397.020 198.800,397.200 198.260,397.200 197.600 C 397.200 196.940,397.380 196.400,397.600 196.400 C 397.820 196.400,398.000 195.680,398.000 194.800 C 398.000 193.920,398.180 193.200,398.400 193.200 C 398.620 193.200,398.800 192.300,398.800 191.200 C 398.800 190.100,398.980 189.200,399.200 189.200 C 399.456 189.200,399.600 185.600,399.600 179.200 C 399.600 172.800,399.456 169.200,399.200 169.200 C 398.980 169.200,398.800 168.300,398.800 167.200 C 398.800 166.100,398.620 165.200,398.400 165.200 C 398.180 165.200,398.000 164.480,398.000 163.600 C 398.000 162.720,397.820 162.000,397.600 162.000 C 397.380 162.000,397.200 161.460,397.200 160.800 C 397.200 160.140,397.020 159.600,396.800 159.600 C 396.580 159.600,396.400 159.150,396.400 158.600 C 396.400 158.050,396.220 157.600,396.000 157.600 C 395.780 157.600,395.600 157.060,395.600 156.400 C 395.600 155.740,395.420 155.200,395.200 155.200 C 394.980 155.200,394.800 154.840,394.800 154.400 C 394.800 153.960,394.620 153.600,394.400 153.600 C 394.180 153.600,394.000 153.240,394.000 152.800 C 394.000 152.360,393.820 152.000,393.600 152.000 C 393.380 152.000,393.200 151.640,393.200 151.200 C 393.200 150.760,393.020 150.400,392.800 150.400 C 392.580 150.400,392.400 150.040,392.400 149.600 C 392.400 149.160,392.238 148.800,392.039 148.800 C 391.841 148.800,391.504 148.305,391.291 147.700 C 390.394 145.157,377.810 131.200,376.414 131.200 C 376.206 131.200,375.586 130.750,375.036 130.200 C 374.486 129.650,373.870 129.200,373.667 129.200 C 373.464 129.200,373.071 128.927,372.794 128.593 C 372.517 128.259,371.640 127.684,370.845 127.316 C 370.050 126.948,368.729 126.231,367.908 125.723 C 367.087 125.215,365.962 124.800,365.408 124.800 C 364.854 124.800,364.400 124.620,364.400 124.400 C 364.400 124.180,364.040 124.000,363.600 124.000 C 363.160 124.000,362.800 123.820,362.800 123.600 C 362.800 123.380,362.440 123.200,362.000 123.200 C 361.560 123.200,361.200 123.020,361.200 122.800 C 361.200 122.580,360.660 122.400,360.000 122.400 C 359.340 122.400,358.800 122.220,358.800 122.000 C 358.800 121.780,358.170 121.600,357.400 121.600 C 356.630 121.600,356.000 121.420,356.000 121.200 C 356.000 120.980,355.280 120.800,354.400 120.800 C 353.520 120.800,352.800 120.620,352.800 120.400 C 352.800 120.178,351.733 120.000,350.400 120.000 C 348.267 120.000,348.000 119.911,348.000 119.200 C 348.000 118.760,347.820 118.400,347.600 118.400 C 347.375 118.400,347.200 117.275,347.200 115.824 C 347.200 114.407,347.020 113.136,346.800 113.000 C 346.580 112.864,346.400 111.953,346.400 110.976 C 346.400 109.999,346.220 109.200,346.000 109.200 C 345.780 109.200,345.600 108.491,345.600 107.624 C 345.600 106.757,345.420 105.936,345.200 105.800 C 344.980 105.664,344.800 104.933,344.800 104.176 C 344.800 103.419,344.620 102.800,344.400 102.800 C 344.180 102.800,344.000 102.080,344.000 101.200 C 344.000 100.320,343.820 99.600,343.600 99.600 C 343.380 99.600,343.200 99.060,343.200 98.400 C 343.200 97.740,343.020 97.200,342.800 97.200 C 342.580 97.200,342.400 96.761,342.400 96.224 C 342.400 95.687,342.236 95.146,342.035 95.022 C 341.834 94.897,341.548 94.078,341.400 93.200 C 341.252 92.322,340.966 91.503,340.765 91.378 C 340.564 91.254,340.400 90.803,340.400 90.376 C 340.400 89.949,340.220 89.600,340.000 89.600 C 339.780 89.600,339.600 89.321,339.600 88.981 C 339.600 88.640,339.240 87.616,338.800 86.706 C 338.360 85.795,338.000 84.814,338.000 84.525 C 338.000 84.236,337.820 84.000,337.600 84.000 C 337.380 84.000,337.200 83.655,337.200 83.233 C 337.200 82.812,337.065 82.407,336.900 82.333 C 336.524 82.166,335.225 80.036,334.929 79.100 C 334.807 78.715,334.548 78.400,334.353 78.400 C 334.159 78.400,334.000 78.040,334.000 77.600 C 334.000 77.160,333.820 76.800,333.600 76.800 C 333.380 76.800,333.200 76.570,333.200 76.288 C 333.200 76.007,332.840 75.517,332.400 75.200 C 331.960 74.883,331.600 74.303,331.600 73.912 C 331.600 73.520,331.450 73.200,331.268 73.200 C 331.085 73.200,330.681 72.705,330.370 72.100 C 330.060 71.495,329.489 70.709,329.103 70.353 C 328.716 69.997,328.400 69.501,328.400 69.249 C 328.400 68.998,327.860 68.228,327.200 67.537 C 326.540 66.846,326.000 66.115,326.000 65.912 C 326.000 65.709,325.775 65.317,325.500 65.042 C 325.225 64.766,324.550 63.932,324.000 63.188 C 322.743 61.488,310.889 49.600,310.451 49.600 C 310.273 49.600,309.393 48.880,308.495 48.000 C 307.597 47.120,306.757 46.400,306.628 46.400 C 306.498 46.400,305.828 45.860,305.137 45.200 C 304.446 44.540,303.638 44.000,303.341 44.000 C 303.043 44.000,302.800 43.833,302.800 43.629 C 302.800 43.425,302.080 42.940,301.200 42.552 C 300.320 42.164,299.600 41.701,299.600 41.523 C 299.600 41.345,299.280 41.200,298.888 41.200 C 298.497 41.200,297.917 40.840,297.600 40.400 C 297.283 39.960,296.703 39.600,296.312 39.600 C 295.920 39.600,295.600 39.420,295.600 39.200 C 295.600 38.980,295.280 38.800,294.888 38.800 C 294.497 38.800,293.917 38.440,293.600 38.000 C 293.283 37.560,292.718 37.200,292.345 37.200 C 291.972 37.200,291.607 37.063,291.533 36.896 C 291.322 36.414,284.675 33.193,283.900 33.197 C 283.515 33.199,283.200 33.020,283.200 32.800 C 283.200 32.580,282.840 32.400,282.400 32.400 C 281.960 32.400,281.600 32.220,281.600 32.000 C 281.600 31.780,281.060 31.600,280.400 31.600 C 279.740 31.600,279.200 31.453,279.200 31.272 C 279.200 31.092,278.300 30.700,277.200 30.400 C 276.100 30.100,275.200 29.708,275.200 29.528 C 275.200 29.347,274.671 29.200,274.024 29.200 C 273.377 29.200,272.736 29.020,272.600 28.800 C 272.464 28.580,271.834 28.400,271.200 28.400 C 270.566 28.400,269.936 28.220,269.800 28.000 C 269.664 27.780,268.933 27.600,268.176 27.600 C 267.419 27.600,266.800 27.438,266.800 27.240 C 266.800 27.042,266.035 26.784,265.100 26.667 C 264.165 26.549,262.320 26.253,261.000 26.008 C 259.680 25.763,257.340 25.400,255.800 25.199 C 252.473 24.767,228.756 24.785,225.600 25.223 M238.122 50.782 C 235.388 52.449,234.493 55.633,236.004 58.321 C 237.381 60.772,239.697 61.594,245.233 61.598 C 249.074 61.600,254.301 62.387,259.000 63.670 C 270.476 66.804,280.553 72.443,289.000 80.459 C 293.017 84.271,293.513 84.572,295.772 84.567 C 298.838 84.560,301.600 82.047,301.600 79.265 C 301.600 74.533,286.546 62.472,273.800 56.993 C 272.920 56.615,271.660 56.070,271.000 55.782 C 269.931 55.316,265.487 53.830,262.200 52.838 C 261.101 52.506,258.878 52.013,255.800 51.419 C 248.150 49.941,239.984 49.647,238.122 50.782 M308.428 96.701 C 305.301 98.295,304.601 101.345,306.341 105.800 C 307.805 109.550,307.865 109.716,308.291 111.200 C 309.514 115.468,309.818 116.301,310.534 117.345 C 312.686 120.484,317.937 120.111,319.781 116.688 C 320.975 114.471,320.295 110.936,316.895 101.676 C 315.091 96.763,311.939 94.911,308.428 96.701 M84.000 102.400 C 84.000 102.620,83.766 102.800,83.480 102.800 C 82.399 102.800,80.947 103.810,79.400 105.639 C 78.520 106.680,76.945 108.467,75.900 109.611 C 74.855 110.755,74.000 111.868,74.000 112.085 C 74.000 112.302,73.460 112.983,72.800 113.600 C 72.140 114.217,71.600 114.969,71.600 115.272 C 71.600 115.575,71.240 116.083,70.800 116.400 C 70.360 116.717,70.000 117.257,70.000 117.600 C 70.000 117.943,69.640 118.483,69.200 118.800 C 68.760 119.117,68.400 119.697,68.400 120.088 C 68.400 120.480,68.220 120.800,68.000 120.800 C 67.780 120.800,67.600 121.160,67.600 121.600 C 67.600 122.040,67.420 122.400,67.200 122.400 C 66.980 122.400,66.800 122.760,66.800 123.200 C 66.800 123.640,66.654 124.000,66.475 124.000 C 66.296 124.000,65.902 124.630,65.600 125.400 C 65.298 126.170,64.904 126.800,64.725 126.800 C 64.546 126.800,64.400 127.160,64.400 127.600 C 64.400 128.040,64.220 128.400,64.000 128.400 C 63.780 128.400,63.600 128.749,63.600 129.176 C 63.600 129.603,63.420 130.064,63.200 130.200 C 62.980 130.336,62.800 130.887,62.800 131.424 C 62.800 131.961,62.620 132.400,62.400 132.400 C 62.180 132.400,62.000 132.839,62.000 133.376 C 62.000 133.913,61.820 134.464,61.600 134.600 C 61.380 134.736,61.200 135.377,61.200 136.024 C 61.200 136.671,61.020 137.200,60.800 137.200 C 60.580 137.200,60.400 137.729,60.400 138.376 C 60.400 139.023,60.220 139.664,60.000 139.800 C 59.780 139.936,59.600 140.588,59.600 141.250 C 59.600 141.911,59.426 142.777,59.214 143.174 C 59.001 143.571,58.705 145.360,58.556 147.148 L 58.285 150.400 56.342 150.400 C 55.274 150.400,54.400 150.580,54.400 150.800 C 54.400 151.020,53.860 151.200,53.200 151.200 C 52.540 151.200,52.000 151.380,52.000 151.600 C 52.000 151.820,51.460 152.000,50.800 152.000 C 50.140 152.000,49.600 152.180,49.600 152.400 C 49.600 152.620,49.060 152.800,48.400 152.800 C 47.740 152.800,47.200 152.980,47.200 153.200 C 47.200 153.420,46.840 153.600,46.400 153.600 C 45.960 153.600,45.600 153.780,45.600 154.000 C 45.600 154.220,45.240 154.400,44.800 154.400 C 44.360 154.400,44.000 154.536,44.000 154.702 C 44.000 154.869,43.415 155.260,42.700 155.572 C 41.985 155.884,41.109 156.468,40.753 156.870 C 40.397 157.271,39.889 157.600,39.625 157.600 C 39.360 157.600,38.897 157.825,38.596 158.100 C 38.296 158.375,37.372 159.140,36.544 159.800 C 33.643 162.112,28.400 167.827,28.400 168.678 C 28.400 168.965,28.257 169.200,28.081 169.200 C 27.906 169.200,27.081 170.595,26.249 172.300 C 25.416 174.005,24.569 175.713,24.367 176.095 C 24.165 176.477,24.000 177.062,24.000 177.395 C 24.000 177.728,23.820 178.000,23.600 178.000 C 23.380 178.000,23.200 178.439,23.200 178.976 C 23.200 179.513,23.020 180.064,22.800 180.200 C 22.580 180.336,22.400 181.067,22.400 181.824 C 22.400 182.581,22.220 183.200,22.000 183.200 C 21.780 183.200,21.600 184.100,21.600 185.200 C 21.600 186.300,21.420 187.200,21.200 187.200 C 20.658 187.200,20.658 201.465,21.200 201.800 C 21.420 201.936,21.600 202.836,21.600 203.800 C 21.600 204.764,21.780 205.664,22.000 205.800 C 22.220 205.936,22.400 206.577,22.400 207.224 C 22.400 207.871,22.580 208.400,22.800 208.400 C 23.020 208.400,23.200 208.850,23.200 209.400 C 23.200 209.950,23.380 210.400,23.600 210.400 C 23.820 210.400,24.000 210.940,24.000 211.600 C 24.000 212.260,24.180 212.800,24.400 212.800 C 24.620 212.800,24.800 213.076,24.800 213.413 C 24.800 214.027,26.686 218.023,27.153 218.400 C 27.290 218.510,27.656 219.095,27.968 219.700 C 28.280 220.305,28.685 220.800,28.868 220.800 C 29.050 220.800,29.200 220.982,29.200 221.203 C 29.200 221.603,30.910 223.709,31.925 224.560 C 32.214 224.802,33.786 226.305,35.419 227.900 C 37.051 229.495,38.620 230.800,38.905 230.800 C 39.190 230.800,39.683 231.160,40.000 231.600 C 40.317 232.040,40.814 232.400,41.105 232.400 C 41.396 232.400,41.994 232.736,42.434 233.146 C 42.875 233.557,44.082 234.296,45.118 234.790 C 46.153 235.284,47.313 235.848,47.695 236.044 C 48.077 236.240,48.662 236.400,48.995 236.400 C 49.328 236.400,49.600 236.580,49.600 236.800 C 49.600 237.020,50.140 237.200,50.800 237.200 C 51.460 237.200,52.000 237.380,52.000 237.600 C 52.000 237.820,52.720 238.000,53.600 238.000 C 54.480 238.000,55.200 238.163,55.200 238.363 C 55.200 238.798,58.261 239.171,64.100 239.447 C 66.465 239.558,68.398 239.774,68.395 239.925 C 68.392 240.076,53.002 255.572,34.195 274.361 L 0.000 308.522 -0.000 313.000 C -0.000 317.712,0.515 319.200,2.147 319.200 C 2.506 319.200,2.800 319.380,2.800 319.600 C 2.800 320.173,6.648 320.095,7.674 319.500 C 8.465 319.042,15.188 312.609,22.098 305.698 C 23.638 304.158,27.508 300.288,30.698 297.098 C 37.932 289.864,39.864 287.932,47.098 280.698 C 55.460 272.336,64.078 263.719,72.098 255.698 C 73.638 254.158,77.481 250.311,80.637 247.149 C 83.794 243.987,86.825 240.995,87.374 240.500 C 88.321 239.645,112.800 238.981,112.800 239.810 C 112.800 239.925,103.710 249.110,92.600 260.222 C 81.490 271.333,72.400 280.599,72.400 280.812 C 72.400 281.025,72.220 281.200,72.000 281.200 C 71.780 281.200,71.600 281.470,71.600 281.800 C 71.600 282.130,71.420 282.400,71.200 282.400 C 70.980 282.400,70.800 282.760,70.800 283.200 C 70.800 283.640,70.620 284.000,70.400 284.000 C 70.180 284.000,70.000 284.540,70.000 285.200 C 70.000 285.860,69.820 286.400,69.600 286.400 C 69.365 286.400,69.200 287.800,69.200 289.800 C 69.200 291.800,69.365 293.200,69.600 293.200 C 69.820 293.200,70.000 293.740,70.000 294.400 C 70.000 295.060,70.180 295.600,70.400 295.600 C 70.620 295.600,70.800 295.960,70.800 296.400 C 70.800 296.840,70.950 297.200,71.132 297.200 C 71.315 297.200,71.720 297.695,72.032 298.300 C 72.758 299.706,73.416 300.400,74.025 300.400 C 74.289 300.400,74.799 300.715,75.157 301.100 C 76.059 302.069,77.440 302.800,78.371 302.800 C 78.801 302.800,79.264 302.980,79.400 303.200 C 79.557 303.454,84.604 303.600,93.224 303.600 C 100.691 303.600,106.800 303.709,106.800 303.842 C 106.800 303.975,104.795 306.000,102.345 308.342 C 99.895 310.684,96.790 313.762,95.445 315.182 C 94.100 316.602,90.242 320.472,86.871 323.782 C 83.500 327.092,79.630 330.954,78.271 332.364 C 74.741 336.026,68.167 342.587,65.166 345.442 C 60.729 349.663,56.000 354.810,56.000 355.417 C 56.000 355.738,55.820 356.000,55.600 356.000 C 55.380 356.000,55.200 356.360,55.200 356.800 C 55.200 357.240,55.020 357.600,54.800 357.600 C 54.580 357.600,54.400 357.960,54.400 358.400 C 54.400 358.840,54.220 359.200,54.000 359.200 C 53.759 359.200,53.600 360.867,53.600 363.400 C 53.600 365.933,53.759 367.600,54.000 367.600 C 54.220 367.600,54.400 367.960,54.400 368.400 C 54.400 368.840,54.580 369.200,54.800 369.200 C 55.020 369.200,55.200 369.560,55.200 370.000 C 55.200 370.440,55.380 370.800,55.600 370.800 C 55.820 370.800,56.000 371.070,56.000 371.400 C 56.000 371.730,56.180 372.000,56.400 372.000 C 56.620 372.000,56.804 372.225,56.809 372.500 C 56.819 373.125,59.705 375.200,60.564 375.200 C 60.914 375.200,61.200 375.380,61.200 375.600 C 61.200 375.820,61.650 376.000,62.200 376.000 C 62.750 376.000,63.200 376.180,63.200 376.400 C 63.200 376.639,64.733 376.800,67.000 376.800 C 69.267 376.800,70.800 376.639,70.800 376.400 C 70.800 376.180,71.100 376.000,71.466 376.000 C 72.364 376.000,75.200 374.727,75.200 374.323 C 75.200 374.145,75.436 374.000,75.725 374.000 C 76.013 374.000,76.636 373.640,77.108 373.200 C 77.580 372.760,78.204 372.400,78.495 372.400 C 78.786 372.400,79.283 372.040,79.600 371.600 C 79.917 371.160,80.457 370.800,80.800 370.800 C 81.143 370.800,81.683 370.440,82.000 370.000 C 82.317 369.560,82.857 369.200,83.200 369.200 C 83.543 369.200,84.083 368.840,84.400 368.400 C 84.717 367.960,85.231 367.600,85.541 367.600 C 85.852 367.600,86.397 367.284,86.753 366.897 C 87.109 366.511,87.895 365.940,88.500 365.630 C 89.105 365.319,89.600 364.915,89.600 364.732 C 89.600 364.550,89.830 364.400,90.112 364.400 C 90.393 364.400,90.883 364.040,91.200 363.600 C 91.517 363.160,92.057 362.800,92.400 362.800 C 92.743 362.800,93.283 362.440,93.600 362.000 C 93.917 361.560,94.457 361.200,94.800 361.200 C 95.143 361.200,95.683 360.840,96.000 360.400 C 96.317 359.960,96.820 359.600,97.117 359.600 C 97.414 359.600,97.899 359.375,98.195 359.100 C 98.491 358.825,99.657 358.060,100.786 357.400 C 101.914 356.740,103.324 355.795,103.919 355.300 C 104.514 354.806,105.225 354.401,105.500 354.400 C 105.775 354.400,106.000 354.220,106.000 354.000 C 106.000 353.780,106.270 353.600,106.600 353.600 C 106.930 353.600,107.200 353.450,107.200 353.268 C 107.200 353.085,107.695 352.681,108.300 352.370 C 108.905 352.060,109.691 351.489,110.047 351.103 C 110.403 350.716,110.948 350.400,111.259 350.400 C 111.569 350.400,112.083 350.040,112.400 349.600 C 112.717 349.160,113.257 348.800,113.600 348.800 C 113.943 348.800,114.483 348.440,114.800 348.000 C 115.117 347.560,115.657 347.200,116.000 347.200 C 116.343 347.200,116.883 346.840,117.200 346.400 C 117.517 345.960,117.973 345.600,118.213 345.600 C 118.453 345.600,118.998 345.285,119.425 344.900 C 119.851 344.515,120.695 343.945,121.300 343.632 C 121.905 343.320,122.400 342.915,122.400 342.732 C 122.400 342.550,122.670 342.400,123.000 342.400 C 123.330 342.400,123.602 342.265,123.605 342.100 C 123.607 341.935,124.327 341.456,125.205 341.036 C 126.082 340.615,126.800 340.142,126.800 339.984 C 126.800 339.826,127.340 339.473,128.000 339.200 C 128.660 338.927,129.200 338.567,129.200 338.400 C 129.200 338.233,129.740 337.873,130.400 337.600 C 131.060 337.327,131.600 336.957,131.600 336.778 C 131.600 336.600,131.938 336.347,132.351 336.216 C 132.764 336.084,133.619 335.533,134.251 334.989 C 134.883 334.446,135.625 334.001,135.900 334.000 C 136.175 334.000,136.400 333.850,136.400 333.668 C 136.400 333.485,136.895 333.080,137.500 332.768 C 138.105 332.456,138.690 332.099,138.800 331.974 C 138.910 331.849,139.900 331.141,141.000 330.400 C 142.100 329.659,143.090 328.951,143.200 328.826 C 143.310 328.701,143.895 328.344,144.500 328.032 C 145.105 327.720,145.600 327.315,145.600 327.132 C 145.600 326.950,145.825 326.800,146.100 326.800 C 146.375 326.799,147.123 326.349,147.762 325.800 C 148.401 325.250,149.132 324.800,149.387 324.800 C 149.641 324.800,150.198 324.485,150.625 324.100 C 151.051 323.715,151.895 323.145,152.500 322.832 C 153.105 322.520,153.600 322.115,153.600 321.932 C 153.600 321.750,153.836 321.600,154.125 321.600 C 154.413 321.600,154.998 321.285,155.425 320.900 C 155.851 320.515,156.695 319.945,157.300 319.632 C 157.905 319.320,158.400 318.915,158.400 318.732 C 158.400 318.550,158.630 318.400,158.912 318.400 C 159.193 318.400,159.683 318.040,160.000 317.600 C 160.317 317.160,160.857 316.800,161.200 316.800 C 161.543 316.800,162.083 316.440,162.400 316.000 C 162.717 315.560,163.257 315.200,163.600 315.200 C 163.943 315.200,164.483 314.840,164.800 314.400 C 165.117 313.960,165.657 313.600,166.000 313.600 C 166.343 313.600,166.883 313.240,167.200 312.800 C 167.517 312.360,168.057 312.000,168.400 312.000 C 168.743 312.000,169.283 311.640,169.600 311.200 C 169.917 310.760,170.431 310.400,170.741 310.400 C 171.052 310.400,171.597 310.085,171.953 309.700 C 172.309 309.315,173.267 308.661,174.081 308.247 C 174.896 307.833,175.924 307.158,176.365 306.747 C 176.806 306.336,177.404 306.000,177.695 306.000 C 177.986 306.000,178.483 305.640,178.800 305.200 C 179.117 304.760,179.657 304.400,180.000 304.400 C 180.343 304.400,180.883 304.040,181.200 303.600 C 181.517 303.160,182.057 302.800,182.400 302.800 C 182.743 302.800,183.283 302.440,183.600 302.000 C 183.917 301.560,184.431 301.200,184.741 301.200 C 185.052 301.200,185.597 300.884,185.953 300.497 C 186.309 300.111,187.095 299.540,187.700 299.230 C 188.305 298.919,188.800 298.515,188.800 298.332 C 188.800 298.150,189.070 298.000,189.400 298.000 C 189.730 298.000,190.000 297.820,190.000 297.600 C 190.000 297.380,190.270 297.200,190.600 297.200 C 190.930 297.200,191.200 297.020,191.200 296.800 C 191.200 296.580,191.430 296.400,191.712 296.400 C 191.993 296.400,192.483 296.040,192.800 295.600 C 193.117 295.160,193.657 294.800,194.000 294.800 C 194.343 294.800,194.883 294.440,195.200 294.000 C 195.517 293.560,196.057 293.200,196.400 293.200 C 196.743 293.200,197.283 292.840,197.600 292.400 C 197.917 291.960,198.459 291.600,198.804 291.600 C 199.790 291.600,203.322 287.985,204.275 286.000 C 205.651 283.131,206.568 277.200,205.636 277.200 C 205.396 277.200,205.200 276.772,205.200 276.249 C 205.200 273.903,200.420 267.600,198.642 267.600 C 198.289 267.600,198.000 267.420,198.000 267.200 C 198.000 266.980,197.460 266.800,196.800 266.800 C 196.140 266.800,195.600 266.622,195.600 266.405 C 195.600 266.153,190.128 265.971,180.562 265.905 L 165.524 265.800 178.625 252.700 L 191.726 239.600 210.863 239.600 C 221.388 239.600,230.000 239.679,230.000 239.775 C 230.000 239.871,225.950 244.012,221.000 248.978 C 216.050 253.944,212.000 258.275,212.000 258.603 C 212.000 258.932,211.820 259.200,211.600 259.200 C 210.084 259.200,212.062 266.272,213.700 266.707 C 214.085 266.810,214.400 267.052,214.400 267.247 C 214.400 267.441,214.760 267.600,215.200 267.600 C 215.640 267.600,216.000 267.780,216.000 268.000 C 216.000 268.220,216.900 268.400,218.000 268.400 C 219.100 268.400,220.000 268.220,220.000 268.000 C 220.000 267.780,220.390 267.600,220.868 267.600 C 221.441 267.600,223.250 266.076,226.207 263.100 C 228.667 260.625,232.551 256.776,234.840 254.546 C 241.402 248.152,248.800 240.446,248.800 240.004 C 248.800 239.740,253.325 239.600,261.816 239.600 C 275.894 239.600,277.727 239.329,278.292 237.169 C 278.403 236.746,278.652 236.400,278.847 236.400 C 279.041 236.400,279.200 236.128,279.200 235.795 C 279.200 235.462,279.425 234.822,279.700 234.372 C 280.122 233.683,280.091 233.494,279.500 233.158 C 279.115 232.939,278.800 232.527,278.800 232.242 C 278.800 231.237,277.538 229.211,276.414 228.410 C 275.311 227.625,274.711 227.600,256.626 227.600 C 241.180 227.600,237.939 227.506,237.764 227.051 C 237.638 226.721,239.053 225.001,241.301 222.751 C 248.389 215.656,252.128 209.360,255.540 198.772 C 257.051 194.082,254.928 190.000,250.978 190.000 C 247.997 190.000,246.120 191.542,245.254 194.700 C 244.967 195.745,244.586 196.960,244.407 197.400 C 244.228 197.840,243.864 198.830,243.599 199.600 C 240.100 209.774,230.563 219.550,219.800 223.997 C 219.140 224.270,218.287 224.652,217.905 224.847 C 217.523 225.041,216.859 225.200,216.429 225.200 C 215.999 225.200,215.536 225.380,215.400 225.600 C 215.264 225.820,214.544 226.000,213.800 226.000 C 213.056 226.000,212.351 226.155,212.234 226.344 C 211.278 227.892,58.722 227.891,57.765 226.343 C 57.648 226.155,57.059 226.000,56.456 226.000 C 55.853 226.000,55.189 225.857,54.980 225.682 C 54.771 225.507,53.882 225.119,53.004 224.821 C 48.303 223.224,41.337 217.503,38.121 212.600 C 26.483 194.851,34.927 169.737,54.600 163.589 C 55.480 163.314,56.560 162.944,57.000 162.767 C 57.910 162.401,60.262 162.052,63.900 161.744 C 65.275 161.627,66.400 161.367,66.400 161.166 C 66.400 160.965,66.658 160.800,66.973 160.800 C 68.099 160.800,69.189 158.550,69.617 155.339 C 70.303 150.186,70.811 147.094,71.249 145.400 C 72.097 142.123,73.355 138.188,73.672 137.820 C 73.852 137.611,74.000 137.121,74.000 136.732 C 74.000 136.343,74.360 135.383,74.800 134.600 C 75.240 133.817,75.600 132.911,75.600 132.588 C 75.600 132.265,75.780 132.000,76.000 132.000 C 76.220 132.000,76.400 131.655,76.400 131.233 C 76.400 130.812,76.535 130.407,76.700 130.333 C 76.865 130.260,77.611 129.030,78.358 127.600 C 79.105 126.170,79.845 124.910,80.003 124.800 C 80.160 124.690,80.571 124.060,80.917 123.400 C 81.736 121.838,85.116 117.651,88.447 114.072 C 89.979 112.427,91.193 110.735,91.329 110.056 C 91.602 108.689,91.247 106.077,90.746 105.767 C 90.556 105.649,90.400 105.037,90.400 104.406 C 90.400 103.518,90.114 103.116,89.139 102.629 C 87.746 101.935,84.000 101.768,84.000 102.400 M174.200 238.893 C 174.200 239.274,167.433 246.384,159.161 254.693 C 149.768 264.128,143.928 270.296,143.604 271.121 C 142.897 272.923,143.697 275.324,145.479 276.746 L 146.800 277.800 169.900 278.000 L 193.000 278.200 193.125 279.490 C 193.248 280.765,193.136 280.854,183.125 287.435 C 177.556 291.096,172.940 294.250,172.867 294.445 C 172.793 294.640,172.523 294.802,172.267 294.805 C 172.010 294.808,171.350 295.173,170.800 295.616 C 169.030 297.041,126.789 325.200,126.422 325.200 C 126.226 325.200,126.007 325.349,125.933 325.531 C 125.860 325.713,121.570 328.680,116.400 332.124 C 111.230 335.568,106.809 338.545,106.575 338.739 C 106.341 338.933,105.722 339.320,105.200 339.600 C 104.678 339.880,103.890 340.444,103.450 340.854 C 103.009 341.264,102.413 341.600,102.125 341.600 C 101.836 341.600,101.600 341.780,101.600 342.000 C 101.600 342.220,101.330 342.400,101.000 342.400 C 100.670 342.400,100.400 342.550,100.400 342.732 C 100.400 342.915,99.905 343.320,99.300 343.632 C 98.695 343.944,98.110 344.310,98.000 344.447 C 97.890 344.583,91.320 348.970,83.400 354.194 C 75.480 359.419,68.910 363.828,68.800 363.993 C 67.998 365.193,65.600 364.642,65.600 363.257 C 65.600 362.902,79.799 348.389,97.153 331.006 C 121.614 306.504,128.753 299.133,128.914 298.214 C 129.278 296.137,128.737 294.268,127.374 292.900 L 126.080 291.600 104.371 291.600 C 81.378 291.600,81.200 291.586,81.200 289.790 C 81.200 289.523,92.730 277.759,106.823 263.648 L 132.446 237.993 153.323 238.096 C 172.820 238.193,174.200 238.246,174.200 238.893 M280.000 248.400 C 280.000 248.620,279.606 248.800,279.124 248.800 C 278.537 248.800,276.644 250.411,273.370 253.700 C 270.687 256.395,266.626 260.426,264.346 262.657 C 262.066 264.889,258.189 268.759,255.732 271.257 C 253.275 273.756,249.585 277.448,247.532 279.462 C 245.479 281.476,241.801 285.166,239.358 287.662 C 236.914 290.158,233.809 293.238,232.458 294.507 C 230.728 296.132,230.000 297.109,230.000 297.807 C 230.000 298.353,229.820 298.800,229.600 298.800 C 229.380 298.800,229.200 299.599,229.200 300.576 C 229.200 301.553,229.380 302.464,229.600 302.600 C 229.820 302.736,230.000 303.125,230.000 303.464 C 230.000 305.614,236.774 308.859,237.800 307.200 C 237.936 306.980,238.403 306.800,238.837 306.800 C 240.040 306.800,287.649 259.033,288.300 257.172 C 288.899 255.460,288.960 252.800,288.400 252.800 C 288.180 252.800,288.000 252.512,288.000 252.160 C 288.000 251.808,287.388 250.908,286.640 250.160 C 285.892 249.412,284.992 248.800,284.640 248.800 C 284.288 248.800,284.000 248.620,284.000 248.400 C 284.000 248.180,283.100 248.000,282.000 248.000 C 280.900 248.000,280.000 248.180,280.000 248.400 M27.400 255.608 C 25.279 257.561,12.415 270.412,11.888 271.105 C 11.118 272.117,10.875 277.600,11.600 277.600 C 11.820 277.600,12.000 277.894,12.000 278.253 C 12.000 279.153,14.004 280.799,15.100 280.800 C 15.595 280.800,16.000 280.980,16.000 281.200 C 16.000 281.420,16.799 281.600,17.776 281.600 C 18.753 281.600,19.664 281.420,19.800 281.200 C 19.936 280.980,20.318 280.800,20.650 280.800 C 20.981 280.800,22.139 279.855,23.224 278.700 C 25.473 276.305,24.928 276.850,31.900 270.017 C 35.694 266.298,37.200 264.557,37.200 263.891 C 37.200 263.379,37.416 262.744,37.680 262.480 C 38.714 261.446,36.149 256.000,34.629 256.000 C 34.283 256.000,34.000 255.820,34.000 255.600 C 34.000 255.094,27.950 255.102,27.400 255.608 M319.200 289.200 C 319.200 289.420,318.909 289.600,318.554 289.600 C 316.857 289.600,315.200 292.405,315.200 295.278 C 315.200 296.826,315.373 298.000,315.600 298.000 C 315.820 298.000,316.000 298.278,316.000 298.618 C 316.000 299.418,317.782 301.200,318.582 301.200 C 318.922 301.200,319.200 301.380,319.200 301.600 C 319.200 301.822,320.259 302.000,321.576 302.000 C 322.883 302.000,324.064 301.820,324.200 301.600 C 324.336 301.380,324.715 301.200,325.042 301.200 C 325.369 301.200,326.078 300.758,326.618 300.218 C 327.158 299.678,327.600 298.969,327.600 298.642 C 327.600 298.315,327.780 297.936,328.000 297.800 C 328.220 297.664,328.400 296.483,328.400 295.176 C 328.400 293.859,328.222 292.800,328.000 292.800 C 327.780 292.800,327.600 292.522,327.600 292.182 C 327.600 291.508,326.265 290.092,324.883 289.300 C 323.846 288.705,319.200 288.624,319.200 289.200 M212.824 314.462 C 212.068 314.906,210.808 316.008,210.024 316.912 C 208.626 318.527,203.997 323.154,198.421 328.511 C 196.454 330.401,195.600 331.514,195.600 332.187 C 195.600 332.718,195.420 333.264,195.200 333.400 C 194.980 333.536,194.800 334.256,194.800 335.000 C 194.800 335.744,194.980 336.464,195.200 336.600 C 195.420 336.736,195.600 337.214,195.600 337.663 C 195.600 340.222,200.010 342.138,204.043 341.331 C 205.430 341.054,221.564 325.428,222.700 323.262 C 223.296 322.125,223.369 318.152,222.800 317.800 C 222.580 317.664,222.400 317.285,222.400 316.958 C 222.400 316.177,220.607 314.400,219.818 314.400 C 219.478 314.400,219.200 314.220,219.200 314.000 C 219.200 313.240,214.305 313.595,212.824 314.462 M53.834 314.924 C 52.613 315.682,38.000 330.318,38.000 330.781 C 38.000 331.012,37.820 331.200,37.600 331.200 C 37.369 331.200,37.200 332.467,37.200 334.200 C 37.200 335.933,37.369 337.200,37.600 337.200 C 37.820 337.200,38.000 337.483,38.000 337.829 C 38.000 339.744,44.452 342.334,45.400 340.800 C 45.536 340.580,45.914 340.400,46.240 340.400 C 47.234 340.400,62.000 326.162,62.000 325.204 C 62.000 324.982,62.180 324.800,62.400 324.800 C 62.620 324.800,62.800 324.451,62.800 324.024 C 62.800 323.597,62.980 323.136,63.200 323.000 C 63.420 322.864,63.600 321.953,63.600 320.976 C 63.600 319.999,63.420 319.200,63.200 319.200 C 62.980 319.200,62.800 318.795,62.800 318.300 C 62.799 317.204,61.153 315.200,60.253 315.200 C 59.894 315.200,59.600 315.020,59.600 314.800 C 59.600 314.238,54.770 314.341,53.834 314.924 M248.800 328.705 C 248.800 328.873,248.395 329.188,247.900 329.405 C 247.405 329.622,246.822 330.205,246.605 330.700 C 246.388 331.195,246.073 331.600,245.905 331.600 C 244.896 331.600,245.623 338.306,246.762 339.497 C 252.509 345.511,262.503 337.672,257.690 330.924 C 256.236 328.885,248.800 327.029,248.800 328.705 M26.914 342.280 C 24.530 342.742,23.200 345.019,23.200 348.640 C 23.200 350.613,23.365 352.000,23.600 352.000 C 23.820 352.000,24.002 352.315,24.005 352.700 C 24.015 354.077,26.526 355.200,29.594 355.200 C 31.198 355.200,32.400 355.029,32.400 354.800 C 32.400 354.580,32.683 354.400,33.029 354.400 C 33.747 354.400,34.800 353.466,34.800 352.829 C 34.800 352.593,34.980 352.400,35.200 352.400 C 35.420 352.400,35.600 351.961,35.600 351.424 C 35.600 350.887,35.780 350.336,36.000 350.200 C 36.220 350.064,36.400 349.344,36.400 348.600 C 36.400 347.856,36.220 347.136,36.000 347.000 C 35.780 346.864,35.600 346.386,35.600 345.937 C 35.600 343.365,31.100 341.470,26.914 342.280 " stroke="none" fill="#040404" fill-rule="evenodd"></path><path id="path1" d="M231.800 37.600 C 228.191 37.933,225.133 38.398,221.400 39.183 C 220.300 39.414,218.721 39.717,217.890 39.856 C 217.060 39.994,216.284 40.264,216.167 40.454 C 216.049 40.644,215.511 40.800,214.971 40.800 C 214.431 40.800,213.677 40.958,213.295 41.151 C 212.913 41.344,211.880 41.716,211.000 41.977 C 210.120 42.239,208.950 42.645,208.400 42.880 C 207.206 43.390,205.699 43.995,204.600 44.406 C 202.212 45.300,194.533 49.261,191.461 51.184 C 189.514 52.403,187.621 53.580,187.254 53.800 C 186.494 54.256,183.502 56.483,183.200 56.817 C 183.090 56.939,182.370 57.477,181.600 58.014 C 179.067 59.778,178.645 60.154,173.756 64.999 C 166.962 71.731,157.918 83.780,158.511 85.307 C 158.617 85.578,160.030 86.231,161.652 86.757 C 180.089 92.744,197.431 107.996,206.384 126.100 C 208.044 129.456,208.170 129.600,209.452 129.600 C 210.685 129.600,211.890 129.826,216.200 130.868 C 233.558 135.061,248.557 148.236,254.377 164.400 C 254.654 165.170,255.081 166.220,255.326 166.734 C 256.776 169.774,255.094 174.332,252.140 175.371 C 251.354 175.648,250.981 176.013,251.091 176.400 C 251.198 176.777,251.138 176.841,250.930 176.570 C 250.749 176.334,249.760 175.910,248.734 175.628 C 246.186 174.928,245.119 173.647,243.381 169.200 C 237.373 153.830,221.621 141.628,207.755 141.604 C 202.372 141.594,199.810 140.375,198.269 137.090 C 197.730 135.941,196.607 133.560,195.775 131.800 C 190.751 121.183,183.038 112.447,172.400 105.326 C 155.441 93.974,133.431 91.305,114.194 98.267 C 107.788 100.585,105.897 100.564,103.479 98.145 C 102.423 97.090,102.000 96.858,102.000 97.333 C 102.000 97.700,101.822 98.000,101.605 98.000 C 100.813 98.000,93.200 103.249,93.200 103.795 C 93.200 104.241,93.438 104.275,94.345 103.959 C 96.283 103.284,112.954 104.033,113.780 104.832 C 113.989 105.035,114.923 105.200,115.856 105.200 C 116.789 105.200,117.664 105.380,117.800 105.600 C 117.936 105.820,118.566 106.000,119.200 106.000 C 119.834 106.000,120.464 106.180,120.600 106.400 C 120.736 106.620,121.289 106.800,121.829 106.800 C 122.369 106.800,123.168 106.980,123.605 107.200 C 124.042 107.420,124.758 107.780,125.195 108.000 C 125.632 108.220,126.264 108.400,126.600 108.400 C 126.936 108.400,127.523 108.560,127.905 108.756 C 128.287 108.952,129.500 109.512,130.600 110.000 C 132.835 110.992,132.950 111.049,136.606 112.989 C 139.122 114.324,142.785 116.667,143.200 117.208 C 143.310 117.351,143.691 117.633,144.046 117.834 C 146.561 119.259,156.843 129.195,158.227 131.539 C 158.637 132.232,159.114 132.800,159.286 132.800 C 159.459 132.800,159.600 133.055,159.600 133.367 C 159.600 133.678,159.745 133.993,159.923 134.067 C 160.391 134.259,162.800 137.865,162.800 138.372 C 162.800 138.607,162.953 138.800,163.140 138.800 C 163.327 138.800,164.091 140.015,164.838 141.500 C 165.585 142.985,166.332 144.260,166.498 144.333 C 166.664 144.407,166.800 144.776,166.800 145.153 C 166.800 145.531,166.956 146.011,167.147 146.220 C 167.338 146.429,167.805 147.435,168.185 148.456 L 168.875 150.312 171.337 150.546 C 172.692 150.675,174.880 150.971,176.200 151.206 C 177.520 151.440,179.276 151.733,180.103 151.858 C 180.929 151.983,181.705 152.245,181.826 152.442 C 181.948 152.639,182.399 152.800,182.829 152.800 C 183.259 152.800,183.923 152.959,184.305 153.153 C 184.687 153.348,185.450 153.684,186.000 153.901 C 186.550 154.117,188.170 154.883,189.600 155.602 C 191.030 156.320,192.604 157.109,193.097 157.354 C 193.590 157.599,193.995 157.935,193.997 158.100 C 193.999 158.265,194.236 158.400,194.525 158.400 C 194.813 158.400,195.405 158.715,195.840 159.100 C 196.274 159.485,197.253 160.243,198.015 160.784 C 202.102 163.687,209.600 171.941,209.600 173.536 C 209.600 173.791,209.780 174.000,210.000 174.000 C 210.220 174.000,210.400 174.360,210.400 174.800 C 210.400 175.240,210.552 175.600,210.737 175.600 C 210.923 175.600,211.484 176.455,211.984 177.500 C 212.485 178.545,213.233 180.092,213.647 180.938 C 214.061 181.784,214.400 182.808,214.400 183.214 C 214.400 183.620,214.580 184.064,214.800 184.200 C 215.020 184.336,215.200 184.876,215.200 185.400 C 215.200 185.924,215.380 186.464,215.600 186.600 C 215.820 186.736,216.000 187.456,216.000 188.200 C 216.000 188.944,216.155 189.649,216.346 189.766 C 217.583 190.531,217.583 209.069,216.346 209.834 C 216.155 209.951,216.000 210.656,216.000 211.400 C 216.000 212.144,215.820 212.864,215.600 213.000 C 215.380 213.136,215.200 213.676,215.200 214.200 C 215.200 214.724,215.020 215.264,214.800 215.400 C 214.580 215.536,214.400 216.076,214.400 216.600 C 214.400 217.124,214.220 217.664,214.000 217.800 C 213.780 217.936,213.600 218.397,213.600 218.824 C 213.600 219.251,213.420 219.600,213.200 219.600 C 212.980 219.600,212.800 219.834,212.800 220.120 C 212.800 220.856,211.859 222.793,211.500 222.797 C 211.335 222.799,211.200 223.160,211.200 223.600 C 211.200 224.040,211.020 224.400,210.800 224.400 C 210.580 224.400,210.400 224.605,210.400 224.856 C 210.400 225.107,210.085 225.551,209.700 225.843 C 207.373 227.609,217.028 224.937,222.200 222.383 C 228.595 219.225,233.378 215.247,237.572 209.599 C 241.004 204.975,242.611 201.621,244.852 194.400 C 245.830 191.250,247.842 189.604,250.720 189.601 C 255.388 189.597,257.709 193.734,256.001 199.014 C 252.761 209.025,248.607 216.101,242.216 222.492 C 240.117 224.590,238.400 226.410,238.400 226.535 C 238.400 226.660,246.725 226.816,256.900 226.881 C 274.315 226.993,275.466 227.045,276.523 227.761 C 277.756 228.597,279.200 231.096,279.200 232.394 C 279.200 233.662,292.512 233.472,292.722 232.200 C 292.991 230.574,294.053 228.816,295.309 227.921 L 296.600 227.000 321.400 226.772 C 339.319 226.608,346.442 226.414,347.074 226.072 C 347.554 225.813,348.579 225.600,349.350 225.600 C 350.122 225.600,350.864 225.420,351.000 225.200 C 351.136 224.980,351.766 224.800,352.400 224.800 C 353.034 224.800,353.664 224.620,353.800 224.400 C 353.936 224.180,354.399 224.000,354.829 224.000 C 355.259 224.000,355.923 223.836,356.305 223.635 C 356.687 223.435,358.350 222.623,360.000 221.831 C 366.627 218.651,372.926 213.785,376.350 209.200 C 376.925 208.430,377.498 207.710,377.624 207.600 C 383.244 202.685,388.363 183.912,386.774 174.046 C 383.190 151.805,368.595 136.068,348.600 132.888 C 347.060 132.643,344.372 132.250,342.626 132.015 C 336.785 131.228,335.903 130.127,335.013 122.511 C 334.354 116.874,333.259 110.883,332.178 107.000 C 331.811 105.680,331.420 104.103,331.309 103.495 C 331.198 102.887,330.949 102.292,330.754 102.171 C 330.559 102.051,330.400 101.601,330.400 101.171 C 330.400 100.741,330.241 100.077,330.047 99.695 C 329.852 99.313,329.492 98.505,329.247 97.900 C 329.001 97.295,328.596 96.305,328.346 95.700 C 328.097 95.095,327.763 94.240,327.603 93.800 C 327.130 92.494,324.734 87.875,322.442 83.853 C 315.549 71.753,303.860 59.682,291.400 51.795 C 288.151 49.739,278.551 44.800,277.803 44.800 C 277.471 44.800,277.200 44.620,277.200 44.400 C 277.200 44.180,276.838 44.000,276.395 44.000 C 275.952 44.000,275.187 43.792,274.695 43.538 C 272.769 42.542,272.383 42.400,271.605 42.400 C 271.162 42.400,270.800 42.220,270.800 42.000 C 270.800 41.780,270.271 41.600,269.624 41.600 C 268.977 41.600,268.336 41.420,268.200 41.200 C 268.064 40.980,267.511 40.800,266.971 40.800 C 266.431 40.800,265.677 40.639,265.295 40.443 C 264.456 40.011,260.209 39.088,254.141 38.019 C 250.916 37.451,236.385 37.178,231.800 37.600 M250.200 50.031 C 255.694 50.546,262.628 51.968,265.800 53.229 C 266.240 53.404,267.320 53.776,268.200 54.055 C 269.080 54.335,269.971 54.707,270.180 54.882 C 270.389 55.057,270.839 55.203,271.180 55.207 C 271.781 55.214,279.407 58.930,282.547 60.745 C 286.933 63.281,292.699 67.568,296.400 71.046 C 297.390 71.977,298.580 73.067,299.045 73.469 C 302.935 76.836,302.963 82.048,299.104 84.402 C 295.826 86.401,293.442 85.646,288.773 81.128 C 287.109 79.518,285.146 77.750,284.412 77.200 C 283.677 76.650,282.429 75.687,281.638 75.061 C 280.847 74.434,279.390 73.453,278.400 72.880 C 277.410 72.307,276.510 71.724,276.400 71.584 C 275.724 70.726,265.298 66.172,261.700 65.164 C 260.985 64.964,259.725 64.606,258.900 64.370 C 254.851 63.209,249.480 62.400,243.580 62.064 C 235.955 61.629,232.551 57.715,235.467 52.736 C 237.458 49.335,239.259 49.005,250.200 50.031 M312.579 95.762 C 315.634 96.825,316.418 98.089,319.304 106.600 C 321.997 114.542,321.535 117.598,317.334 119.632 C 314.401 121.052,309.200 118.889,309.200 116.250 C 309.200 115.919,309.020 115.536,308.800 115.400 C 308.580 115.264,308.400 114.771,308.400 114.305 C 308.400 113.519,307.914 111.718,307.185 109.800 C 307.018 109.360,306.661 108.370,306.393 107.600 C 306.125 106.830,305.567 105.437,305.153 104.504 C 303.537 100.865,305.142 97.136,308.916 95.763 C 310.650 95.132,310.769 95.132,312.579 95.762 M90.628 104.400 C 90.772 104.950,91.050 105.571,91.245 105.780 C 91.816 106.391,91.641 105.514,90.969 104.400 L 90.367 103.400 90.628 104.400 M91.800 108.600 C 91.800 109.768,91.935 110.640,92.100 110.538 C 92.265 110.436,92.400 109.564,92.400 108.600 C 92.400 107.636,92.265 106.764,92.100 106.662 C 91.935 106.560,91.800 107.432,91.800 108.600 M88.600 114.447 C 87.060 116.202,85.301 118.215,84.691 118.919 C 81.722 122.348,74.731 134.064,75.309 134.642 C 75.419 134.753,76.200 133.438,77.043 131.721 C 80.027 125.649,83.626 120.507,88.690 115.083 C 90.290 113.369,91.600 111.794,91.600 111.583 C 91.600 111.020,91.634 110.988,88.600 114.447 M73.400 139.200 C 73.025 140.329,72.804 141.337,72.908 141.441 C 73.012 141.546,73.401 140.704,73.771 139.571 C 74.142 138.439,74.363 137.430,74.263 137.330 C 74.163 137.230,73.775 138.071,73.400 139.200 M72.229 143.029 C 72.081 143.615,72.051 144.184,72.161 144.294 C 72.271 144.404,72.481 144.015,72.629 143.429 C 72.776 142.842,72.806 142.273,72.696 142.163 C 72.586 142.053,72.376 142.442,72.229 143.029 M71.400 146.400 C 71.248 147.091,71.214 147.747,71.324 147.857 C 71.434 147.967,71.648 147.491,71.800 146.800 C 71.952 146.109,71.986 145.453,71.876 145.343 C 71.766 145.233,71.552 145.709,71.400 146.400 M70.590 150.938 C 70.439 152.152,70.398 153.382,70.499 153.672 C 70.600 153.962,70.818 153.064,70.984 151.675 C 71.149 150.287,71.190 149.057,71.075 148.942 C 70.960 148.827,70.742 149.725,70.590 150.938 M69.938 156.681 C 69.395 160.238,67.342 161.778,62.552 162.223 C 58.597 162.590,55.224 163.513,51.200 165.329 C 48.156 166.703,38.736 174.400,40.098 174.400 C 40.248 174.400,41.413 173.343,42.686 172.051 C 46.114 168.571,52.791 164.400,54.934 164.400 C 55.274 164.400,55.652 164.240,55.773 164.044 C 56.013 163.655,57.510 163.353,61.800 162.828 C 63.340 162.639,65.182 162.353,65.894 162.193 C 68.257 161.662,70.550 158.596,70.321 156.275 C 70.202 155.073,70.180 155.096,69.938 156.681 M38.237 176.915 C 32.303 186.191,31.515 198.878,36.274 208.500 C 36.791 209.545,37.304 210.400,37.415 210.400 C 37.526 210.400,37.277 209.725,36.863 208.900 C 31.994 199.202,33.015 183.490,38.974 176.400 C 39.692 175.546,40.086 174.800,39.819 174.800 C 39.693 174.800,38.981 175.752,38.237 176.915 M251.892 185.091 C 251.805 185.921,251.733 185.340,251.731 183.800 C 251.729 182.260,251.800 181.581,251.889 182.291 C 251.977 183.001,251.979 184.261,251.892 185.091 M37.600 211.111 C 37.600 211.632,41.924 216.915,43.510 218.331 C 46.496 220.997,53.353 225.180,53.877 224.656 C 53.986 224.547,53.042 223.985,51.778 223.407 C 47.300 221.359,41.603 216.495,39.001 212.500 C 37.902 210.813,37.600 210.513,37.600 211.111 M55.000 225.200 C 56.101 225.673,56.492 225.673,56.200 225.200 C 56.064 224.980,55.558 224.813,55.076 224.828 C 54.231 224.855,54.229 224.869,55.000 225.200 M57.600 226.000 C 58.150 226.176,58.960 226.326,59.400 226.332 L 60.200 226.344 59.400 226.000 C 58.960 225.811,58.150 225.662,57.600 225.668 L 56.600 225.680 57.600 226.000 M62.800 226.814 C 64.230 226.975,96.540 227.106,134.600 227.106 C 172.660 227.106,204.970 226.975,206.400 226.814 C 207.830 226.654,175.520 226.522,134.600 226.522 C 93.680 226.522,61.370 226.654,62.800 226.814 " stroke="none" fill="#676665" fill-rule="evenodd"></path><path id="path2" d="M107.096 264.307 C 93.293 278.117,82.000 289.637,82.000 289.907 C 82.000 290.291,86.704 290.402,103.300 290.411 L 124.600 290.423 126.379 291.332 C 129.421 292.888,130.769 296.502,129.360 299.320 C 129.008 300.024,114.658 314.681,97.471 331.892 C 74.232 355.163,66.339 363.299,66.676 363.636 C 67.012 363.972,67.591 363.769,68.936 362.844 C 69.931 362.160,70.937 361.600,71.172 361.600 C 71.407 361.600,71.600 361.450,71.600 361.268 C 71.600 361.085,72.095 360.680,72.700 360.368 C 73.305 360.055,74.149 359.485,74.575 359.100 C 75.002 358.715,75.587 358.400,75.875 358.400 C 76.164 358.400,76.400 358.250,76.400 358.068 C 76.400 357.885,76.895 357.480,77.500 357.168 C 78.105 356.856,78.690 356.488,78.800 356.349 C 78.910 356.211,82.240 353.975,86.200 351.380 C 90.160 348.785,93.490 346.558,93.600 346.431 C 93.710 346.303,94.295 345.944,94.900 345.632 C 95.505 345.320,96.000 344.915,96.000 344.732 C 96.000 344.550,96.190 344.400,96.422 344.400 C 96.931 344.400,101.744 341.193,101.933 340.728 C 102.007 340.547,102.322 340.400,102.633 340.400 C 102.945 340.400,103.200 340.220,103.200 340.000 C 103.200 339.780,103.375 339.600,103.588 339.600 C 103.802 339.600,105.647 338.463,107.688 337.074 C 120.913 328.075,144.472 312.400,144.773 312.400 C 144.971 312.400,145.193 312.251,145.267 312.069 C 145.340 311.887,150.710 308.199,157.200 303.874 C 163.690 299.548,169.217 295.827,169.483 295.605 C 169.749 295.382,170.154 295.200,170.383 295.200 C 170.612 295.200,170.800 295.050,170.800 294.868 C 170.800 294.685,171.295 294.280,171.900 293.968 C 172.505 293.655,173.349 293.085,173.775 292.700 C 174.202 292.315,174.787 292.000,175.075 292.000 C 175.364 292.000,175.600 291.850,175.600 291.668 C 175.600 291.485,176.095 291.080,176.700 290.768 C 177.305 290.455,178.006 290.007,178.257 289.771 C 178.509 289.536,181.880 287.286,185.749 284.771 C 189.618 282.257,192.787 279.975,192.792 279.700 C 192.798 279.306,188.101 279.200,170.619 279.200 C 147.605 279.200,147.619 279.201,145.124 277.510 C 143.014 276.079,142.135 272.399,143.300 269.878 C 143.575 269.283,148.840 263.769,155.000 257.625 C 161.160 251.480,167.816 244.821,169.792 242.827 L 173.383 239.200 152.787 239.200 L 132.191 239.200 107.096 264.307 " stroke="none" fill="#f7bf3f" fill-rule="evenodd"></path><path id="path3" d="M98.590 98.199 C 97.055 99.188,95.530 100.121,95.200 100.271 C 94.870 100.421,94.330 100.828,94.000 101.175 C 93.670 101.522,92.915 102.055,92.321 102.359 C 90.824 103.127,90.681 103.792,91.603 105.700 C 93.191 108.988,92.442 111.191,88.236 115.600 C 79.984 124.252,73.977 135.756,71.630 147.400 C 71.011 150.475,70.400 155.003,70.400 156.521 C 70.400 157.891,68.938 160.517,67.649 161.463 C 66.847 162.050,65.413 162.385,61.800 162.828 C 57.510 163.353,56.013 163.655,55.773 164.044 C 55.652 164.240,55.274 164.400,54.934 164.400 C 54.593 164.400,53.119 164.971,51.657 165.668 C 27.422 177.231,27.623 211.720,51.994 223.542 C 53.421 224.234,54.818 224.800,55.099 224.800 C 55.381 224.800,55.923 224.959,56.305 225.153 C 58.669 226.353,61.630 226.400,134.906 226.387 C 211.897 226.374,210.400 226.404,210.400 224.856 C 210.400 224.605,210.580 224.400,210.800 224.400 C 211.020 224.400,211.200 224.040,211.200 223.600 C 211.200 223.160,211.335 222.799,211.500 222.797 C 211.859 222.793,212.800 220.856,212.800 220.120 C 212.800 219.834,212.980 219.600,213.200 219.600 C 213.420 219.600,213.600 219.251,213.600 218.824 C 213.600 218.397,213.780 217.936,214.000 217.800 C 214.220 217.664,214.400 217.124,214.400 216.600 C 214.400 216.076,214.580 215.536,214.800 215.400 C 215.020 215.264,215.200 214.724,215.200 214.200 C 215.200 213.676,215.380 213.136,215.600 213.000 C 215.820 212.864,216.000 212.144,216.000 211.400 C 216.000 210.656,216.155 209.951,216.346 209.834 C 217.583 209.069,217.583 190.531,216.346 189.766 C 216.155 189.649,216.000 188.944,216.000 188.200 C 216.000 187.456,215.820 186.736,215.600 186.600 C 215.380 186.464,215.200 185.924,215.200 185.400 C 215.200 184.876,215.020 184.336,214.800 184.200 C 214.580 184.064,214.400 183.620,214.400 183.214 C 214.400 182.808,214.061 181.784,213.647 180.938 C 213.233 180.092,212.485 178.545,211.984 177.500 C 211.484 176.455,210.923 175.600,210.737 175.600 C 210.552 175.600,210.400 175.240,210.400 174.800 C 210.400 174.360,210.220 174.000,210.000 174.000 C 209.780 174.000,209.600 173.791,209.600 173.536 C 209.600 171.941,202.102 163.687,198.015 160.784 C 197.253 160.243,196.274 159.485,195.840 159.100 C 195.405 158.715,194.813 158.400,194.525 158.400 C 194.236 158.400,193.999 158.265,193.997 158.100 C 193.995 157.935,193.590 157.599,193.097 157.354 C 192.604 157.109,191.030 156.320,189.600 155.602 C 188.170 154.883,186.550 154.117,186.000 153.901 C 185.450 153.684,184.687 153.348,184.305 153.153 C 183.923 152.959,183.259 152.800,182.829 152.800 C 182.399 152.800,181.948 152.639,181.826 152.442 C 181.705 152.245,180.929 151.983,180.103 151.858 C 179.276 151.733,177.520 151.440,176.200 151.206 C 174.880 150.971,172.692 150.675,171.337 150.546 L 168.875 150.312 168.185 148.456 C 167.805 147.435,167.338 146.429,167.147 146.220 C 166.956 146.011,166.800 145.531,166.800 145.153 C 166.800 144.776,166.664 144.407,166.498 144.333 C 166.332 144.260,165.585 142.985,164.838 141.500 C 164.091 140.015,163.327 138.800,163.140 138.800 C 162.953 138.800,162.800 138.607,162.800 138.372 C 162.800 137.865,160.391 134.259,159.923 134.067 C 159.745 133.993,159.600 133.678,159.600 133.367 C 159.600 133.055,159.459 132.800,159.286 132.800 C 159.114 132.800,158.637 132.232,158.227 131.539 C 156.843 129.195,146.561 119.259,144.046 117.834 C 143.691 117.633,143.310 117.351,143.200 117.208 C 142.785 116.667,139.122 114.324,136.606 112.989 C 132.950 111.049,132.835 110.992,130.600 110.000 C 129.500 109.512,128.287 108.952,127.905 108.756 C 127.523 108.560,126.936 108.400,126.600 108.400 C 126.264 108.400,125.632 108.220,125.195 108.000 C 124.758 107.780,124.042 107.420,123.605 107.200 C 123.168 106.980,122.369 106.800,121.829 106.800 C 121.289 106.800,120.736 106.620,120.600 106.400 C 120.464 106.180,119.834 106.000,119.200 106.000 C 118.566 106.000,117.936 105.820,117.800 105.600 C 117.664 105.380,116.789 105.200,115.856 105.200 C 114.923 105.200,113.989 105.035,113.780 104.832 C 112.954 104.033,96.283 103.284,94.345 103.959 C 93.438 104.275,93.200 104.241,93.200 103.795 C 93.200 103.249,100.813 98.000,101.605 98.000 C 101.822 98.000,102.000 97.640,102.000 97.200 C 102.000 96.088,101.751 96.161,98.590 98.199 M251.731 183.800 C 251.733 185.340,251.805 185.921,251.892 185.091 C 251.979 184.261,251.977 183.001,251.889 182.291 C 251.800 181.581,251.729 182.260,251.731 183.800 " stroke="none" fill="#a39b9b" fill-rule="evenodd"></path><path id="path4" d="M106.840 264.160 C 88.409 282.592,81.550 289.694,81.729 290.160 C 81.950 290.735,84.052 290.801,102.487 290.810 C 127.157 290.822,127.858 290.934,129.230 295.092 C 130.328 298.419,131.852 296.690,97.573 331.008 C 67.541 361.074,65.110 363.684,66.599 364.255 C 67.192 364.482,71.404 362.070,71.043 361.710 C 70.940 361.607,70.017 362.100,68.992 362.805 C 67.606 363.759,67.012 363.972,66.676 363.636 C 66.339 363.299,74.232 355.163,97.471 331.892 C 114.658 314.681,129.008 300.024,129.360 299.320 C 130.769 296.502,129.421 292.888,126.379 291.332 L 124.600 290.423 103.300 290.411 C 86.685 290.402,82.000 290.291,82.000 289.907 C 82.000 289.635,93.295 278.114,107.101 264.303 L 132.202 239.193 152.722 239.296 L 173.242 239.400 158.423 254.200 C 150.273 262.340,143.603 269.179,143.602 269.398 C 143.601 269.617,150.350 263.048,158.600 254.800 C 166.850 246.552,173.600 239.578,173.600 239.302 C 173.600 238.906,169.237 238.800,152.899 238.800 L 132.198 238.800 106.840 264.160 M143.067 270.267 C 142.700 270.634,142.729 274.709,143.100 274.937 C 143.265 275.038,143.400 273.968,143.400 272.560 C 143.400 271.152,143.385 270.000,143.367 270.000 C 143.348 270.000,143.213 270.120,143.067 270.267 M143.600 275.913 C 143.600 276.149,144.095 276.731,144.700 277.207 C 147.259 279.220,146.997 279.200,170.649 279.200 C 188.107 279.200,192.798 279.306,192.792 279.700 C 192.787 279.975,189.618 282.257,185.749 284.771 C 181.880 287.286,178.509 289.536,178.257 289.771 C 178.006 290.007,177.305 290.455,176.700 290.768 C 176.095 291.080,175.600 291.495,175.600 291.691 C 175.600 292.140,175.104 292.449,184.900 285.895 C 196.842 277.904,197.851 278.400,169.652 278.400 C 146.582 278.400,146.283 278.378,144.585 276.546 C 144.043 275.961,143.600 275.676,143.600 275.913 M173.829 292.609 C 173.405 292.929,173.155 293.288,173.273 293.406 C 173.390 293.524,173.917 293.261,174.443 292.823 C 175.537 291.912,174.998 291.724,173.829 292.609 M171.292 294.400 C 170.820 294.840,170.246 295.200,170.017 295.200 C 169.788 295.200,169.600 295.390,169.600 295.623 C 169.600 296.079,171.795 294.919,172.480 294.100 C 173.155 293.292,172.230 293.526,171.292 294.400 M157.072 303.900 C 150.558 308.245,145.222 311.942,145.214 312.117 C 145.202 312.385,167.887 297.329,168.980 296.343 C 170.257 295.191,167.619 296.865,157.072 303.900 M128.200 323.240 C 119.400 329.170,110.345 335.276,108.078 336.811 C 105.811 338.345,103.786 339.600,103.578 339.600 C 103.370 339.600,103.200 339.780,103.200 340.000 C 103.200 340.220,102.945 340.400,102.633 340.400 C 102.322 340.400,102.007 340.547,101.933 340.728 C 101.744 341.193,96.931 344.400,96.422 344.400 C 96.190 344.400,96.000 344.550,96.000 344.732 C 96.000 344.915,95.505 345.320,94.900 345.632 C 94.295 345.944,93.710 346.303,93.600 346.431 C 93.490 346.558,90.160 348.785,86.200 351.380 C 82.240 353.975,78.910 356.211,78.800 356.349 C 78.690 356.488,78.105 356.856,77.500 357.168 C 76.895 357.480,76.400 357.895,76.400 358.091 C 76.400 358.551,75.393 359.197,90.600 348.994 C 97.860 344.123,112.890 334.052,124.000 326.614 C 135.110 319.176,144.371 312.935,144.580 312.745 C 146.288 311.194,141.968 313.963,128.200 323.240 M74.575 359.100 C 74.149 359.485,73.305 360.055,72.700 360.368 C 72.095 360.680,71.600 361.079,71.600 361.254 C 71.600 361.605,73.627 360.453,75.200 359.209 C 75.750 358.774,76.009 358.414,75.775 358.409 C 75.542 358.404,75.002 358.715,74.575 359.100 " stroke="none" fill="#98814e" fill-rule="evenodd"></path><path id="path5" d="M235.600 36.656 C 229.705 36.983,219.763 38.609,215.000 40.026 C 212.363 40.810,208.545 42.076,207.600 42.480 C 207.050 42.715,206.195 43.063,205.700 43.254 C 205.205 43.444,204.395 43.756,203.900 43.946 C 194.262 47.654,182.055 55.964,172.979 64.996 C 169.901 68.060,168.248 69.927,164.602 74.465 C 163.324 76.055,159.200 82.407,159.200 82.785 C 159.200 83.013,159.064 83.200,158.898 83.200 C 158.567 83.200,157.424 85.568,157.656 85.772 C 158.067 86.131,162.890 87.644,163.065 87.468 C 163.178 87.355,162.244 86.939,160.989 86.544 C 159.734 86.148,158.620 85.597,158.514 85.319 C 157.922 83.776,166.939 71.754,173.756 64.999 C 178.645 60.154,179.067 59.778,181.600 58.014 C 182.370 57.477,183.090 56.939,183.200 56.817 C 183.502 56.483,186.494 54.256,187.254 53.800 C 187.621 53.580,189.514 52.403,191.461 51.184 C 194.530 49.263,201.730 45.547,204.800 44.299 C 205.350 44.076,206.250 43.713,206.800 43.493 C 207.350 43.273,208.160 42.949,208.600 42.773 C 209.040 42.597,210.120 42.239,211.000 41.977 C 211.880 41.716,212.913 41.344,213.295 41.151 C 213.677 40.958,214.431 40.800,214.971 40.800 C 215.511 40.800,216.049 40.644,216.167 40.454 C 216.284 40.264,217.060 39.994,217.890 39.856 C 218.721 39.717,220.300 39.413,221.400 39.181 C 230.722 37.209,246.258 36.668,254.200 38.038 C 259.909 39.023,264.447 40.007,265.295 40.443 C 265.677 40.639,266.431 40.800,266.971 40.800 C 267.511 40.800,268.064 40.980,268.200 41.200 C 268.336 41.420,268.977 41.600,269.624 41.600 C 270.271 41.600,270.800 41.780,270.800 42.000 C 270.800 42.220,271.162 42.400,271.605 42.400 C 272.048 42.400,272.768 42.580,273.205 42.800 C 273.642 43.020,274.358 43.380,274.795 43.600 C 275.232 43.820,275.952 44.000,276.395 44.000 C 276.838 44.000,277.200 44.180,277.200 44.400 C 277.200 44.620,277.471 44.800,277.803 44.800 C 278.551 44.800,288.151 49.739,291.400 51.795 C 303.860 59.682,315.549 71.753,322.442 83.853 C 324.725 87.859,327.094 92.424,327.657 93.900 C 327.846 94.395,328.204 95.295,328.454 95.900 C 328.703 96.505,329.084 97.450,329.300 98.000 C 329.516 98.550,329.852 99.313,330.047 99.695 C 330.241 100.077,330.400 100.741,330.400 101.171 C 330.400 101.601,330.559 102.051,330.754 102.171 C 330.949 102.292,331.198 102.887,331.309 103.495 C 331.420 104.103,331.811 105.680,332.178 107.000 C 333.259 110.883,334.354 116.874,335.013 122.511 C 335.903 130.127,336.785 131.228,342.626 132.015 C 348.947 132.867,351.454 133.351,354.400 134.288 C 379.127 142.160,392.858 169.123,384.708 193.800 C 383.225 198.290,379.115 206.296,377.624 207.600 C 377.498 207.710,376.925 208.430,376.350 209.200 C 372.926 213.785,366.627 218.651,360.000 221.831 C 358.350 222.623,356.687 223.435,356.305 223.635 C 355.923 223.836,355.259 224.000,354.829 224.000 C 354.399 224.000,353.936 224.180,353.800 224.400 C 353.664 224.620,353.034 224.800,352.400 224.800 C 351.766 224.800,351.136 224.980,351.000 225.200 C 350.864 225.420,350.122 225.600,349.350 225.600 C 348.579 225.600,347.554 225.813,347.074 226.072 C 346.442 226.414,339.319 226.608,321.400 226.772 L 296.600 227.000 295.309 227.921 C 294.065 228.808,293.102 230.411,292.677 232.301 C 292.566 232.796,292.615 233.115,292.786 233.009 C 292.957 232.903,293.210 232.249,293.349 231.555 C 293.488 230.860,294.243 229.689,295.029 228.947 L 296.457 227.600 315.854 227.600 C 334.789 227.600,345.166 227.212,348.800 226.368 C 359.025 223.992,366.724 219.928,373.209 213.481 C 395.106 191.714,391.689 156.120,366.075 139.170 C 362.619 136.883,357.213 134.238,354.606 133.559 C 353.943 133.386,352.680 133.051,351.800 132.815 C 349.500 132.196,342.933 131.200,341.152 131.200 C 339.943 131.200,339.311 130.893,338.047 129.691 C 336.265 127.995,336.251 127.951,335.582 121.600 C 334.226 108.743,329.752 94.885,323.693 84.778 C 323.092 83.775,322.069 82.065,321.420 80.978 C 311.971 65.136,294.448 50.642,275.700 43.159 C 275.205 42.962,274.395 42.632,273.900 42.426 C 264.537 38.538,247.620 35.989,235.600 36.656 M239.649 49.643 C 235.138 50.568,233.036 56.705,236.163 59.818 C 237.775 61.423,239.034 61.804,243.580 62.064 C 249.480 62.400,254.851 63.209,258.900 64.370 C 259.725 64.606,260.985 64.964,261.700 65.164 C 265.298 66.172,275.724 70.726,276.400 71.584 C 276.510 71.724,277.410 72.307,278.400 72.880 C 279.390 73.453,280.847 74.434,281.638 75.061 C 282.429 75.687,283.677 76.650,284.412 77.200 C 285.146 77.750,287.109 79.518,288.773 81.128 C 293.442 85.646,295.826 86.401,299.104 84.402 C 302.963 82.048,302.935 76.836,299.045 73.469 C 298.580 73.067,297.390 71.977,296.400 71.046 C 292.699 67.568,286.933 63.281,282.547 60.745 C 279.407 58.930,271.781 55.214,271.180 55.207 C 270.839 55.203,270.389 55.057,270.180 54.882 C 269.971 54.707,269.080 54.335,268.200 54.055 C 267.320 53.776,266.240 53.404,265.800 53.229 C 260.223 51.011,243.892 48.772,239.649 49.643 M250.000 50.602 C 252.530 50.924,255.140 51.291,255.800 51.419 C 258.878 52.013,261.101 52.506,262.200 52.838 C 265.487 53.830,269.931 55.316,271.000 55.782 C 271.660 56.070,272.920 56.615,273.800 56.993 C 286.546 62.472,301.600 74.533,301.600 79.265 C 301.600 82.047,298.838 84.560,295.772 84.567 C 293.513 84.572,293.017 84.271,289.000 80.459 C 280.553 72.443,270.476 66.804,259.000 63.670 C 254.301 62.387,249.074 61.600,245.233 61.598 C 238.110 61.593,234.745 59.404,235.317 55.146 C 235.975 50.234,239.219 49.230,250.000 50.602 M163.800 88.000 C 163.936 88.220,164.309 88.400,164.629 88.400 C 164.949 88.400,165.523 88.571,165.905 88.780 C 166.287 88.989,168.220 89.924,170.200 90.857 C 184.969 97.818,198.848 111.550,205.820 126.098 C 207.610 129.834,207.604 129.828,211.104 130.376 C 219.815 131.740,232.618 136.966,235.600 140.376 C 235.710 140.502,236.500 141.126,237.355 141.764 C 240.860 144.379,245.261 149.242,248.488 154.067 C 252.417 159.941,255.172 166.584,255.190 170.224 C 255.216 175.477,247.768 177.268,245.311 172.600 C 244.218 170.525,244.000 170.023,244.000 169.586 C 244.000 169.352,243.640 168.416,243.200 167.506 C 242.760 166.595,242.400 165.614,242.400 165.325 C 242.400 165.036,242.218 164.800,241.995 164.800 C 241.762 164.800,241.860 165.439,242.226 166.300 C 242.576 167.125,243.307 168.969,243.850 170.398 C 245.048 173.549,246.330 174.966,248.534 175.577 C 253.286 176.893,257.534 171.363,255.326 166.734 C 255.081 166.220,254.654 165.170,254.377 164.400 C 248.557 148.236,233.558 135.061,216.200 130.868 C 211.890 129.826,210.685 129.600,209.452 129.600 C 208.170 129.600,208.044 129.456,206.384 126.100 C 198.617 110.394,186.129 98.127,169.798 90.163 C 164.705 87.679,163.285 87.167,163.800 88.000 M134.112 94.295 C 135.164 94.377,136.784 94.376,137.712 94.292 C 138.640 94.208,137.780 94.141,135.800 94.142 C 133.820 94.143,133.060 94.212,134.112 94.295 M125.800 94.818 C 125.289 95.049,126.082 95.092,128.000 94.938 C 129.650 94.805,131.075 94.629,131.167 94.548 C 131.527 94.228,126.551 94.478,125.800 94.818 M141.233 94.548 C 141.325 94.629,142.750 94.805,144.400 94.938 C 146.318 95.092,147.111 95.049,146.600 94.818 C 145.849 94.478,140.873 94.228,141.233 94.548 M121.600 95.600 C 120.861 96.077,121.924 96.077,123.800 95.600 L 125.000 95.295 123.600 95.253 C 122.830 95.231,121.930 95.387,121.600 95.600 M148.400 95.600 C 149.867 96.070,151.694 96.070,150.600 95.600 C 150.160 95.411,149.260 95.262,148.600 95.268 C 147.430 95.279,147.425 95.288,148.400 95.600 M308.916 95.763 C 305.142 97.136,303.537 100.865,305.153 104.504 C 305.567 105.437,306.125 106.830,306.393 107.600 C 306.661 108.370,307.018 109.360,307.185 109.800 C 307.914 111.718,308.400 113.519,308.400 114.305 C 308.400 114.771,308.580 115.264,308.800 115.400 C 309.020 115.536,309.200 115.919,309.200 116.250 C 309.200 118.889,314.401 121.052,317.334 119.632 C 322.157 117.297,322.034 111.840,316.893 99.995 C 315.291 96.303,312.093 94.607,308.916 95.763 M118.400 96.400 C 117.636 96.894,118.458 96.894,120.000 96.400 L 121.000 96.080 120.000 96.046 C 119.450 96.027,118.730 96.187,118.400 96.400 M152.200 96.400 C 153.311 96.878,154.095 96.878,153.800 96.400 C 153.664 96.180,153.068 96.013,152.476 96.028 C 151.515 96.053,151.486 96.093,152.200 96.400 M312.974 96.563 C 315.287 97.530,316.087 99.001,318.866 107.400 C 320.482 112.287,320.740 114.906,319.781 116.688 C 317.937 120.111,312.686 120.484,310.534 117.345 C 309.818 116.301,309.514 115.468,308.291 111.200 C 307.865 109.716,307.805 109.550,306.341 105.800 C 303.847 99.414,307.528 94.288,312.974 96.563 M102.681 97.358 C 103.664 98.668,105.685 100.006,106.625 99.970 C 107.131 99.950,106.946 99.774,106.089 99.464 C 105.369 99.203,104.235 98.406,103.569 97.694 C 102.150 96.176,101.653 95.988,102.681 97.358 M115.800 97.200 C 115.485 97.709,116.412 97.709,117.200 97.200 C 117.688 96.885,117.636 96.811,116.924 96.806 C 116.442 96.803,115.936 96.980,115.800 97.200 M155.000 97.200 C 156.111 97.678,156.895 97.678,156.600 97.200 C 156.464 96.980,155.868 96.813,155.276 96.828 C 154.315 96.853,154.286 96.893,155.000 97.200 M111.200 98.800 C 109.550 99.434,108.491 99.964,108.847 99.977 C 109.401 99.997,111.600 99.236,114.600 97.987 C 116.765 97.086,113.841 97.785,111.200 98.800 M157.600 98.000 C 157.930 98.213,158.470 98.388,158.800 98.388 C 159.333 98.388,159.333 98.345,158.800 98.000 C 158.470 97.787,157.930 97.612,157.600 97.612 C 157.067 97.612,157.067 97.655,157.600 98.000 M161.800 99.600 C 161.936 99.820,162.241 100.000,162.477 100.000 C 162.714 100.000,164.365 100.743,166.147 101.651 C 179.025 108.213,189.804 119.181,195.775 131.800 C 196.607 133.560,197.730 135.941,198.269 137.090 C 199.810 140.375,202.371 141.594,207.755 141.604 C 208.880 141.606,211.508 142.043,213.596 142.574 C 215.684 143.106,217.465 143.468,217.554 143.380 C 217.724 143.209,217.525 143.138,215.000 142.472 C 211.575 141.569,209.687 141.238,206.800 141.035 C 201.907 140.690,198.800 139.325,198.800 137.520 C 198.800 136.871,195.768 130.413,194.155 127.624 C 190.232 120.846,183.077 112.537,177.710 108.528 C 176.879 107.908,175.970 107.183,175.689 106.917 C 173.411 104.767,160.929 98.191,161.800 99.600 M90.414 104.876 C 90.406 105.248,90.556 105.649,90.746 105.767 C 91.247 106.077,91.602 108.689,91.329 110.056 C 91.193 110.735,89.979 112.427,88.447 114.072 C 85.102 117.665,81.731 121.844,80.922 123.400 C 80.108 124.965,80.342 124.720,82.621 121.619 C 84.487 119.080,85.551 117.830,89.278 113.800 C 92.160 110.684,92.625 108.750,91.200 105.800 C 90.775 104.920,90.421 104.504,90.414 104.876 M78.898 126.468 C 78.402 127.382,78.066 128.199,78.152 128.285 C 78.238 128.371,78.766 127.622,79.326 126.621 C 79.886 125.619,80.221 124.801,80.072 124.803 C 79.922 124.805,79.394 125.554,78.898 126.468 M74.580 134.985 C 74.219 135.747,73.988 136.565,74.068 136.804 C 74.148 137.043,74.516 136.420,74.887 135.419 C 75.685 133.268,75.511 133.023,74.580 134.985 M72.216 141.878 C 70.882 146.487,70.603 147.932,69.617 155.339 C 69.189 158.550,68.099 160.800,66.973 160.800 C 66.658 160.800,66.400 160.986,66.400 161.214 C 66.400 161.905,67.856 160.925,68.801 159.599 C 69.310 158.883,69.811 157.304,70.036 155.698 C 70.244 154.214,70.607 151.650,70.842 150.000 C 71.076 148.350,71.695 145.387,72.216 143.415 C 73.270 139.428,73.270 138.237,72.216 141.878 M223.179 146.227 C 227.824 148.721,231.497 151.528,234.845 155.143 C 236.402 156.824,237.486 157.820,237.254 157.356 C 235.578 154.005,222.930 144.368,220.259 144.407 C 220.007 144.410,221.321 145.230,223.179 146.227 M238.725 160.100 C 239.364 161.035,240.196 162.402,240.573 163.137 C 240.950 163.873,241.345 164.389,241.449 164.284 C 241.793 163.940,238.439 158.414,237.881 158.405 C 237.705 158.402,238.085 159.165,238.725 160.100 M61.200 162.000 C 60.436 162.493,61.872 162.504,64.200 162.023 L 65.800 161.692 63.800 161.652 C 62.700 161.630,61.530 161.787,61.200 162.000 M56.990 162.816 C 56.821 163.089,57.123 163.138,57.866 162.960 C 59.399 162.592,59.544 162.400,58.290 162.400 C 57.717 162.400,57.132 162.587,56.990 162.816 M53.400 164.000 C 52.520 164.407,52.070 164.741,52.400 164.741 C 52.730 164.741,53.720 164.407,54.600 164.000 C 55.480 163.593,55.930 163.259,55.600 163.259 C 55.270 163.259,54.280 163.593,53.400 164.000 M47.244 167.234 C 28.405 179.814,27.860 207.896,46.200 221.003 C 48.813 222.870,53.171 225.200,54.049 225.200 C 54.352 225.200,53.480 224.669,52.110 224.021 C 29.117 213.144,26.485 181.226,47.455 167.564 C 49.742 166.074,50.319 165.600,49.846 165.600 C 49.761 165.600,48.590 166.335,47.244 167.234 M247.722 190.382 C 246.272 191.266,245.481 192.374,244.852 194.400 C 242.609 201.629,241.000 204.985,237.566 209.599 C 233.611 214.914,229.373 218.565,223.294 221.895 C 221.592 222.827,220.414 223.592,220.675 223.595 C 221.386 223.602,225.453 221.327,228.400 219.273 C 234.749 214.847,241.249 206.434,243.599 199.600 C 243.864 198.830,244.228 197.840,244.407 197.400 C 244.586 196.960,244.967 195.745,245.254 194.700 C 246.120 191.542,247.997 190.000,250.978 190.000 C 254.928 190.000,257.051 194.082,255.540 198.772 C 252.128 209.360,248.389 215.656,241.301 222.751 C 239.053 225.001,237.638 226.721,237.764 227.051 C 237.939 227.506,241.180 227.600,256.626 227.600 C 278.444 227.600,277.208 227.334,278.933 232.400 C 279.089 232.859,279.144 232.832,279.168 232.284 C 279.220 231.122,277.734 228.582,276.523 227.761 C 275.466 227.045,274.315 226.993,256.900 226.881 C 246.725 226.816,238.400 226.660,238.400 226.535 C 238.400 226.410,240.117 224.590,242.216 222.492 C 248.607 216.101,252.761 209.025,256.001 199.014 C 258.116 192.479,253.011 187.157,247.722 190.382 M215.000 225.200 C 212.991 225.815,212.808 225.940,213.876 225.967 C 214.578 225.985,215.264 225.820,215.400 225.600 C 215.536 225.380,216.076 225.200,216.600 225.200 C 217.124 225.200,217.664 225.020,217.800 224.800 C 218.119 224.284,217.881 224.318,215.000 225.200 M55.000 225.600 C 55.136 225.820,55.642 225.987,56.124 225.972 C 56.969 225.945,56.971 225.931,56.200 225.600 C 55.099 225.127,54.708 225.127,55.000 225.600 M57.804 226.406 C 57.938 226.623,58.607 226.800,59.290 226.800 C 60.801 226.800,60.649 226.600,58.880 226.263 C 58.055 226.106,57.652 226.160,57.804 226.406 M210.000 226.400 L 208.600 226.695 210.276 226.747 C 211.198 226.776,212.064 226.620,212.200 226.400 C 212.472 225.960,212.091 225.960,210.000 226.400 M62.476 227.260 C 62.984 227.403,95.530 227.520,134.800 227.520 C 174.070 227.520,206.616 227.403,207.124 227.260 C 207.632 227.117,175.086 227.000,134.800 227.000 C 94.514 227.000,61.969 227.117,62.476 227.260 M106.823 263.648 C 92.730 277.759,81.200 289.523,81.200 289.790 C 81.200 291.589,81.375 291.603,104.231 291.553 C 116.094 291.527,125.260 291.368,124.600 291.200 C 123.940 291.032,114.079 290.873,102.687 290.847 C 84.091 290.805,81.950 290.735,81.729 290.160 C 81.550 289.694,88.409 282.592,106.840 264.160 L 132.198 238.800 152.899 238.800 C 169.150 238.800,173.600 238.907,173.600 239.298 C 173.600 239.572,166.867 246.547,158.639 254.798 C 149.658 263.803,143.581 270.200,143.436 270.800 L 143.196 271.800 143.668 270.800 C 143.928 270.250,150.904 263.002,159.171 254.693 C 167.437 246.384,174.200 239.274,174.200 238.893 C 174.200 238.246,172.820 238.193,153.323 238.096 L 132.446 237.993 106.823 263.648 M143.235 274.000 C 143.176 275.185,145.521 277.960,146.600 277.983 C 146.820 277.987,146.408 277.525,145.684 276.954 C 144.961 276.384,144.120 275.351,143.817 274.659 C 143.514 273.966,143.252 273.670,143.235 274.000 M169.600 278.392 C 182.030 278.506,192.448 278.760,192.752 278.956 C 193.141 279.207,193.249 279.148,193.119 278.756 C 192.963 278.290,189.207 278.199,169.967 278.192 L 147.000 278.184 169.600 278.392 M189.271 282.967 C 185.786 285.357,184.213 286.569,185.600 285.793 C 186.990 285.015,193.200 280.764,193.200 280.590 C 193.200 280.276,193.136 280.315,189.271 282.967 M126.400 291.707 C 126.400 292.072,128.453 294.080,128.638 293.895 C 128.723 293.811,128.254 293.226,127.596 292.596 C 126.938 291.966,126.400 291.566,126.400 291.707 M172.744 293.987 C 172.225 294.419,171.943 294.779,172.117 294.787 C 172.291 294.794,172.820 294.440,173.292 294.000 C 174.399 292.969,173.979 292.958,172.744 293.987 M128.957 295.614 C 129.338 298.885,130.398 297.705,97.153 331.006 C 79.799 348.389,65.600 362.902,65.600 363.257 C 65.600 364.785,67.729 365.128,69.045 363.812 C 69.310 363.547,70.443 362.742,71.563 362.024 C 72.684 361.305,73.600 360.625,73.600 360.512 C 73.600 360.307,73.152 360.579,69.313 363.116 C 67.180 364.526,66.000 364.599,66.000 363.321 C 66.000 362.922,79.668 348.933,97.573 331.008 C 131.639 296.904,130.411 298.287,129.237 295.321 C 128.798 294.212,128.795 294.215,128.957 295.614 M149.178 309.716 C 126.044 325.241,126.104 325.200,126.499 325.200 C 126.652 325.200,136.437 318.727,148.245 310.814 C 160.052 302.902,169.913 296.357,170.157 296.269 C 170.400 296.181,170.502 296.002,170.382 295.870 C 170.262 295.739,160.721 301.969,149.178 309.716 M117.000 331.296 C 107.913 337.417,106.172 338.636,107.200 338.158 C 108.689 337.465,126.195 325.643,125.967 325.484 C 125.875 325.420,121.840 328.035,117.000 331.296 M105.200 339.220 L 104.200 340.022 105.300 339.547 C 105.905 339.285,106.400 338.920,106.400 338.736 C 106.400 338.279,106.345 338.302,105.200 339.220 M102.794 340.818 C 102.247 341.239,101.980 341.580,102.200 341.578 C 102.729 341.573,104.191 340.458,103.965 340.231 C 103.868 340.134,103.341 340.398,102.794 340.818 M99.194 343.218 C 98.647 343.639,98.380 343.980,98.600 343.978 C 99.129 343.973,100.591 342.858,100.365 342.631 C 100.268 342.534,99.741 342.798,99.194 343.218 M90.917 348.759 C 84.893 352.849,82.082 354.890,84.000 353.781 C 87.153 351.958,98.170 344.434,97.967 344.243 C 97.875 344.156,94.703 346.189,90.917 348.759 M75.493 359.014 C 74.672 359.572,74.000 360.115,74.000 360.220 C 74.000 360.325,74.720 359.935,75.600 359.353 C 76.997 358.428,77.470 358.000,77.093 358.000 C 77.034 358.000,76.314 358.456,75.493 359.014 " stroke="none" fill="#2c2c2c" fill-rule="evenodd"></path></g></svg>